<svg xmlns="http://www.w3.org/2000/svg" viewBox="0 0 653.16 653.33"><defs><style>.cls-1{fill:#917c3d;}.cls-2{fill:#fff;}.cls-3{fill:#030301;}</style></defs><title>Asset 2</title><g id="Layer_2" data-name="Layer 2"><g id="Layer_1-2" data-name="Layer 1"><path class="cls-1" d="M653.16,326.76c0,180.31-146.42,326.68-326.58,326.57C146,653.22-.09,507,0,326.54S146.32-.08,326.57,0C507.05.08,653.2,146.31,653.16,326.76Zm-32.53-.14c.53-159.91-129.18-294.08-294-294.12-163.85,0-294.18,133-294.2,294.06,0,161.8,130.79,293.67,293,294.26C490,621.42,621.17,487.61,620.63,326.62Z"/><path class="cls-2" d="M620.63,326.62c.54,161-130.63,294.8-295.23,294.2-162.22-.59-293-132.46-293-294.26,0-161.1,130.35-294.1,294.2-294.06C491.45,32.54,621.16,166.71,620.63,326.62ZM237.57,127.41c-6.17.08-11.11,1.47-15.41,5.43-8.22,7.55-16.79,14.7-26.54,20.28a35.22,35.22,0,0,0-4.27,3c-4.33,3.36-5.76,8.05-4.87,13.14.83,4.68,4.45,7.22,8.9,8.51a27.2,27.2,0,0,0,2.68.58c5,.9,10.14.22,15.2.88,4.09.54,7.69,1.63,10.59,4.84,2,2.23,3.92,4.52,5.72,6.92,5.07,6.79,9.16,14.2,13.23,21.6,21.61,39.32,42.34,79.11,62.67,119.1a9.4,9.4,0,0,1,.92,6A47,47,0,0,1,301.34,352c-5.8,11.34-12.37,22.24-18.77,33.24C276,396.6,270,408.39,262.79,419.35c-10.56,16-23.31,30.39-37.12,43.74-4.17,4-8.34,8.26-14.33,9.63-3.48.8-7,1.48-10.5,2.11-6.55,1.17-13.17,2.07-19.35,4.7s-7.93,7-5.13,13.25A13,13,0,0,0,178,495.6c6.41,8,13.71,15,23.32,19.12,10.64,4.55,20.63,3.2,29.86-3.79,8.44-6.39,15.46-14.21,21.79-22.6a484.93,484.93,0,0,0,54.2-91.53c4.45-9.77,8.91-19.53,14.94-28.47,1.56-2.32,1.61-2.33,3.3-.08a169.8,169.8,0,0,1,14.75,24.29c9.54,18.48,18,37.52,28.09,55.7a152.43,152.43,0,0,0,31.27,39c13.48,12.18,30,19.21,46.58,26.1a8.54,8.54,0,0,0,4.43.24,33.9,33.9,0,0,0,18-8.05c11-9.17,20.47-19.78,29.43-30.89a7,7,0,0,0,1.23-7.17c-1.19-3.7-3.93-5.6-7.5-6.63-4.7-1.35-9.25-.07-13.79.82-5.62,1.09-10.66.82-15.39-3.13-6.29-5.25-12.81-10.24-18.95-15.67-6.73-6-11.72-13.4-16.73-20.76-16.92-24.87-31.5-51.14-46.06-77.41-7.94-14.33-15.84-28.68-22.22-43.82a15.55,15.55,0,0,1,0-12.71,133,133,0,0,1,12.43-23c18.84-28.3,39.32-55.39,60.41-82a31.5,31.5,0,0,1,8.77-7.63c6.53-3.88,12.81-8.09,18.12-13.6a21.86,21.86,0,0,0,4.19-5.87c2.37-5.1,1.6-9.62-2.63-13.33a38.84,38.84,0,0,0-15.6-8.62,17.34,17.34,0,0,0-15.63,2.78c-1.73,1.29-3.47,2.59-5.07,4-11.48,10.47-20.57,22.87-28.87,35.92-12.59,19.81-23.93,40.35-35.9,60.53-5.18,8.73-10.36,17.48-16.48,25.6-2.71,3.59-2.06,3.58-4.75.07a85.65,85.65,0,0,1-8.39-13.86q-8.77-17.37-17.5-34.76c-8.76-17.47-17.2-35.12-28.33-51.27-6.52-9.46-13-19-22.08-26.33C254.13,131.08,246.17,127.62,237.57,127.41Z"/><path class="cls-1" d="M237.57,127.41c8.6.21,16.56,3.67,23.59,9.4,9,7.36,15.56,16.87,22.08,26.33,11.13,16.15,19.57,33.8,28.33,51.27q8.71,17.39,17.5,34.76A85.65,85.65,0,0,0,337.46,263c2.69,3.51,2,3.52,4.75-.07,6.12-8.12,11.3-16.87,16.48-25.6,12-20.18,23.31-40.72,35.9-60.53,8.3-13.05,17.39-25.45,28.87-35.92,1.6-1.46,3.34-2.76,5.07-4a17.34,17.34,0,0,1,15.63-2.78,38.84,38.84,0,0,1,15.6,8.62c4.23,3.71,5,8.23,2.63,13.33a21.86,21.86,0,0,1-4.19,5.87c-5.31,5.51-11.59,9.72-18.12,13.6a31.5,31.5,0,0,0-8.77,7.63c-21.09,26.64-41.57,53.73-60.41,82a133,133,0,0,0-12.43,23,15.55,15.55,0,0,0,0,12.71c6.38,15.14,14.28,29.49,22.22,43.82,14.56,26.27,29.14,52.54,46.06,77.41,5,7.36,10,14.8,16.73,20.76,6.14,5.43,12.66,10.42,18.95,15.67,4.73,3.95,9.77,4.22,15.39,3.13,4.54-.89,9.09-2.17,13.79-.82,3.57,1,6.31,2.93,7.5,6.63a7,7,0,0,1-1.23,7.17c-9,11.11-18.45,21.72-29.43,30.89a33.9,33.9,0,0,1-18,8.05,8.54,8.54,0,0,1-4.43-.24c-16.55-6.89-33.1-13.92-46.58-26.1a152.43,152.43,0,0,1-31.27-39c-10.12-18.18-18.55-37.22-28.09-55.7a169.8,169.8,0,0,0-14.75-24.29c-1.69-2.25-1.74-2.24-3.3.08-6,8.94-10.49,18.7-14.94,28.47a484.93,484.93,0,0,1-54.2,91.53c-6.33,8.39-13.35,16.21-21.79,22.6-9.23,7-19.22,8.34-29.86,3.79-9.61-4.1-16.91-11.1-23.32-19.12a13,13,0,0,1-1.59-2.82c-2.8-6.24-1.16-10.58,5.13-13.25s12.8-3.53,19.35-4.7c3.51-.63,7-1.31,10.5-2.11,6-1.37,10.16-5.6,14.33-9.63,13.81-13.35,26.56-27.7,37.12-43.74,7.21-11,13.16-22.75,19.78-34.1,6.4-11,13-21.9,18.77-33.24a47,47,0,0,0,5.05-14.29,9.4,9.4,0,0,0-.92-6c-20.33-40-41.06-79.78-62.67-119.1-4.07-7.4-8.16-14.81-13.23-21.6-1.8-2.4-3.7-4.69-5.72-6.92-2.9-3.21-6.5-4.3-10.59-4.84-5.06-.66-10.17,0-15.2-.88a27.2,27.2,0,0,1-2.68-.58c-4.45-1.29-8.07-3.83-8.9-8.51-.89-5.09.54-9.78,4.87-13.14a35.22,35.22,0,0,1,4.27-3c9.75-5.58,18.32-12.73,26.54-20.28C226.46,128.88,231.4,127.49,237.57,127.41ZM236,135.75c-2.81-.44-5.9,1.06-8.83,3.66-5.53,4.91-11.1,9.81-17.08,14.17-4.24,3.09-9,5.42-13.14,8.62-2,1.5-2.93,3.42-2.19,5.62.68,2,2.91,2.34,4.81,2.48,3.82.27,7.65.38,11.47.53,8,.31,15,2.64,20.25,9.07a133.4,133.4,0,0,1,11.87,16.94c13.57,23.09,25.81,46.91,38.4,70.53,11,20.61,21.38,41.53,32.06,62.3a9.75,9.75,0,0,1,1.07,4.28c.26,7.83-2.46,14.82-5.94,21.61-5.62,11-11.93,21.54-18.08,32.2-6.44,11.16-12.37,22.64-19.32,33.47-12.15,18.92-27.07,35.63-43.44,51a36,36,0,0,1-17.66,9.21c-7.86,1.64-15.9,2.42-23.59,4.86-3.6,1.15-3.87,1.87-1.7,5a5.18,5.18,0,0,0,.47.58c4,4.2,8.11,8.38,12.91,11.75,10.86,7.62,20.44,7.25,30.22-1a108.47,108.47,0,0,0,15-15.7c17.83-22.62,32.72-47.13,46-72.64,6.54-12.6,12.3-25.61,18.58-38.36,3.27-6.64,6.85-13.14,12.39-18.28,3.05-2.83,3.22-2.82,6.21,0,6,5.64,10.24,12.63,14.37,19.65,8.83,15,15.72,31,23.6,46.46,5.92,11.62,11.46,23.48,19.37,34,6.67,8.86,13.71,17.46,22.19,24.64,12,10.16,26.39,16.25,40.6,22.54a7.9,7.9,0,0,0,5.36.14,30.21,30.21,0,0,0,11.07-6.1c10.12-8.12,18.73-17.72,26.83-27.79.39-.49,1.19-.87.81-1.65s-1.12-.55-1.78-.66c-4.46-.72-8.7.8-13,1.38-5.64.76-10.85.45-15.64-3.08-9.24-6.82-18.31-13.88-26.31-22.09-8.69-8.91-15.25-19.53-21.94-30C399,394.38,386.93,373,375.06,351.51c-8.56-15.5-17.15-31-24.12-47.31a23.83,23.83,0,0,1-.19-18.81c3.81-9.95,9.35-18.94,15.23-27.7,17.41-25.92,36.17-50.85,55.52-75.34,3.47-4.39,6.41-9.36,11.57-12.22,2.39-1.33,4.65-2.88,7-4.32a57.25,57.25,0,0,0,13.24-10.88c3.09-3.51,3-4.9-.82-7.51a60.48,60.48,0,0,0-6.85-4.06c-5.33-2.71-10.06-2.15-14.68,1.84-7.35,6.36-13.56,13.74-19.41,21.41-8,10.47-14.58,21.86-21.35,33.13-11.34,18.9-21.82,38.3-33.68,56.89-3.44,5.39-6.81,10.85-11.34,15.44-3.27,3.33-6.77,3.42-10.27.3a33.5,33.5,0,0,1-5.52-6.41c-5.79-8.57-10.06-18-14.77-27.12-10.53-20.46-19.88-41.54-31.87-61.23-6.89-11.31-14.11-22.45-23.8-31.63C252.87,140.23,246,135.76,236,135.75Z"/><path class="cls-3" d="M236,135.75c10,0,16.85,4.48,22.91,10.23,9.69,9.18,16.91,20.32,23.8,31.63,12,19.69,21.34,40.77,31.87,61.23,4.71,9.16,9,18.55,14.77,27.12a33.5,33.5,0,0,0,5.52,6.41c3.5,3.12,7,3,10.27-.3,4.53-4.59,7.9-10.05,11.34-15.44,11.86-18.59,22.34-38,33.68-56.89,6.77-11.27,13.37-22.66,21.35-33.13,5.85-7.67,12.06-15.05,19.41-21.41,4.62-4,9.35-4.55,14.68-1.84a60.48,60.48,0,0,1,6.85,4.06c3.79,2.61,3.91,4,.82,7.51a57.25,57.25,0,0,1-13.24,10.88c-2.33,1.44-4.59,3-7,4.32C427.91,173,425,178,421.5,182.35c-19.35,24.49-38.11,49.42-55.52,75.34-5.88,8.76-11.42,17.75-15.23,27.7a23.83,23.83,0,0,0,.19,18.81c7,16.33,15.56,31.81,24.12,47.31C386.93,373,399,394.38,412.21,415.05c6.69,10.44,13.25,21.06,21.94,30,8,8.21,17.07,15.27,26.31,22.09,4.79,3.53,10,3.84,15.64,3.08,4.32-.58,8.56-2.1,13-1.38.66.11,1.44,0,1.78.66s-.42,1.16-.81,1.65c-8.1,10.07-16.71,19.67-26.83,27.79a30.21,30.21,0,0,1-11.07,6.1,7.9,7.9,0,0,1-5.36-.14c-14.21-6.29-28.59-12.38-40.6-22.54-8.48-7.18-15.52-15.78-22.19-24.64-7.91-10.49-13.45-22.35-19.37-34-7.88-15.48-14.77-31.46-23.6-46.46-4.13-7-8.33-14-14.37-19.65-3-2.79-3.16-2.8-6.21,0-5.54,5.14-9.12,11.64-12.39,18.28-6.28,12.75-12,25.76-18.58,38.36-13.24,25.51-28.13,50-46,72.64a108.47,108.47,0,0,1-15,15.7c-9.78,8.25-19.36,8.62-30.22,1-4.8-3.37-8.87-7.55-12.91-11.75a5.18,5.18,0,0,1-.47-.58c-2.17-3.1-1.9-3.82,1.7-5,7.69-2.44,15.73-3.22,23.59-4.86a36,36,0,0,0,17.66-9.21c16.37-15.39,31.29-32.1,43.44-51,6.95-10.83,12.88-22.31,19.32-33.47,6.15-10.66,12.46-21.24,18.08-32.2,3.48-6.79,6.2-13.78,5.94-21.61a9.75,9.75,0,0,0-1.07-4.28C303,308.9,292.57,288,281.58,267.37c-12.59-23.62-24.83-47.44-38.4-70.53a133.4,133.4,0,0,0-11.87-16.94c-5.27-6.43-12.28-8.76-20.25-9.07-3.82-.15-7.65-.26-11.47-.53-1.9-.14-4.13-.45-4.81-2.48-.74-2.2.23-4.12,2.19-5.62,4.17-3.2,8.9-5.53,13.14-8.62,6-4.36,11.55-9.26,17.08-14.17C230.12,136.81,233.21,135.31,236,135.75Z"/></g></g></svg>