<svg xmlns="http://www.w3.org/2000/svg" viewBox="0 0 251.48 261.93"><defs><style>.cls-1{fill:#8f7a3c;}.cls-2{fill:#fff;}.cls-3{fill:#8f7b3c;}.cls-4{fill:#030301;}</style></defs><title>unknown result</title><g id="Layer_2" data-name="Layer 2"><g id="Layer_1-2" data-name="Layer 1"><path class="cls-1" d="M0,131C-.07,58.82,56.12,0,125.76,0,195.2,0,251.48,58.57,251.48,131c0,72.6-56.8,131.62-127,130.94C56,261.26,0,203.19,0,131ZM125.73,248.93c62.55,0,112.46-52.57,113.27-116.28C239.83,66.75,189,13.8,127.23,13,64.07,12.18,12.48,65.32,12.46,130.92,12.45,196.07,63.16,249,125.73,248.93Z"/><path class="cls-2" d="M125.73,248.93c-62.57,0-113.28-52.86-113.27-118C12.48,65.32,64.07,12.18,127.23,13,189,13.8,239.83,66.75,239,132.65,238.19,196.36,188.28,248.94,125.73,248.93ZM74.49,119.07c.05,1.13.07,2.76.2,4.38a74.08,74.08,0,0,0,4.61,20.18c1.4,3.78,4.1,4.92,7.7,4.08,3.83-.89,6.66-3.47,9.24-6.36a3.32,3.32,0,0,0,.79-2.8c-.11-.71-.23-1.43-.33-2.15-.57-3.76-1.16-7.53-1.7-11.3-.41-2.88-.72-5.76-1.14-8.63a69.91,69.91,0,0,1-.9-16.22,33.25,33.25,0,0,1,3.17-12.32A49.78,49.78,0,0,1,112.61,69c8.12-5.59,17-8.71,26.84-7.9a24.11,24.11,0,0,1,13.28,5.16,18.64,18.64,0,0,1,6.31,8.5A42.44,42.44,0,0,1,161.18,86a58.83,58.83,0,0,1-1.13,15c-3.1,16.78-10.09,31.8-19.4,45.7-4.24,6.34-9.77,11.49-15.31,16.59-4,3.72-8.06,7.47-12.26,11-.23.19-.3.34-.11.59a2.9,2.9,0,0,1,.48,2.16c-.06.53.18.64.63.62a17.87,17.87,0,0,0,3.71-.55,48.57,48.57,0,0,0,11.73-5.42,123.58,123.58,0,0,0,19.83-15A120.83,120.83,0,0,0,173,128c5.72-9.69,9.56-20,10.32-31.47a51.14,51.14,0,0,0-4.21-24.48c-3.52-8-8.54-14.6-15.74-19.34a29.22,29.22,0,0,0-22-4.66A95.21,95.21,0,0,0,128,51.67a67.24,67.24,0,0,0-19.17,9.52C101.08,67,94.36,73.89,87.89,81.1A46.53,46.53,0,0,0,83.37,87C77.24,96.57,74.61,107.19,74.49,119.07ZM120.69,208c.3.12.62-.18,1-.46l2.92-2.43c2.73-2.27,5.37-4.64,7.9-7.16a3,3,0,0,0,.82-3.23,10.21,10.21,0,0,0-1.63-3.12,37.13,37.13,0,0,0-8.36-8.15c-3.26-2.27-4.37-2-7.25.21l-.24.2a60.06,60.06,0,0,0-7.3,7.57,10.54,10.54,0,0,0-1,1.52,4.54,4.54,0,0,0-.2,4.35,8.93,8.93,0,0,0,1.25,2.05,38,38,0,0,0,9,7.61A6.93,6.93,0,0,0,120.69,208Z"/><path class="cls-1" d="M74.49,119.07c.12-11.88,2.75-22.5,8.88-32a46.53,46.53,0,0,1,4.52-5.92c6.47-7.21,13.19-14.14,20.93-19.91A67.24,67.24,0,0,1,128,51.67a95.21,95.21,0,0,1,13.44-3.61,29.22,29.22,0,0,1,22,4.66c7.2,4.74,12.22,11.38,15.74,19.34a51.14,51.14,0,0,1,4.21,24.48C182.59,108,178.75,118.32,173,128a120.83,120.83,0,0,1-23.68,28.65,123.58,123.58,0,0,1-19.83,15,48.57,48.57,0,0,1-11.73,5.42,17.87,17.87,0,0,1-3.71.55c-.45,0-.69-.09-.63-.62a2.9,2.9,0,0,0-.48-2.16c-.19-.25-.12-.4.11-.59,4.2-3.53,8.22-7.28,12.26-11,5.54-5.1,11.07-10.25,15.31-16.59,9.31-13.9,16.3-28.92,19.4-45.7a58.83,58.83,0,0,0,1.13-15A42.44,42.44,0,0,0,159,74.78a18.64,18.64,0,0,0-6.31-8.5,24.11,24.11,0,0,0-13.28-5.16c-9.87-.81-18.72,2.31-26.84,7.9A49.78,49.78,0,0,0,96.13,87.93,33.25,33.25,0,0,0,93,100.25a69.91,69.91,0,0,0,.9,16.22c.42,2.87.73,5.75,1.14,8.63.54,3.77,1.13,7.54,1.7,11.3.1.72.22,1.44.33,2.15a3.32,3.32,0,0,1-.79,2.8c-2.58,2.89-5.41,5.47-9.24,6.36-3.6.84-6.3-.3-7.7-4.08a74.08,74.08,0,0,1-4.61-20.18C74.56,121.83,74.54,120.2,74.49,119.07Zm45.45,53.76a61.66,61.66,0,0,0,10.17-5.35,129.39,129.39,0,0,0,19.39-15.37,114.74,114.74,0,0,0,20.57-25.37c5.59-9.35,9.4-19.31,10.13-30.43A47.94,47.94,0,0,0,176,72.75,40.1,40.1,0,0,0,162.32,55.9a26.39,26.39,0,0,0-20.55-4.57,101.61,101.61,0,0,0-12.69,3.43,63.64,63.64,0,0,0-21.39,11.37,152.93,152.93,0,0,0-13.61,13,68.64,68.64,0,0,0-8.3,10c-5.5,8.75-8,18.43-8.11,28.8a62.86,62.86,0,0,0,2.54,18.3c.62,2.19,1.33,4.34,2.16,6.45.34.87.75,1.73,1.79,1.86a6,6,0,0,0,2.85-.24,17.24,17.24,0,0,0,6.58-4.84,1,1,0,0,0,.25-1c-.41-2.68-.8-5.35-1.18-8-.66-4.58-1.26-9.16-2-13.73A69.39,69.39,0,0,1,90,98.12a35.08,35.08,0,0,1,2.76-10.47c7.4-16.16,24-28.56,40.8-29.85a30.36,30.36,0,0,1,15.88,2.64c6.13,3,10.76,7.46,13,14.32a46,46,0,0,1,2,12.81,65.55,65.55,0,0,1-1.24,13.83c-3.21,17.4-10.42,33-20.1,47.37-4,6-9.21,10.93-14.41,15.81-2.93,2.74-5.89,5.43-8.84,8.14,0,0-.09.1-.08.11S119.88,172.89,119.94,172.83Z"/><path class="cls-3" d="M120.69,208a6.93,6.93,0,0,1-3.19-1,38,38,0,0,1-9-7.61,8.93,8.93,0,0,1-1.25-2.05,4.54,4.54,0,0,1,.2-4.35,10.54,10.54,0,0,1,1-1.52,60.06,60.06,0,0,1,7.3-7.57l.24-.2c2.88-2.21,4-2.48,7.25-.21a37.13,37.13,0,0,1,8.36,8.15,10.21,10.21,0,0,1,1.63,3.12,3,3,0,0,1-.82,3.23c-2.53,2.52-5.17,4.89-7.9,7.16l-2.92,2.43C121.31,207.81,121,208.11,120.69,208Zm-.93-22.81a2,2,0,0,0-1,.51,43.72,43.72,0,0,0-8.18,8.35c-.88,1.15-.89,1.41,0,2.57a28.73,28.73,0,0,0,9.12,7.78c.41.24.66,0,1-.22,3-2.47,6-5.07,8.85-7.76.88-.83.91-.86.25-1.86a30.11,30.11,0,0,0-9.29-9A6,6,0,0,0,119.76,185.18Z"/><path class="cls-4" d="M119.84,172.72c3-2.71,5.91-5.4,8.84-8.14,5.2-4.88,10.37-9.82,14.41-15.81,9.68-14.39,16.89-30,20.1-47.37a65.55,65.55,0,0,0,1.24-13.83,46,46,0,0,0-2-12.81c-2.21-6.86-6.84-11.35-13-14.32a30.36,30.36,0,0,0-15.88-2.64c-16.8,1.29-33.4,13.69-40.8,29.85A35.08,35.08,0,0,0,90,98.12a69.39,69.39,0,0,0,.72,18.65c.69,4.57,1.29,9.15,2,13.73.38,2.68.77,5.35,1.18,8a1,1,0,0,1-.25,1A17.24,17.24,0,0,1,87,144.33a6,6,0,0,1-2.85.24c-1-.13-1.45-1-1.79-1.86-.83-2.11-1.54-4.26-2.16-6.45A62.86,62.86,0,0,1,77.67,118c.16-10.37,2.61-20,8.11-28.8a68.64,68.64,0,0,1,8.3-10,152.93,152.93,0,0,1,13.61-13,63.64,63.64,0,0,1,21.39-11.37,101.61,101.61,0,0,1,12.69-3.43,26.39,26.39,0,0,1,20.55,4.57A40.1,40.1,0,0,1,176,72.75a47.94,47.94,0,0,1,4.24,23.56c-.73,11.12-4.54,21.08-10.13,30.43a114.74,114.74,0,0,1-20.57,25.37,129.39,129.39,0,0,1-19.39,15.37,61.66,61.66,0,0,1-10.17,5.35Z"/><path class="cls-4" d="M119.94,172.83c-.06.06-.13.09-.18,0s0-.07.08-.11Z"/><path class="cls-4" d="M119.76,185.18a6,6,0,0,1,.68.33,30.11,30.11,0,0,1,9.29,9c.66,1,.63,1-.25,1.86-2.87,2.69-5.81,5.29-8.85,7.76-.31.24-.56.46-1,.22a28.73,28.73,0,0,1-9.12-7.78c-.85-1.16-.84-1.42,0-2.57a43.72,43.72,0,0,1,8.18-8.35A2,2,0,0,1,119.76,185.18Z"/></g></g></svg>