<svg xmlns="http://www.w3.org/2000/svg" viewBox="0 0 323.36 54.56"><defs><style>.cls-1{fill:#fff;stroke:#947b2f;stroke-miterlimit:10;}</style></defs><title>planechase logo</title><g id="Layer_2" data-name="Layer 2"><g id="Layer_1-2" data-name="Layer 1"><path class="cls-1" d="M16,6.58c.7,0,1.85-.62,3.45-1.87a32.55,32.55,0,0,1,4.43-3.08A11,11,0,0,1,29.08.5h4.58a15.19,15.19,0,0,1,7.42,2.25A20.42,20.42,0,0,1,47.61,9a15.41,15.41,0,0,1,2.55,8.62v5.11c0,2.34-.93,5.07-2.78,8.17a26.68,26.68,0,0,1-7.13,7.87,14.76,14.76,0,0,1-8.84,3.3h-3.9l-7-1.41a1.38,1.38,0,0,0-1.14,1.57v6.43c0,1.45.43,2.18,1.29,2.18h9.23a73.08,73.08,0,0,1,9.82.66c3.2.46,4.8,1,4.8,1.52a1,1,0,0,1-1,1.06L34,53H15a44.73,44.73,0,0,0-5.79.53,47.77,47.77,0,0,1-5.09.53,3.67,3.67,0,0,1-1.43-.15c-.15-.06-.22-.44-.22-1.14,0-.45.3-.75.89-.9s1.8-.2,3.59-.3,2.9-.11,3.31-.16q2.38-.3,2.39-7.42V28q-.32-4.11-1-10.7T10.1,8.76q-.39-1.06-5-1.89T.5,5.46C.5,4.75.9,4.4,1.71,4.4c1.74.35,4.19.81,7.34,1.35A44,44,0,0,0,16,6.58ZM26.76,4.25a7.25,7.25,0,0,0-5.7,2.26C19.66,8,19,9.28,19,10.33V24.87c0,4.46.42,7.36,1.26,8.72.9,1.14,3.16,2.29,6.76,3.44s6,1.79,7.2,1.79q2.94,0,4.9-3.15a23.83,23.83,0,0,0,2.91-7,28.49,28.49,0,0,0,.9-6.23,19.56,19.56,0,0,0-4.34-13A14.61,14.61,0,0,0,26.76,4.25Z"/><path class="cls-1" d="M62.92,1.63c.2,1.06.29,6,.29,14.86s0,19.44-.14,31.64Q66.82,46,67.55,46c.5.11.75.29.75.53,0,.55-.92,1.42-2.76,2.62a17.68,17.68,0,0,1-4.87,2.33c-1.86.56-3.26.93-4.21,1.13q-.15-.15-.15-9.45t.07-18.38q0-9.06.08-13.57a1.43,1.43,0,0,0,.07-.46,3.21,3.21,0,0,0-.82-1.94,26,26,0,0,0-2.4-2.54C52.47,5.53,52,5.08,52,4.93a18.47,18.47,0,0,1,3.37-1.5q2.63-1,5-1.65a8.48,8.48,0,0,1,2-.38C62.77,1.4,62.92,1.48,62.92,1.63Z"/><path class="cls-1" d="M70.26,30.05A2.79,2.79,0,0,1,70,28.84a3.07,3.07,0,0,1,1.57-2.39,19.67,19.67,0,0,1,6.16-2.62,26.89,26.89,0,0,1,6.44-1,19.31,19.31,0,0,1,7.44,1.94C94.52,26.15,96,27.73,96,29.52V44a8.6,8.6,0,0,0,.53,2,3.34,3.34,0,0,0,1.58,2,19.82,19.82,0,0,0,3.29,1.19,5.67,5.67,0,0,1,1.36.53,1.1,1.1,0,0,1,.14.68c0,.4-.6.95-1.79,1.65a6.08,6.08,0,0,1-2.71,1.13,12.48,12.48,0,0,1-5.17-.82,11,11,0,0,1-3.22-2A4.37,4.37,0,0,0,87.75,49a4.32,4.32,0,0,0-2.4,1.28,17.27,17.27,0,0,1-3.22,2.11,11,11,0,0,1-5,.9q-4.12,0-5.85-1.14a3.73,3.73,0,0,1-1.81-3.51q0-3.15,3.15-5.55a20.53,20.53,0,0,1,6-3.22l4.58-1.74a16.54,16.54,0,0,0,3.67-1.87A2.78,2.78,0,0,0,88.26,34a6.56,6.56,0,0,0-2.47-5.47,8.35,8.35,0,0,0-5.25-1.95,8.56,8.56,0,0,0-2.24.66c-1.21.5-1.81.9-1.81,1.21s.38.73,1.13,1,1,.58,1,1-.58.73-1.72,1.28a6.16,6.16,0,0,1-2.62.61,7.06,7.06,0,0,1-1-.08A4.14,4.14,0,0,1,70.26,30.05Zm17.49,8.63a40.69,40.69,0,0,0-7.12,3.53Q77.16,44.37,77.17,46c0,1.85.75,3,2.25,3.53a4.51,4.51,0,0,0,1.43.22,6.88,6.88,0,0,0,3.68-1.35,7.74,7.74,0,0,0,3.29-4.88,12.75,12.75,0,0,0,.3-2.61A5.84,5.84,0,0,0,87.75,38.68Z"/><path class="cls-1" d="M113.92,28.55q0-.07,4.12-2.25A22.1,22.1,0,0,1,124,23.9a9.61,9.61,0,0,1,1.19-.07,6.71,6.71,0,0,1,5.4,2.62q2.64,3.15,2.64,10.36a48.45,48.45,0,0,1-.68,6.74,32.83,32.83,0,0,0-.6,4.5,1.14,1.14,0,0,0,.07.46.43.43,0,0,0,.38.22,3.44,3.44,0,0,0,1.65-.9c1.1-.8,2.07-1.48,2.91-2a1.66,1.66,0,0,1,.84-.29q.53,0,.66.75c-1.29,1-3.09,2.28-5.4,3.82a16.45,16.45,0,0,1-4.94,2.7,2.15,2.15,0,0,1-.53.07c-.44,0-.72-.15-.83-.44a2.06,2.06,0,0,1-.07-.6,5.1,5.1,0,0,1,.16-1.21,9.38,9.38,0,0,0,.22-1.72c.1-1.41.15-2.8.15-4.2a59.17,59.17,0,0,0-.46-7.43c-.44-3.75-1.38-6.5-2.84-8.24A3.7,3.7,0,0,0,121,27.65a6.61,6.61,0,0,0-3.15,1,11.36,11.36,0,0,0-2.25,1.51,2.7,2.7,0,0,0-.75,1.64,24.36,24.36,0,0,0-.22,4.12c0,1.91.07,4.19.07,6.83A20.18,20.18,0,0,1,113.31,50a5.54,5.54,0,0,1-4.94,3.66V51.59q-.08-1.81,0-5V44.08c0-3.25-.08-6-.22-8.33q-.32-4.28-1.5-5.7a12.46,12.46,0,0,0-2-1.86c-.74-.46-1.11-.86-1.11-1.21a33.16,33.16,0,0,1,2.76-1.87,5.55,5.55,0,0,1,2.33-.9h.14a5.62,5.62,0,0,1,3,2.16C112.79,27.73,113.51,28.45,113.92,28.55Z"/><path class="cls-1" d="M139.94,38.31q.52-8.33,4.28-11.48t9.67-3.15a7.55,7.55,0,0,1,3.29.61A14.06,14.06,0,0,1,160,26.23c1,.85,1.67,1.28,2,1.28a9,9,0,0,0,1.14-.53,3.36,3.36,0,0,1,1.5-.53c.5,0,.75.35.75,1.06a29.55,29.55,0,0,1-3.76,2.32c-1,.55-2.94,1.52-5.84,2.92a74.43,74.43,0,0,0-6.9,3.82c-1.71,1.16-2.56,2.14-2.56,2.93a10.41,10.41,0,0,0,2.56,7.12,8.51,8.51,0,0,0,7,3,7.9,7.9,0,0,0,4.56-1.94q2.49-1.89,3-1.89a.75.75,0,0,1,.68.38,3.56,3.56,0,0,1,.31.68L163,48.35c-.5.54-1.32,1.4-2.47,2.56a34.76,34.76,0,0,1-4.36,1.79,14.27,14.27,0,0,1-4.94,1.12,10.38,10.38,0,0,1-5.55-1.72,11.4,11.4,0,0,1-4.43-5.24,16.34,16.34,0,0,1-1.43-7.07C139.86,39.31,139.89,38.81,139.94,38.31Zm11.33-12q-2.25,0-3.39,3.3a32.39,32.39,0,0,0-1.41,5.64,32.18,32.18,0,0,0,5-2.26c2.65-1.35,4-2.13,4-2.32,0-.41-.62-1.23-1.87-2.47S151.56,26.3,151.27,26.3Z"/><path class="cls-1" d="M169.18,40.64a21.2,21.2,0,0,1,3.68-12.38Q176.46,23,183.59,23a19.33,19.33,0,0,1,6.15,1.43q3.81,1.42,3.81,3.68c0,.44-.45,1-1.34,1.8s-1.73,1.39-2.32,1.79a11.83,11.83,0,0,0-1.73-1.79,30,30,0,0,0-3.76-3.08,6.53,6.53,0,0,0-3.67-1.28q-2.32,0-3.75,3.46a18.82,18.82,0,0,0-1.5,7.48,14.4,14.4,0,0,0,2.85,9.08q2.79,3.75,8.33,3.75,1.8,0,4.2-2.4c1.59-1.6,2.42-2.4,2.47-2.4a1.24,1.24,0,0,1,.82.44,1.63,1.63,0,0,1,.39.75,11.56,11.56,0,0,1-2,2.18,22.52,22.52,0,0,1-4.72,3.6,11.24,11.24,0,0,1-5.62,1.58q-6.9,0-9.91-3.52A13.06,13.06,0,0,1,169.18,40.64Z"/><path class="cls-1" d="M229.11,47.45c0,.25.09.38.29.38q.91,0,4.07-2.56c.64.56,1,1,1,1.43v.16a6.14,6.14,0,0,1-2.33,1.65,22.56,22.56,0,0,0-2.47,1.41c-.66.45-1.39.93-2.18,1.43a14.28,14.28,0,0,1-2.25,1.21,2,2,0,0,1-.68.14.79.79,0,0,1-.75-.45,6.72,6.72,0,0,1-.15-2V44a52.79,52.79,0,0,0-1.19-12.53c-.85-3.1-3-4.78-6.46-5h-.15a9.81,9.81,0,0,0-3.15,1.2,12.7,12.7,0,0,0-2.93,1.8,18.12,18.12,0,0,0-.14,3.46c0,1.65,0,3.84.07,6.59q.07,4.8.07,7.66a26.5,26.5,0,0,1-.07,3.82c-.6.34-1.5.8-2.69,1.36a24.75,24.75,0,0,1-4,1.48,26.62,26.62,0,0,1-.17-4.56q0-4.14.17-14.26t.14-16.19q0-8.47-.75-10.29a5.3,5.3,0,0,0-1.35-1.87,17.27,17.27,0,0,0-1.95-1.43,3.5,3.5,0,0,1-1.2-.89l-.08-.08c0-.09.2-.14.61-.14a37.82,37.82,0,0,0,4.12-1q3-.84,4.5-1.14a3.41,3.41,0,0,1,.68-.07,1.42,1.42,0,0,1,1.26.53q-.08,6.15-.07,15.29v2.1c.3,0,.46,2.33.46,7,.79-.6,1.89-1.37,3.29-2.33a10.86,10.86,0,0,1,5.48-1.64h.29c2.21,0,4.59.94,7.14,2.84a7.26,7.26,0,0,1,2.33,4.06,41,41,0,0,1,1,6.23c.14,2.14.22,4.49.22,7Z"/><path class="cls-1" d="M237.13,30.05a2.67,2.67,0,0,1-.3-1.21,3.08,3.08,0,0,1,1.58-2.39,19.5,19.5,0,0,1,6.15-2.62,26.89,26.89,0,0,1,6.45-1,19.22,19.22,0,0,1,7.43,1.94c2.94,1.35,4.41,2.93,4.41,4.72V44a9.13,9.13,0,0,0,.53,2A3.34,3.34,0,0,0,265,48a19.56,19.56,0,0,0,3.3,1.19,5.7,5.7,0,0,1,1.35.53,1,1,0,0,1,.15.68q0,.6-1.8,1.65a6.08,6.08,0,0,1-2.71,1.13,12.46,12.46,0,0,1-5.16-.82,10.88,10.88,0,0,1-3.22-2A4.42,4.42,0,0,0,254.61,49a4.33,4.33,0,0,0-2.39,1.28A17.34,17.34,0,0,1,249,52.41a11,11,0,0,1-5,.9c-2.75,0-4.69-.38-5.84-1.14a3.72,3.72,0,0,1-1.81-3.51q0-3.15,3.15-5.55a20.62,20.62,0,0,1,6-3.22l4.58-1.74a16.54,16.54,0,0,0,3.67-1.87A2.77,2.77,0,0,0,255.13,34a6.57,6.57,0,0,0-2.48-5.47,8.33,8.33,0,0,0-5.25-1.95,8.53,8.53,0,0,0-2.23.66c-1.21.5-1.82.9-1.82,1.21s.38.73,1.14,1,1,.58,1,1-.57.73-1.72,1.28a6.12,6.12,0,0,1-2.62.61,7.3,7.3,0,0,1-1-.08A4.12,4.12,0,0,1,237.13,30.05Zm17.48,8.63a41,41,0,0,0-7.12,3.53Q244,44.37,244,46c0,1.85.75,3,2.25,3.53a4.51,4.51,0,0,0,1.43.22,6.82,6.82,0,0,0,3.68-1.35,7.75,7.75,0,0,0,3.3-4.88,13.43,13.43,0,0,0,.29-2.61A5.65,5.65,0,0,0,254.61,38.68Z"/><path class="cls-1" d="M271.86,34.92a9.91,9.91,0,0,1-.82-3.75,6.13,6.13,0,0,1,1-3.44,11.83,11.83,0,0,1,6.15-4.43,33.55,33.55,0,0,1,9.07-1.87h.31a5.42,5.42,0,0,1,3.51,1,2.9,2.9,0,0,1,1.07,2.18V25a4,4,0,0,1-2.25,2.54,4.37,4.37,0,0,1-1.65.44.88.88,0,0,1-.39-.07,1.73,1.73,0,0,1-1.12-1.12,18,18,0,0,0-1.06-2,3.27,3.27,0,0,0-1.94-1.19,5.42,5.42,0,0,0-1.57-.22,8,8,0,0,0-2.47.44A4.33,4.33,0,0,0,277,27.43a5.94,5.94,0,0,0-.14,1.27,2.71,2.71,0,0,0,1.42,2.63,19.12,19.12,0,0,0,6.45,1.42A27.6,27.6,0,0,1,291.2,34a7.45,7.45,0,0,1,3.53,3.61,5.89,5.89,0,0,1,.61,2.69,13.48,13.48,0,0,1-1.29,5.18q-1.43,3.3-6.59,5.92A15.57,15.57,0,0,1,277,52.92a6.65,6.65,0,0,1-4.26-2.76,4.27,4.27,0,0,1-.83-2.4,4,4,0,0,1,.37-1.65,4.83,4.83,0,0,1,3.37-2.78,18.29,18.29,0,0,0,4.81,5.11,8.42,8.42,0,0,0,4.73,1.72h.51q2.4-.24,3.61-3.08a5.53,5.53,0,0,0,.44-2.1,6.07,6.07,0,0,0-1.19-3.45c-1.31-1.8-2.61-2.83-3.9-3.07a29.84,29.84,0,0,0-4.87-.46,20.67,20.67,0,0,1-5.33-.6A3.79,3.79,0,0,1,271.86,34.92Z"/><path class="cls-1" d="M297.42,38.31Q298,30,301.71,26.83t9.67-3.15a7.55,7.55,0,0,1,3.29.61,14.35,14.35,0,0,1,2.79,1.94c1,.85,1.67,1.28,2,1.28A8.57,8.57,0,0,0,320.6,27a3.43,3.43,0,0,1,1.51-.53c.5,0,.75.35.75,1.06a29.55,29.55,0,0,1-3.76,2.32c-1,.55-2.94,1.52-5.84,2.92a74.43,74.43,0,0,0-6.9,3.82c-1.71,1.16-2.56,2.14-2.56,2.93a10.41,10.41,0,0,0,2.56,7.12,8.51,8.51,0,0,0,7,3,7.9,7.9,0,0,0,4.56-1.94q2.49-1.89,3-1.89a.75.75,0,0,1,.68.38,3.56,3.56,0,0,1,.31.68l-1.36,1.49c-.5.54-1.32,1.4-2.47,2.56a35.42,35.42,0,0,1-4.36,1.79,14.27,14.27,0,0,1-4.94,1.12,10.38,10.38,0,0,1-5.55-1.72,11.34,11.34,0,0,1-4.43-5.24,16.34,16.34,0,0,1-1.43-7.07C297.35,39.31,297.38,38.81,297.42,38.31Zm11.34-12q-2.25,0-3.39,3.3A32.39,32.39,0,0,0,304,35.24,32.18,32.18,0,0,0,309,33c2.65-1.35,4-2.13,4-2.32,0-.41-.62-1.23-1.87-2.47S309.05,26.3,308.76,26.3Z"/></g></g></svg>