<?xml version="1.0" encoding="utf-8"?>
<!-- Generator: Adobe Illustrator 22.1.0, SVG Export Plug-In . SVG Version: 6.00 Build 0)  -->
<svg version="1.1" id="Layer_1" xmlns="http://www.w3.org/2000/svg" xmlns:xlink="http://www.w3.org/1999/xlink" x="0px" y="0px"
	 viewBox="0 0 63.9 63.9" style="enable-background:new 0 0 63.9 63.9;" xml:space="preserve">
<style type="text/css">
	.st0{fill:#8F7A3C;}
	.st1{fill:#FEFEFE;}
	.st2{fill:#8E7A3C;}
</style>
<g>
	<path class="st0" d="M32,0c17.7,0.1,31.9,14.3,31.9,32c0,17.6-14.3,31.9-32,31.9C14.2,63.8-0.1,49.6,0,31.8C0.1,14.2,14.3,0.1,32,0
		z M32,3.1C16,3.1,3,16.1,3.1,32c0,16.1,13.1,29,29.2,28.8c15.8-0.1,28.6-13,28.6-28.9C60.8,16,47.8,3,32,3.1z"/>
	<path d="M37.2,26.8c5.4,0,11.1-0.1,16.8-0.1c0.1,0,0.1,0,0.2,0c1.1,0,1.1,0,0.8,1.1c-0.4,1.8-1,3.4-2,5c-1.3,2.2-3.4,3.1-5.9,3.4
		c-0.7,0.1-1.4,0.1-2.2,0.1c-9.8,0-19.6,0.2-29.4,0.2c-2.2,0-4.3-0.1-6.5-0.3c-0.2,0-0.5,0-0.3-0.4c0.7-2,1.5-3.8,3-5.5
		c1.7-1.9,3.6-3,6.2-3.2c2.9-0.2,5.8-0.1,8.8-0.2C29.9,26.8,33.3,27,37.2,26.8z"/>
	<path class="st1" d="M32,3.1C47.8,3,60.8,16,60.8,31.9c0,16-12.8,28.8-28.6,28.9C16.1,61,3.1,48.1,3.1,32C3,16.1,15.9,3.1,32,3.1z
		 M36.1,26.2c-3.9-0.1-9,0.2-14.1,0.2c-1.2,0-2.4,0-3.6,0.1c-2.8,0.2-5.1,1.4-6.8,3.6c-1.5,1.9-2.5,4.1-3.2,6.3
		c-0.1,0.2-0.1,0.3,0.2,0.3c0.9,0.1,1.9,0.2,2.8,0.3c3.9,0.2,7.9,0.2,11.9,0.2c7-0.1,14-0.2,21-0.2c1,0,2-0.1,3-0.2
		c2.7-0.3,4.7-1.6,6.1-3.9c1.1-1.9,1.7-4.1,2.2-6.3c0-0.6,0-0.6-0.6-0.6C49.1,26.1,43.2,26.1,36.1,26.2z"/>
	<path class="st2" d="M36.1,26.2c7.1-0.1,13-0.1,18.9-0.2c0.6,0,0.6,0,0.5,0.6c-0.5,2.2-1,4.3-2.2,6.3c-1.4,2.3-3.4,3.6-6.1,3.9
		c-1,0.1-2,0.2-3,0.2c-7,0-14,0.1-21,0.2c-4,0-7.9,0-11.9-0.2c-0.9-0.1-1.9-0.2-2.8-0.3c-0.3,0-0.3-0.1-0.2-0.3
		c0.8-2.3,1.7-4.5,3.2-6.3c1.8-2.1,4-3.4,6.8-3.6c1.2-0.1,2.4-0.1,3.6-0.1C27.1,26.4,32.2,26.1,36.1,26.2z M37,27
		c-3.7,0.1-6.9,0-10.2,0.1c-2.8,0.1-5.6-0.1-8.5,0.2c-2.4,0.2-4.4,1.3-6,3.1c-1.3,1.5-2.1,3.4-2.9,5.3C9.3,36.1,9.6,36,9.8,36
		c2.1,0.2,4.2,0.3,6.3,0.3c9.5,0.1,19-0.2,28.5-0.2c0.7,0,1.4,0,2.1-0.1c2.4-0.3,4.3-1.2,5.7-3.3c1-1.5,1.5-3.1,1.9-4.8
		c0.3-1.1,0.3-1.1-0.8-1.1c-0.1,0-0.1,0-0.2,0C47.7,26.9,42.2,26.9,37,27z"/>
</g>
</svg>
