<svg xmlns="http://www.w3.org/2000/svg" viewBox="0 0 60.84 60.84"><defs><style>.cls-1{fill:#fff;stroke-width:3px;}.cls-1,.cls-2{stroke:#947b2f;stroke-miterlimit:10;}.cls-2{stroke-width:0.75px;}</style></defs><title>planeswalk roll</title><g id="Layer_2" data-name="Layer 2"><g id="Layer_1-2" data-name="Layer 1"><circle class="cls-1" cx="30.42" cy="30.42" r="28.92"/><path class="cls-2" d="M30,53.58c-.13-.51-.26-1-.38-1.54-.84-3.68-1.54-7.39-2.54-11a14.32,14.32,0,0,0-7-8.67,1.5,1.5,0,0,1-.91-1.63c.27-3.42.47-6.84.72-10.26a1.73,1.73,0,0,1,.55-1.15c.2,1.67.36,3.35.63,5s.64,3.31,1,5c1.31-.05,1.92-.56,2-1.81.23-4.17.54-8.32.84-12.48a16.93,16.93,0,0,1,.32-1.7h.37c.12.92.26,1.84.33,2.76.28,3.51.51,7,.82,10.51.05.59-.17,1.51,1,1.46s1-.89,1.09-1.59c.3-4.72.55-9.45.85-14.17.07-1.14.27-2.27.42-3.4l.56,0c.16,1,.4,2,.46,3.06.3,4.77.56,9.53.83,14.3,0,.22.05.43.07.65,0,.68.29,1.12,1.08,1.18s.87-.6.92-1.11c.3-3.63.56-7.27.86-10.9.07-.92.22-1.83.33-2.75l.42,0c.1.66.25,1.32.3,2,.29,4,.58,8.06.81,12.09.06,1.2.54,1.85,2.07,1.93.53-3.29,1.08-6.63,1.62-10l.22,0a21.46,21.46,0,0,1,.38,2.22c.2,3.17.38,6.33.49,9.5a1.61,1.61,0,0,1-.68,1.18,15.64,15.64,0,0,0-7.6,10C32.32,45.41,31.71,48.7,31,52c-.12.55-.3,1.09-.45,1.63Z"/></g></g></svg>