<svg xmlns="http://www.w3.org/2000/svg" viewBox="0 0 901.53 302.59"><defs><style>.cls-1{fill:#8f7a3c;}.cls-2{fill:#fffefe;}.cls-3{fill:#8f7b3d;}.cls-4{fill:#050402;}.cls-5{fill:#2a250e;}</style></defs><title>restart</title><g id="Layer_2" data-name="Layer 2"><g id="Layer_1-2" data-name="Layer 1"><path class="cls-1" d="M450.71,0Q643.82,0,837,.09c14.73,0,27.84,5.29,39.29,14.49a65.4,65.4,0,0,1,24,40A66.83,66.83,0,0,1,901.41,67c0,56.17.29,112.33-.09,168.5-.17,25.7-11.87,45.41-34.19,58.49-10.36,6.08-21.69,8.59-33.66,8.59q-89.25,0-178.49,0-292.87,0-585.74,0c-17.46,0-33-5-46.16-16.44A64.74,64.74,0,0,1,.94,245.9,118.44,118.44,0,0,1,0,228.24Q0,147.62,0,67A64.32,64.32,0,0,1,7.55,36C18.2,16.3,34.71,4.53,56.77.63A69.09,69.09,0,0,1,68.72,0q191,0,382,0Zm.15,15Q258.5,15,66.14,15a45.85,45.85,0,0,0-8.2.69A51.68,51.68,0,0,0,15.12,66.52q-.21,84.62,0,169.24A49.48,49.48,0,0,0,25,266.08c11,14.62,25.72,21.47,44,21.47q265.85-.07,531.7,0l234.23,0a49.88,49.88,0,0,0,14.75-2.25c22-6.75,36.67-26.84,36.68-50.46q0-82.11,0-164.23c0-2.83-.08-5.66-.31-8.49-2-26.09-24.6-47-50.73-47Z"/><path class="cls-2" d="M450.86,15H835.32c26.13,0,48.69,20.93,50.73,47,.23,2.83.32,5.66.31,8.49q0,82.11,0,164.23c0,23.62-14.65,43.71-36.68,50.46a49.88,49.88,0,0,1-14.75,2.25l-234.23,0q-265.86,0-531.7,0c-18.25,0-33-6.85-44-21.47a49.48,49.48,0,0,1-9.91-30.32q-.11-84.63,0-169.24A51.68,51.68,0,0,1,57.94,15.71a45.85,45.85,0,0,1,8.2-.69Q258.5,15.05,450.86,15ZM111,150.44h.18c0,9.59,0,19.17,0,28.75,0,6.66.06,13.36-1.23,19.92-1.66,8.42-1.07,7.47-8.84,7.92-.33,0-.67,0-1,0-4.89.32-9.84.22-14.63,1.5-4,1.08-5.65,3.44-5,7.07a6.39,6.39,0,0,0,7,5.36c5.47-.46,10.94-.92,16.39-1.56,15.62-1.84,31.29-1,46.93-.9,7.81,0,15.53,1.86,23.39,1.58,4.16-.15,5.7-1.68,5.82-5.79.14-4.77-1.45-6.9-5.57-7.22-1.74-.14-3.49,0-5.24-.05-6.58-.18-13.17.48-19.73-.39-6.77-.91-8.47-2.92-8.46-9.84,0-11.25,0-22.5.09-33.75.05-5.5.36-11,.51-16.49.06-1.92.68-2.74,2.85-2.49,9.22,1.09,17.13,4.69,23.25,11.79,2.5,2.9,4.93,5.87,7.26,8.91,9.19,12,17.13,24.78,25.48,37.32a49.13,49.13,0,0,0,12.78,13.56,9.38,9.38,0,0,0,5.51,2c11.25,0,22.5,0,33.75,0a2.94,2.94,0,0,0,1.93-.27,6.41,6.41,0,0,0-1.07-11,15.56,15.56,0,0,0-5.81-1.31c-5.89-.28-10.36-2.53-13.33-8-2.16-4-5.17-7.54-7.9-11.21-10-13.48-20.61-26.59-28.67-41.45-1-1.87-.73-2.56,1-3.56,3.22-1.9,6.34-4,9.42-6.12,7.49-5.17,14.24-11.07,17.76-19.78,2.87-7.1,3.14-14.6,2.75-22.12-.59-11.33-4.5-21.44-12.73-29.3-16.8-16.07-36.92-18.4-58.56-13.06-7.93,2-14.49,6.58-20.64,11.77a12,12,0,0,1-8.34,2.92A198.32,198.32,0,0,1,97,62.38c-5.87-1-11.82-1.51-17.57-3.27a6.19,6.19,0,0,0-7.75,4.18c-1.18,3.5,0,5.81,3.85,7.42a31.11,31.11,0,0,0,8.25,1.84c6.18.8,12.45.85,18.53,2.45a5.23,5.23,0,0,1,4.24,4.12,146.12,146.12,0,0,1,4.35,33.33C111.25,125.11,111,137.78,111,150.44Zm278.2,68.63c11.29.06,21.25-4,30.76-9.69,10.83-6.47,17.12-15.92,19.4-28.27A24.8,24.8,0,0,0,420.45,152c-6.74-1.61-13.63-2.13-20.48-3-5-.63-10.05-1.32-14.75-3.43a5.73,5.73,0,0,1-3.71-5.67c.11-7.88,3-12.91,10.47-14.09,6.76-1.06,12.15-.55,15.15,6.95a21.15,21.15,0,0,0,1.44,2.9,7.27,7.27,0,0,0,7.49,3.92,16.67,16.67,0,0,0,11-5.88c3.87-4.36,3.94-9.74.35-14.37-2.81-3.62-6.84-4.92-11.17-5.29-6.95-.6-13.78.57-20.52,2-9,2-17.78,4.47-25.33,10-5.49,4-9.9,8.93-11.56,15.78-1.51,6.26-.14,12.21,2.19,18a15,15,0,0,0,11.44,9.72c7.64,1.67,15.43,1.18,23.12,1.93,4.36.43,8.88.35,12.49,3.5a31.35,31.35,0,0,1,6.48,7.54,14.83,14.83,0,0,1-1.33,17.89,9.61,9.61,0,0,1-8.91,3.78c-6.75-.68-12-4.23-16.92-8.42a55.6,55.6,0,0,1-10.13-12c-.5-.76-.87-1.51-2.11-1.31-8.46,1.4-15.17,9.67-14.14,18.2.95,7.85,6.07,12.69,13,15.73C378.83,218.58,384,219,389.17,219.07ZM262.81,174.54c-.16,10.73,2.26,21.21,8.85,30.26,8.39,11.52,19.72,17.57,34.23,15.66,9.13-1.21,17.47-5.17,25.79-9a2.7,2.7,0,0,0,.78-.62q6.09-6.44,12.16-12.9c.37-.4.92-.73.72-1.47-1.31-4.9-4.54-7.58-9-4.92-3.74,2.2-7,5.05-10.69,7.33-3,1.85-6,3.48-9.7,3.62-15.71.62-24.76-10.72-26.88-21.91-1.54-8.19-2.34-8.42,5.67-14.07,6.06-4.27,12.69-7.6,19.29-10.94,10.65-5.4,21.57-10.27,31.59-16.84,2.68-1.75,3.22-3.5,2-6.27-1.09-2.47-3.06-3.4-5.93-2.66a10.66,10.66,0,0,0-3.47,1.31c-2.68,1.92-4.85,1.34-7-.85a43.48,43.48,0,0,0-3.45-2.88,26.78,26.78,0,0,0-18.87-6.53,69,69,0,0,0-11.66,1.14c-15.37,3.29-26.13,11.8-30.83,27.24A92.45,92.45,0,0,0,262.81,174.54Zm295.28-35.85a23.92,23.92,0,0,1,9.34-3.3c6.88-.61,19.43,5.34,21.19,16,1,6,.31,8-4.94,11.12-4.67,2.78-9.79,4.54-14.84,6.42-9.35,3.49-18.77,6.75-26.86,12.89-4.66,3.55-8.68,7.53-10.72,13.16-3.73,10.36.23,19.26,10.17,22.4,7.52,2.37,15.27,2.34,23,1.46,7.95-.91,14.27-5.17,20.26-10.06,4.58-3.74,5.78-3.76,10.25.14a37.66,37.66,0,0,0,11.8,7.36c11,4,21.41,3.91,30.89-4.2,3.56-3,3.59-8.9-1.86-10.14A58.8,58.8,0,0,1,624.51,198a7.23,7.23,0,0,1-3.88-3.69,22.11,22.11,0,0,1-2.16-8.89c.06-13.75-.16-27.5.11-41.24.12-6.6-2.46-11.48-7.67-15a59.23,59.23,0,0,0-29-10.56c-12.95-1-25.25,2.33-37.09,7.38a30.92,30.92,0,0,0-9.87,6.23c-3.57,3.52-4.57,7.69-2.55,11.82,2.49,5.12,6.58,8.32,12.35,9a22.24,22.24,0,0,0,14.17-2.92c2.27-1.35,5.07-2.43,5-5.66s-2.86-4.4-5.43-5.49A3.56,3.56,0,0,1,558.09,138.69Zm-74.61,25.45c-.17-7.91-.5-15.83,0-23.74.12-2,.66-3,3.08-2.93,10.9.35,21.81-.19,32.72-.42a18.4,18.4,0,0,0,4.18-.59c3.92-1,5.79-4,5.37-8.07-.25-2.36-1.64-4.4-1.76-6.69-.09-1.59-.65-2-2-2-6-.22-12.09-.59-18.15-.36s-12.14.51-18.22.64c-3.5.08-3.51,0-3.72-3.37-.13-2.16-.3-4.32-.37-6.48a15.56,15.56,0,0,0-2.65-7.66c-.87-1.43-1.48-1.2-2.64-.44q-19.39,12.69-38.87,25.25c-1.56,1-1.41,1.75-.45,3a32,32,0,0,0,11.59,8.88c3.06,1.5,4.39,3.71,4.47,7.29.39,17.65.49,35.31.45,53a8.65,8.65,0,0,0,.91,4.06c6,12.28,16.59,17.43,29.56,18.57,9.18.8,17.81-1.72,26.19-5.15,4.6-1.88,9.32-3.57,13.3-6.71,1.81-1.44,2.71-3.29,1.83-5.49s-2.74-3.2-5.17-3.2c-1.73,0-3.22.79-4.81,1.24-5.47,1.56-10.76,4-16.73,2.87-11.28-2-17.33-7.76-18-18.95C483.12,179.15,483.48,171.63,483.48,164.14ZM770,165.71c.29-8.57-.43-17.16.39-25.73.18-1.9.71-2.54,2.68-2.48,10.91.28,21.82-.23,32.74-.41a18.43,18.43,0,0,0,4.68-.67c3.56-1,5.22-3.57,5.15-7.26,0-2.49-1.42-4.64-1.64-7-.2-2.19-1.24-2.58-3-2.59-5.91,0-11.81-.56-17.74-.28-6.32.31-12.65.43-19,.64-1.8.06-2.74-.54-2.61-2.59s-.14-4.33-.18-6.5a15.21,15.21,0,0,0-2.61-8.2c-.77-1.17-1.32-1.6-2.76-.65q-19.26,12.68-38.67,25.14c-1.86,1.19-1.56,2-.41,3.38a31.54,31.54,0,0,0,11,8.42c3,1.47,5,3.45,4.73,7.12-.12,1.57.13,3.16.15,4.74q.25,24.63.48,49.24a7.42,7.42,0,0,0,.77,3.35c6,12.29,16.56,17.5,29.54,18.61,10.33.88,19.86-2.35,29.17-6.36,3.74-1.61,7.56-3.09,10.7-5.79,1.49-1.28,2.34-2.95,1.65-4.88a5.06,5.06,0,0,0-4.73-3.49,10.21,10.21,0,0,0-3.91.65c-2.29.74-4.59,1.45-6.85,2.27-6.66,2.42-13.07,1.63-19.35-1.34s-9.25-8.48-9.9-15.12A187.3,187.3,0,0,1,770,165.71ZM677,135c0-2.73,0-4.81,0-6.89a13.84,13.84,0,0,1,.3-1.93,5.85,5.85,0,0,0-5-6.13,14.81,14.81,0,0,0-5,.3c-3.92,1.09-7.86,2.08-11.78,3.18-5.72,1.6-11.64,1.86-17.46,2.81-2.2.36-4.13,1.43-4.44,3.77a5.21,5.21,0,0,0,3.14,5.48,30.29,30.29,0,0,0,4.85,1.94c4.39,1.33,7,4,7.61,8.73a56.06,56.06,0,0,1,.34,6.71c0,16.74-.22,33.48-.29,50.22a61.9,61.9,0,0,0,.68,11c.85,5,3.14,6.63,8,5.45,6.65-1.6,12-5.61,17.21-9.76a7.21,7.21,0,0,0,2.7-6.12c-.08-17.16,0-34.32-.08-51.48a4.25,4.25,0,0,1,1.76-3.82c3.73-2.79,7.5-5.52,11.23-8.3,3.41-2.53,6.41-2,9.53.21,1.82,1.3,3.52,2.81,5.43,4,4.06,2.46,7.12,1.7,9.84-2.19s4.43-8.35,6.76-12.46a3.41,3.41,0,0,0-.49-4.29,9.27,9.27,0,0,0-3.38-2.5,57.66,57.66,0,0,0-10.63-3.46,10.59,10.59,0,0,0-7.72.92A112.18,112.18,0,0,0,689,127.05Z"/><path class="cls-3" d="M111,150.44c0-12.66.28-25.33-.09-38a146.12,146.12,0,0,0-4.35-33.33A5.23,5.23,0,0,0,102.29,75c-6.08-1.6-12.35-1.65-18.53-2.45a31.11,31.11,0,0,1-8.25-1.84c-3.83-1.61-5-3.92-3.85-7.42a6.19,6.19,0,0,1,7.75-4.18c5.75,1.76,11.7,2.31,17.57,3.27a198.32,198.32,0,0,0,31.26,2.74,12,12,0,0,0,8.34-2.92c6.15-5.19,12.71-9.81,20.64-11.77,21.64-5.34,41.76-3,58.56,13.06,8.23,7.86,12.14,18,12.73,29.3.39,7.52.12,15-2.75,22.12-3.52,8.71-10.27,14.61-17.76,19.78-3.08,2.13-6.2,4.22-9.42,6.12-1.7,1-2,1.69-1,3.56,8.06,14.86,18.63,28,28.67,41.45C229,189.49,232,193,234.18,197c3,5.48,7.44,7.73,13.33,8a15.56,15.56,0,0,1,5.81,1.31,6.41,6.41,0,0,1,1.07,11,2.94,2.94,0,0,1-1.93.27c-11.25,0-22.5,0-33.75,0a9.38,9.38,0,0,1-5.51-2,49.13,49.13,0,0,1-12.78-13.56c-8.35-12.54-16.29-25.35-25.48-37.32-2.33-3-4.76-6-7.26-8.91-6.12-7.1-14-10.7-23.25-11.79-2.17-.25-2.79.57-2.85,2.49-.15,5.5-.46,11-.51,16.49-.1,11.25-.08,22.5-.09,33.75,0,6.92,1.69,8.93,8.46,9.84,6.56.87,13.15.21,19.73.39,1.75.05,3.5-.09,5.24.05,4.12.32,5.71,2.45,5.57,7.22-.12,4.11-1.66,5.64-5.82,5.79-7.86.28-15.58-1.55-23.39-1.58-15.64-.06-31.31-.94-46.93.9-5.45.64-10.92,1.1-16.39,1.56a6.39,6.39,0,0,1-7-5.36c-.63-3.63,1-6,5-7.07,4.79-1.28,9.74-1.18,14.63-1.5.33,0,.67,0,1,0,7.77-.45,7.18.5,8.84-7.92,1.29-6.56,1.2-13.26,1.23-19.92,0-9.58,0-19.16,0-28.75Zm24.92,27H136c0-6-.15-12,0-18a164,164,0,0,1,.92-16.43c.46-3.47,1.13-4.09,4.67-4.05,12.06.15,22.16,4.65,30.13,13.76,7.48,8.54,13.87,17.89,20.26,27.25,5.82,8.52,10.83,17.6,17.48,25.54,3.79,4.52,8.06,8.11,14.69,7.07,2.6-.41,5.32-.06,8-.06,5.84,0,11.67,0,17.5,0,.68,0,1.72.33,1.79-.78s-.93-1-1.64-1.16a35.27,35.27,0,0,0-3.69-.54c-6.94-.52-12.31-3.32-15.83-9.66a84.17,84.17,0,0,0-7.44-10.63c-11.7-15-23-30.19-32-47-.93-1.75-.72-2.5.86-3.52,5.59-3.61,11.22-7.18,16.6-11.09,7.35-5.32,12.92-12,14.52-21.31a62.31,62.31,0,0,0,.64-12.94,39.19,39.19,0,0,0-14.67-30c-16.9-14-49.16-15.59-67.54,1.09-2.62,2.37-5.42,4.8-9.31,4.88A177.05,177.05,0,0,1,98.6,67.82c-6.85-1.13-13.69-2.24-20.53-3.4-.61-.1-1.17-.41-1.43.38s.31,1,.9,1.21c1.28.36,2.55.77,3.85,1,6.55,1.2,13.22,1.3,19.79,2.42,6.1,1,9.53,4.17,10.87,10.27a203.77,203.77,0,0,1,4.25,38.11c.34,11.82.1,23.66.07,35.49,0,12.49.28,25-.42,37.48-.29,5.22-.76,10.45-2.52,15.44-1.1,3.13-3,5.34-6.62,5.54-4.4.25-8.8.58-13.2.74a32.59,32.59,0,0,0-6.88,1c-.71.18-1.3.47-1.18,1.32s1,.84,1.58.8c3.56-.24,7.13-.51,10.69-.83,6.78-.61,13.53-1.61,20.35-1.67,8.84-.08,17.67,0,26.5,0,2.33,0,4.65,0,7,.17,7,.52,14,1.65,21.12,1.7,1,0,2.2.25,2.23-1.5s-1.18-1.43-2.2-1.43c-7.08,0-14.18.24-21.24-.12-10.81-.54-15.87-4.32-15.69-15.78C136,190,135.89,183.71,135.89,177.46Z"/><path class="cls-3" d="M389.17,219.07c-5.2,0-10.34-.49-15.16-2.58-7-3-12.09-7.88-13-15.73-1-8.53,5.68-16.8,14.14-18.2,1.24-.2,1.61.55,2.11,1.31a55.6,55.6,0,0,0,10.13,12c4.94,4.19,10.17,7.74,16.92,8.42a9.61,9.61,0,0,0,8.91-3.78,14.83,14.83,0,0,0,1.33-17.89,31.35,31.35,0,0,0-6.48-7.54c-3.61-3.15-8.13-3.07-12.49-3.5-7.69-.75-15.48-.26-23.12-1.93A15,15,0,0,1,361,159.9c-2.33-5.81-3.7-11.76-2.19-18,1.66-6.85,6.07-11.76,11.56-15.78,7.55-5.54,16.37-8,25.33-10,6.74-1.48,13.57-2.65,20.52-2,4.33.37,8.36,1.67,11.17,5.29,3.59,4.63,3.52,10-.35,14.37a16.67,16.67,0,0,1-11,5.88,7.27,7.27,0,0,1-7.49-3.92,21.15,21.15,0,0,1-1.44-2.9c-3-7.5-8.39-8-15.15-6.95-7.5,1.18-10.36,6.21-10.47,14.09a5.73,5.73,0,0,0,3.71,5.67c4.7,2.11,9.73,2.8,14.75,3.43,6.85.87,13.74,1.39,20.48,3a24.8,24.8,0,0,1,18.88,29.11c-2.28,12.35-8.57,21.8-19.4,28.27C410.42,215.06,400.46,219.13,389.17,219.07ZM408,209.52a30.12,30.12,0,0,1-17.69-5,57.83,57.83,0,0,1-15-14.43c-.61-.83-1-1.79-2.52-1.12a11.15,11.15,0,0,0-5.55,15,16.42,16.42,0,0,0,9.47,8A38.42,38.42,0,0,0,397,213.25c3.81-.73,7.63-1.53,11-3.69l.94-.16c-.06-.09-.11-.25-.18-.26A.64.64,0,0,0,408,209.52Zm8.61-4.38c.45-.2.92-.38,1.35-.62,9.69-5.53,14.57-14.24,16.5-24.91s-5.92-20.71-14.29-22.49a162.61,162.61,0,0,0-17-2.59c-5.95-.62-11.88-1.37-17.58-3.35-7.61-2.66-10.45-7.84-8.85-15.75a31.74,31.74,0,0,1,3.5-9c-13.73,6.11-20.58,16.53-14.85,30.79,1.92,4.76,5.18,7,10,7.79,6.93,1.13,13.94,1.17,20.9,1.36,11.63.32,19.17,6.19,24,16.2,2.55,5.32,2.32,10.78-.09,16.17a37.75,37.75,0,0,1-3.81,6.12c-.1.12-.3.3-.28.33C416.27,205.53,416.43,205.36,416.57,205.14ZM401.1,120.59c5.78,1.36,8.58,5.57,10.87,10.39,1.93,4.08,3.13,4.43,7.15,2.44a12.81,12.81,0,0,0,1.9-1.18c2.21-1.62,4.26-3.44,3.71-6.52-.59-3.39-2.87-5.39-6.14-6.14C412.72,118.26,407,119.32,401.1,120.59Z"/><path class="cls-3" d="M262.81,174.54a92.45,92.45,0,0,1,3.56-25.25c4.7-15.44,15.46-23.95,30.83-27.24a69,69,0,0,1,11.66-1.14,26.78,26.78,0,0,1,18.87,6.53,43.48,43.48,0,0,1,3.45,2.88c2.14,2.19,4.31,2.77,7,.85a10.66,10.66,0,0,1,3.47-1.31c2.87-.74,4.84.19,5.93,2.66,1.22,2.77.68,4.52-2,6.27-10,6.57-20.94,11.44-31.59,16.84-6.6,3.34-13.23,6.67-19.29,10.94-8,5.65-7.21,5.88-5.67,14.07,2.12,11.19,11.17,22.53,26.88,21.91,3.66-.14,6.72-1.77,9.7-3.62,3.67-2.28,6.95-5.13,10.69-7.33,4.51-2.66,7.74,0,9,4.92.2.74-.35,1.07-.72,1.47q-6.06,6.47-12.16,12.9a2.7,2.7,0,0,1-.78.62c-8.32,3.78-16.66,7.74-25.79,9-14.51,1.91-25.84-4.14-34.23-15.66C265.07,195.75,262.65,185.27,262.81,174.54ZM309,152c.44.06.87.09,1-.49.44.06.86.07,1-.5a2.1,2.1,0,0,0,2.07-.87l1-.51A26.09,26.09,0,0,0,320,147c5.58-2.86,11.48-5.14,16.52-9,.12-.08.58.06.21-.33l-.2.35c-2.67.23-4.82-.89-6.82-2.52-2.32-1.9-4.67-3.77-7.09-5.53a16.43,16.43,0,0,0-7.38-3.46c-10.17-1.39-19.91,0-29,4.9a28.7,28.7,0,0,0-13.61,15.7A75.13,75.13,0,0,0,268.53,183c1.15,9.15,4.69,17.43,11.49,23.81s14.74,9.91,24.29,8.77c6.77-.8,12.88-3.77,19.24-5.93,6.83-2.31,10.62-8,15-13l.56-.32c-.05,0-.14-.16-.15-.16-.18.11-.35.23-.52.35-2.46.9-4.39,2.65-6.39,4.23-6.39,5-13.39,8-21.71,6.65-14.37-2.28-22.77-11.25-26.1-24.78-2.56-10.42-2.7-13,7.72-20.41,2.29-1.63,4.73-3,7.1-4.57l.27-.4-.55.12c-1.51.66-3,1.31-4.55,2a51.79,51.79,0,0,1-9.08,3.37c-1.8.42-1.92,0-1.73-1.54a83.86,83.86,0,0,1,6.46-23.89,13.29,13.29,0,0,1,7.4-7.37c2.76-1.07,5.32-1.07,7.67,1a69.47,69.47,0,0,1,9.82,9.88c3.17,4.17,3,5.31-1,8.57l-.95.63A2.89,2.89,0,0,0,311,151c-.42,0-.81.05-1,.5a1,1,0,0,0-1,.51c-.1.09-.58,0-.2.33Zm-2.47,1.53c-.44,0-.86,0-1,.5l-.65.12.16.27.48-.41a.88.88,0,0,0,1-.5c.11-.09.57.06.22-.33Zm-17.08,2.3c7.38-3.32,14.17-6.76,20.82-10.5,1.39-.79.58-1.5,0-2.13-2.12-2.22-4.23-4.48-6.47-6.58-3.29-3.08-5.67-2.74-8.22,1.08a18,18,0,0,0-1.75,3.3A98.64,98.64,0,0,0,289.41,155.85Zm18.33-3.17-.11.14.19,0Zm-5.66,3.09.17.09v-.14Zm-1.71,1c-.05,0-.09-.13-.14-.13s-.11.06-.17.1.1.13.15.13S300.32,156.85,300.37,156.82Zm.85-.64-.1.14.19,0Z"/><path class="cls-3" d="M558.09,138.69a3.56,3.56,0,0,0,.39.25c2.57,1.09,5.32,2.19,5.43,5.49s-2.7,4.31-5,5.66A22.24,22.24,0,0,1,544.77,153c-5.77-.66-9.86-3.86-12.35-9-2-4.13-1-8.3,2.55-11.82a30.92,30.92,0,0,1,9.87-6.23c11.84-5,24.14-8.38,37.09-7.38a59.23,59.23,0,0,1,29,10.56c5.21,3.56,7.79,8.44,7.67,15-.27,13.74-.05,27.49-.11,41.24a22.11,22.11,0,0,0,2.16,8.89,7.23,7.23,0,0,0,3.88,3.69,58.8,58.8,0,0,0,11.28,3.89c5.45,1.24,5.42,7.1,1.86,10.14-9.48,8.11-19.89,8.21-30.89,4.2a37.66,37.66,0,0,1-11.8-7.36c-4.47-3.9-5.67-3.88-10.25-.14-6,4.89-12.31,9.15-20.26,10.06-7.75.88-15.5.91-23-1.46-9.94-3.14-13.9-12-10.17-22.4,2-5.63,6.06-9.61,10.72-13.16,8.09-6.14,17.51-9.4,26.86-12.89,5-1.88,10.17-3.64,14.84-6.42,5.25-3.12,5.94-5.08,4.94-11.12-1.76-10.63-14.31-16.58-21.19-16A23.92,23.92,0,0,0,558.09,138.69Zm55.39,25.92c0-7.09-.14-14.17.06-21.25.11-4.21-1.79-7.16-4.85-9.61a36.26,36.26,0,0,0-8.87-5c-5.93-2.45-11.92-4.87-18.39-5.18-12.56-.59-24.4,2.5-35.79,7.57a22.6,22.6,0,0,0-6.92,4.4c-3.05,3.05-3.6,6.27,1.41,10.21s10.31,2.84,15.55.36c.78-.37,2.06-.51,2-1.55,0-.88-1.28-.84-2-1.19-2-1-3.5-2.44-3.58-4.72-.08-2.06,1.44-3.29,3.13-4.16,4.9-2.52,9.86-5,15.63-3.94,9.35,1.67,17.31,5.83,21,15,4.9,12.12,2.17,17.28-7.44,22.36-5.17,2.73-10.68,4.61-16.12,6.66-7.15,2.7-14.43,5.09-20.77,9.56-4.58,3.23-9,6.55-11.33,12-3.48,8.05-.12,15,8.33,17.07,6.25,1.51,12.59,1.06,18.89.78a21.33,21.33,0,0,0,9-2.8,80,80,0,0,0,10.44-7.25c5.11-3.88,8.4-3.94,13.55-.19,3,2.15,5.55,4.81,8.89,6.39,9.44,4.48,18.81,6.16,27.85-1,.62-.49,1.78-.77,1.61-1.7s-1.34-.88-2.09-1.1c-3.12-.9-6.16-2-9.19-3.16a13.64,13.64,0,0,1-8.34-8.72,26.9,26.9,0,0,1-1.7-9.27C613.57,178.27,613.48,171.44,613.48,164.61Z"/><path class="cls-3" d="M483.48,164.14c0,7.49-.36,15,.08,22.48.65,11.19,6.7,16.91,18,18.95,6,1.09,11.26-1.31,16.73-2.87,1.59-.45,3.08-1.23,4.81-1.24,2.43,0,4.28,1,5.17,3.2s0,4.05-1.83,5.49c-4,3.14-8.7,4.83-13.3,6.71-8.38,3.43-17,5.95-26.19,5.15-13-1.14-23.53-6.29-29.56-18.57a8.65,8.65,0,0,1-.91-4.06c0-17.66-.06-35.32-.45-53-.08-3.58-1.41-5.79-4.47-7.29A32,32,0,0,1,440,130.24c-1-1.24-1.11-2,.45-3q19.49-12.54,38.87-25.25c1.16-.76,1.77-1,2.64.44a15.56,15.56,0,0,1,2.65,7.66c.07,2.16.24,4.32.37,6.48.21,3.35.22,3.45,3.72,3.37,6.08-.13,12.15-.42,18.22-.64s12.11.14,18.15.36c1.39.06,2,.44,2,2,.12,2.29,1.51,4.33,1.76,6.69.42,4-1.45,7.07-5.37,8.07a18.4,18.4,0,0,1-4.18.59c-10.91.23-21.82.77-32.72.42-2.42-.07-3,.9-3.08,2.93C483,148.31,483.31,156.23,483.48,164.14Zm36.67,43.35c-1.56.49-3.13.95-4.67,1.47-5.78,2-11.58,2.65-17.63,1.11-12.19-3.11-18.37-10.77-19.25-21.7-1.17-14.61-.72-29.3-.5-44a51,51,0,0,1,.95-8.15c.52-2.87,1.74-3.74,4.58-3.73,8.83,0,17.65,0,26.47-.48,3.73-.19,7.49.34,11.21-.36,1.5-.28,2.85-.7,2.32-2.71s.07-4.45-3.11-4.43c-8.46,0-16.92-.42-25.37.33a38.84,38.84,0,0,1-10.71-.22c-3-.57-4.38-2.06-4.54-5.21-.14-3-.36-6-.4-9,0-2-.61-2.08-2.15-1.06q-14.61,9.57-29.29,19c-1.76,1.13-1.4,1.71,0,2.73,3,2.13,6.48,3.41,9.31,5.79a9.25,9.25,0,0,1,3.56,6.88c.17,3.82.36,7.65.38,11.48q.17,21.36.19,42.72a9,9,0,0,0,1.11,4.53c5.52,9.9,14.62,13.67,25.26,14.4,9.47.65,18.17-2.56,26.69-6.23C516.54,209.89,518.61,209.23,520.15,207.49Zm1.07-.28-.08.1h.14Z"/><path class="cls-3" d="M770,165.71a187.3,187.3,0,0,0,.5,22.23c.65,6.64,3.53,12.09,9.9,15.12s12.69,3.76,19.35,1.34c2.26-.82,4.56-1.53,6.85-2.27a10.21,10.21,0,0,1,3.91-.65,5.06,5.06,0,0,1,4.73,3.49c.69,1.93-.16,3.6-1.65,4.88-3.14,2.7-7,4.18-10.7,5.79-9.31,4-18.84,7.24-29.17,6.36-13-1.11-23.52-6.32-29.54-18.61a7.42,7.42,0,0,1-.77-3.35q-.21-24.61-.48-49.24c0-1.58-.27-3.17-.15-4.74.28-3.67-1.75-5.65-4.73-7.12a31.54,31.54,0,0,1-11-8.42c-1.15-1.43-1.45-2.19.41-3.38Q746.9,114.7,766.14,102c1.44-1,2-.52,2.76.65a15.21,15.21,0,0,1,2.61,8.2c0,2.17.31,4.34.18,6.5s.81,2.65,2.61,2.59c6.32-.21,12.65-.33,19-.64,5.93-.28,11.83.25,17.74.28,1.78,0,2.82.4,3,2.59.22,2.35,1.59,4.5,1.64,7,.07,3.69-1.59,6.25-5.15,7.26a18.43,18.43,0,0,1-4.68.67c-10.92.18-21.83.69-32.74.41-2-.06-2.5.58-2.68,2.48C769.6,148.55,770.32,157.14,770,165.71Zm37,41.81-4,1.22c-5.11,1.57-10.17,2.88-15.66,1.85-10.52-2-18.23-7.13-21.15-17.88-1.21-4.44-1.18-9.06-1.19-13.64,0-11.5,0-23,0-34.49a35.39,35.39,0,0,1,1-8.64c.55-2.2,1.7-3.52,4.37-3.46,8.91.2,17.82,0,26.73-.4,3.49-.16,7,0,10.48-.24,1.9-.11,3.26-.9,2.93-3.33-.38-2.86-1.18-3.94-3.64-3.95-5.16,0-10.33,0-15.49-.06-5.92-.1-11.79.84-17.72.52-5.37-.29-7.1-2-7.18-7.38,0-2.42,0-4.84-.08-7.25-.06-1.48-.5-2.08-2.12-1q-14.68,9.69-29.5,19.17c-1.57,1-1.18,1.71,0,2.44,2.47,1.54,5,3,7.48,4.5a10.84,10.84,0,0,1,5.71,9.85c0,5.83.2,11.66.32,17.48.23,11.58.2,23.16.15,34.73a11.32,11.32,0,0,0,1.93,6.55c5.74,8.83,14.45,12.16,24.41,12.88,7.71.56,15-1.62,22.08-4.38A43.3,43.3,0,0,0,807,207.52Z"/><path class="cls-3" d="M677,135l12.06-8a112.18,112.18,0,0,1,11.07-6.73,10.59,10.59,0,0,1,7.72-.92,57.66,57.66,0,0,1,10.63,3.46,9.27,9.27,0,0,1,3.38,2.5,3.41,3.41,0,0,1,.49,4.29c-2.33,4.11-4,8.56-6.76,12.46s-5.78,4.65-9.84,2.19c-1.91-1.15-3.61-2.66-5.43-4-3.12-2.24-6.12-2.74-9.53-.21-3.73,2.78-7.5,5.51-11.23,8.3a4.25,4.25,0,0,0-1.76,3.82c.06,17.16,0,34.32.08,51.48a7.21,7.21,0,0,1-2.7,6.12C669.93,214,664.6,218,658,219.61c-4.87,1.18-7.16-.48-8-5.45a61.9,61.9,0,0,1-.68-11c.07-16.74.24-33.48.29-50.22a56.06,56.06,0,0,0-.34-6.71c-.57-4.75-3.22-7.4-7.61-8.73a30.29,30.29,0,0,1-4.85-1.94,5.21,5.21,0,0,1-3.14-5.48c.31-2.34,2.24-3.41,4.44-3.77,5.82-.95,11.74-1.21,17.46-2.81,3.92-1.1,7.86-2.09,11.78-3.18a14.81,14.81,0,0,1,5-.3,5.85,5.85,0,0,1,5,6.13,13.84,13.84,0,0,0-.3,1.93C677,130.2,677,132.28,677,135Zm-36.66-3.48c1.95.81,3.89,1.66,5.86,2.42a11.47,11.47,0,0,1,7.27,8.29,38.65,38.65,0,0,1,1.12,6.36c.57,6.49,0,13,0,19.46-.1,12.16-.08,24.33-.08,36.49a59.26,59.26,0,0,0,.4,8.2c.28,2.07,1,2.38,2.7,1.75a51.23,51.23,0,0,0,13.91-8.21c1.18-.92,1.1-2.13,1.1-3.38,0-17.16,0-34.32,0-51.48a6.92,6.92,0,0,1,2.55-5.89,139.24,139.24,0,0,1,13-9.68c5.92-3.81,9.55-3.69,15.33.43,1.43,1,2.78,2.11,4.16,3.19,1.72,1.36,3.1,1.25,4.17-.83,1.29-2.52,2.68-5,4-7.5,1.7-3.3,1.67-3.31-1.75-4.64l-.69-.28c-5.82-2.58-11.14-2.37-16.47,1.71s-10.91,7.3-16.41,10.88c-1.75,1.14-3.57,1.84-5.61.7a5.51,5.51,0,0,1-3-5.37c0-1.91.07-3.83.12-5.74.1-3.71-.12-4-3.71-3C659.08,127.84,650,130.64,640.32,131.53Z"/><path class="cls-4" d="M135.89,177.46c0,6.25.09,12.5,0,18.74-.18,11.46,4.88,15.24,15.69,15.78,7.06.36,14.16.1,21.24.12,1,0,2.23-.4,2.2,1.43s-1.18,1.51-2.23,1.5c-7.08-.05-14.08-1.18-21.12-1.7-2.33-.17-4.65-.16-7-.17-8.83,0-17.66-.08-26.5,0-6.82.06-13.57,1.06-20.35,1.67-3.56.32-7.13.59-10.69.83-.62,0-1.44.12-1.58-.8s.47-1.14,1.18-1.32a32.59,32.59,0,0,1,6.88-1c4.4-.16,8.8-.49,13.2-.74,3.59-.2,5.52-2.41,6.62-5.54,1.76-5,2.23-10.22,2.52-15.44.7-12.49.39-25,.42-37.48,0-11.83.27-23.67-.07-35.49a203.77,203.77,0,0,0-4.25-38.11c-1.34-6.1-4.77-9.22-10.87-10.27C94.61,68.32,87.94,68.22,81.39,67c-1.3-.24-2.57-.65-3.85-1-.59-.16-1.15-.45-.9-1.21s.82-.48,1.43-.38c6.84,1.16,13.68,2.27,20.53,3.4a177.05,177.05,0,0,0,33.33,2.05c3.89-.08,6.69-2.51,9.31-4.88,18.38-16.68,50.64-15.1,67.54-1.09a39.19,39.19,0,0,1,14.67,30,62.31,62.31,0,0,1-.64,12.94c-1.6,9.33-7.17,16-14.52,21.31-5.38,3.91-11,7.48-16.6,11.09-1.58,1-1.79,1.77-.86,3.52,9,16.83,20.31,32,32,47a84.17,84.17,0,0,1,7.44,10.63c3.52,6.34,8.89,9.14,15.83,9.66a35.27,35.27,0,0,1,3.69.54c.71.13,1.69.2,1.64,1.16s-1.11.78-1.79.78c-5.83,0-11.66,0-17.5,0-2.66,0-5.38-.35-8,.06-6.63,1-10.9-2.55-14.69-7.07-6.65-7.94-11.66-17-17.48-25.54-6.39-9.36-12.78-18.71-20.26-27.25-8-9.11-18.07-13.61-30.13-13.76-3.54,0-4.21.58-4.67,4.05a164,164,0,0,0-.92,16.43c-.19,6,0,12,0,18ZM201,103.06a38,38,0,0,0-1-10.37c-2.71-11.85-8.45-21.57-20-26.68A41.79,41.79,0,0,0,154,63.43c-10.49,2.19-17,8.32-18.29,18.84-1.42,11.48-1.71,23.12.35,34.58,1.44,8,6.23,13.75,13.72,17a42.47,42.47,0,0,0,25.45,2.46C189.08,133.55,201.56,122.21,201,103.06Z"/><path class="cls-4" d="M416.34,204.9a37.75,37.75,0,0,0,3.81-6.12c2.41-5.39,2.64-10.85.09-16.17-4.8-10-12.34-15.88-24-16.2-7-.19-14-.23-20.9-1.36-4.82-.78-8.08-3-10-7.79-5.73-14.26,1.12-24.68,14.85-30.79a31.74,31.74,0,0,0-3.5,9c-1.6,7.91,1.24,13.09,8.85,15.75,5.7,2,11.63,2.73,17.58,3.35a162.61,162.61,0,0,1,17,2.59c8.37,1.78,16.2,11.85,14.29,22.49s-6.81,19.38-16.5,24.91c-.43.24-.9.42-1.35.62Z"/><path class="cls-4" d="M408,209.56c-3.34,2.16-7.16,3-11,3.69A38.42,38.42,0,0,1,376.63,212a16.42,16.42,0,0,1-9.47-8,11.15,11.15,0,0,1,5.55-15c1.56-.67,1.91.29,2.52,1.12a57.83,57.83,0,0,0,15,14.43,30.12,30.12,0,0,0,17.69,5Z"/><path class="cls-4" d="M401.1,120.59c5.85-1.27,11.62-2.33,17.49-1,3.27.75,5.55,2.75,6.14,6.14.55,3.08-1.5,4.9-3.71,6.52a12.81,12.81,0,0,1-1.9,1.18c-4,2-5.22,1.64-7.15-2.44C409.68,126.16,406.88,122,401.1,120.59Z"/><path class="cls-4" d="M408,209.52a.64.64,0,0,1,.79-.38c.07,0,.12.17.18.26l-.94.16Z"/><path class="cls-4" d="M416.57,205.14c-.14.22-.3.39-.51.09,0,0,.18-.21.28-.33Z"/><path class="cls-4" d="M338.56,196.64c-4.39,5-8.18,10.67-15,13-6.36,2.16-12.47,5.13-19.24,5.93-9.55,1.14-17.55-2.45-24.29-8.77S269.68,192.12,268.53,183a75.13,75.13,0,0,1,4.05-35.83,28.7,28.7,0,0,1,13.61-15.7c9.09-4.94,18.83-6.29,29-4.9a16.43,16.43,0,0,1,7.38,3.46c2.42,1.76,4.77,3.63,7.09,5.53,2,1.63,4.15,2.75,6.82,2.52v0c-5,3.85-10.94,6.13-16.52,9a26.09,26.09,0,0,1-5.88,2.63l-.26-.31c4-3.26,4.14-4.4,1-8.57a69.47,69.47,0,0,0-9.82-9.88c-2.35-2.06-4.91-2.06-7.67-1a13.29,13.29,0,0,0-7.4,7.37,83.86,83.86,0,0,0-6.46,23.89c-.19,1.56-.07,2,1.73,1.54a51.79,51.79,0,0,0,9.08-3.37c1.51-.67,3-1.32,4.55-2l.28.28c-2.37,1.52-4.81,2.94-7.1,4.57-10.42,7.38-10.28,10-7.72,20.41,3.33,13.53,11.73,22.5,26.1,24.78,8.32,1.32,15.32-1.61,21.71-6.65,2-1.58,3.93-3.33,6.39-4.23Z"/><path class="cls-2" d="M289.41,155.85A98.64,98.64,0,0,1,293.77,141a18,18,0,0,1,1.75-3.3c2.55-3.82,4.93-4.16,8.22-1.08,2.24,2.1,4.35,4.36,6.47,6.58.6.63,1.41,1.34,0,2.13C303.58,149.09,296.79,152.53,289.41,155.85Z"/><path class="cls-5" d="M313,150.16A2.1,2.1,0,0,1,311,151h0a2.89,2.89,0,0,1,1.88-1.07A.31.31,0,0,1,313,150.16Z"/><path class="cls-4" d="M312.86,150l.95-.63.26.31-1,.51A.31.31,0,0,0,312.86,150Z"/><path class="cls-5" d="M311,151c-.14.57-.56.56-1,.5h0c.19-.45.58-.5,1-.5Z"/><path class="cls-5" d="M305.47,154l-.48.41-.16-.27.65-.12Z"/><path class="cls-5" d="M305.48,154.05c.15-.54.57-.54,1-.5l0,0a.88.88,0,0,1-1,.5Z"/><path class="cls-4" d="M338.45,196.51c.17-.12.34-.24.52-.35,0,0,.1.11.15.16l-.56.32Z"/><path class="cls-5" d="M309,152.05a1,1,0,0,1,1-.51h0c-.14.58-.57.55-1,.49Z"/><path class="cls-4" d="M336.48,138.05l.2-.35c.37.39-.09.25-.21.33Z"/><path class="cls-5" d="M309,152l-.17.36c-.38-.37.1-.24.2-.33Z"/><polygon class="cls-5" points="307.74 152.68 307.81 152.84 307.63 152.82 307.74 152.68"/><path class="cls-5" d="M306.49,153.55l.19-.35c.35.39-.11.24-.22.33Z"/><polygon class="cls-4" points="302.08 155.77 302.26 155.72 302.25 155.86 302.08 155.77"/><path class="cls-4" d="M298.79,157.35l.55-.12-.27.4Z"/><path class="cls-4" d="M300.37,156.82c-.05,0-.11.11-.16.1s-.1-.08-.15-.13.12-.11.17-.1S300.32,156.77,300.37,156.82Z"/><polygon class="cls-4" points="301.23 156.18 301.31 156.34 301.12 156.32 301.23 156.18"/><path class="cls-5" d="M613.48,164.61c0,6.83.09,13.66,0,20.49a26.9,26.9,0,0,0,1.7,9.27,13.64,13.64,0,0,0,8.34,8.72c3,1.16,6.07,2.26,9.19,3.16.75.22,1.92.21,2.09,1.1s-1,1.21-1.61,1.7c-9,7.14-18.41,5.46-27.85,1-3.34-1.58-5.94-4.24-8.89-6.39-5.15-3.75-8.44-3.69-13.55.19a80,80,0,0,1-10.44,7.25,21.33,21.33,0,0,1-9,2.8c-6.3.28-12.64.73-18.89-.78-8.45-2-11.81-9-8.33-17.07,2.33-5.41,6.75-8.73,11.33-12,6.34-4.47,13.62-6.86,20.77-9.56,5.44-2,10.95-3.93,16.12-6.66,9.61-5.08,12.34-10.24,7.44-22.36-3.7-9.12-11.66-13.28-21-15-5.77-1-10.73,1.42-15.63,3.94-1.69.87-3.21,2.1-3.13,4.16.08,2.28,1.57,3.75,3.58,4.72.72.35,2,.31,2,1.19,0,1-1.24,1.18-2,1.55-5.24,2.48-10.64,3.49-15.55-.36s-4.46-7.16-1.41-10.21a22.6,22.6,0,0,1,6.92-4.4c11.39-5.07,23.23-8.16,35.79-7.57,6.47.31,12.46,2.73,18.39,5.18a36.26,36.26,0,0,1,8.87,5c3.06,2.45,5,5.4,4.85,9.61C613.34,150.44,613.48,157.52,613.48,164.61ZM588.35,174a116.15,116.15,0,0,0-19.68,10,32.4,32.4,0,0,0-8.07,6.57,5.24,5.24,0,0,0-1.55,3.31c0,5.06,2.48,8.07,7.47,9a12,12,0,0,0,6.79-1C584.93,197.08,589.7,187.47,588.35,174Z"/><path class="cls-4" d="M520.15,207.49c-1.54,1.74-3.61,2.4-5.56,3.24-8.52,3.67-17.22,6.88-26.69,6.23-10.64-.73-19.74-4.5-25.26-14.4a9,9,0,0,1-1.11-4.53q0-21.36-.19-42.72c0-3.83-.21-7.66-.38-11.48A9.25,9.25,0,0,0,457.4,137c-2.83-2.38-6.32-3.66-9.31-5.79-1.43-1-1.79-1.6,0-2.73q14.7-9.42,29.29-19c1.54-1,2.12-.93,2.15,1.06,0,3,.26,6,.4,9,.16,3.15,1.5,4.64,4.54,5.21a38.84,38.84,0,0,0,10.71.22c8.45-.75,16.91-.3,25.37-.33,3.18,0,2.62,2.57,3.11,4.43s-.82,2.43-2.32,2.71c-3.72.7-7.48.17-11.21.36-8.82.45-17.64.52-26.47.48-2.84,0-4.06.86-4.58,3.73a51,51,0,0,0-.95,8.15c-.22,14.65-.67,29.34.5,44,.88,10.93,7.06,18.59,19.25,21.7,6,1.54,11.85.86,17.63-1.11C517,208.44,518.59,208,520.15,207.49Z"/><polygon class="cls-4" points="521.22 207.21 521.28 207.32 521.14 207.31 521.22 207.21"/><path class="cls-4" d="M807,207.52a43.3,43.3,0,0,1-10.13,5.08c-7.1,2.76-14.37,4.94-22.08,4.38-10-.72-18.67-4-24.41-12.88a11.32,11.32,0,0,1-1.93-6.55c0-11.57.08-23.15-.15-34.73-.12-5.82-.3-11.65-.32-17.48a10.84,10.84,0,0,0-5.71-9.85c-2.49-1.5-5-3-7.48-4.5-1.19-.73-1.58-1.43,0-2.44q14.81-9.5,29.5-19.17c1.62-1.07,2.06-.47,2.12,1,.1,2.41,0,4.83.08,7.25.08,5.36,1.81,7.09,7.18,7.38,5.93.32,11.8-.62,17.72-.52,5.16.09,10.33,0,15.49.06,2.46,0,3.26,1.09,3.64,3.95.33,2.43-1,3.22-2.93,3.33-3.49.2-7,.08-10.48.24-8.91.38-17.82.6-26.73.4-2.67-.06-3.82,1.26-4.37,3.46a35.39,35.39,0,0,0-1,8.64c0,11.5,0,23,0,34.49,0,4.58,0,9.2,1.19,13.64,2.92,10.75,10.63,15.92,21.15,17.88,5.49,1,10.55-.28,15.66-1.85Z"/><path class="cls-4" d="M640.32,131.53c9.66-.89,18.76-3.69,27.95-6.13,3.59-1,3.81-.7,3.71,3-.05,1.91-.07,3.83-.12,5.74a5.51,5.51,0,0,0,3,5.37c2,1.14,3.86.44,5.61-.7,5.5-3.58,11.2-6.9,16.41-10.88s10.65-4.29,16.47-1.71l.69.28c3.42,1.33,3.45,1.34,1.75,4.64-1.29,2.52-2.68,5-4,7.5-1.07,2.08-2.45,2.19-4.17.83-1.38-1.08-2.73-2.18-4.16-3.19-5.78-4.12-9.41-4.24-15.33-.43a139.24,139.24,0,0,0-13,9.68,6.92,6.92,0,0,0-2.55,5.89c.05,17.16,0,34.32,0,51.48,0,1.25.08,2.46-1.1,3.38a51.23,51.23,0,0,1-13.91,8.21c-1.72.63-2.42.32-2.7-1.75a59.26,59.26,0,0,1-.4-8.2c0-12.16,0-24.33.08-36.49.05-6.49.58-13,0-19.46a38.65,38.65,0,0,0-1.12-6.36,11.47,11.47,0,0,0-7.27-8.29C644.21,133.19,642.27,132.34,640.32,131.53Z"/><path class="cls-3" d="M201,103.06c.58,19.15-11.9,30.49-25.74,33.22a42.47,42.47,0,0,1-25.45-2.46c-7.49-3.22-12.28-9-13.72-17-2.06-11.46-1.77-23.1-.35-34.58C137,71.75,143.52,65.62,154,63.43A41.79,41.79,0,0,1,179.91,66c11.58,5.11,17.32,14.83,20,26.68A38,38,0,0,1,201,103.06Zm-5,.38a43,43,0,0,0-1-9.67c-2.85-12.51-9.44-21.72-22.56-25A41.18,41.18,0,0,0,156,68.16c-8.79,1.38-14,5.93-15.2,14.77a112.83,112.83,0,0,0,.15,32.36c1.19,7.71,6,12.55,13.42,14.92a41.84,41.84,0,0,0,9.07,1.64C181.28,133.5,196.36,122.82,196,103.44Z"/><path class="cls-2" d="M588.35,174c1.35,13.47-3.42,23.08-15,27.85a12,12,0,0,1-6.79,1c-5-.89-7.5-3.9-7.47-9a5.24,5.24,0,0,1,1.55-3.31,32.4,32.4,0,0,1,8.07-6.57A116.15,116.15,0,0,1,588.35,174Z"/><path class="cls-2" d="M196,103.44c.41,19.38-14.67,30.06-32.48,28.41a41.84,41.84,0,0,1-9.07-1.64C147,127.84,142.17,123,141,115.29a112.83,112.83,0,0,1-.15-32.36c1.18-8.84,6.41-13.39,15.2-14.77a41.18,41.18,0,0,1,16.36.66c13.12,3.23,19.71,12.44,22.56,25A42.41,42.41,0,0,1,196,103.44Z"/></g></g></svg>