<svg xmlns="http://www.w3.org/2000/svg" viewBox="0 0 671.38 313.63"><defs><style>.cls-1{fill:#8f7a3c;}.cls-2{fill:#fefefe;}.cls-3{fill:#8f7b3d;}.cls-4{fill:#040401;}</style></defs><title>roll button</title><g id="Layer_2" data-name="Layer 2"><g id="Layer_1-2" data-name="Layer 1"><path class="cls-1" d="M335.54,313.62q-131,0-262,0c-36.2,0-67.94-28-72.67-64A102.05,102.05,0,0,1,0,236.47q0-80.5,0-161C0,41.92,20.72,13.53,52.65,3.31A63.63,63.63,0,0,1,72.05.13q136,0,272,0c84.92,0,169.83-.3,254.74.2,27.75.16,48.62,13.91,62.8,37.65,7,11.69,9.73,24.57,9.75,38q.1,80.86,0,161.74c0,21.42-7.37,40-22.84,55a72.39,72.39,0,0,1-43.73,20.52,84.32,84.32,0,0,1-9,.41Zm.09-16.64H594.36a80,80,0,0,0,11.45-.81c27.15-3.9,48.61-28.57,48.62-56q0-83.25,0-166.49a53.5,53.5,0,0,0-1.8-13.57c-6.73-25.82-29.74-43.36-56.95-43.36H76a71,71,0,0,0-10.7.86c-27.15,4.08-48.34,28.6-48.34,56v166a54.34,54.34,0,0,0,9.88,31.9C38.65,288.36,55,296.94,75.64,297Q205.63,297.05,335.63,297Z"/><path class="cls-2" d="M335.63,297q-130,0-260,0c-20.61,0-37-8.59-48.82-25.5a54.34,54.34,0,0,1-9.88-31.9v-166c0-27.4,21.19-51.92,48.34-56A71,71,0,0,1,76,16.7H595.69c27.21,0,50.22,17.54,56.95,43.36a53.5,53.5,0,0,1,1.8,13.57q0,83.25,0,166.49c0,27.47-21.47,52.14-48.62,56a80,80,0,0,1-11.45.81ZM125.41,178.13c-.23,12.15.48,26.82-.5,41.47-.38,5.55-.7,11.14-3,16.35a3.45,3.45,0,0,1-2.88,2.29c-2.33.41-4.63.17-6.94.38-6,.53-12,.06-17.81,2-4,1.3-5.43,3.49-4.81,7s3.13,5.59,6.93,5.51c2.74-.06,5.46-.46,8.2-.67,10.12-.75,20.17-2.37,30.35-2.3,9,0,18,.12,27,0,7.52-.11,14.95.73,22.41,1.42,4.71.44,9.43,1,14.2.66,1.95-.16,3.61-.71,4.55-2.55,3-5.8-.15-11-6.61-11q-11,0-22,0a37.62,37.62,0,0,1-9.16-1.08,8.17,8.17,0,0,1-6.55-6.69,31,31,0,0,1-.65-7.91c.52-12.73,0-25.46.4-38.18.22-6.32.2-12.66.76-19,.18-2,.92-2.26,2.62-2.12,11.55.93,21.36,5.34,29.07,14.16,4.11,4.71,7.94,9.64,11.65,14.67C211.8,204.91,220,218,228.49,230.79c4.07,6.14,8.7,11.79,14.79,16.11a12.08,12.08,0,0,0,7.4,2.43c11.92-.11,23.83,0,35.75,0,4.67,0,5-.21,6.59-4.58a5,5,0,0,0-2-6.09c-2.78-2-6.06-2.16-9.24-2.48-5.63-.57-10.39-2.25-13.49-7.55-4.46-7.63-10.06-14.49-15.47-21.46-10.62-13.69-20.74-27.71-29-43-.86-1.57-.83-2.3.78-3.3,4.73-2.94,9.44-6,14-9.18,7.6-5.43,14.37-11.68,18.18-20.48,3.42-7.9,4-16.31,3.65-24.74-.89-19.1-9.33-33.94-25.82-43.85-13.27-8-27.86-10-43.05-8.78a60.41,60.41,0,0,0-35.25,14.83c-1.14,1-2.38,1.82-3.57,2.73a8.71,8.71,0,0,1-5.55,1.77c-11.26.08-22.48-.18-33.63-2C104.67,69.69,95.75,68.7,87,66.57c-3.64-.89-6.56.86-7.73,4.53-1.09,3.39.07,5.69,3.79,7.25a38.77,38.77,0,0,0,10.44,2.29c6.35.8,12.74,1.09,19.06,2.3,4.73.9,6.92,3.32,7.94,7.83a218.24,218.24,0,0,1,4.8,42.6C125.68,147.44,125.41,161.53,125.41,178.13ZM449.2,143.38h.48c0-8.92.07-17.83,0-26.75-.18-18.16.06-36.32-.71-54.47-.2-4.59-1.59-6-6.07-5.14-11.58,2.14-22.56,6.25-33.33,10.91-6.71,2.9-6.77,3.81-1.43,8.94,3.79,3.63,7.67,7.18,10.75,11.47,1.12,1.56,2.28,3.26,2,5.26a52.13,52.13,0,0,0-.35,8.46c.19,45.16-.75,90.31-.23,135.47,0,2.75.07,5.5.21,8.24.12,2.59,1.17,3.36,3.67,2.82,1.3-.27,2.58-.66,3.87-1,12.83-3.05,25-7.64,35.28-16.17a20.57,20.57,0,0,0,3.72-3.68c1.16-1.61,2.09-3.42.71-5.26a5.1,5.1,0,0,0-5.7-2c-3.69.92-6.86,2.94-10.2,4.6-2.63,1.31-2.61,1.33-2.61-1.47Zm61.8-.32h.49c0-9.08.05-18.16,0-27.24-.11-18.07.33-36.15-.86-54.21-.29-4.27-1.53-5.42-5.69-4.62a152.15,152.15,0,0,0-35.81,12.06c-3.61,1.69-3.75,3.3-.91,6.16,3.46,3.48,7.2,6.68,10.39,10.44a14.44,14.44,0,0,1,4,10.26c-.43,25.4-.52,50.81-.61,76.22-.09,21.66,0,43.32,0,65,0,2.91.21,5.82.42,8.73.19,2.7,1.06,3.31,3.73,2.7,1.95-.44,3.87-1,5.8-1.46,12.61-3.05,24.3-8,34.28-16.52a15.72,15.72,0,0,0,3.15-3.52c1.6-2.56.7-5.12-2.06-6.32a6.46,6.46,0,0,0-4.85.15,66.31,66.31,0,0,0-8.75,4.2c-2.69,1.38-2.68,1.38-2.68-1.54ZM296.5,194.47c0,3.93,0,6.84,0,9.76-.06,14.72,5.53,27,17.37,35.6,14.69,10.68,30.87,14.77,48.33,6.87,13-5.87,23.55-14.9,32.36-26a29.88,29.88,0,0,0,4.6-8.26c4-10.84,5.95-21.94,4.3-33.53-2.46-17.24-10.91-30.46-26.07-39.23-8.9-5.14-18-6.86-28.13-3.24-11.75,4.19-23.62,8-34.5,14.25a32.24,32.24,0,0,0-16.43,23C297,180.84,297,188.18,296.5,194.47Zm268,6.65a3,3,0,0,0-2.26.91,134,134,0,0,0-20.94,20.64c-2.19,2.8-2.24,4.53.09,7.13a88.91,88.91,0,0,0,23.77,18.36,3.61,3.61,0,0,0,4.55-.63c6-5.4,12.13-10.65,18.09-16.08,3.32-3,3.34-4.43.77-8.09-5.85-8.33-13.25-15.1-21.34-21.18A3.81,3.81,0,0,0,564.5,201.12Zm25.93-41.79c-.42-3.3-2.38-5.64-4.72-7.71-5.82-5.14-12.38-9.25-18.84-13.49-3.73-2.46-5-2.43-8.55.38a48.8,48.8,0,0,0-4.09,3.66c-4.54,4.42-8.83,9.06-13,13.83-2.12,2.42-2.09,3.22,0,5.65a13.08,13.08,0,0,0,1.22,1.25,236.65,236.65,0,0,0,20,15.77,15.41,15.41,0,0,0,5.35,2.61,2.54,2.54,0,0,0,2.53-.5,196.38,196.38,0,0,0,18.85-18.54A5,5,0,0,0,590.43,159.33Z"/><path class="cls-3" d="M125.41,178.13c0-16.6.27-30.69-.08-44.76a218.24,218.24,0,0,0-4.8-42.6c-1-4.51-3.21-6.93-7.94-7.83-6.32-1.21-12.71-1.5-19.06-2.3a38.77,38.77,0,0,1-10.44-2.29c-3.72-1.56-4.88-3.86-3.79-7.25,1.17-3.67,4.09-5.42,7.73-4.53,8.72,2.13,17.64,3.12,26.47,4.58,11.15,1.83,22.37,2.09,33.63,2a8.71,8.71,0,0,0,5.55-1.77c1.19-.91,2.43-1.76,3.57-2.73A60.41,60.41,0,0,1,191.5,53.83c15.19-1.22,29.78.81,43.05,8.78,16.49,9.91,24.93,24.75,25.82,43.85.39,8.43-.23,16.84-3.65,24.74-3.81,8.8-10.58,15.05-18.18,20.48-4.53,3.23-9.24,6.24-14,9.18-1.61,1-1.64,1.73-.78,3.3,8.3,15.27,18.42,29.29,29,43,5.41,7,11,13.83,15.47,21.46,3.1,5.3,7.86,7,13.49,7.55,3.18.32,6.46.46,9.24,2.48a5,5,0,0,1,2,6.09c-1.62,4.37-1.92,4.58-6.59,4.58-11.92,0-23.83-.08-35.75,0a12.08,12.08,0,0,1-7.4-2.43c-6.09-4.32-10.72-10-14.79-16.11C220,218,211.8,204.91,202.67,192.5c-3.71-5-7.54-10-11.65-14.67C183.31,169,173.5,164.6,162,163.67c-1.7-.14-2.44.12-2.62,2.12-.56,6.31-.54,12.65-.76,19-.45,12.72.12,25.45-.4,38.18a31,31,0,0,0,.65,7.91,8.17,8.17,0,0,0,6.55,6.69,37.62,37.62,0,0,0,9.16,1.08q11,0,22,0c6.46,0,9.57,5.2,6.61,11-.94,1.84-2.6,2.39-4.55,2.55-4.77.38-9.49-.22-14.2-.66-7.46-.69-14.89-1.53-22.41-1.42-9,.15-18,.08-27,0-10.18-.07-20.23,1.55-30.35,2.3-2.74.21-5.46.61-8.2.67-3.8.08-6.32-2-6.93-5.51s.86-5.69,4.81-7c5.8-1.91,11.86-1.44,17.81-2,2.31-.21,4.61,0,6.94-.38a3.45,3.45,0,0,0,2.88-2.29c2.28-5.21,2.6-10.8,3-16.35C125.89,205,125.18,190.28,125.41,178.13Zm28.53,18.33h.5c0-7.33-.11-14.66.05-22a73.66,73.66,0,0,1,.95-11.94c.41-2.19,1.6-3.34,3.95-3.27,13.43.41,25,4.92,34.19,15a208.87,208.87,0,0,1,13.24,16.6c9.08,12.36,17.18,25.38,25.7,38.12,3.73,5.57,7.94,10.69,13.53,14.55a7.93,7.93,0,0,0,4.85,1.55c8.83-.08,17.67,0,26.5,0,3,0,6-.06,9,0a2.08,2.08,0,0,0,2.44-1.91c.18-1.36-1-1.61-2-1.85a22.44,22.44,0,0,0-4.17-.71c-7.73-.65-14.38-3-18.48-10.34-3.63-6.48-8.39-12.21-12.94-18C239,196.53,227.44,180.37,218,162.73c-.86-1.61-.7-2.29.81-3.24,5.42-3.42,10.82-6.88,16.08-10.53,7.75-5.37,14.75-11.51,18.31-20.6,2.9-7.38,3.11-15.14,2.71-22.9-.76-14.82-6.86-27-18.81-35.91C221.73,58.11,204.18,56,185.77,59c-10.37,1.66-19.27,6.59-27.25,13.35-2.5,2.13-5,4.78-8.53,4.84-11.4.19-22.8.36-34.16-1.27-10-1.45-20-3.25-30-4.87-1.27-.21-1.89,0-2.3,1.13-.47,1.26.24,1.87,1.28,2.26a32.47,32.47,0,0,0,7.27,1.72c6.59.87,13.23,1.36,19.83,2.24,7.72,1,11.63,5.1,13.15,12.66a225.11,225.11,0,0,1,4.56,42.63c.21,27.58.43,55.16-.22,82.74-.15,6.82-.69,13.65-3,20.17-1.55,4.36-3.81,5.91-8.37,6.07-4.32.16-8.65.29-13,.63-3.06.24-6.17.28-9.12,1.31-1.07.37-2.3.61-2.09,2.28s1.42,1.92,2.73,1.84c3.4-.22,6.8-.52,10.2-.81,8.36-.7,16.69-2,25.09-2.07,11.17-.15,22.33,0,33.5-.05,5.5,0,10.95.74,16.42,1.14,5.14.38,10.24,1.26,15.41,1.2,2.1,0,2.28-1.31,2.29-3s-.93-2-2.36-2q-9.37.06-18.75,0A56.91,56.91,0,0,1,164,241.56c-5.39-1.45-8.58-4.9-9.49-10.4a38.61,38.61,0,0,1-.6-6.46C154,215.29,153.94,205.88,153.94,196.46Z"/><path class="cls-3" d="M449.2,143.38v80.23c0,2.8,0,2.78,2.61,1.47,3.34-1.66,6.51-3.68,10.2-4.6a5.1,5.1,0,0,1,5.7,2c1.38,1.84.45,3.65-.71,5.26a20.57,20.57,0,0,1-3.72,3.68C453,240,440.83,244.57,428,247.62c-1.29.31-2.57.7-3.87,1-2.5.54-3.55-.23-3.67-2.82-.14-2.74-.18-5.49-.21-8.24-.52-45.16.42-90.31.23-135.47a52.13,52.13,0,0,1,.35-8.46c.32-2-.84-3.7-2-5.26-3.08-4.29-7-7.84-10.75-11.47-5.34-5.13-5.28-6,1.43-8.94,10.77-4.66,21.75-8.77,33.33-10.91,4.48-.83,5.87.55,6.07,5.14.77,18.15.53,36.31.71,54.47.09,8.92,0,17.83,0,26.75Zm14.24,81.51c-1-.46-1.73.16-2.44.46a120.53,120.53,0,0,0-13.72,7.13c-2.23,1.32-2.38,1.22-2.37-1.34q0-16.63,0-33.25c.07-39.66,1-79.32.09-119-.12-5.24.21-10.5-.37-15.73-.19-1.71-.74-2.23-2.55-1.79a209.85,209.85,0,0,0-30.48,10.23c-1.51.62-1.75,1.16-.42,2.34a118.78,118.78,0,0,1,8.8,8.87,18.24,18.24,0,0,1,5,13.29c-.47,47.41-.83,94.82-.55,142.24,0,6.21-.89,5.88,5.55,4.27,10.78-2.7,20.86-6.85,29.62-13.85C461.07,227.67,462.72,226.76,463.44,224.89Z"/><path class="cls-3" d="M511,143.06v80.47c0,2.92,0,2.92,2.68,1.54a66.31,66.31,0,0,1,8.75-4.2,6.46,6.46,0,0,1,4.85-.15c2.76,1.2,3.66,3.76,2.06,6.32a15.72,15.72,0,0,1-3.15,3.52c-10,8.51-21.67,13.47-34.28,16.52-1.93.47-3.85,1-5.8,1.46-2.67.61-3.54,0-3.73-2.7-.21-2.91-.42-5.82-.42-8.73,0-21.66-.09-43.32,0-65,.09-25.41.18-50.82.61-76.22a14.44,14.44,0,0,0-4-10.26c-3.19-3.76-6.93-7-10.39-10.44-2.84-2.86-2.7-4.47.91-6.16A152.15,152.15,0,0,1,504.93,57c4.16-.8,5.4.35,5.69,4.62,1.19,18.06.75,36.14.86,54.21.06,9.08,0,18.16,0,27.24Zm-4.07,90.53c-.56-2-.14-3.76-.14-5.49-.05-48.07.72-96.14.16-144.21-.08-6.91.18-13.82-.44-20.73-.17-1.91-.74-2.26-2.42-1.77-3.44,1-6.94,1.75-10.34,2.84a185.29,185.29,0,0,0-20.27,7.39c-1.56.71-1.57,1.26-.36,2.4,2.43,2.27,4.85,4.58,7.07,7,3.33,3.69,6.86,7.35,6.76,12.85-.11,6.58-.33,13.16-.36,19.74q-.19,50.09-.31,100.17c0,9.21.16,18.43.13,27.64,0,2.19.64,2.61,2.6,1.85a36.82,36.82,0,0,1,4.3-1.16,74.22,74.22,0,0,0,29.11-14.09,7.77,7.77,0,0,0,3.11-3.72C518.72,226.75,513.05,230.37,506.93,233.59Z"/><path class="cls-3" d="M296.5,194.47c.5-6.29.49-13.63,1.83-20.86a32.24,32.24,0,0,1,16.43-23c10.88-6.24,22.75-10.06,34.5-14.25,10.14-3.62,19.23-1.9,28.13,3.24,15.16,8.77,23.61,22,26.07,39.23,1.65,11.59-.28,22.69-4.3,33.53a29.88,29.88,0,0,1-4.6,8.26c-8.81,11.13-19.39,20.16-32.36,26-17.46,7.9-33.64,3.81-48.33-6.87-11.84-8.6-17.43-20.88-17.37-35.6C296.51,201.31,296.5,198.4,296.5,194.47Zm4.43,5.55c-.11,4.37-.36,10.36,1.33,16.07a38.4,38.4,0,0,0,18.48,23.29c12.44,7,25.54,10,39.34,3.6,11.77-5.45,21.53-13.49,29.85-23.34a27,27,0,0,0,4.74-7.6c4.56-11.87,6.58-24,3.79-36.65-3.85-17.49-14.25-29.12-30.83-35.39-3.54-1.34-7.32-2.09-11-1.06-14,3.87-27.69,8.48-40.29,15.82a26.84,26.84,0,0,0-13.39,18.14C301.15,181.32,300.89,189.89,300.93,200Z"/><path class="cls-3" d="M564.5,201.12a3.81,3.81,0,0,1,2.73,1.06c8.09,6.08,15.49,12.85,21.34,21.18,2.57,3.66,2.55,5.07-.77,8.09-6,5.43-12.1,10.68-18.09,16.08a3.61,3.61,0,0,1-4.55.63,88.91,88.91,0,0,1-23.77-18.36c-2.33-2.6-2.28-4.33-.09-7.13A134,134,0,0,1,562.24,202,3,3,0,0,1,564.5,201.12Zm2.34,43c.48-.37.95-.7,1.37-1.08,5.19-4.56,10.31-9.21,15.59-13.67,1.9-1.61,1.91-2.87.48-4.75a101.79,101.79,0,0,0-18.27-18,1.9,1.9,0,0,0-2.84.11c-6.14,5.62-12.39,11.12-17.76,17.53-1.31,1.55-1.08,2.47.16,3.77a93.17,93.17,0,0,0,20.08,15.53C566,243.77,566.39,243.91,566.84,244.13Z"/><path class="cls-3" d="M590.43,159.33a5,5,0,0,1-1.26,2.91,196.38,196.38,0,0,1-18.85,18.54,2.54,2.54,0,0,1-2.53.5,15.41,15.41,0,0,1-5.35-2.61,236.65,236.65,0,0,1-20-15.77,13.08,13.08,0,0,1-1.22-1.25c-2.11-2.43-2.14-3.23,0-5.65,4.16-4.77,8.45-9.41,13-13.83a48.8,48.8,0,0,1,4.09-3.66c3.59-2.81,4.82-2.84,8.55-.38,6.46,4.24,13,8.35,18.84,13.49C588.05,153.69,590,156,590.43,159.33Zm-4.49-.29a7.77,7.77,0,0,0-2.28-3.37c-5.68-5.47-12.47-9.42-18.91-13.85-1.5-1-2.59-.89-4,.22-4.49,3.64-8.25,8-12.18,12.19-4.31,4.59-4.35,4.7.39,8.62a186.2,186.2,0,0,0,16.86,12.87c1,.67,2.06,1.48,3.36.33A199.16,199.16,0,0,0,585,160.42,10.34,10.34,0,0,0,585.94,159Z"/><path class="cls-4" d="M153.94,196.46c0,9.42,0,18.83,0,28.24a38.61,38.61,0,0,0,.6,6.46c.91,5.5,4.1,9,9.49,10.4a56.91,56.91,0,0,0,14.36,1.55q9.38.06,18.75,0c1.43,0,2.38.17,2.36,2s-.19,3-2.29,3c-5.17.06-10.27-.82-15.41-1.2-5.47-.4-10.92-1.16-16.42-1.14-11.17,0-22.33-.1-33.5.05-8.4.11-16.73,1.37-25.09,2.07-3.4.29-6.8.59-10.2.81-1.31.08-2.5-.12-2.73-1.84s1-1.91,2.09-2.28c2.95-1,6.06-1.07,9.12-1.31,4.32-.34,8.65-.47,13-.63,4.56-.16,6.82-1.71,8.37-6.07,2.31-6.52,2.85-13.35,3-20.17.65-27.58.43-55.16.22-82.74A225.11,225.11,0,0,0,125.05,91c-1.52-7.56-5.43-11.65-13.15-12.66-6.6-.88-13.24-1.37-19.83-2.24A32.47,32.47,0,0,1,84.8,74.4c-1-.39-1.75-1-1.28-2.26.41-1.09,1-1.34,2.3-1.13,10,1.62,20,3.42,30,4.87,11.36,1.63,22.76,1.46,34.16,1.27,3.54-.06,6-2.71,8.53-4.84,8-6.76,16.88-11.69,27.25-13.35,18.41-3,36-.85,51.36,10.59,12,8.87,18.05,21.09,18.81,35.91.4,7.76.19,15.52-2.71,22.9-3.56,9.09-10.56,15.23-18.31,20.6-5.26,3.65-10.66,7.11-16.08,10.53-1.51.95-1.67,1.63-.81,3.24,9.41,17.64,21,33.8,33.26,49.51,4.55,5.84,9.31,11.57,12.94,18,4.1,7.35,10.75,9.69,18.48,10.34a22.44,22.44,0,0,1,4.17.71c.91.24,2.14.49,2,1.85a2.08,2.08,0,0,1-2.44,1.91c-3-.08-6,0-9,0-8.83,0-17.67-.05-26.5,0a7.93,7.93,0,0,1-4.85-1.55c-5.59-3.86-9.8-9-13.53-14.55-8.52-12.74-16.62-25.76-25.7-38.12a208.87,208.87,0,0,0-13.24-16.6c-9.15-10.11-20.76-14.62-34.19-15-2.35-.07-3.54,1.08-3.95,3.27a73.66,73.66,0,0,0-.95,11.94c-.16,7.33-.05,14.66-.05,22Zm34.43-40.87a37.25,37.25,0,0,0,11.15-1c14-3.49,23.83-11.7,27.38-26a51.63,51.63,0,0,0-3.32-34c-3.8-8.52-9.52-15.31-18.11-19.42a48.22,48.22,0,0,0-30.66-3.64c-12.17,2.33-19.06,9.21-20.89,21.4a136.19,136.19,0,0,0-.22,36.8c1.56,12.8,9.11,20.9,21.64,24.19A43.79,43.79,0,0,0,188.37,155.59Z"/><path class="cls-4" d="M463.44,224.89c-.72,1.87-2.37,2.78-3.76,3.89-8.76,7-18.84,11.15-29.62,13.85-6.44,1.61-5.52,1.94-5.55-4.27-.28-47.42.08-94.83.55-142.24a18.24,18.24,0,0,0-5-13.29,118.78,118.78,0,0,0-8.8-8.87c-1.33-1.18-1.09-1.72.42-2.34a209.85,209.85,0,0,1,30.48-10.23c1.81-.44,2.36.08,2.55,1.79.58,5.23.25,10.49.37,15.73.88,39.66,0,79.32-.09,119q0,16.62,0,33.25c0,2.56.14,2.66,2.37,1.34A120.53,120.53,0,0,1,461,225.35C461.71,225.05,462.43,224.43,463.44,224.89Z"/><path class="cls-4" d="M506.93,233.59c6.12-3.22,11.79-6.84,18.6-9.24a7.77,7.77,0,0,1-3.11,3.72,74.22,74.22,0,0,1-29.11,14.09,36.82,36.82,0,0,0-4.3,1.16c-2,.76-2.61.34-2.6-1.85,0-9.21-.15-18.43-.13-27.64q.11-50.09.31-100.17c0-6.58.25-13.16.36-19.74.1-5.5-3.43-9.16-6.76-12.85-2.22-2.47-4.64-4.78-7.07-7-1.21-1.14-1.2-1.69.36-2.4a185.29,185.29,0,0,1,20.27-7.39c3.4-1.09,6.9-1.86,10.34-2.84,1.68-.49,2.25-.14,2.42,1.77.62,6.91.36,13.82.44,20.73.56,48.07-.21,96.14-.16,144.21C506.79,229.83,506.37,231.57,506.93,233.59Z"/><path class="cls-4" d="M300.93,200c0-10.13.22-18.7,2-27.12a26.84,26.84,0,0,1,13.39-18.14c12.6-7.34,26.32-11.95,40.29-15.82,3.71-1,7.49-.28,11,1.06,16.58,6.27,27,17.9,30.83,35.39,2.79,12.69.77,24.78-3.79,36.65a27,27,0,0,1-4.74,7.6c-8.32,9.85-18.08,17.89-29.85,23.34-13.8,6.38-26.9,3.35-39.34-3.6a38.4,38.4,0,0,1-18.48-23.29C300.57,210.38,300.82,204.39,300.93,200Zm78.1-2.41c0-1.67,0-3.34,0-5,.14-18.16-8.36-31.51-23.3-41-6.16-3.91-12.93-5.81-20.15-2.37a29.86,29.86,0,0,0-12.06,10.21c-7.2,10.49-9.1,22-6.4,34.33,4.82,21.93,18.17,36,39.74,42.15A15.9,15.9,0,0,0,377,223.46C378.67,214.92,379,206.27,379,197.61Z"/><path class="cls-4" d="M566.84,244.13c-.45-.22-.84-.36-1.19-.57A93.17,93.17,0,0,1,545.57,228c-1.24-1.3-1.47-2.22-.16-3.77,5.37-6.41,11.62-11.91,17.76-17.53a1.9,1.9,0,0,1,2.84-.11,101.79,101.79,0,0,1,18.27,18c1.43,1.88,1.42,3.14-.48,4.75-5.28,4.46-10.4,9.11-15.59,13.67C567.79,243.43,567.32,243.76,566.84,244.13Z"/><path class="cls-4" d="M585.94,159a10.34,10.34,0,0,1-.92,1.38,199.16,199.16,0,0,1-15.8,15.63c-1.3,1.15-2.33.34-3.36-.33A186.2,186.2,0,0,1,549,162.85c-4.74-3.92-4.7-4-.39-8.62,3.93-4.18,7.69-8.55,12.18-12.19,1.37-1.11,2.46-1.26,4-.22,6.44,4.43,13.23,8.38,18.91,13.85A7.77,7.77,0,0,1,585.94,159Z"/><path class="cls-1" d="M188.37,155.59a43.79,43.79,0,0,1-13-1.72c-12.53-3.29-20.08-11.39-21.64-24.19a136.19,136.19,0,0,1,.22-36.8c1.83-12.19,8.72-19.07,20.89-21.4a48.22,48.22,0,0,1,30.66,3.64c8.59,4.11,14.31,10.9,18.11,19.42a51.63,51.63,0,0,1,3.32,34c-3.55,14.31-13.37,22.52-27.38,26A37.25,37.25,0,0,1,188.37,155.59Zm-4.58-80.7c-1.2.06-3,0-4.86.26-11.89,1.38-19,6.4-20.61,17.75a136.18,136.18,0,0,0,0,37.83c1.39,10.16,7.88,16.32,17.8,18.9A49.57,49.57,0,0,0,194.2,151c12.77-1.44,22.44-7.56,27.45-19.77,2.89-7.06,2.76-14.49,1.76-21.91C222,99,218,89.83,209.83,82.92,202.53,76.72,193.68,75.07,183.79,74.89Z"/><path class="cls-3" d="M379,197.61c0,8.66-.36,17.31-2,25.85a15.9,15.9,0,0,1-20.12,12.48c-21.57-6.14-34.92-20.22-39.74-42.15-2.7-12.28-.8-23.84,6.4-34.33a29.86,29.86,0,0,1,12.06-10.21c7.22-3.44,14-1.54,20.15,2.37,14.94,9.48,23.44,22.83,23.3,41C379,194.27,379,195.94,379,197.61Zm-4.18,2.48c0-3,.1-6,0-9-.63-16.15-8.33-28.19-22.09-36.17-9.24-5.36-16.07-3.83-23.36,4.1a24.7,24.7,0,0,0-1.89,2.31c-7.5,10.4-8.73,21.95-5.6,34,5,19.32,17.53,31.44,36.71,36.62a11.61,11.61,0,0,0,14-8.54C374.45,215.76,374.37,207.9,374.85,200.09Z"/><path class="cls-2" d="M183.79,74.89c9.89.18,18.74,1.83,26,8C218,89.83,222,99,223.41,109.36c1,7.42,1.13,14.85-1.76,21.91-5,12.21-14.68,18.33-27.45,19.77a49.57,49.57,0,0,1-18.08-1.41c-9.92-2.58-16.41-8.74-17.8-18.9a136.18,136.18,0,0,1,0-37.83c1.62-11.35,8.72-16.37,20.61-17.75C180.75,74.94,182.59,75,183.79,74.89Z"/><path class="cls-2" d="M374.85,200.09c-.48,7.81-.4,15.67-2.27,23.32a11.61,11.61,0,0,1-14,8.54c-19.18-5.18-31.7-17.3-36.71-36.62-3.13-12-1.9-23.59,5.6-34a24.7,24.7,0,0,1,1.89-2.31c7.29-7.93,14.12-9.46,23.36-4.1,13.76,8,21.46,20,22.09,36.17C375,194.1,374.85,197.1,374.85,200.09Z"/></g></g></svg>