<svg xmlns="http://www.w3.org/2000/svg" viewBox="0 0 503.22 209.52"><defs><style>.cls-1{fill:#8f7a3c;}.cls-2{fill:#030301;}.cls-3{fill:#8f7b3f;}.cls-4{fill:#8f7b3e;}.cls-5{fill:#fcfbf9;}</style></defs><title>start</title><g id="Layer_2" data-name="Layer 2"><g id="Layer_1-2" data-name="Layer 1"><path class="cls-1" d="M251.47,209.52H31c-18.18,0-31-12.81-31-31V30.83C0,13.28,12.76.32,30.28,0h1.5Q251.5,0,471.21,0c9.17,0,17.29,2.49,23.7,9.27a28.22,28.22,0,0,1,8.17,20.07c0,49.82-.19,99.65.14,149.47.09,14.5-10.19,28.35-25.8,30.44a39.75,39.75,0,0,1-5.23.26Zm.29-8.58H467.24c2.08,0,4.17,0,6.25,0a21.07,21.07,0,0,0,21-21.5q0-74.74,0-149.49a20.55,20.55,0,0,0-8.09-16.68c-4.51-3.67-9.83-4.56-15.47-4.56q-219.24,0-438.47,0c-.83,0-1.66,0-2.5,0C17.56,9.25,8.62,18.11,8.61,30.22q-.09,74.63,0,149.24a20.14,20.14,0,0,0,2.15,9.41C15,197.06,21.88,200.93,31,200.93Z"/><path class="cls-2" d="M251.76,200.94H31c-9.15,0-16-3.87-20.28-12.06a20.14,20.14,0,0,1-2.15-9.41q0-74.62,0-149.24c0-12.11,9-21,21.37-21.49.84,0,1.67,0,2.5,0q219.24,0,438.47,0c5.64,0,11,.89,15.47,4.56a20.55,20.55,0,0,1,8.09,16.68q0,74.75,0,149.49a21.07,21.07,0,0,1-21,21.5c-2.08.06-4.17,0-6.25,0ZM121.41,161.62c17.85.24,30.89-6.23,40.13-19.83,7.93-11.68,10.87-24.84,9.78-38.74-1.1-14.15-11.1-24.09-24.23-24.73-2.42-.12-2.79-1-2.38-3.09a42,42,0,0,1,5.36-12.83c3.33-5.68,6.72-11.33,10.59-16.65,1.38-1.9,1-3.45-.55-4.83a3.27,3.27,0,0,0-4.9.11,18.91,18.91,0,0,0-2.11,2.46c-1.78,2.62-3.61,5.21-5.2,7.94-1.23,2.1-2.32,2.3-4.25.78-5.63-4.43-11.22-8.91-17.2-12.88-10.52-7-21.17-6.5-31.74-.33-5.82,3.4-10.07,8.47-13.26,14.34C74.58,66,71.5,79.5,74.05,93.81c1.93,10.82,9.85,16.83,19.47,15.57a105.09,105.09,0,0,0,11.27-2.14c10.91-2.66,21.51-6.43,32.57-8.48,8-1.5,13.75,1.75,16.33,9.5a25.76,25.76,0,0,1,1.27,5.58c1,11-1.79,21.15-7.58,30.44-3,4.86-7.43,8.13-13.34,8.69a27.33,27.33,0,0,1-11.58-1.33c-13.65-4.69-25.91-12-38-19.8-2.88-1.85-3.91-1.58-5,1.67a16.21,16.21,0,0,0-.56,2.18c-1.21,6.78-2,13.62-4.52,20.14C72,162,70,168.39,67.83,174.68c-.64,1.87.53,3.86,2.83,4.77,2,.79,2.43-.88,3-2.11a64.11,64.11,0,0,0,2.87-8.23c1.18-3.79,2.45-7.56,3.74-11.31.54-1.6,1.43-2.41,3.39-1.85,2.39.67,4.89.92,7.35,1.36C101.56,159.21,112.06,161.53,121.41,161.62ZM302,117.24c0-5.16,0-10.33,0-15.49a9.77,9.77,0,0,0-3.65-8.13,41.3,41.3,0,0,0-25.07-8.86,51.93,51.93,0,0,0-16.88,2.88c-4.86,1.57-9.76,3.22-13.44,7.1-2.17,2.29-2.72,5-1.19,7.75a10.17,10.17,0,0,0,5.91,5c3.81,1.19,7.4.35,10.86-1.23,1.63-.74,3.7-1.54,3.81-3.56s-2.1-2.47-3.6-3.26l-.23-.1c-1.12-.5-1.21-1-.07-1.63,3.45-1.89,6.92-3.42,11.05-2.22,6.37,1.85,11.2,5.23,12.77,12.07,1,4.33-.33,7-4.27,9a96.25,96.25,0,0,1-11.37,5c-6.83,2.44-13.58,5-19.35,9.61-3.49,2.77-6.18,6-7.1,10.53-1.23,5.94,1.13,10.91,6.75,12.49,9.77,2.73,19.41,2.89,28.11-3.59,1.67-1.24,3.34-2.47,5-3.68a3.39,3.39,0,0,1,4.38.06c1.4,1,2.74,2.17,4.15,3.21,6.75,5,18.2,8.45,26.95,1,1.22-1,2.23-2.05,1.94-3.75s-1.58-2-2.86-2.39c-.71-.22-1.45-.32-2.15-.57-4.51-1.59-9.36-2.77-10.18-8.75a22.53,22.53,0,0,1-.31-2.95C302,127.57,302,122.41,302,117.24Zm-115.5,5.58h.41c0,6.41,0,12.83,0,19.24a7.81,7.81,0,0,0,1.18,4.25c5.38,8.83,13.7,11.73,23.44,11.38,8-.29,15.18-3.43,22.18-7a11.2,11.2,0,0,0,2.24-1.58,2.16,2.16,0,0,0,.91-2.41,2.65,2.65,0,0,0-2.48-1.8,7.49,7.49,0,0,0-2.68.43c-2.6.84-5.22,1.65-7.88,2.33-5.73,1.45-13.41-1.53-16.77-6.32a15.87,15.87,0,0,1-2.66-8.68q-.82-16.23,0-32.46c.19-3.82-.18-3.66,4.15-3.69,8-.06,16,.43,24-.41,3.68-.39,4.79-1.8,4.55-5.17-.3-4.23-1.43-5.4-5.23-5.41-7.17,0-14.33-.17-21.49.32-4.58.31-4.65.09-5-4.38-.19-2.39.06-4.85-1-7.12-.62-1.3-1.29-1.72-2.69-.79Q188.76,82,175.85,90.28c-1.51,1-1.11,1.66-.2,2.66,2.11,2.34,4.85,3.75,7.54,5.25a6,6,0,0,1,3.36,5.89C186.4,110.32,186.5,116.57,186.5,122.82Zm207.5-.17h.2c0,5.66.18,11.33-.06,17-.19,4.56,1.69,8,4.71,11.11a21.81,21.81,0,0,0,9.81,5.72c12.57,3.6,23.54-.93,34.17-6.92,1-.55,1.95-1.51,1.38-2.88a2.69,2.69,0,0,0-3.24-1.73,57.77,57.77,0,0,0-6.43,1.9,18.58,18.58,0,0,1-14.55-.77,13.16,13.16,0,0,1-8-11.24c-1.15-10.71-.27-21.47-.49-32.2,0-1.07.27-2.15.26-3.23,0-2.39,1.11-3,3.41-2.93,7.9.14,15.82.37,23.72-.22,5.26-.4,6.55-2.74,5-7.75-.7-2.24-1.76-3.09-4.22-3-7.48.18-15-.13-22.47.43-4.06.31-4.33-.08-4.6-4.12-.15-2.32.18-4.68-.7-6.92-.64-1.63-1.32-2.4-3.25-1.11-8.37,5.6-16.82,11.06-25.31,16.47-1.59,1-1.34,1.65-.25,2.8a25.68,25.68,0,0,0,7.12,5,6.45,6.45,0,0,1,3.79,6.43C393.93,110.49,394,116.57,394,122.65Zm-67.5,4.4c-.16,8.23-1,16.47,0,24.7.48,4.16,2,5.25,6,3.93,3.69-1.22,6.78-3.51,9.9-5.73a5.87,5.87,0,0,0,2.56-5.32c-.09-12.08,0-24.15-.06-36.23a4.26,4.26,0,0,1,1.75-3.83c2.9-2.23,5.89-4.33,8.89-6.42a5.06,5.06,0,0,1,5.6-.22c1.76.84,3.11,2.22,4.7,3.28,3.09,2.08,4.92,1.79,6.83-1.35,1.54-2.55,2.77-5.3,4.27-7.88.82-1.4.41-2.29-.66-3.22-4-3.43-11.75-4.17-16.25-1.37s-8.68,5.59-13,8.38c-.69.44-1.38,1.14-2.25.52s-.63-1.47-.55-2.31c.1-1.16.3-2.31.32-3.47.06-3.59-1.25-4.87-4.86-4.48a30.93,30.93,0,0,0-5.33,1.23,74,74,0,0,1-14.16,2.82c-1.89.16-4.61-.34-5,2.46s2.19,3.31,4.08,3.85c4.24,1.21,6.75,3.72,7.09,8.2.08,1,.23,2,.23,3C326.51,114.06,326.5,120.55,326.5,127.05Z"/><path class="cls-3" d="M121.41,161.62c-9.35-.09-19.85-2.41-30.4-4.31-2.46-.44-5-.69-7.35-1.36-2-.56-2.85.25-3.39,1.85-1.29,3.75-2.56,7.52-3.74,11.31a64.11,64.11,0,0,1-2.87,8.23c-.57,1.23-1,2.9-3,2.11-2.3-.91-3.47-2.9-2.83-4.77C70,168.39,72,162,74.41,155.83c2.5-6.52,3.31-13.36,4.52-20.14a16.21,16.21,0,0,1,.56-2.18c1.09-3.25,2.12-3.52,5-1.67,12.06,7.75,24.32,15.11,38,19.8A27.33,27.33,0,0,0,134,153c5.91-.56,10.31-3.83,13.34-8.69,5.79-9.29,8.61-19.42,7.58-30.44a25.76,25.76,0,0,0-1.27-5.58c-2.58-7.75-8.29-11-16.33-9.5-11.06,2-21.66,5.82-32.57,8.48a105.09,105.09,0,0,1-11.27,2.14C83.9,110.64,76,104.63,74.05,93.81,71.5,79.5,74.58,66,81.45,53.34,84.64,47.47,88.89,42.4,94.71,39c10.57-6.17,21.22-6.65,31.74.33,6,4,11.57,8.45,17.2,12.88,1.93,1.52,3,1.32,4.25-.78,1.59-2.73,3.42-5.32,5.2-7.94A18.91,18.91,0,0,1,155.21,41a3.27,3.27,0,0,1,4.9-.11c1.56,1.38,1.93,2.93.55,4.83-3.87,5.32-7.26,11-10.59,16.65a42,42,0,0,0-5.36,12.83c-.41,2,0,3,2.38,3.09,13.13.64,23.13,10.58,24.23,24.73,1.09,13.9-1.85,27.06-9.78,38.74C152.3,155.39,139.26,161.86,121.41,161.62ZM75,85.14A26.54,26.54,0,0,0,76.1,95c1.85,5.9,4.91,10.86,11.47,12.32,3.72.83,7.46.17,11.15-.56,10.93-2.17,21.45-5.94,32.28-8.48a46.74,46.74,0,0,1,10.06-1.7c7.3-.08,13,4.51,14.79,12.74,3.15,14.38-.46,27.45-9.38,38.91-4.27,5.5-10.55,7.25-17.48,6.52a43.37,43.37,0,0,1-13.18-3.6A227.54,227.54,0,0,1,85,134.31c-3.44-2.22-3.67-2.14-4.41,2,0,.16,0,.33,0,.49-.69,4.09-1,8.29-2.15,12.25-2.49,8.5-5.29,16.92-8.49,25.19-.56,1.44-.49,2.57.89,3.09,1.63.61,1.52-1.15,1.79-1.94,2-5.92,3.94-11.91,6-17.84,1.13-3.33,2.43-3.89,5.84-3.26,11.6,2.13,23.13,4.73,34.94,5.55,17.44,1.2,31.52-4.89,41.24-19.71,7.48-11.42,9.91-24.16,9-37.66A24,24,0,0,0,146.25,80c-2.74-.09-3.53-.92-3.35-3.71.33-5,2.49-9.29,4.88-13.49,3.41-6,7.06-11.87,11-17.55.5-.72,1.25-1.39.65-2.45-.82-1.45-2.06-1.53-3.36-.15-3.1,3.31-5,7.46-7.65,11.08-1.28,1.76-2.56,2.23-4.34.8-.64-.53-1.36-1-2-1.45C136.43,49,131.11,44.4,125.2,40.64c-4-2.52-8.14-4.53-13-4.6-11-.15-19.58,4.59-26,13.3C78.35,60,75.29,72.14,75,85.14Z"/><path class="cls-4" d="M302,117.24c0,5.17,0,10.33,0,15.5a22.53,22.53,0,0,0,.31,2.95c.82,6,5.67,7.16,10.18,8.75.7.25,1.44.35,2.15.57,1.28.39,2.6.81,2.86,2.39s-.72,2.73-1.94,3.75c-8.75,7.41-20.2,4-26.95-1-1.41-1-2.75-2.16-4.15-3.21a3.39,3.39,0,0,0-4.38-.06c-1.69,1.21-3.36,2.44-5,3.68-8.7,6.48-18.34,6.32-28.11,3.59-5.62-1.58-8-6.55-6.75-12.49.92-4.48,3.61-7.76,7.1-10.53,5.77-4.58,12.52-7.17,19.35-9.61a96.25,96.25,0,0,0,11.37-5c3.94-2,5.27-4.65,4.27-9-1.57-6.84-6.4-10.22-12.77-12.07-4.13-1.2-7.6.33-11.05,2.22-1.14.62-1,1.13.07,1.63l.23.1c1.5.79,3.72,1.17,3.6,3.26s-2.18,2.82-3.81,3.56c-3.46,1.58-7.05,2.42-10.86,1.23a10.17,10.17,0,0,1-5.91-5c-1.53-2.74-1-5.46,1.19-7.75,3.68-3.88,8.58-5.53,13.44-7.1a51.93,51.93,0,0,1,16.88-2.88,41.3,41.3,0,0,1,25.07,8.86,9.77,9.77,0,0,1,3.65,8.13C302,106.91,302,112.08,302,117.24Zm-1.84-.36c0-4.75-.19-9.51,0-14.25a9.44,9.44,0,0,0-4.86-9.17c-6.68-4.1-13.83-6.9-21.81-6.93-5.89,0-11.54,1.4-17.12,3.08a32.58,32.58,0,0,0-11,5.28c-3.4,2.64-3.49,5.51-.59,8.68,3.61,4,11.08,2.9,15.18-.22.84-.64.36-1.17-.28-1.53s-1.4-.55-2-.92c-2.44-1.41-2.49-3.25-.16-4.75,8.49-5.49,21-2.18,25.09,7.07,4,9,1.52,12.25-5,15.63a108.4,108.4,0,0,1-14.08,5.67,51.66,51.66,0,0,0-16.13,8.74,15.61,15.61,0,0,0-5.15,7.23c-1.75,5.4-.12,10.3,4.7,11.8,8.31,2.59,16.72,3,24.6-1.68,2.34-1.4,4.43-3.24,6.68-4.8,3-2.1,5-2,8,.15.74.54,1.47,1.08,2.16,1.69a23.8,23.8,0,0,0,12.51,5.74,16.11,16.11,0,0,0,13.3-3.48c.69-.57,1.72-1.1,1.65-2.07-.09-1.13-1.38-1-2.16-1.29-2.33-.89-4.7-1.66-7.05-2.5a8.34,8.34,0,0,1-5.19-5.37,20.19,20.19,0,0,1-1.34-7.31C300.21,126.54,300.16,121.71,300.16,116.88Z"/><path class="cls-4" d="M186.5,122.82c0-6.25-.1-12.5.05-18.74a6,6,0,0,0-3.36-5.89c-2.69-1.5-5.43-2.91-7.54-5.25-.91-1-1.31-1.69.2-2.66Q188.77,82,201.57,73.55c1.4-.93,2.07-.51,2.69.79,1.09,2.27.84,4.73,1,7.12.36,4.47.43,4.69,5,4.38,7.16-.49,14.32-.35,21.49-.32,3.8,0,4.93,1.18,5.23,5.41.24,3.37-.87,4.78-4.55,5.17-8,.84-16,.35-24,.41-4.33,0-4-.13-4.15,3.69q-.78,16.22,0,32.46a15.87,15.87,0,0,0,2.66,8.68c3.36,4.79,11,7.77,16.77,6.32,2.66-.68,5.28-1.49,7.88-2.33a7.49,7.49,0,0,1,2.68-.43,2.65,2.65,0,0,1,2.48,1.8,2.16,2.16,0,0,1-.91,2.41,11.2,11.2,0,0,1-2.24,1.58c-7,3.57-14.19,6.71-22.18,7-9.74.35-18.06-2.55-23.44-11.38a7.81,7.81,0,0,1-1.18-4.25c0-6.41,0-12.83,0-19.24Zm-9.42-31.18c1.87,2.58,4.71,3.52,7.11,5.08,2.08,1.35,3.71,2.83,3.86,5.68.66,12.56.46,25.14.43,37.7a11.94,11.94,0,0,0,3.08,8.14,19.38,19.38,0,0,0,7.34,5.48c12.88,5.35,24.2.47,35.34-5.45.39-.21,1-.58.65-1.15s-1.08-.61-1.78-.39c-2.53.79-5.05,1.64-7.62,2.33-9.19,2.46-22.83-2-23-16.85-.09-10.5,0-21,0-31.48a27.22,27.22,0,0,1,.32-3c.23-2.07,1.2-2.86,3.45-2.86,8.32,0,16.65-.19,25-.42,1.85,0,4.1,0,4.11-2.82,0-3-1.11-4-4-4.31-7.84-.71-15.65.37-23.47.2-3.55-.08-4.32-.91-4.4-4.49a30.41,30.41,0,0,0-.33-6.46c-.29-1.26-.63-1.46-1.79-.71C193.32,81.17,185.22,86.38,177.08,91.64Z"/><path class="cls-4" d="M394,122.65c0-6.08-.07-12.16,0-18.24A6.45,6.45,0,0,0,390.24,98a25.68,25.68,0,0,1-7.12-5c-1.09-1.15-1.34-1.78.25-2.8,8.49-5.41,16.94-10.87,25.31-16.47,1.93-1.29,2.61-.52,3.25,1.11.88,2.24.55,4.6.7,6.92.27,4,.54,4.43,4.6,4.12,7.49-.56,15-.25,22.47-.43,2.46,0,3.52.8,4.22,3,1.56,5,.27,7.35-5,7.75-7.9.59-15.82.36-23.72.22-2.3,0-3.44.54-3.41,2.93,0,1.08-.28,2.16-.26,3.23.22,10.73-.66,21.49.49,32.2a13.16,13.16,0,0,0,8,11.24,18.58,18.58,0,0,0,14.55.77,57.77,57.77,0,0,1,6.43-1.9,2.69,2.69,0,0,1,3.24,1.73c.57,1.37-.4,2.33-1.38,2.88-10.63,6-21.6,10.52-34.17,6.92a21.81,21.81,0,0,1-9.81-5.72c-3-3.1-4.9-6.55-4.71-11.11.24-5.65.06-11.32.06-17Zm1.5-.35h.5c0,5.66.26,11.34-.07,17-.31,5.1,2.14,8.52,5.65,11.56a20.14,20.14,0,0,0,7.94,4.06c11.78,3.25,22-1.24,32.08-6.58.45-.24,1.14-.65.69-1.36s-1-.45-1.6-.28c-2.78.84-5.52,1.79-8.33,2.53-11,2.92-22.18-5-22.34-15.85-.14-9.58-.17-19.16-.18-28.74,0-2.32.19-4.65.41-7,.19-1.93,1.14-2.76,3.3-2.76,8.32,0,16.65-.22,25-.4a11.3,11.3,0,0,0,2.44-.4c1.66-.39,2.1-1.59,1.67-3s0-3.57-2.51-3.63c-3.91-.08-7.83-.26-11.74-.24-4.33,0-8.65.33-13,.35-3.73,0-4.33-.7-4.43-4.35a39.38,39.38,0,0,0-.34-6.23c-.25-1.38-.56-2-2-1q-11.44,7.53-23,14.94c-1.36.87-.88,1.36,0,2.11a39.47,39.47,0,0,0,5.7,3.57c2.2,1.3,4.16,2.84,4.16,5.76Z"/><path class="cls-4" d="M326.5,127.05c0-6.5,0-13,0-19.49,0-1-.15-2-.23-3-.34-4.48-2.85-7-7.09-8.2-1.89-.54-4.51-1-4.08-3.85s3.15-2.3,5-2.46a74,74,0,0,0,14.16-2.82A30.93,30.93,0,0,1,339.62,86c3.61-.39,4.92.89,4.86,4.48,0,1.16-.22,2.31-.32,3.47-.08.84-.22,1.75.55,2.31s1.56-.08,2.25-.52c4.33-2.79,8.62-5.66,13-8.38s12.23-2.06,16.25,1.37c1.07.93,1.48,1.82.66,3.22-1.5,2.58-2.73,5.33-4.27,7.88-1.91,3.14-3.74,3.43-6.83,1.35-1.59-1.06-2.94-2.44-4.7-3.28a5.06,5.06,0,0,0-5.6.22c-3,2.09-6,4.19-8.89,6.42a4.26,4.26,0,0,0-1.75,3.83c.05,12.08,0,24.15.06,36.23a5.87,5.87,0,0,1-2.56,5.32c-3.12,2.22-6.21,4.51-9.9,5.73-4,1.32-5.49.23-6-3.93C325.51,143.52,326.34,135.28,326.5,127.05Zm1.5-1.92v23.12a39.85,39.85,0,0,0,.38,4.22c.22,2,1.14,2.33,2.86,1.75a35.93,35.93,0,0,0,10.11-5.79,3.94,3.94,0,0,0,1.69-3.58c-.07-12.25,0-24.49-.09-36.74a5.3,5.3,0,0,1,2.23-4.64c2.95-2.31,6-4.47,9.06-6.61a6.9,6.9,0,0,1,7.49-.6,31.82,31.82,0,0,1,5.12,3.52c1.75,1.29,3.22,1.19,4.3-.85L375,91.66c.32-.6.57-1-.18-1.68-3.09-2.68-10-3.5-13.49-1.34-4.85,3-9.59,6.27-14.46,9.28-2.18,1.35-4.17.23-4.36-2.34a39.47,39.47,0,0,1,0-4.74c.13-3.18-.42-3.73-3.6-3-6.2,1.53-12.31,3.49-18.72,4.07-1.1.1-3-.63-3.18,1-.14,1.42,1.81,1.39,2.9,1.81,6.29,2.44,7.78,4.56,8.11,11.25C328.4,113.11,327.89,120.18,328,125.13Z"/><path class="cls-5" d="M75,85.14c.29-13,3.35-25.18,11.2-35.8,6.43-8.71,15-13.45,26-13.3,4.85.07,9,2.08,13,4.6,5.91,3.76,11.23,8.32,16.85,12.47.67.5,1.39.92,2,1.45,1.78,1.43,3.06,1,4.34-.8,2.65-3.62,4.55-7.77,7.65-11.08,1.3-1.38,2.54-1.3,3.36.15.6,1.06-.15,1.73-.65,2.45-3.94,5.68-7.59,11.55-11,17.55-2.39,4.2-4.55,8.53-4.88,13.49-.18,2.79.61,3.62,3.35,3.71a24,24,0,0,1,23.27,22.4c.93,13.5-1.5,26.24-9,37.66-9.72,14.82-23.8,20.91-41.24,19.71-11.81-.82-23.34-3.42-34.94-5.55-3.41-.63-4.71-.07-5.84,3.26-2,5.93-3.92,11.92-6,17.84-.27.79-.16,2.55-1.79,1.94-1.38-.52-1.45-1.65-.89-3.09,3.2-8.27,6-16.69,8.49-25.19,1.15-4,1.46-8.16,2.15-12.25,0-.16,0-.33,0-.49.74-4.1,1-4.18,4.41-2a227.54,227.54,0,0,0,30.84,16.86,43.37,43.37,0,0,0,13.18,3.6c6.93.73,13.21-1,17.48-6.52,8.92-11.46,12.53-24.53,9.38-38.91-1.8-8.23-7.49-12.82-14.79-12.74A46.74,46.74,0,0,0,131,98.3c-10.83,2.54-21.35,6.31-32.28,8.48-3.69.73-7.43,1.39-11.15.56C81,105.88,78,100.92,76.1,95A26.54,26.54,0,0,1,75,85.14ZM87.5,71.9A24.16,24.16,0,0,0,88,78.36c2,9.38,8.28,13.86,17.57,12.25a160.37,160.37,0,0,0,28-7.7,21.48,21.48,0,0,0,5.5-2.9c1.06-.79,1.22-1.4.34-2.57a274.35,274.35,0,0,0-19.15-23.35,49.85,49.85,0,0,0-10.23-8.72A11.63,11.63,0,0,0,95.43,47a18.73,18.73,0,0,0-4,6A47.47,47.47,0,0,0,87.5,71.9Z"/><path class="cls-5" d="M300.16,116.88c0,4.83,0,9.66,0,14.49a20.19,20.19,0,0,0,1.34,7.31,8.34,8.34,0,0,0,5.19,5.37c2.35.84,4.72,1.61,7.05,2.5.78.3,2.07.16,2.16,1.29.07,1-1,1.5-1.65,2.07a16.11,16.11,0,0,1-13.3,3.48,23.8,23.8,0,0,1-12.51-5.74c-.69-.61-1.42-1.15-2.16-1.69-2.93-2.18-4.93-2.25-8-.15-2.25,1.56-4.34,3.4-6.68,4.8-7.88,4.72-16.29,4.27-24.6,1.68-4.82-1.5-6.45-6.4-4.7-11.8a15.61,15.61,0,0,1,5.15-7.23,51.66,51.66,0,0,1,16.13-8.74,108.4,108.4,0,0,0,14.08-5.67c6.51-3.38,9-6.59,5-15.63-4.08-9.25-16.6-12.56-25.09-7.07-2.33,1.5-2.28,3.34.16,4.75.64.37,1.4.55,2,.92s1.12.89.28,1.53c-4.1,3.12-11.57,4.18-15.18.22-2.9-3.17-2.81-6,.59-8.68a32.58,32.58,0,0,1,11-5.28c5.58-1.68,11.23-3.11,17.12-3.08,8,0,15.13,2.83,21.81,6.93a9.44,9.44,0,0,1,4.86,9.17C300,107.37,300.16,112.13,300.16,116.88ZM284,127.08c0-.33,0-.66,0-1-.07-5.63-.66-6-5.7-3.87l-.68.31c-6.06,2.77-12,5.71-17.12,10.13-3.28,2.86-4,5.85-2.51,9.63,1.76,4.57,7.12,6.47,12.71,4.52C279,143.9,283.93,136.63,284,127.08Z"/><path class="cls-5" d="M177.08,91.64c8.14-5.26,16.24-10.47,24.29-15.75,1.16-.75,1.5-.55,1.79.71a30.41,30.41,0,0,1,.33,6.46c.08,3.58.85,4.41,4.4,4.49,7.82.17,15.63-.91,23.47-.2,2.89.26,4,1.29,4,4.31,0,2.82-2.26,2.77-4.11,2.82-8.32.23-16.65.43-25,.42-2.25,0-3.22.79-3.45,2.86a27.22,27.22,0,0,0-.32,3c0,10.49-.08,21,0,31.48.14,14.85,13.78,19.31,23,16.85,2.57-.69,5.09-1.54,7.62-2.33.7-.22,1.38-.3,1.78.39s-.26.94-.65,1.15c-11.14,5.92-22.46,10.8-35.34,5.45a19.38,19.38,0,0,1-7.34-5.48,11.94,11.94,0,0,1-3.08-8.14c0-12.56.23-25.14-.43-37.7-.15-2.85-1.78-4.33-3.86-5.68C181.79,95.16,179,94.22,177.08,91.64Z"/><path class="cls-5" d="M395.5,122.3v-20c0-2.92-2-4.46-4.16-5.76a39.47,39.47,0,0,1-5.7-3.57c-.89-.75-1.37-1.24,0-2.11q11.53-7.39,23-14.94c1.47-1,1.78-.37,2,1a39.38,39.38,0,0,1,.34,6.23c.1,3.65.7,4.37,4.43,4.35,4.33,0,8.65-.32,13-.35,3.91,0,7.83.16,11.74.24,2.49.06,2.09,2.18,2.51,3.63s0,2.66-1.67,3a11.3,11.3,0,0,1-2.44.4c-8.33.18-16.66.4-25,.4-2.16,0-3.11.83-3.3,2.76-.22,2.31-.41,4.64-.41,7,0,9.58,0,19.16.18,28.74.16,10.85,11.35,18.77,22.34,15.85,2.81-.74,5.55-1.69,8.33-2.53.57-.17,1.23-.3,1.6.28s-.24,1.12-.69,1.36c-10.05,5.34-20.3,9.83-32.08,6.58a20.14,20.14,0,0,1-7.94-4.06c-3.51-3-6-6.46-5.65-11.56.33-5.64.07-11.32.07-17Z"/><path class="cls-5" d="M328,125.13c-.11-4.95.4-12,0-19.11-.33-6.69-1.82-8.81-8.11-11.25-1.09-.42-3-.39-2.9-1.81.16-1.63,2.08-.9,3.18-1,6.41-.58,12.52-2.54,18.72-4.07,3.18-.78,3.73-.23,3.6,3a39.47,39.47,0,0,0,0,4.74c.19,2.57,2.18,3.69,4.36,2.34,4.87-3,9.61-6.23,14.46-9.28,3.45-2.16,10.4-1.34,13.49,1.34.75.65.5,1.08.18,1.68l-3.84,7.27c-1.08,2-2.55,2.14-4.3.85a31.82,31.82,0,0,0-5.12-3.52,6.9,6.9,0,0,0-7.49.6c-3.07,2.14-6.11,4.3-9.06,6.61a5.3,5.3,0,0,0-2.23,4.64c.11,12.25,0,24.49.09,36.74a3.94,3.94,0,0,1-1.69,3.58,35.93,35.93,0,0,1-10.11,5.79c-1.72.58-2.64.26-2.86-1.75a39.85,39.85,0,0,1-.38-4.22Z"/><path class="cls-3" d="M87.5,71.9A47.47,47.47,0,0,1,91.42,53a18.73,18.73,0,0,1,4-6,11.63,11.63,0,0,1,14.66-1.66,49.85,49.85,0,0,1,10.23,8.72,274.35,274.35,0,0,1,19.15,23.35c.88,1.17.72,1.78-.34,2.57a21.48,21.48,0,0,1-5.5,2.9,160.37,160.37,0,0,1-28,7.7C96.3,92.22,90,87.74,88,78.36A24.16,24.16,0,0,1,87.5,71.9Zm1.71-1a41.74,41.74,0,0,0,.34,5.72c1.94,9.89,7.14,14.08,16.6,12.18,2-.4,4.09-.79,6.09-1.32,8-2.11,16.12-4,23.72-7.54,1.79-.82,2-1.59.76-3.25-4.95-6.38-9.82-12.83-15.28-18.79-3.77-4.11-7.58-8.19-12.44-11.1a9.19,9.19,0,0,0-5.93-1.43c-4.54.49-7.39,3.15-9.36,7A43.9,43.9,0,0,0,89.21,70.9Z"/><path class="cls-3" d="M284,127.08c-.1,9.55-5,16.82-13.3,19.72-5.59,1.95-11,0-12.71-4.52-1.45-3.78-.77-6.77,2.51-9.63,5.07-4.42,11.06-7.36,17.12-10.13l.68-.31c5-2.16,5.63-1.76,5.7,3.87C284,126.42,284,126.75,284,127.08Zm-1.66-.21c0-.49-.08-1-.09-1.49,0-2.14-.88-2.78-2.91-1.71s-4.41,2-6.52,3.13c-4.29,2.34-8.76,4.48-12.1,8.23a6.38,6.38,0,0,0,3.3,10.43,10.4,10.4,0,0,0,7.05-.72C278.87,141.32,282.12,135.05,282.37,126.87Z"/><path class="cls-2" d="M89.21,70.9a43.9,43.9,0,0,1,4.5-18.53c2-3.85,4.82-6.51,9.36-7A9.19,9.19,0,0,1,109,46.8c4.86,2.91,8.67,7,12.44,11.1,5.46,6,10.33,12.41,15.28,18.79,1.28,1.66,1,2.43-.76,3.25-7.6,3.49-15.69,5.43-23.72,7.54-2,.53-4,.92-6.09,1.32-9.46,1.9-14.66-2.29-16.6-12.18A41.74,41.74,0,0,1,89.21,70.9Z"/><path class="cls-2" d="M282.37,126.87c-.25,8.18-3.5,14.45-11.27,17.87a10.4,10.4,0,0,1-7.05.72,6.38,6.38,0,0,1-3.3-10.43c3.34-3.75,7.81-5.89,12.1-8.23,2.11-1.16,4.39-2,6.52-3.13s2.86-.43,2.91,1.71C282.29,125.88,282.34,126.38,282.37,126.87Z"/></g></g></svg>