<svg xmlns="http://www.w3.org/2000/svg" viewBox="0 0 556.99 229.95"><defs><style>.cls-1{fill:#8f7b3d;}.cls-2{fill:#fffefe;}.cls-3{fill:#070602;}.cls-4{fill:#fefdfc;}</style></defs><title>bottom</title><g id="Layer_2" data-name="Layer 2"><g id="Layer_1-2" data-name="Layer 1"><path class="cls-1" d="M278.32,229.93q-116.49,0-233,0C23.66,229.9,3.75,212.6.52,191.2a53.25,53.25,0,0,1-.51-8Q0,115,0,46.75A46.17,46.17,0,0,1,40.27.58a72,72,0,0,1,10-.55q228.6,0,457.19,0c14.43,0,27.07,4.36,37,15.12a45.24,45.24,0,0,1,12.27,28.29c.31,4.58.3,9.15.3,13.73q0,62.24,0,124.48c0,12.46-3.62,23.64-12.14,33-8.94,9.78-20,15.26-33.29,15.29q-97.25.19-194.48.07H278.32Zm.21-219.21h-108c-41,0-82,.19-123-.08-21.84-.15-37.33,18-37.14,37.09.48,45.49.15,91,.16,136.49a25.94,25.94,0,0,0,.15,3.74c2.63,18.49,17.64,31.46,36.38,31.46H509.55c20.77,0,36.65-15.57,36.7-36.37.11-45.33,0-90.66,0-136a34.76,34.76,0,0,0-6.47-20.87C532.25,15.71,521.93,10.7,509,10.71Q393.77,10.76,278.53,10.72Z"/><path class="cls-2" d="M278.53,10.72q115.23,0,230.47,0c12.93,0,23.25,5,30.81,15.48a34.76,34.76,0,0,1,6.47,20.87c0,45.33.08,90.66,0,136,0,20.8-15.93,36.37-36.7,36.37H47.1c-18.74,0-33.75-13-36.38-31.46a25.94,25.94,0,0,1-.15-3.74c0-45.5.32-91-.16-136.49-.19-19.09,15.3-37.24,37.14-37.09,41,.27,82,.08,123,.08ZM394.69,109.3c6.37,3.32,10.33,8.42,10.76,15.68.5,8.48.81,17,.58,25.48-.12,4.24-.08,8.49.05,12.74.13,3.68,1.12,4.3,4.74,3.32s6.79-3.07,10.08-4.84a6.71,6.71,0,0,0,3.75-5.94c.85-10.32.38-20.65.34-31a15,15,0,0,1,2.6-8.37c2.7-4.31,7-6,11.5-7.31,4.17-1.24,6.21-.23,7.76,3.87a61.27,61.27,0,0,1,4.2,21.9q0,15-.25,30c0,1.87.5,2.24,2.26,2,3.52-.48,6.64-2,9.91-3.18,4.5-1.61,6-4.49,6-9-.09-10.58.16-21.16,0-31.74a8.9,8.9,0,0,1,3.53-7.55,28.58,28.58,0,0,1,10.25-5.49c2.36-.68,3.86.17,5.11,1.92a20.18,20.18,0,0,1,2.65,5.89,72.72,72.72,0,0,1,2.3,33.07,33.85,33.85,0,0,0-.64,9.94c.46,3.56,2,4.6,5.47,3.75a13.09,13.09,0,0,0,2.35-.82c5.86-2.76,11.72-5.52,17.55-8.35a13.68,13.68,0,0,0,4.78-3.55c1-1.22,1.5-2.61.61-4.14a3.55,3.55,0,0,0-4-1.82c-2,.31-3.48,1.5-5.12,2.48-1,.6-1.82,1.62-3.45,1.61.67-4.51,1.22-8.87,2-13.19,2.4-13.6-.1-25.95-9.11-36.71a13.26,13.26,0,0,0-10.64-5.09c-4.57,0-8.59,1.71-12.52,3.73S472,102.81,468,105a2.51,2.51,0,0,1-3.35-.32c-1.88-1.77-3.9-3.41-5.61-5.33-3.6-4-8.11-4.57-13-3.75a23.27,23.27,0,0,0-7,2.46c-4.78,2.49-9.58,5-14.33,7.51a2.61,2.61,0,0,1-3.48-.34,48.73,48.73,0,0,0-7.11-5.48c-3.6-2.12-7.09-2.39-10.8-.13a52.75,52.75,0,0,0-10.37,7.78,34.07,34.07,0,0,0-10.33-9.53c-4.31-2.57-9-4.56-14-3.28a97.16,97.16,0,0,0-24.78,9.69A19.16,19.16,0,0,0,334,118.09a90.26,90.26,0,0,0-.82,23.16,20.93,20.93,0,0,0,3.2,9.35C342.8,160.79,352.31,165.09,364,165c5.25,0,9.87-2.33,14.1-5.18,8.1-5.45,15.57-11.46,18.43-21.49a38.84,38.84,0,0,0-2.3-28.66ZM141.8,138.87c.61,3.34,1.06,6.61,2.52,9.68,6.62,14,26.73,21.77,41.33,12.29,9.6-6.23,18.06-13.19,20.75-25.27,3.72-16.64-2.91-32-17.43-39.1-3.52-1.72-7.31-2.88-11.12-1.89-8.86,2.32-17.52,5.31-25.44,10A19.32,19.32,0,0,0,143,118.4c-.25,1.39-.35,2.8-.51,4.2s-.31,2.81-.52,4.71c-3.64-13.81-11.78-22.86-24.93-27.76,1.75-1.23,3.39-2.33,5-3.5,12.23-9,14.94-20.74,9.68-34.18-4.4-11.21-18-18.65-31.1-17.16-9.34,1.07-18.4,3.49-26.4,8.49-7.84,4.9-16.11,5.17-24.76,3.95-4.59-.65-9-2.45-13.62-2.72-3.1-.18-5.28,1.81-5.74,5-.36,2.49.71,3.73,4.07,4.64.71.19,1.46.29,2.19.42,4.08.72,8.25.92,12.22,2.33a6.12,6.12,0,0,1,4.33,5c.5,2.69.9,5.42,1.15,8.14,1.13,12.61,1.78,25.24,2.3,37.89.37,9.07.56,18.14.23,27.22-.09,2.52-.83,4-3.62,4.59-4.85,1-9.6,2.58-14.39,3.94-2.68.77-4.19,2.62-3.43,4.61,1,2.76,2.3,4.66,5.44,3.53a17,17,0,0,1,2.69-.49c7.53-1.33,15-3,22.76-1.82,6.83,1.05,13.45,3,20.22,4.36,13,2.59,25.75,2.68,38.29-2.27,6.14-2.42,10.89-6.29,13.88-12.23A48.23,48.23,0,0,0,141.8,138.87ZM300.28,83c-9.31,6.07-18.62,12.16-28,18.18-1.15.74-1.21,1.15-.4,2.22a21,21,0,0,0,7.61,5.93,5.69,5.69,0,0,1,3.56,5.66c0,11.5.38,23,.3,34.49a14.09,14.09,0,0,0,3.38,9.34,21.36,21.36,0,0,0,9.7,6.77c12.75,4.55,24-.06,34.93-5.95,1.79-1,2.77-2.47,2-4.56-.63-1.74-2.84-2.51-5.13-1.85s-4.28,1.33-6.43,2C311.22,158.37,302.28,152,302.1,141c-.15-9.58-.06-19.17,0-28.75,0-3.86.1-3.86,3.82-3.85l2.24,0c6.75,0,13.5.07,20.23-.48,4.26-.35,5.84-2.51,5.29-6.7-.15-1.19-1-2.22-1-3.3.11-2.17-1.11-2-2.61-2.08-7.66-.36-15.32-.14-23,.14-3.93.14-4,.12-4-3.73C303.15,88.89,302.84,85.64,300.28,83ZM207.6,102.06a19.75,19.75,0,0,0,8.43,7.19c2.52,1.19,3.54,2.89,3.61,5.83.3,12.24.37,24.48.39,36.72a6.56,6.56,0,0,0,.82,3.08c4.51,8.58,12.12,12.05,21.3,12.49,8.84.42,16.75-3,24.42-6.88,3.35-1.72,4.3-3.48,3.41-5.52s-3.07-2.38-6.38-1.4c-3.56,1.05-7,2.74-10.87,2.34-7-.72-13-4-13.72-12.73-.82-9.57-.19-19.14-.35-28.71-.1-6.1,0-6,6.18-6,6.66,0,13.32.06,20-.46,4.79-.37,6.58-3,5.28-7.69-.24-.87-.89-1.73-.85-2.57.1-2-1.06-1.77-2.36-1.83a231.49,231.49,0,0,0-23.71.19c-2.51.14-3.59-.49-3.48-3.19.12-3,.13-6-1.72-8.65-.75-1.07-1.25-1.18-2.33-.47C226.34,89.89,217,95.94,207.6,102.06Z"/><path class="cls-1" d="M394.25,109.68a38.84,38.84,0,0,1,2.3,28.66c-2.86,10-10.33,16-18.43,21.49-4.23,2.85-8.85,5.15-14.1,5.18-11.71.08-21.22-4.22-27.64-14.41a20.93,20.93,0,0,1-3.2-9.35,90.26,90.26,0,0,1,.82-23.16,19.16,19.16,0,0,1,9.81-13.77,97.16,97.16,0,0,1,24.78-9.69c5-1.28,9.67.71,14,3.28a34.07,34.07,0,0,1,10.33,9.53,52.75,52.75,0,0,1,10.37-7.78c3.71-2.26,7.2-2,10.8.13a48.73,48.73,0,0,1,7.11,5.48,2.61,2.61,0,0,0,3.48.34c4.75-2.55,9.55-5,14.33-7.51a23.27,23.27,0,0,1,7-2.46c4.92-.82,9.43-.27,13,3.75,1.71,1.92,3.73,3.56,5.61,5.33A2.51,2.51,0,0,0,468,105c4-2.23,8-4.35,12.09-6.44s7.95-3.72,12.52-3.73A13.26,13.26,0,0,1,503.26,100c9,10.76,11.51,23.11,9.11,36.71-.76,4.32-1.31,8.68-2,13.19,1.63,0,2.45-1,3.45-1.61,1.64-1,3.14-2.17,5.12-2.48a3.55,3.55,0,0,1,4,1.82c.89,1.53.39,2.92-.61,4.14a13.68,13.68,0,0,1-4.78,3.55c-5.83,2.83-11.69,5.59-17.55,8.35a13.09,13.09,0,0,1-2.35.82c-3.45.85-5-.19-5.47-3.75a33.85,33.85,0,0,1,.64-9.94,72.72,72.72,0,0,0-2.3-33.07,20.18,20.18,0,0,0-2.65-5.89c-1.25-1.75-2.75-2.6-5.11-1.92a28.58,28.58,0,0,0-10.25,5.49,8.9,8.9,0,0,0-3.53,7.55c.13,10.58-.12,21.16,0,31.74,0,4.51-1.5,7.39-6,9-3.27,1.17-6.39,2.7-9.91,3.18-1.76.24-2.29-.13-2.26-2q.24-15,.25-30a61.27,61.27,0,0,0-4.2-21.9c-1.55-4.1-3.59-5.11-7.76-3.87-4.51,1.34-8.8,3-11.5,7.31a15,15,0,0,0-2.6,8.37c0,10.33.51,20.66-.34,31a6.71,6.71,0,0,1-3.75,5.94c-3.29,1.77-6.42,3.85-10.08,4.84s-4.61.36-4.74-3.32c-.13-4.25-.17-8.5-.05-12.74.23-8.51-.08-17-.58-25.48-.43-7.26-4.39-12.36-10.76-15.68l-.55-.22Zm-15,44.91.59-.37,1.06-.89c6.29-4.81,11.39-10.39,12.87-18.59a43.69,43.69,0,0,0,.81-9.66c-.5-11.21-5.45-19.71-15.49-25-3-1.55-6.2-2.91-9.58-2-8.5,2.33-16.88,5.1-24.48,9.73a15.39,15.39,0,0,0-7.44,10.75c-1.32,7.25-1.19,14.58-.85,21.89a16.55,16.55,0,0,0,1.63,6.23c5.77,12.54,24.64,20.77,39.43,9l.85-.7Zm135.31-2.19a2.09,2.09,0,0,0,2-1,4.9,4.9,0,0,0,2.83-2,6.55,6.55,0,0,0-3,1.73c-.63.37-1.45.5-1.78,1.29a.86.86,0,0,0-.23.06s0,.11,0,.16Zm-5.82,2.83c-2.41-1.09-2-3.19-1.84-5,.52-4.79,1.13-9.57,2-14.32,2.12-12.29,0-23.49-8-33.31a10.32,10.32,0,0,0-11.09-3.87,27,27,0,0,0-6.53,2.42c-4.73,2.45-9.52,4.79-14.13,7.43a4.64,4.64,0,0,1-5.31-.16c-2.89-1.77-5.12-4.28-7.38-6.7-2.69-2.88-5.88-3.18-9.39-2.62a19.35,19.35,0,0,0-5.89,2c-4.57,2.38-9.16,4.75-13.7,7.21-4.87,2.63-4.86,2.66-9.08-.83-.52-.42-1.07-.8-1.59-1.21-7.5-6-8.33-6-16.27-.51-1.93,1.34-1.46,1.91.06,3a19.31,19.31,0,0,1,8.15,13.51,101.93,101.93,0,0,1,.78,11.19c.14,8.91.1,17.83.14,26.74,0,3,.09,3.11,2.88,1.82,2.33-1.08,4.54-2.42,6.83-3.59a3.38,3.38,0,0,0,1.83-3.23c.68-10.32.5-20.65.34-31a16.67,16.67,0,0,1,2.66-9.17c3.29-5.47,8.47-8,14.34-9.61,5.54-1.47,9.32.22,11.51,5.47a57.63,57.63,0,0,1,4.56,20.85c.22,9.58.12,19.16,0,28.74,0,2.33.83,2.51,2.57,1.71,2.19-1,4.35-2.06,6.55-3.06a2.25,2.25,0,0,0,1.44-2.1c.24-2.91.5-5.8.48-8.72-.08-8.59,0-17.17-.19-25.75a11.6,11.6,0,0,1,4.19-9.46,29.75,29.75,0,0,1,13.11-6.92,7.19,7.19,0,0,1,7.38,2.46,14,14,0,0,1,2.91,4.92c3.95,11.41,5.58,23.07,3.78,35.12-.47,3.12-.81,6.27-1,9.42-.19,2.79.44,3.18,3,2.14A85.55,85.55,0,0,0,508.72,155.23Zm4.51-2.07.11.08,0-.12Z"/><path class="cls-1" d="M141.8,138.87a48.23,48.23,0,0,1-3.39,10.37c-3,5.94-7.74,9.81-13.88,12.23-12.54,4.95-25.3,4.86-38.29,2.27-6.77-1.35-13.39-3.31-20.22-4.36-7.75-1.18-15.23.49-22.76,1.82a17,17,0,0,0-2.69.49c-3.14,1.13-4.39-.77-5.44-3.53-.76-2,.75-3.84,3.43-4.61,4.79-1.36,9.54-2.89,14.39-3.94,2.79-.6,3.53-2.07,3.62-4.59.33-9.08.14-18.15-.23-27.22-.52-12.65-1.17-25.28-2.3-37.89-.25-2.72-.65-5.45-1.15-8.14a6.12,6.12,0,0,0-4.33-5c-4-1.41-8.14-1.61-12.22-2.33-.73-.13-1.48-.23-2.19-.42-3.36-.91-4.43-2.15-4.07-4.64.46-3.15,2.64-5.14,5.74-5,4.65.27,9,2.07,13.62,2.72,8.65,1.22,16.92,1,24.76-3.95,8-5,17.06-7.42,26.4-8.49,13.07-1.49,26.7,5.95,31.1,17.16C137,75.31,134.25,87,122,96.05c-1.58,1.17-3.22,2.27-5,3.5,13.15,4.9,21.29,14,24.93,27.76.21-1.9.36-3.3.52-4.71s.26-2.81.51-4.2a19.32,19.32,0,0,1,9.4-13.78c7.92-4.73,16.58-7.72,25.44-10,3.81-1,7.6.17,11.12,1.89,14.52,7.1,21.15,22.46,17.43,39.1-2.69,12.08-11.15,19-20.75,25.27-14.6,9.48-34.71,1.75-41.33-12.29C142.86,145.48,142.41,142.21,141.8,138.87Zm46.46,15.81.86-.7c10.62-7.13,15.37-17.15,14.5-29.83-.73-10.78-5.74-19-15.41-24-3-1.56-6.21-2.9-9.58-2-8.37,2.23-16.56,5-24.08,9.43a15.91,15.91,0,0,0-8,11.74,95.56,95.56,0,0,0-.85,19.92,20.55,20.55,0,0,0,1.65,7.25C153,159.37,172.55,168.1,188.26,154.68Zm-80.32-53.35c4.26-2.92,8-5.47,11.78-8.07,4.57-3.17,8.31-7.19,9.8-12.58,4.14-14.9-4.55-30.43-22.86-32.18C95.33,47.41,84.9,51.15,75.3,56.76,67.9,61.07,60.16,61.91,52,61.13c-5.07-.49-10-1.93-14.91-3-1.23-.27-2.71-.57-3,1.19s1.46,1.06,2.25,1.54c.26.16.65.07,1,.12,4,.69,8.08,1,12,2.25,4.29,1.39,6.56,4.28,7.29,8.61C58,80.53,58.46,89.36,59,98.15c.65,10.64,1,21.3,1.34,32a118.1,118.1,0,0,1-.73,18.7,4,4,0,0,1-3.26,3.59q-7.45,2-14.87,4.16c-.76.22-1.85.08-2.24,1.31,2.15.3,4.08-.35,6-.75,8.56-1.79,17.12-2.48,25.75-.58,5.35,1.17,10.68,2.47,16,3.62,12.47,2.68,24.77,2.65,36.78-2.31a21.13,21.13,0,0,0,11.52-10.53,35.84,35.84,0,0,0,3.15-14.53c.48-13.55-11.08-27.46-25.07-30.34Z"/><path class="cls-1" d="M300.28,83c2.56,2.66,2.87,5.91,2.85,9.32,0,3.85.05,3.87,4,3.73,7.66-.28,15.32-.5,23-.14,1.5.07,2.72-.09,2.61,2.08-.05,1.08.83,2.11,1,3.3.55,4.19-1,6.35-5.29,6.7-6.73.55-13.48.47-20.23.48l-2.24,0c-3.72,0-3.8,0-3.82,3.85-.06,9.58-.15,19.17,0,28.75.18,11,9.12,17.34,19.73,14.15,2.15-.64,4.28-1.35,6.43-2s4.5.11,5.13,1.85c.75,2.09-.23,3.6-2,4.56-11,5.89-22.18,10.5-34.93,5.95a21.36,21.36,0,0,1-9.7-6.77,14.09,14.09,0,0,1-3.38-9.34c.08-11.49-.29-23-.3-34.49a5.69,5.69,0,0,0-3.56-5.66,21,21,0,0,1-7.61-5.93c-.81-1.07-.75-1.48.4-2.22C281.66,95.14,291,89.05,300.28,83Zm24.35,75.79c-1.21-.59-2.27.09-3.36.35-12,2.89-22.64-5.34-22.69-17.56,0-9.83,0-19.65,0-29.48a22.7,22.7,0,0,1,.48-4.19c.39-2.16,1.49-3.07,3.77-3,8.24.21,16.48-.18,24.71-.46,1.39,0,2.69-.11,2.6-2.13-.08-1.84-.47-3-2.69-2.9-3.49.13-7,.1-10.48,0-4.5-.14-9,.6-13.47.13-2.7-.28-3.75-1.41-3.88-4.19-.07-1.58-.06-3.16-.05-4.74,0-1.81-.42-2.55-2.28-1.31q-9.67,6.39-19.45,12.65c-1.51,1-1.05,1.58.1,2.27,1.57.94,3.18,1.82,4.73,2.79,2.39,1.49,3.92,3.48,3.95,6.49.14,11.9.77,23.81.42,35.71a11,11,0,0,0,3.34,8.26,18.43,18.43,0,0,0,6.33,4.35C306.54,166,315.65,163,324.63,158.77Z"/><path class="cls-1" d="M207.6,102.06c9.41-6.12,18.74-12.17,28-18.28,1.08-.71,1.58-.6,2.33.47,1.85,2.66,1.84,5.68,1.72,8.65-.11,2.7,1,3.33,3.48,3.19a231.49,231.49,0,0,1,23.71-.19c1.3.06,2.46-.12,2.36,1.83,0,.84.61,1.7.85,2.57,1.3,4.65-.49,7.32-5.28,7.69-6.65.52-13.31.49-20,.46-6.16,0-6.28-.08-6.18,6,.16,9.57-.47,19.14.35,28.71.75,8.7,6.72,12,13.72,12.73,3.86.4,7.31-1.29,10.87-2.34,3.31-1,5.55-.53,6.38,1.4s-.06,3.8-3.41,5.52c-7.67,3.93-15.58,7.3-24.42,6.88-9.18-.44-16.79-3.91-21.3-12.49a6.56,6.56,0,0,1-.82-3.08c0-12.24-.09-24.48-.39-36.72-.07-2.94-1.09-4.64-3.61-5.83A19.75,19.75,0,0,1,207.6,102.06Zm55,55.87a9.75,9.75,0,0,0-1.43.27,23.16,23.16,0,0,1-9.57,1.26c-9-.76-15.3-6.6-16.09-15.55-1-10.88-.34-21.81-.33-32.72a16.75,16.75,0,0,1,.44-3.21c.39-2,1.3-3.18,3.69-3.11,8.25.23,16.49-.17,24.73-.44,1.41-.05,2.82-.15,2.72-2.06-.09-1.67-.44-3.07-2.72-3-3.58.14-7.16,0-10.75,0-4.15,0-8.32.28-12.47.13-3.6-.14-4.54-1.34-4.72-5,0-.58,0-1.17,0-1.74-.13-1.38.66-3.34-.44-4s-2.42,1-3.56,1.71c-5.75,3.66-11.43,7.44-17.19,11.1-1.64,1-1.69,1.83,0,2.78l3.89,2.24a8.26,8.26,0,0,1,4.46,7.47c.53,11.58.36,23.15.3,34.73a12.09,12.09,0,0,0,3.73,8.88,19.77,19.77,0,0,0,9.26,5.18C245.93,165.5,254.31,162.17,262.58,157.93Z"/><path class="cls-3" d="M508.72,155.23a85.55,85.55,0,0,1-10.06,5.08c-2.51,1-3.14.65-3-2.14.21-3.15.55-6.3,1-9.42,1.8-12.05.17-23.71-3.78-35.12a14,14,0,0,0-2.91-4.92,7.19,7.19,0,0,0-7.38-2.46,29.75,29.75,0,0,0-13.11,6.92,11.6,11.6,0,0,0-4.19,9.46c.18,8.58.11,17.16.19,25.75,0,2.92-.24,5.81-.48,8.72a2.25,2.25,0,0,1-1.44,2.1c-2.2,1-4.36,2.06-6.55,3.06-1.74.8-2.6.62-2.57-1.71.12-9.58.22-19.16,0-28.74A57.63,57.63,0,0,0,450,111c-2.19-5.25-6-6.94-11.51-5.47-5.87,1.56-11.05,4.14-14.34,9.61a16.67,16.67,0,0,0-2.66,9.17c.16,10.33.34,20.66-.34,31a3.38,3.38,0,0,1-1.83,3.23c-2.29,1.17-4.5,2.51-6.83,3.59-2.79,1.29-2.86,1.18-2.88-1.82,0-8.91,0-17.83-.14-26.74a101.93,101.93,0,0,0-.78-11.19,19.31,19.31,0,0,0-8.15-13.51c-1.52-1.12-2-1.69-.06-3,7.94-5.46,8.77-5.51,16.27.51.52.41,1.07.79,1.59,1.21,4.22,3.49,4.21,3.46,9.08.83,4.54-2.46,9.13-4.83,13.7-7.21a19.35,19.35,0,0,1,5.89-2c3.51-.56,6.7-.26,9.39,2.62,2.26,2.42,4.49,4.93,7.38,6.7a4.64,4.64,0,0,0,5.31.16c4.61-2.64,9.4-5,14.13-7.43a27,27,0,0,1,6.53-2.42,10.32,10.32,0,0,1,11.09,3.87c8,9.82,10.17,21,8,33.31-.83,4.75-1.44,9.53-2,14.32C506.69,152,506.31,154.14,508.72,155.23Z"/><path class="cls-3" d="M377.78,155.69c-14.79,11.8-33.66,3.57-39.43-9a16.55,16.55,0,0,1-1.63-6.23c-.34-7.31-.47-14.64.85-21.89A15.39,15.39,0,0,1,345,107.85c7.6-4.63,16-7.4,24.48-9.73,3.38-.93,6.62.43,9.58,2,10,5.27,15,13.77,15.49,25a43.69,43.69,0,0,1-.81,9.66c-1.48,8.2-6.58,13.78-12.87,18.59l-.47-.53a18.09,18.09,0,0,0,1.75-4.91,96.17,96.17,0,0,0,1.14-19.16c-.2-10.41-5.32-18.18-13.87-23.76-6.38-4.16-12.73-3.4-18.1,2a23.12,23.12,0,0,0-6.25,12c-2.71,13.84,5.16,30.12,20.27,35.95,4.08,1.57,8,2.1,12.09.31Z"/><path class="cls-3" d="M516.35,151.15a6.65,6.65,0,0,1,3-1.73,4.9,4.9,0,0,1-2.83,2C516.5,151.34,516.43,151.24,516.35,151.15Z"/><path class="cls-3" d="M514.58,152.44c.33-.79,1.15-.92,1.78-1.29l.21.28a2.09,2.09,0,0,1-2,1Z"/><path class="cls-3" d="M380.88,153.33l-1.06.89c-.1-.13-.21-.25-.32-.37l.91-1Z"/><path class="cls-3" d="M378.63,155l-.85.7-.34-.43c.31-.19.61-.39.91-.59Z"/><polygon class="cls-3" points="513.23 153.16 513.36 153.13 513.34 153.24 513.23 153.16"/><path class="cls-3" d="M379.82,154.22l-.59.37-.26-.26.53-.48C379.61,154,379.72,154.09,379.82,154.22Z"/><path class="cls-3" d="M379.23,154.59l-.6.4c-.09-.11-.19-.21-.27-.32l.61-.34Z"/><path class="cls-3" d="M514.54,152.4l-.21.26s0-.14,0-.16a.86.86,0,0,1,.23-.06Z"/><path class="cls-2" d="M394.25,109.68c0-.2-.07-.4-.11-.6l.55.22Z"/><path class="cls-3" d="M107.94,101.33l5.47,1.12c14,2.88,25.55,16.79,25.07,30.34a35.84,35.84,0,0,1-3.15,14.53,21.13,21.13,0,0,1-11.52,10.53c-12,5-24.31,5-36.78,2.31-5.36-1.15-10.69-2.45-16-3.62-8.63-1.9-17.19-1.21-25.75.58-1.91.4-3.84,1-6,.75.39-1.23,1.48-1.09,2.24-1.31q7.41-2.17,14.87-4.16a4,4,0,0,0,3.26-3.59,118.1,118.1,0,0,0,.73-18.7c-.36-10.66-.69-21.32-1.34-32-.55-8.79-1-17.62-2.43-26.34-.73-4.33-3-7.22-7.29-8.61-3.92-1.28-8-1.56-12-2.25-.33-.05-.72,0-1-.12-.79-.48-2.55.18-2.25-1.54s1.77-1.46,3-1.19c4.95,1.1,9.84,2.54,14.91,3,8.19.78,15.93-.06,23.33-4.37,9.6-5.61,20-9.35,31.36-8.26,18.31,1.75,27,17.28,22.86,32.18-1.49,5.39-5.23,9.41-9.8,12.58C116,95.86,112.2,98.41,107.94,101.33Zm-14.45-1.28a36.18,36.18,0,0,0,12.37-5.82c9.38-7,11.51-21.78,4.33-31.06-5.76-7.45-13.57-9.7-22.65-8.48-7.6,1-12.12,5.34-14,12.65A40.63,40.63,0,0,0,72,77.68q.06,14.83.12,29.67c0,11.82-.56,23.65-.11,35.47.31,8.16,4.34,13.52,12.21,15.63a45.36,45.36,0,0,0,25.86-.68c7-2.21,11.69-6.87,13.63-14.06a50.65,50.65,0,0,0,1.78-16.3c-.5-8.15-4-14.42-11.42-18.38A96.24,96.24,0,0,0,100,102.84C97.86,102.13,95.66,101.62,93.49,100.05Z"/><path class="cls-3" d="M188.26,154.68c-15.71,13.42-35.22,4.69-40.93-8.22a20.55,20.55,0,0,1-1.65-7.25,95.56,95.56,0,0,1,.85-19.92,15.91,15.91,0,0,1,8-11.74c7.52-4.41,15.71-7.2,24.08-9.43,3.37-.9,6.61.44,9.58,2,9.67,5.08,14.68,13.25,15.41,24,.87,12.68-3.88,22.7-14.5,29.83l-.38-.38a14.06,14.06,0,0,0,2.45-5.64,92.3,92.3,0,0,0,1.27-18.62c-.21-10.73-5.19-18.91-14.23-24.53-5-3.11-10.18-3.65-15.36,0-4.34,3.1-6.8,7.42-8.28,12.32-3.9,13,3.63,29.83,15.87,35.9,1.19.59,2.36,1.22,3.55,1.79a14.51,14.51,0,0,0,14-.49A3.55,3.55,0,0,0,188.26,154.68Z"/><path class="cls-3" d="M189.12,154l-.86.7a3.55,3.55,0,0,1-.23-.31l.71-.77Z"/><path class="cls-3" d="M324.63,158.77c-9,4.27-18.09,7.22-28,3a18.43,18.43,0,0,1-6.33-4.35,11,11,0,0,1-3.34-8.26c.35-11.9-.28-23.81-.42-35.71,0-3-1.56-5-3.95-6.49-1.55-1-3.16-1.85-4.73-2.79-1.15-.69-1.61-1.31-.1-2.27q9.78-6.26,19.45-12.65c1.86-1.24,2.29-.5,2.28,1.31,0,1.58,0,3.16.05,4.74.13,2.78,1.18,3.91,3.88,4.19,4.49.47,9-.27,13.47-.13,3.49.11,7,.14,10.48,0,2.22-.08,2.61,1.06,2.69,2.9.09,2-1.21,2.08-2.6,2.13-8.23.28-16.47.67-24.71.46-2.28-.06-3.38.85-3.77,3a22.7,22.7,0,0,0-.48,4.19c0,9.83,0,19.65,0,29.48.05,12.22,10.72,20.45,22.69,17.56C322.36,158.86,323.42,158.18,324.63,158.77Z"/><path class="cls-3" d="M262.58,157.93c-8.27,4.24-16.65,7.57-26.08,5a19.77,19.77,0,0,1-9.26-5.18,12.09,12.09,0,0,1-3.73-8.88c.06-11.58.23-23.15-.3-34.73a8.26,8.26,0,0,0-4.46-7.47l-3.89-2.24c-1.68-1-1.63-1.74,0-2.78,5.76-3.66,11.44-7.44,17.19-11.1,1.14-.72,2.36-2.43,3.56-1.71s.31,2.62.44,4c.05.57,0,1.16,0,1.74.18,3.65,1.12,4.85,4.72,5,4.15.15,8.32-.1,12.47-.13,3.59,0,7.17.11,10.75,0,2.28-.09,2.63,1.31,2.72,3,.1,1.91-1.31,2-2.72,2.06-8.24.27-16.48.67-24.73.44-2.39-.07-3.3,1.11-3.69,3.11a16.75,16.75,0,0,0-.44,3.21c0,10.91-.63,21.84.33,32.72.79,9,7.09,14.79,16.09,15.55a23.16,23.16,0,0,0,9.57-1.26A9.75,9.75,0,0,1,262.58,157.93Z"/><path class="cls-1" d="M379,154.33l-.61.34-.92.59c-4.08,1.79-8,1.26-12.09-.31-15.11-5.83-23-22.11-20.27-35.95a23.12,23.12,0,0,1,6.25-12c5.37-5.41,11.72-6.17,18.1-2,8.55,5.58,13.67,13.35,13.87,23.76a96.17,96.17,0,0,1-1.14,19.16,18.09,18.09,0,0,1-1.75,4.91l-.91,1Zm.71-20.74c0-1.66.06-3.33,0-5-.41-9.66-5.15-16.64-13.49-21.22-4.45-2.45-7.89-2-11.61,1.55a20.29,20.29,0,0,0-6.41,16.17c.56,13.32,8.76,23.67,21.55,27.44,4.43,1.3,8-.77,8.89-5.28A72,72,0,0,0,379.68,133.59Z"/><path class="cls-1" d="M93.49,100.05c2.17,1.57,4.37,2.08,6.46,2.79A96.24,96.24,0,0,1,114.11,109c7.41,4,10.92,10.23,11.42,18.38a50.65,50.65,0,0,1-1.78,16.3c-1.94,7.19-6.65,11.85-13.63,14.06a45.36,45.36,0,0,1-25.86.68c-7.87-2.11-11.9-7.47-12.21-15.63-.45-11.82.16-23.65.11-35.47Q72.09,92.51,72,77.68a40.63,40.63,0,0,1,1.5-10.34c1.88-7.31,6.4-11.64,14-12.65,9.08-1.22,16.89,1,22.65,8.48,7.18,9.28,5,24-4.33,31.06A36.18,36.18,0,0,1,93.49,100.05ZM75.56,111.66c0,8.4,0,19.31,0,30.21,0,7.5,3.59,11.94,10.81,13.45a45.44,45.44,0,0,0,21-.45c6.46-1.7,11.18-5.45,12.85-12.23a45.61,45.61,0,0,0,1.4-16.79c-.69-5.72-3.21-10-8.16-12.95a71.78,71.78,0,0,0-12.86-6c-3.75-1.33-7.59-2.46-11-4.56-.92-.57-1.87-1.26-1.82-2.5s1.11-2,2.23-2.41c1.63-.61,3.3-1.08,4.94-1.65,5.36-1.89,10.56-4.3,13.26-9.53,3.36-6.53,3.93-13.49-.27-20S97.43,57.42,89.89,58c-7.82.63-11.28,3.63-13.17,11.28a48.84,48.84,0,0,0-1.17,11.64C75.54,90.34,76.34,99.74,75.56,111.66Z"/><path class="cls-1" d="M188.74,153.6l-.71.77a14.51,14.51,0,0,1-14,.49c-1.19-.57-2.36-1.2-3.55-1.79-12.24-6.07-19.77-22.95-15.87-35.9,1.48-4.9,3.94-9.22,8.28-12.32,5.18-3.69,10.34-3.15,15.36,0,9,5.62,14,13.8,14.23,24.53A92.3,92.3,0,0,1,191.19,148,14.06,14.06,0,0,1,188.74,153.6Zm.1-18.74c0-1.83,0-3.66,0-5.49-.18-10-6.52-19.44-15.11-22.76a8.41,8.41,0,0,0-8.07.8c-4.81,3.1-7.27,7.79-8.08,13.2a29,29,0,0,0,21.9,32.16,6.46,6.46,0,0,0,8.09-5C188.58,143.52,188.57,139.18,188.84,134.86Z"/><path class="cls-4" d="M379.68,133.59a72,72,0,0,1-1.09,13.67c-.92,4.51-4.46,6.58-8.89,5.28-12.79-3.77-21-14.12-21.55-27.44a20.29,20.29,0,0,1,6.41-16.17c3.72-3.54,7.16-4,11.61-1.55,8.34,4.58,13.08,11.56,13.49,21.22C379.74,130.26,379.68,131.93,379.68,133.59Z"/><path class="cls-4" d="M75.56,111.66c.78-11.92,0-21.32,0-30.72A48.84,48.84,0,0,1,76.72,69.3C78.61,61.65,82.07,58.65,89.89,58c7.54-.6,13.9,1.85,18.09,8.31s3.63,13.43.27,20c-2.7,5.23-7.9,7.64-13.26,9.53-1.64.57-3.31,1-4.94,1.65-1.12.41-2.18,1-2.23,2.41s.9,1.93,1.82,2.5c3.42,2.1,7.26,3.23,11,4.56a71.78,71.78,0,0,1,12.86,6c4.95,2.95,7.47,7.23,8.16,12.95a45.61,45.61,0,0,1-1.4,16.79c-1.67,6.78-6.39,10.53-12.85,12.23a45.44,45.44,0,0,1-21,.45c-7.22-1.51-10.77-5.95-10.81-13.45C75.52,131,75.56,120.06,75.56,111.66Z"/><path class="cls-4" d="M188.84,134.86c-.27,4.32-.26,8.66-1.28,12.9a6.46,6.46,0,0,1-8.09,5,29,29,0,0,1-21.9-32.16c.81-5.41,3.27-10.1,8.08-13.2a8.41,8.41,0,0,1,8.07-.8c8.59,3.32,14.93,12.79,15.11,22.76C188.86,131.2,188.84,133,188.84,134.86Z"/></g></g></svg>