<svg xmlns="http://www.w3.org/2000/svg" viewBox="0 0 60.84 60.84"><defs><style>.cls-1{fill:#fff;stroke-width:3px;}.cls-1,.cls-2{stroke:#947b2f;stroke-miterlimit:10;}.cls-2{stroke-width:0.75px;}</style></defs><title>chaos roll</title><g id="Layer_2" data-name="Layer 2"><g id="Layer_1-2" data-name="Layer 1"><circle class="cls-1" cx="30.42" cy="30.42" r="28.92"/><g id="layer1"><path id="path417" class="cls-2" d="M36.88,13.36c-12.63.58,1.46,11.33-5.67,17h0l-.1,0c-5,2-10.54-6.08-10.71,2.43,2.64-3.95,3.84-.09,8.17-.33-2.1,2.78-1.07,7.44-4.58,8.2-6.4,1.38-11.09-6.4-10.7-11.29.87-10.86,9.37-15.79,17.82-15.28-11.18-2.24-20.66,7-20.38,16.53.32,11,6.13,16.33,15.06,17.05,12.63-.58-1.46-11.34,5.66-17h0l.1-.05c5-2,10.55,6.09,10.71-2.43-2.63,3.95-3.84.1-8.17.34,2.11-2.78,1.08-7.44,4.58-8.2,6.41-1.39,11.1,6.4,10.7,11.29C48.51,42.51,40,47.45,31.55,46.94c11.19,2.24,20.66-7,20.38-16.54-.31-11-6.13-16.32-15-17Z"/></g></g></g></svg>