<svg xmlns="http://www.w3.org/2000/svg" viewBox="0 0 592.47 592.6"><defs><style>.cls-1{fill:#917c3d;}.cls-2{fill:#fff;}.cls-3{fill:#8d7c47;}.cls-4{fill:#020201;}</style></defs><title>charge counter</title><g id="Layer_2" data-name="Layer 2"><g id="Layer_1-2" data-name="Layer 1"><path class="cls-1" d="M0,296.34C-.66,133.86,132-.25,296.63,0c162.47.25,296,131.78,295.84,296.51s-134,296.36-296.76,296.09C131.52,592.33-.61,458.46,0,296.34ZM296.31,16C144.26,15.28,16,138.82,15.76,296.23c-.19,154.83,125.51,280.43,280.39,280.41,155.46,0,280.76-125.56,280.33-281.63S448.44,15.47,296.31,16Z"/><path class="cls-2" d="M296.31,16c152.13-.57,279.75,123,280.17,279S451.61,576.63,296.15,576.64c-154.88,0-280.58-125.58-280.39-280.41C16,138.82,144.26,15.28,296.31,16Zm44.82,223c4.43-4.58,8.34-8.64,12.29-12.68q33.19-34,66.41-67.91,24.06-24.54,48.2-49c.46-.48,1-.93,1.39-1.43.83-1,.46-1.48-.72-1.53-.5,0-1,0-1.5.06-14.4.85-28.49,3.79-42.66,6.17-18.91,3.18-37.78,6.57-56.67,9.84-14.81,2.57-29.62,5.08-44.42,7.66q-25.31,4.4-50.6,8.84c-6.13,1.07-12.26,2.22-18.42,3.12-6.82,1-10.24,5.41-13.07,11.26-20.63,42.86-41.48,85.62-62.23,128.43-2.17,4.48-4.56,8.87-5.88,13.72-.47,1.71-.14,2.56,1.9,2.2,2.61-.45,5.26-.75,7.89-1.09,16.74-2.19,33.47-4.41,50.21-6.51,1.87-.23,3.79-1,5.93-.33-.37.69-.62,1.2-.91,1.69q-32.61,55.55-65.21,111.11c-.36.62-1.17,1.25-.73,2,.54.87,1.43.36,2.24.15q15.66-4.07,31.33-8.07c.63-.16,1.33-.53,1.88.07s-.05,1.24-.33,1.79q-5.19,10.59-10.41,21.16L171.5,471.5c-6,12.22-12,24.47-18.13,36.65-1,2.08-.74,3.48,1.19,4.57,1.71,1,2.8-.19,3.89-1.25l19.68-19.2L243.92,428q21.33-20.85,42.68-41.68l46.31-45.25c1.14-1.11,2.39-2.15,1.35-4.05s-2.6-1.79-4.32-1.46c-4.89.93-9.78,1.87-14.67,2.78-4,.74-8,1.44-12,2.16l-.41-.65c.77-.63,1.58-1.2,2.29-1.88q18.21-17.47,36.4-35,34.72-33.3,69.44-66.6c.8-.76,2-1.37,1.33-2.88a3.45,3.45,0,0,0-3.39-2.46,18.82,18.82,0,0,0-2,.13c-4.95.61-9.89,1.25-14.84,1.86-11.64,1.43-23.27,2.88-34.92,4.25C352.09,237.89,347,238.9,341.13,239Z"/><path class="cls-3" d="M341.13,239c5.9-.11,11-1.12,16.06-1.73,11.65-1.37,23.28-2.82,34.92-4.25,4.95-.61,9.89-1.25,14.84-1.86a18.82,18.82,0,0,1,2-.13,3.45,3.45,0,0,1,3.39,2.46c.66,1.51-.53,2.12-1.33,2.88q-34.71,33.31-69.44,66.6-18.21,17.47-36.4,35c-.71.68-1.52,1.25-2.29,1.88l.41.65c4-.72,8-1.42,12-2.16,4.89-.91,9.78-1.85,14.67-2.78,1.72-.33,3.3-.41,4.32,1.46s-.21,2.94-1.35,4.05L286.6,386.31Q265.26,407.15,243.92,428l-65.79,64.28-19.68,19.2c-1.09,1.06-2.18,2.22-3.89,1.25-1.93-1.09-2.23-2.49-1.19-4.57,6.11-12.18,12.1-24.43,18.13-36.65L197,419.68q5.21-10.57,10.41-21.16c.28-.55.94-1.12.33-1.79s-1.25-.23-1.88-.07q-15.68,4-31.33,8.07c-.81.21-1.7.72-2.24-.15-.44-.71.37-1.34.73-2q32.59-55.56,65.21-111.11c.29-.49.54-1,.91-1.69-2.14-.71-4.06.1-5.93.33-16.74,2.1-33.47,4.32-50.21,6.51-2.63.34-5.28.64-7.89,1.09-2,.36-2.37-.49-1.9-2.2,1.32-4.85,3.71-9.24,5.88-13.72,20.75-42.81,41.6-85.57,62.23-128.43,2.83-5.85,6.25-10.26,13.07-11.26,6.16-.9,12.29-2,18.42-3.12q25.31-4.41,50.6-8.84c14.8-2.58,29.61-5.09,44.42-7.66,18.89-3.27,37.76-6.66,56.67-9.84,14.17-2.38,28.26-5.32,42.66-6.17.5,0,1-.08,1.5-.06,1.18,0,1.55.54.72,1.53-.43.5-.93,1-1.39,1.43q-24.11,24.51-48.2,49-33.24,33.93-66.41,67.91C349.47,230.37,345.56,234.43,341.13,239ZM180.81,398.77l35.5-8.88-55.18,112c1.59.09,2.08-.81,2.71-1.42q58.49-57.09,117-114.2c15-14.65,29.5-29.87,45.26-43.78.45-.4,1.34-.73.87-1.54s-1.19-.39-1.83-.27l-21.82,4.12c-4.21.79-8.42,1.55-12.81,2.36a4.27,4.27,0,0,1,1.79-2.41L358,281.47l45.78-44.13c.42-.41,1-.85.64-1.44s-1.07-.16-1.63-.09q-33.31,4.08-66.65,8.11c-1.86.22-3.78.92-6.11.31,43.31-44.21,86.37-88.15,129.75-132.44-3.36-.58-6,.24-8.65.7q-51.66,8.82-103.33,17.67c-30.66,5.28-61.3,10.69-92,15.91-4.68.8-7.7,2.86-9.82,7.28q-26.67,55.49-53.66,110.83c-4.18,8.61-8.4,17.21-12.56,25.83-1.22,2.52-.93,2.92,1.73,2.62,4.71-.54,9.42-1.1,14.12-1.71q24.36-3.19,48.73-6.42c.77-.1,1.78-.76,2.32.1s-.45,1.5-.84,2.16Q221.07,329,196.26,371.22c-5.31,9-10.82,18-15.76,27.23l-.26.33Z"/><path class="cls-4" d="M180.5,398.45c4.94-9.25,10.45-18.18,15.76-27.23Q221,329,245.83,286.76c.39-.66,1.35-1.35.84-2.16s-1.55-.2-2.32-.1q-24.37,3.18-48.73,6.42c-4.7.61-9.41,1.17-14.12,1.71-2.66.3-2.95-.1-1.73-2.62,4.16-8.62,8.38-17.22,12.56-25.83Q219.2,208.79,246,153.35c2.12-4.42,5.14-6.48,9.82-7.28,30.67-5.22,61.31-10.63,92-15.91q51.66-8.89,103.33-17.67c2.66-.46,5.29-1.28,8.65-.7C416.38,156.08,373.32,200,330,244.23c2.33.61,4.25-.09,6.11-.31q33.33-4,66.65-8.11c.56-.07,1.26-.45,1.63.09s-.22,1-.64,1.44L358,281.47l-65.71,63.31a4.27,4.27,0,0,0-1.79,2.41c4.39-.81,8.6-1.57,12.81-2.36l21.82-4.12c.64-.12,1.43-.43,1.83.27s-.42,1.14-.87,1.54c-15.76,13.91-30.23,29.13-45.26,43.78q-58.55,57-117,114.2c-.63.61-1.12,1.51-2.71,1.42l55.18-112-35.5,8.88Z"/><path class="cls-4" d="M180.81,398.77h-.57l.26-.33Z"/></g></g></svg>