<svg xmlns="http://www.w3.org/2000/svg" viewBox="0 0 125.35 125.35"><defs><style>.cls-1{fill:#fff;stroke-width:3px;}.cls-1,.cls-2{stroke:#947b2f;stroke-miterlimit:10;}.cls-2{stroke-width:0.75px;}</style></defs><title>spell safe</title><g id="Layer_2" data-name="Layer 2"><g id="Layer_1-2" data-name="Layer 1"><circle class="cls-1" cx="62.67" cy="62.67" r="61.17"/><circle class="cls-2" cx="42.95" cy="43.19" r="7.98"/><circle class="cls-2" cx="83.34" cy="43.26" r="7.98"/><path class="cls-2" d="M65.52,101a41.86,41.86,0,0,1-16.83-3.1,33.63,33.63,0,0,1-11.13-7.51,35.46,35.46,0,0,1-5.7-7.32,41.31,41.31,0,0,1-2.33-5.21,7.61,7.61,0,0,1-.09-1.1,1.72,1.72,0,0,1,.41-1.3,1.85,1.85,0,0,1,1.4-.51,4.49,4.49,0,0,1,.9.1,22.8,22.8,0,0,1,2.91,2.62,56.68,56.68,0,0,0,6.71,5.4,41,41,0,0,0,10.12,5,42.47,42.47,0,0,0,13.83,2.1,23.87,23.87,0,0,0,12.33-3,57.52,57.52,0,0,0,10.51-7.73q5.41-4.69,7.71-4.89h.32a1,1,0,0,1,1.1,1.1A7.54,7.54,0,0,1,97,78.34a36.73,36.73,0,0,1-6.31,9.42A44.36,44.36,0,0,1,79.35,97,27.81,27.81,0,0,1,65.52,101Z"/></g></g></svg>