<svg xmlns="http://www.w3.org/2000/svg" viewBox="0 0 784.44 261.6"><defs><style>.cls-1{fill:#8f7a3c;}.cls-2{fill:#fffefe;}.cls-3{fill:#8e7a3d;}.cls-4{fill:#8f7b3e;}.cls-5{fill:#070602;}</style></defs><title>flip a coin button</title><g id="Layer_2" data-name="Layer 2"><g id="Layer_1-2" data-name="Layer 1"><path class="cls-1" d="M391.92,261.56q-172,0-344,0c-7,0-13.74-.89-20.15-3.85C13.27,251,4.37,239.83,1,224.22a48.1,48.1,0,0,1-1-10.17Q0,131.93,0,49.82c0-11,2.13-21.37,8.76-30.38C17,8.21,28,1.63,42.07.43,47.32,0,52.54.05,57.78.05Q396.87,0,736,0C749.34,0,761,4.07,770.6,13.53A44.73,44.73,0,0,1,784.35,46.3q.18,84.62,0,169.23c0,22.61-16.87,41.93-39.28,45.57a56.16,56.16,0,0,1-9,.44Q564,261.57,391.92,261.56ZM392,251H738.43a27.4,27.4,0,0,0,3.74-.11c18.35-2.47,31.67-17.4,31.69-35.8q.09-84.24,0-168.49a35.84,35.84,0,0,0-36.28-36.06q-345.36,0-690.71,0A36,36,0,0,0,10.59,46.38q-.12,84.5,0,169A34.58,34.58,0,0,0,21,240.65a34.82,34.82,0,0,0,25.22,10.41Q219.08,251,392,251Z"/><path class="cls-2" d="M392,251q-172.86,0-345.73,0A34.82,34.82,0,0,1,21,240.65a34.58,34.58,0,0,1-10.41-25.28q-.08-84.49,0-169A36,36,0,0,1,46.87,10.52q345.35.06,690.71,0a35.84,35.84,0,0,1,36.28,36.06q.1,84.24,0,168.49c0,18.4-13.34,33.33-31.69,35.8a27.4,27.4,0,0,1-3.74.11ZM73.67,183H96.93a15.55,15.55,0,0,0,4-.42,3.25,3.25,0,0,0,2.76-2.53,4.11,4.11,0,0,0-1.22-4.09,5,5,0,0,0-4-1.12,131.42,131.42,0,0,1-18-.41c-5.55-.52-7.36-2.17-8.62-7.66a26.76,26.76,0,0,1-.87-5.65c-.08-13.25,0-26.49-.07-39.74,0-1.85.75-2.85,2.62-2.86,8,0,16-.1,24,0,3.28,0,4.85,2,4.85,5.13,0,2.25-.1,4.51.06,6.75.14,1.9-.85,4.74,2.07,5.09s3.37-2.5,3.9-4.62a65.48,65.48,0,0,0,1.62-17.1c-.07-4.66-.37-9.32.18-14,1.18-10.1,3.85-19.89,6.07-29.77.76-3.39.12-4.67-3.13-6a37.53,37.53,0,0,0-7.73-1.92c-4.89-.82-9.71-2.23-14.81-1.46-7.47,1.14-13.69,4.95-19.92,8.8-3.12,1.93-3.13,2-5.77-.59-2.32-2.26-4.36-4.83-7.2-6.51-1.83-1.08-3.68-1.91-5.89-1-6,2.34-11.71,5.09-17.44,7.93A2.14,2.14,0,0,0,33.21,72c.63,3.27,3,4.28,7,2.92,3.5-1.18,5.11-.69,7.14,2.36a24.69,24.69,0,0,1,2,3.72c3.35,7.32,3.84,15.07,3.56,23-.14,4,0,4-4.19,4.06-3.41,0-6.83.13-10.24.16-.93,0-1.75.08-1.54,1.31a77.23,77.23,0,0,0,1.62,9.07,1.92,1.92,0,0,0,2.19,1.5c3.33-.09,6.66,0,10-.06,1.29,0,1.81.31,1.71,1.67s0,2.83,0,4.24q0,21.75,0,43.49c0,3.79-.94,5-4.55,6.09q-3,.85-6.06,1.44c-4.51.85-4.43.82-4.47,5.4,0,1.72.59,2.2,2.16,2,2.89-.3,5.79-.53,8.69-.83C57.2,182.58,66.2,183.25,73.67,183Zm156-61c-.54-2.43.46-4.59.34-6.8-.16-3.07-1.51-4.54-4.59-4.74a12.22,12.22,0,0,0-5.57,1.15c-5.27,2.19-10.64,3.23-16.28,1.64a2.75,2.75,0,0,0-3.51,1.58,3,3,0,0,0,1,4,11.29,11.29,0,0,0,3.37,1.58,11.43,11.43,0,0,1,6.9,6.75,30.61,30.61,0,0,1,2.33,12.39c0,16.16,0,32.33,0,48.49,0,12.08,0,24.17-.06,36.25,0,4.37-.21,4.42-4.22,5.76-2.24.75-2.67,2.38-1.94,5.61.61,2.7,2.29,1.41,3.52,1.06,8.87-2.54,18-2.79,27.12-3.7,3.39-.34,6.81-.47,10.2-.81a3.4,3.4,0,0,0,3.12-3.86c-.08-2-1.92-1.82-3.45-1.87-4.42-.14-8.77,1.08-13.21.61s-5.25-1.35-5.13-5.6c.36-12.16.44-24.32.42-36.49,0-2.37-1.1-5.73.49-6.87s4.76.25,7.2.75c6.52,1.31,13,2.21,19.21-1.32,2.45-1.4,4.91-2.81,7.23-4.4,9.68-6.64,13.3-16.24,13.08-27.56-.1-5.49-1-10.93-1.75-16.38-1.4-10.55-11-19-21.63-19.28-7.4-.18-13.35,2.86-18.53,7.85A21,21,0,0,1,229.65,122Zm402.54,61.88c7.4-.27,12-4.07,14.4-11a55.15,55.15,0,0,0,2.7-19.42c-.12-6.49-.54-13,.15-19.48.19-1.79.5-3.5,2-4.64a25.13,25.13,0,0,1,8.33-4.38c3.57-1,6.32.06,8.51,3.06A23.3,23.3,0,0,1,672,136c2.49,9.42,3.07,19.05,2.77,28.73a82.82,82.82,0,0,1-1,12.66c-.64,3.49,1.47,5.19,4.88,4.37a22.2,22.2,0,0,0,6.58-3c5.79-3.6,11.34-7.57,16.87-11.59.94-.68,1.39-1.35,1-2.48a2.8,2.8,0,0,0-2.45-2.16,5.82,5.82,0,0,0-3.87,1.46c-2.61,1.86-5.26,3.67-8.12,5.67a25.62,25.62,0,0,1,0-3.32c.69-4.84,1.62-9.66,2.17-14.52,1-8.76.9-17.49-2.25-25.88-4.2-11.14-13.88-15.38-25-11.07a108.2,108.2,0,0,0-15.16,7.56c-2,1.17-3.2,1-4.52-.83a24.57,24.57,0,0,0-5.89-6.06,6.94,6.94,0,0,0-7.29-.69,51.73,51.73,0,0,0-7.46,4.51c-2.91,2-3.08,3.77,0,5.58,6.3,3.75,7.88,9.61,8.31,16.3.85,13.32.28,26.66.48,40A6,6,0,0,0,632.19,183.91ZM340.92,125.36c7.17-5.19,18.1-2.87,21.84,4.89,3.45,7.18,2.52,10.54-4.15,13.55-3.78,1.7-7.64,3.26-11.55,4.64-6.47,2.28-12.66,5-18.06,9.38a18.37,18.37,0,0,0-6.27,8.52c-2.57,7.76.79,13.94,8.73,15.67,10.7,2.34,20.63,1.06,29.28-6.44,3.75-3.25,4.34-3,8.06.1a27.55,27.55,0,0,0,8.46,5.18c7.57,2.71,14.82,2.77,21.37-2.76a4.42,4.42,0,0,0,1.88-4.32c-.28-1.77-1.75-2.05-3.07-2.51-1.64-.58-3.33-1-5-1.64-5.77-2.14-7.51-4.66-7.51-10.83,0-10.16,0-20.33,0-30.5a10.34,10.34,0,0,0-2.92-7.45,24.64,24.64,0,0,0-6.9-4.86c-10.92-5.64-22.22-6.24-33.89-2.7-5.36,1.62-10.68,3.3-15.1,6.9-4,3.28-4.25,7.42-.79,11.29,3.67,4.11,9.83,5,15.64,2.11,1.86-.93,4.38-1.51,4.42-4.18S342.88,126.47,340.92,125.36Zm147.56,9.7c3.48-2.71,6.91-4.76,9.57-7.79a4.84,4.84,0,0,0,1-5.09c-1-3-3.27-4.82-5.94-6.08-6-2.82-12.19-4.89-18.9-4.76-10.09.21-18.39,3.88-24.3,12.42-7.21,10.41-9.78,22-8.34,34.36,1,8.53,4.7,15.91,12.5,20.27a32.64,32.64,0,0,0,23.7,3.3c9.69-2.22,16.62-8.81,23.1-15.85,1.53-1.66.44-3.31-.91-4.55s-2.67-1.48-4.17,0c-2.58,2.47-4.93,5.21-7.83,7.35-1.81,1.34-3.64,2.47-6.1,2.47-10.2,0-17.66-5-21.23-14.72-3.95-10.8-3-21.43,2-31.67,2.39-4.88,5.77-6,10.75-3.76a21.14,21.14,0,0,1,3.46,2,68.38,68.38,0,0,1,9.52,8.05C487.46,132,488.56,133,488.48,135.06Zm-342,32.28V164.2c.06-21.32.19-42.64.13-64,0-11.65.27-23.32-.51-35-.19-2.85-1-3.59-3.81-3a99.3,99.3,0,0,0-21.89,7.42c-2.46,1.14-2.53,2-.54,4.07,1.69,1.72,3.44,3.39,5.15,5.09a11.22,11.22,0,0,1,3.6,8.8c-.33,23.06-.32,46.13-.36,69.2,0,7.33.1,14.66.21,22,0,2.54.54,2.89,3,2.24,3.13-.82,6.27-1.62,9.36-2.58a43.35,43.35,0,0,0,14.72-8.22c1.56-1.28,3.48-2.69,2.32-5.2-.76-1.61-3-1.76-5.82-.5C150.29,165.36,148.62,166.26,146.46,167.34ZM573.64,144.6c.25-14.23-5.53-25.74-18.81-32.2-3.58-1.74-7.42-2.88-11.35-1.82-9.09,2.46-18,5.48-26.1,10.39a19.45,19.45,0,0,0-9.46,14.3,102.84,102.84,0,0,0-.87,21.18,25.18,25.18,0,0,0,2.31,9.39c6.76,14.28,27,21.47,40.92,13.11C563.4,171,573.54,161.3,573.64,144.6ZM170,154.57h.47c0,8.25,0,16.5,0,24.74,0,2.9,2.14,4.31,4.88,3.36a12.87,12.87,0,0,0,2-1c7-3.85,13.15-9.05,20.24-12.76a10.25,10.25,0,0,0,2.15-1.7c1.29-1.24,2.09-2.69,1-4.43s-2.87-1.83-4.61-1-3.74,1.82-5.54,2.85-2.17.58-2.16-1.38c.07-12.32,0-24.65.05-37a122.24,122.24,0,0,1,.24-13c.79-7.41-1.52-9.52-8.84-8.05-6.84,1.37-13.52,3.38-20.26,5.13-1.57.4-2.9.8-3.13,2.64a3.88,3.88,0,0,0,2.16,3.91,22.94,22.94,0,0,0,4,2c5.32,2.1,7.23,6.35,7.3,11.64C170,138.58,170,146.58,170,154.57Zm435.52,10.74v-2.62c0-12.74,0-25.48,0-38.23a98.1,98.1,0,0,1,.22-11c.83-7.61-1.44-9.72-8.88-8.23-6.84,1.37-13.51,3.39-20.26,5.14-1.47.38-2.74.74-3.05,2.43a3.75,3.75,0,0,0,2,4,32.26,32.26,0,0,0,4.86,2.49c3.66,1.54,5.45,4.44,6.22,8.14a48.24,48.24,0,0,1,.55,9.45c.12,14.08.18,28.16.3,42.23,0,3.18,2.21,4.61,5.19,3.45a19.25,19.25,0,0,0,2.21-1.14c6.69-3.71,12.56-8.74,19.38-12.24a9.6,9.6,0,0,0,3.07-2.53,3.06,3.06,0,0,0,.44-3.89,2.93,2.93,0,0,0-3.7-1.27c-1.32.48-2.58,1.14-3.85,1.75C608.71,164,607.38,165,605.48,165.31Zm117.81-13.55a8.07,8.07,0,0,0-1.52.85A93.15,93.15,0,0,0,709.15,165c-1.41,1.72-1.21,3.33.25,4.89a59.79,59.79,0,0,0,14.17,11c1,.55,2,.94,3.16-.12,3.68-3.39,7.45-6.66,11.22-9.93,1.94-1.68,2-3.34.51-5.41a62.25,62.25,0,0,0-12.68-12.64A3.89,3.89,0,0,0,723.29,151.76Zm16.29-26.5c-.1-1.41-1.25-2.82-2.63-4.06-3.54-3.2-7.68-5.55-11.48-8.38-2.4-1.78-4.21-1.36-6.18.39a133.36,133.36,0,0,0-10.57,11,1.77,1.77,0,0,0,.14,2.8,89.44,89.44,0,0,0,15.5,12.11,2.76,2.76,0,0,0,3.6-.5c3.58-3.14,6.88-6.54,10.18-10A4.08,4.08,0,0,0,739.58,125.26ZM198,75.2A4.16,4.16,0,0,0,194,70.81a33.1,33.1,0,0,0-9,.69,7,7,0,0,0-5.28,4.72A68.28,68.28,0,0,1,175,87.4c-.83,1.44-1.74,3-.39,4.61s3.19,2.51,5.53,1.71c8-2.75,13.4-8.33,17.11-15.72A12.93,12.93,0,0,0,198,75.2Zm417,0a4.43,4.43,0,0,0-4.21-4.49c-2.11,0-4.23.12-6.33.33-4,.4-6.92,2-8.18,6.35a43.21,43.21,0,0,1-4.29,10c-.85,1.43-1.72,3-.36,4.6a4.8,4.8,0,0,0,5.55,1.67c7.92-2.72,13.27-8.23,17-15.51A13.82,13.82,0,0,0,615,75.22Z"/><path class="cls-3" d="M73.67,183c-7.47.23-16.47-.44-25.44.51-2.9.3-5.8.53-8.69.83-1.57.17-2.17-.31-2.16-2,0-4.58,0-4.55,4.47-5.4q3.06-.59,6.06-1.44c3.61-1,4.54-2.3,4.55-6.09q0-21.75,0-43.49c0-1.41-.08-2.84,0-4.24s-.42-1.7-1.71-1.67c-3.33.08-6.66,0-10,.06a1.92,1.92,0,0,1-2.19-1.5A77.23,77.23,0,0,1,37,109.49c-.21-1.23.61-1.3,1.54-1.31,3.41,0,6.83-.11,10.24-.16C52.93,108,52.81,108,53,104c.28-7.89-.21-15.64-3.56-23a24.69,24.69,0,0,0-2-3.72c-2-3-3.64-3.54-7.14-2.36-4,1.36-6.4.35-7-2.92a2.14,2.14,0,0,1,1.21-2.67c5.73-2.84,11.49-5.59,17.44-7.93,2.21-.87,4.06,0,5.89,1,2.84,1.68,4.88,4.25,7.2,6.51,2.64,2.58,2.65,2.52,5.77.59,6.23-3.85,12.45-7.66,19.92-8.8,5.1-.77,9.92.64,14.81,1.46a37.53,37.53,0,0,1,7.73,1.92c3.25,1.29,3.89,2.57,3.13,6-2.22,9.88-4.89,19.67-6.07,29.77-.55,4.66-.25,9.32-.18,14a65.48,65.48,0,0,1-1.62,17.1c-.53,2.12-1,5-3.9,4.62s-1.93-3.19-2.07-5.09c-.16-2.24-.06-4.5-.06-6.75,0-3.18-1.57-5.08-4.85-5.13-8-.13-16,0-24,0-1.87,0-2.62,1-2.62,2.86,0,13.25,0,26.49.07,39.74a26.76,26.76,0,0,0,.87,5.65c1.26,5.49,3.07,7.14,8.62,7.66a131.42,131.42,0,0,0,18,.41,5,5,0,0,1,4,1.12,4.11,4.11,0,0,1,1.22,4.09,3.25,3.25,0,0,1-2.76,2.53,15.55,15.55,0,0,1-4,.42ZM105,130.85a1.29,1.29,0,0,0,.92-1.18c1.62-7.22,1.68-14.53,1.29-21.87a55.24,55.24,0,0,1,.49-10c1.21-9.5,3.68-18.74,5.83-28,.47-2-.17-2.83-1.85-3.27-2.5-.64-5-1.27-7.51-1.79-5.55-1.15-11.1-2.3-16.76-.55s-10.72,4.87-15.72,8c-4.07,2.56-4.87,2.39-8.38-1a66.64,66.64,0,0,0-6.14-5.86,5.33,5.33,0,0,0-6-.76c-4.12,2-8.35,3.75-12.47,5.74-.91.43-2.88.49-2.32,1.91.41,1,2.09.31,3.18-.08L40,72a7.24,7.24,0,0,1,8.37,2.14,24.54,24.54,0,0,1,4.08,7.11c3.8,8.63,3,17.77,3.07,26.82,0,1.45-1,1.81-2.06,2a58.15,58.15,0,0,1-9.68.86c-4,.15-4,.12-3.24,4.12.33,1.85,1.08,2.63,3.1,2.49,2.9-.21,5.84.09,8.74-.1,2.33-.16,3.13.44,3.1,3-.12,15.33,0,30.66-.08,46a37,37,0,0,1-.48,5.46,6.66,6.66,0,0,1-4.63,5.68,58.39,58.39,0,0,1-8.45,2.13c-.66.12-1.77.12-1.64,1.14s1.2.69,1.86.63c3.15-.28,6.28-.79,9.43-.93,14.91-.67,29.82-.2,44.73-.34,1.17,0,2.33-.09,3.49-.18.63-.05,1.14-.3,1.15-1.05a1.22,1.22,0,0,0-1-1.26,12.67,12.67,0,0,0-2.23-.12c-4.75,0-9.5,0-14.24-.1-10-.31-13.43-2.81-14.62-12.67-1.75-14.66-.87-29.44-.52-44.17a4.63,4.63,0,0,1,.09-.49c.55-3,1.54-4,4.64-4.19,8.07-.57,16.16-.2,24.23-.2a11.66,11.66,0,0,1,6,2.17,3.26,3.26,0,0,1,1.79,3.23C105,124.32,105,127.49,105,130.85Z"/><path class="cls-4" d="M229.65,122a21,21,0,0,0,5.64-4.22c5.18-5,11.13-8,18.53-7.85,10.65.25,20.23,8.73,21.63,19.28.72,5.45,1.65,10.89,1.75,16.38.22,11.32-3.4,20.92-13.08,27.56-2.32,1.59-4.78,3-7.23,4.4-6.18,3.53-12.69,2.63-19.21,1.32-2.44-.5-5.51-2-7.2-.75s-.49,4.5-.49,6.87c0,12.17-.06,24.33-.42,36.49-.12,4.25.8,5.14,5.13,5.6s8.79-.75,13.21-.61c1.53.05,3.37-.14,3.45,1.87a3.4,3.4,0,0,1-3.12,3.86c-3.39.34-6.81.47-10.2.81-9.08.91-18.25,1.16-27.12,3.7-1.23.35-2.91,1.64-3.52-1.06-.73-3.23-.3-4.86,1.94-5.61,4-1.34,4.18-1.39,4.22-5.76.08-12.08.05-24.17.06-36.25,0-16.16,0-32.33,0-48.49a30.61,30.61,0,0,0-2.33-12.39,11.43,11.43,0,0,0-6.9-6.75,11.29,11.29,0,0,1-3.37-1.58,3,3,0,0,1-1-4,2.75,2.75,0,0,1,3.51-1.58c5.64,1.59,11,.55,16.28-1.64a12.22,12.22,0,0,1,5.57-1.15c3.08.2,4.43,1.67,4.59,4.74C230.11,117.44,229.11,119.6,229.65,122Zm4.18.85-.61.36-.9.64-1.15.46c-3,1.26-4.67.15-4.55-3.1,0-.66.18-1.32.26-2,.74-6.51-.24-7.21-6.51-4.87-5.26,2-10.6,3.47-16.29,1.75-.4-.13-1-.31-1.32.28.5.93,1.5,1,2.31,1.27a14.48,14.48,0,0,1,8.91,8.83,32.86,32.86,0,0,1,2.48,12.4q0,41.73,0,83.46c0,1.49-.21,3-.33,4.47-.24,3.17-1.5,5.45-5.05,5.68-.51,0-1.1.13-1.05.78.08.88.81.72,1.34.55,8.25-2.56,16.89-2.35,25.89-3.54-2.15-.36-3.77-.54-5.35-.91-3.24-.77-4.95-2.66-4.94-5.71,0-15.58.13-31.15.16-46.72,0-1.51.53-2,2-2a67.3,67.3,0,0,1,9.38,1.25c3.75.6,7.48,1.68,11.34.92,5.3-1,9.62-4,13.88-7.1,7.19-5.15,10-12.67,10.64-21.07.51-7.09-.82-14.11-2-21.07-1.66-9.46-12.73-16.65-22.21-15.05-6.52,1.11-11.07,5.06-15.53,9.36Zm6.81,106.87c2.39.43,4.7-.13,7-.57C245.32,229.46,243,229.7,240.64,229.75Z"/><path class="cls-4" d="M632.19,183.91a6,6,0,0,1-.22-2.7c-.2-13.32.37-26.66-.48-40-.43-6.69-2-12.55-8.31-16.3-3-1.81-2.88-3.58,0-5.58a51.73,51.73,0,0,1,7.46-4.51,6.94,6.94,0,0,1,7.29.69,24.57,24.57,0,0,1,5.89,6.06c1.32,1.78,2.53,2,4.52.83a108.2,108.2,0,0,1,15.16-7.56c11.08-4.31,20.76-.07,25,11.07,3.15,8.39,3.25,17.12,2.25,25.88-.55,4.86-1.48,9.68-2.17,14.52a25.62,25.62,0,0,0,0,3.32c2.86-2,5.51-3.81,8.12-5.67a5.82,5.82,0,0,1,3.87-1.46,2.8,2.8,0,0,1,2.45,2.16c.43,1.13,0,1.8-1,2.48-5.53,4-11.08,8-16.87,11.59a22.2,22.2,0,0,1-6.58,3c-3.41.82-5.52-.88-4.88-4.37a82.82,82.82,0,0,0,1-12.66c.3-9.68-.28-19.31-2.77-28.73a23.3,23.3,0,0,0-3.64-7.88c-2.19-3-4.94-4-8.51-3.06a25.13,25.13,0,0,0-8.33,4.38c-1.54,1.14-1.85,2.85-2,4.64-.69,6.49-.27,13-.15,19.48a55.15,55.15,0,0,1-2.7,19.42C644.2,179.84,639.59,183.64,632.19,183.91Zm56.86-11.13c-3.1-.69-3.76-1.62-3.39-4.54.18-1.49.36-3,.59-4.45,1.24-7.81,2.63-15.6,2.19-23.56-.28-5.08-.83-10.17-3.08-14.81-4.06-8.38-10.23-10.65-17.22-9.1-7.28,1.61-13.66,5.68-20,9.49-1.67,1-2.56.83-3.78,0a11.28,11.28,0,0,1-2-1.88,52.77,52.77,0,0,0-5.48-5.81,4.53,4.53,0,0,0-5.54-.57c-1.87,1.09-3.67,2.29-5.56,3.34-1.67.92-1.48,1.62,0,2.57,5.33,3.44,7.63,8.59,8.14,14.72.88,10.63.95,21.29.79,31.95,0,2.92.09,5.83.06,8.74,0,1.59.72,1.89,2,1.39a10.75,10.75,0,0,0,6-5.67,37.61,37.61,0,0,0,3.57-15.7c.08-7.5-.06-15,.06-22.49,0-3.23.15-6.63,3-8.93a26,26,0,0,1,9.36-5.1c4.86-1.36,8.89.11,11.79,4.24a32.6,32.6,0,0,1,5.26,14.16c1.8,11.9,2.43,23.83.62,35.81-.36,2.33.38,2.94,2.62,2.07A40.13,40.13,0,0,0,689.05,172.78Z"/><path class="cls-3" d="M340.92,125.36c2,1.11,4.55,1.39,4.52,4s-2.56,3.25-4.42,4.18c-5.81,2.88-12,2-15.64-2.11-3.46-3.87-3.24-8,.79-11.29,4.42-3.6,9.74-5.28,15.1-6.9,11.67-3.54,23-2.94,33.89,2.7a24.64,24.64,0,0,1,6.9,4.86,10.34,10.34,0,0,1,2.92,7.45c0,10.17,0,20.34,0,30.5,0,6.17,1.74,8.69,7.51,10.83,1.63.6,3.32,1.06,5,1.64,1.32.46,2.79.74,3.07,2.51a4.42,4.42,0,0,1-1.88,4.32c-6.55,5.53-13.8,5.47-21.37,2.76a27.55,27.55,0,0,1-8.46-5.18c-3.72-3.15-4.31-3.35-8.06-.1-8.65,7.5-18.58,8.78-29.28,6.44-7.94-1.73-11.3-7.91-8.73-15.67a18.37,18.37,0,0,1,6.27-8.52c5.4-4.34,11.59-7.1,18.06-9.38,3.91-1.38,7.77-2.94,11.55-4.64,6.67-3,7.6-6.37,4.15-13.55C359,122.49,348.09,120.17,340.92,125.36Zm41.25,18.43c0-5-.11-10,0-15a8.63,8.63,0,0,0-3.67-7.51,31.37,31.37,0,0,0-5.35-3.19c-9.87-4.93-20-5.46-30.53-2.33-5,1.48-9.91,2.94-14.14,6-3.49,2.58-3.59,5.57-.39,8.53,2.9,2.69,7.82,2.88,12.4.45.64-.34,1.64-.53,1.66-1.33s-1.06-.86-1.68-1.17c-3-1.52-3.49-3.81-1.05-5.52,12.21-8.48,26.4,1.76,27.59,11.27.41,3.28.55,6.29-2,8.8a19.69,19.69,0,0,1-5.42,3.53,159.3,159.3,0,0,1-15.52,6.13,46.69,46.69,0,0,0-13.62,7.71,15.37,15.37,0,0,0-5.1,7c-2.05,5.93.33,10.66,6.29,12.11a39.56,39.56,0,0,0,15.1.48c4.9-.71,8.67-3.64,12.4-6.6,4.38-3.49,6.46-3.56,10.82-.1,2.55,2,5.08,4.08,8.18,5.19,6.22,2.22,12.33,2.78,17.92-1.75.63-.52,1.68-.94,1.61-1.77s-1.28-.87-2-1.15c-2.17-.82-4.38-1.56-6.57-2.33a8.9,8.9,0,0,1-5.57-5.67,20.5,20.5,0,0,1-1.38-7.56C382.21,153.28,382.17,148.53,382.17,143.79Z"/><path class="cls-4" d="M488.48,135.06c.08-2.1-1-3.08-2.08-4.13a68.38,68.38,0,0,0-9.52-8.05,21.14,21.14,0,0,0-3.46-2c-5-2.19-8.36-1.12-10.75,3.76-5,10.24-6,20.87-2,31.67,3.57,9.75,11,14.71,21.23,14.72,2.46,0,4.29-1.13,6.1-2.47,2.9-2.14,5.25-4.88,7.83-7.35,1.5-1.43,2.88-1.13,4.17,0s2.44,2.89.91,4.55c-6.48,7-13.41,13.63-23.1,15.85a32.64,32.64,0,0,1-23.7-3.3c-7.8-4.36-11.51-11.74-12.5-20.27-1.44-12.38,1.13-24,8.34-34.36,5.91-8.54,14.21-12.21,24.3-12.42,6.71-.13,12.93,1.94,18.9,4.76,2.67,1.26,4.93,3.06,5.94,6.08a4.84,4.84,0,0,1-1,5.09C495.39,130.3,492,132.35,488.48,135.06Zm-17.66,44.42c1.5,0,3,0,4.5,0a7.43,7.43,0,0,0,1.46-.3c8.75-2.1,15.07-7.86,21.08-14.07.33-.35.82-.79.42-1.28-.53-.66-1-.15-1.46.25-1.73,1.69-3.42,3.42-5.17,5.09-2.58,2.46-5.49,4.66-9.13,4.7-7.61.08-14.64-1.89-19.5-8.23-9.83-12.82-9.36-26.73-3.44-40.85,3.42-8.14,9.34-9.77,17-5.35.72.41,1.41.88,2.09,1.36a74,74,0,0,1,9.85,8.44c.51.52,1,1.63,2,.84,1.84-1.42,3.85-2.66,5.3-4.52,1.09-1.41.74-2.81-.29-4.1a11.4,11.4,0,0,0-4.37-3.25,56.07,56.07,0,0,0-10.39-3.46,26.92,26.92,0,0,0-28.5,10.37c-6.79,9.47-9.14,20.23-8.16,31.7a25.13,25.13,0,0,0,7.52,16.45C457,178.42,463.78,179.43,470.82,179.48Z"/><path class="cls-1" d="M146.46,167.34c2.16-1.08,3.83-2,5.56-2.77,2.78-1.26,5.06-1.11,5.82.5,1.16,2.51-.76,3.92-2.32,5.2a43.35,43.35,0,0,1-14.72,8.22c-3.09,1-6.23,1.76-9.36,2.58-2.46.65-3,.3-3-2.24-.11-7.32-.23-14.65-.21-22,0-23.07,0-46.14.36-69.2a11.22,11.22,0,0,0-3.6-8.8c-1.71-1.7-3.46-3.37-5.15-5.09-2-2-1.92-2.93.54-4.07a99.3,99.3,0,0,1,21.89-7.42c2.81-.58,3.62.16,3.81,3,.78,11.64.48,23.31.51,35,.06,21.32-.07,42.64-.13,64Zm-3,4.59c0-2.24,0-4.21,0-6.19.27-32.81,1-65.62,0-98.44-.07-2.18-.73-2.53-2.66-2a154.18,154.18,0,0,0-15.6,5.2c-3.42,1.34-3.53,1.48-.73,3.91,4.95,4.29,7.15,9.2,6.94,16.11-.84,27.31-.48,54.64-.48,82,0,1.33.06,2.67,0,4s.57,1.75,1.85,1.44c7.52-1.8,14.63-4.49,20.65-9.53.51-.43,1.33-.72,1.16-1.86C150.75,167.8,147.51,170.36,143.47,171.93Z"/><path class="cls-4" d="M573.64,144.6c-.1,16.7-10.24,26.44-23.36,34.35-13.88,8.36-34.16,1.17-40.92-13.11a25.18,25.18,0,0,1-2.31-9.39,102.84,102.84,0,0,1,.87-21.18,19.45,19.45,0,0,1,9.46-14.3c8.1-4.91,17-7.93,26.1-10.39,3.93-1.06,7.77.08,11.35,1.82C568.11,118.86,573.89,130.37,573.64,144.6Zm-64.22,6c.15,1.88.38,4,.46,6.19.52,13.24,14.69,24.8,30,22.77s29.6-17.44,30.94-33c1.12-13-3.23-23.77-15-30.64-3.57-2.08-7.45-3.85-11.62-2.74-8.61,2.29-17,5.2-24.79,9.7a16.84,16.84,0,0,0-8.48,11.49C509.78,139.68,509.87,145,509.42,150.62Z"/><path class="cls-4" d="M170,154.57c0-8,.07-16,0-24-.07-5.29-2-9.54-7.3-11.64a22.94,22.94,0,0,1-4-2A3.88,3.88,0,0,1,156.5,113c.23-1.84,1.56-2.24,3.13-2.64,6.74-1.75,13.42-3.76,20.26-5.13,7.32-1.47,9.63.64,8.84,8.05a122.24,122.24,0,0,0-.24,13c0,12.33,0,24.66-.05,37,0,2,.43,2.36,2.16,1.38s3.65-2,5.54-2.85,3.47-.8,4.61,1,.28,3.19-1,4.43a10.25,10.25,0,0,1-2.15,1.7c-7.09,3.71-13.24,8.91-20.24,12.76a12.87,12.87,0,0,1-2,1c-2.74,1-4.87-.46-4.88-3.36,0-8.24,0-16.49,0-24.74Zm28.42,9.49a10.78,10.78,0,0,0-4,1.67,22.17,22.17,0,0,1-5,2.31c-3.33.93-3.59.75-3.59-2.61l.15-54c0-4-.54-4.39-4.58-3.69-5.83,1-11.47,2.74-17.16,4.28-1.59.43-4.24.2-4.44,1.79-.17,1.36,2.48,1.85,3.94,2.49a13.81,13.81,0,0,1,8.69,11.32,58.94,58.94,0,0,1,.52,8c.07,13.91.06,27.82.11,41.73,0,3,.49,3.22,3.11,1.82,6.92-3.69,12.86-8.91,19.84-12.49A3.79,3.79,0,0,0,198.38,164.06Z"/><path class="cls-4" d="M605.48,165.31c1.9-.33,3.23-1.35,4.7-2.06,1.27-.61,2.53-1.27,3.85-1.75a2.93,2.93,0,0,1,3.7,1.27,3.06,3.06,0,0,1-.44,3.89,9.6,9.6,0,0,1-3.07,2.53c-6.82,3.5-12.69,8.53-19.38,12.24a19.25,19.25,0,0,1-2.21,1.14c-3,1.16-5.16-.27-5.19-3.45-.12-14.07-.18-28.15-.3-42.23a48.24,48.24,0,0,0-.55-9.45c-.77-3.7-2.56-6.6-6.22-8.14a32.26,32.26,0,0,1-4.86-2.49,3.75,3.75,0,0,1-2-4c.31-1.69,1.58-2,3.05-2.43,6.75-1.75,13.42-3.77,20.26-5.14,7.44-1.49,9.71.62,8.88,8.23a98.1,98.1,0,0,0-.22,11c0,12.75,0,25.49,0,38.23Zm9.85-1c-.72-.38-1.21.05-1.71.27-2.5,1.11-4.69,2.84-7.41,3.53-3.27.82-3.39.76-3.39-2.61L603,110.8c0-3.06-.54-3.65-3.48-3.19-7.48,1.16-14.68,3.51-22,5.41-.41.1-.88.16-.94.65s.33.72.71.92c1.47.76,2.92,1.58,4.43,2.27,4.6,2.09,6.93,5.86,7.7,10.63a52.79,52.79,0,0,1,.54,8c.07,14.06.06,28.13.12,42.2,0,2.65.6,2.85,2.94,1.64,7-3.65,12.85-9.19,20.11-12.46A3.86,3.86,0,0,0,615.33,164.29Z"/><path class="cls-4" d="M723.29,151.76a3.89,3.89,0,0,1,2.49,1,62.25,62.25,0,0,1,12.68,12.64c1.52,2.07,1.43,3.73-.51,5.41-3.77,3.27-7.54,6.54-11.22,9.93-1.16,1.06-2.17.67-3.16.12a59.79,59.79,0,0,1-14.17-11c-1.46-1.56-1.66-3.17-.25-4.89a93.15,93.15,0,0,1,12.62-12.42A8.07,8.07,0,0,1,723.29,151.76Zm13.2,15.83c-.3-.45-.63-1-1-1.56a59.49,59.49,0,0,0-10-10.06c-1.49-1.26-2.56-1-3.81.24q-4.67,4.68-9.41,9.28c-1.25,1.21-1.38,2.21,0,3.5a65.44,65.44,0,0,0,11.46,8.77c.73.44,1.36.81,2.2,0,3.25-3,6.56-5.88,9.84-8.83A1.73,1.73,0,0,0,736.49,167.59Z"/><path class="cls-4" d="M739.58,125.26a4.08,4.08,0,0,1-1.44,3.37c-3.3,3.41-6.6,6.81-10.18,10a2.76,2.76,0,0,1-3.6.5A89.44,89.44,0,0,1,708.86,127a1.77,1.77,0,0,1-.14-2.8,133.36,133.36,0,0,1,10.57-11c2-1.75,3.78-2.17,6.18-.39,3.8,2.83,7.94,5.18,11.48,8.38C738.33,122.44,739.48,123.85,739.58,125.26Zm-17-10.77a4.51,4.51,0,0,0-1.09.5A89.74,89.74,0,0,0,712,124.8c-.78.86-.1,1.38.45,1.84,3.83,3.21,7.68,6.39,11.78,9.25a2,2,0,0,0,3-.34c2.69-2.72,5.4-5.44,8.22-8,1.67-1.53,1.35-2.73-.13-4.09-3.59-3.27-7.7-5.81-11.72-8.47A8.63,8.63,0,0,0,722.63,114.49Z"/><path class="cls-4" d="M198,75.2a12.93,12.93,0,0,1-.75,2.8c-3.71,7.39-9.09,13-17.11,15.72-2.34.8-4.09-.06-5.53-1.71s-.44-3.17.39-4.61a68.28,68.28,0,0,0,4.76-11.18A7,7,0,0,1,185,71.5a33.1,33.1,0,0,1,9-.69A4.16,4.16,0,0,1,198,75.2Zm-6.65-1.74-3.23.24c-3.4.26-5.56,1.8-6.53,5.32a42.75,42.75,0,0,1-3.95,9.37c-.39.7-1.07,1.45-.32,2.25a2.12,2.12,0,0,0,2.35.32,15.8,15.8,0,0,0,3.2-1.34,29.18,29.18,0,0,0,11.23-11.38C196,74.7,195.28,73.51,191.3,73.46Z"/><path class="cls-4" d="M615,75.22a13.82,13.82,0,0,1-.84,3c-3.71,7.28-9.06,12.79-17,15.51A4.8,4.8,0,0,1,591.58,92c-1.36-1.55-.49-3.17.36-4.6a43.21,43.21,0,0,0,4.29-10c1.26-4.31,4.15-6,8.18-6.35,2.1-.21,4.22-.32,6.33-.33A4.43,4.43,0,0,1,615,75.22Zm-6.81-1.77c-1.07.09-2.15.2-3.22.28-3.34.24-5.38,1.82-6.34,5.21a44.87,44.87,0,0,1-4.07,9.59c-.36.65-.88,1.33-.29,2a2,2,0,0,0,2.08.46A10.78,10.78,0,0,0,600,89.56a29.75,29.75,0,0,0,11-11.23C613,74.69,612.29,73.5,608.14,73.45Z"/><path class="cls-5" d="M105,130.85c0-3.36-.07-6.53,0-9.68a3.26,3.26,0,0,0-1.79-3.23,11.66,11.66,0,0,0-6-2.17c-8.07,0-16.16-.37-24.23.2-3.1.23-4.09,1.18-4.64,4.19a4.63,4.63,0,0,0-.09.49c-.35,14.73-1.23,29.51.52,44.17,1.19,9.86,4.63,12.36,14.62,12.67,4.74.15,9.49.07,14.24.1a12.67,12.67,0,0,1,2.23.12,1.22,1.22,0,0,1,1,1.26c0,.75-.52,1-1.15,1.05-1.16.09-2.32.17-3.49.18-14.91.14-29.82-.33-44.73.34-3.15.14-6.28.65-9.43.93-.66.06-1.72.43-1.86-.63s1-1,1.64-1.14a58.39,58.39,0,0,0,8.45-2.13A6.66,6.66,0,0,0,55,171.89a37,37,0,0,0,.48-5.46c0-15.33,0-30.66.08-46,0-2.52-.77-3.12-3.1-3-2.9.19-5.84-.11-8.74.1-2,.14-2.77-.64-3.1-2.49-.71-4-.77-4,3.24-4.12a58.15,58.15,0,0,0,9.68-.86c1.09-.22,2.06-.58,2.06-2,0-9,.73-18.19-3.07-26.82a24.54,24.54,0,0,0-4.08-7.11A7.24,7.24,0,0,0,40,72l-.47.15c-1.09.39-2.77,1.11-3.18.08-.56-1.42,1.41-1.48,2.32-1.91,4.12-2,8.35-3.75,12.47-5.74a5.33,5.33,0,0,1,6,.76,66.64,66.64,0,0,1,6.14,5.86c3.51,3.39,4.31,3.56,8.38,1,5-3.15,10-6.26,15.72-8s11.21-.6,16.76.55c2.52.52,5,1.15,7.51,1.79,1.68.44,2.32,1.27,1.85,3.27-2.15,9.3-4.62,18.54-5.83,28a55.24,55.24,0,0,0-.49,10c.39,7.34.33,14.65-1.29,21.87A1.29,1.29,0,0,1,105,130.85Zm-16-23.2c4.34,0,8.67-.14,13,.06,2.41.11,3.15-.87,3.42-3,.72-5.6,1.56-11.18,2.43-16.75,1-6.76.4-8.19-5.54-11.73a38,38,0,0,0-11.82-4.52C82.64,70,76.35,73,71,78.47a7.09,7.09,0,0,0-2,5.22c0,7,.07,14,0,21,0,2,.62,2.78,2.67,2.89A124.22,124.22,0,0,0,89.06,107.65Z"/><path class="cls-5" d="M234.63,122.21c4.46-4.3,9-8.25,15.53-9.36,9.48-1.6,20.55,5.59,22.21,15.05,1.21,7,2.54,14,2,21.07-.61,8.4-3.45,15.92-10.64,21.07-4.26,3.06-8.58,6.06-13.88,7.1-3.86.76-7.59-.32-11.34-.92a67.3,67.3,0,0,0-9.38-1.25c-1.52,0-2,.5-2,2,0,15.57-.14,31.14-.16,46.72,0,3.05,1.7,4.94,4.94,5.71,1.58.37,3.2.55,5.35.91-9,1.19-17.64,1-25.89,3.54-.53.17-1.26.33-1.34-.55,0-.65.54-.74,1.05-.78,3.55-.23,4.81-2.51,5.05-5.68.12-1.49.33-3,.33-4.47q0-41.73,0-83.46a32.86,32.86,0,0,0-2.48-12.4,14.48,14.48,0,0,0-8.91-8.83c-.81-.28-1.81-.34-2.31-1.27.37-.59.92-.41,1.32-.28,5.69,1.72,11,.21,16.29-1.75,6.27-2.34,7.25-1.64,6.51,4.87-.08.66-.24,1.32-.26,2-.12,3.25,1.53,4.36,4.55,3.1l1.15-.46.53.53a18,18,0,0,0-4.9,10.16c-1.46,8.27-1.28,16.56-.54,24.88a9.24,9.24,0,0,0,3.69,6.78,30.21,30.21,0,0,0,14.27,6.2c11.66,1.76,18.4-4.1,18.63-15.86a81.62,81.62,0,0,0-1.07-12.41c-1-7.8-3.9-14.76-9.61-20.38-4-4-8.58-5.21-13.91-3-1.45.6-2.88,1.27-4.33,1.91Z"/><path class="cls-5" d="M240.64,229.75c2.35-.05,4.68-.29,7-.57C245.34,229.62,243,230.18,240.64,229.75Z"/><path class="cls-5" d="M232.32,123.88l.9-.64.42.47-.79.7Z"/><path class="cls-5" d="M233.83,122.88l.8-.67.45.46-.85.66Z"/><path class="cls-5" d="M233.22,123.24l.61-.36.4.45-.59.38Z"/><path class="cls-5" d="M689.05,172.78a40.13,40.13,0,0,1-9.9,5.91c-2.24.87-3,.26-2.62-2.07,1.81-12,1.18-23.91-.62-35.81a32.6,32.6,0,0,0-5.26-14.16c-2.9-4.13-6.93-5.6-11.79-4.24a26,26,0,0,0-9.36,5.1c-2.84,2.3-2.94,5.7-3,8.93-.12,7.49,0,15-.06,22.49a37.61,37.61,0,0,1-3.57,15.7,10.75,10.75,0,0,1-6,5.67c-1.31.5-2,.2-2-1.39,0-2.91-.1-5.82-.06-8.74.16-10.66.09-21.32-.79-31.95-.51-6.13-2.81-11.28-8.14-14.72-1.48-1-1.67-1.65,0-2.57,1.89-1.05,3.69-2.25,5.56-3.34a4.53,4.53,0,0,1,5.54.57A52.77,52.77,0,0,1,642.4,124a11.28,11.28,0,0,0,2,1.88c1.22.79,2.11,1,3.78,0,6.33-3.81,12.71-7.88,20-9.49,7-1.55,13.16.72,17.22,9.1,2.25,4.64,2.8,9.73,3.08,14.81.44,8-1,15.75-2.19,23.56-.23,1.48-.41,3-.59,4.45C685.29,171.16,686,172.09,689.05,172.78Z"/><path class="cls-5" d="M382.17,143.79c0,4.74,0,9.49,0,14.24a20.5,20.5,0,0,0,1.38,7.56,8.9,8.9,0,0,0,5.57,5.67c2.19.77,4.4,1.51,6.57,2.33.73.28,1.93.2,2,1.15s-1,1.25-1.61,1.77c-5.59,4.53-11.7,4-17.92,1.75-3.1-1.11-5.63-3.16-8.18-5.19-4.36-3.46-6.44-3.39-10.82.1-3.73,3-7.5,5.89-12.4,6.6a39.56,39.56,0,0,1-15.1-.48c-6-1.45-8.34-6.18-6.29-12.11a15.37,15.37,0,0,1,5.1-7,46.69,46.69,0,0,1,13.62-7.71,159.3,159.3,0,0,0,15.52-6.13,19.69,19.69,0,0,0,5.42-3.53c2.58-2.51,2.44-5.52,2-8.8-1.19-9.51-15.38-19.75-27.59-11.27-2.44,1.71-2,4,1.05,5.52.62.31,1.71.26,1.68,1.17s-1,1-1.66,1.33c-4.58,2.43-9.5,2.24-12.4-.45-3.2-3-3.1-5.95.39-8.53,4.23-3.11,9.17-4.57,14.14-6,10.5-3.13,20.66-2.6,30.53,2.33a31.37,31.37,0,0,1,5.35,3.19,8.63,8.63,0,0,1,3.67,7.51C382.06,133.79,382.17,138.79,382.17,143.79ZM367,153a13.9,13.9,0,0,0-.6-4.23c-.41-1.54-1.11-2.29-2.83-1.43s-3.54,1.44-5.26,2.27c-5.77,2.78-11.5,5.64-16.26,10.06-2.75,2.56-3.25,5.69-2.06,9.14a8.31,8.31,0,0,0,7.43,5.77,13.47,13.47,0,0,0,7.52-1.25C363.22,169.38,366.83,162.6,367,153Z"/><path class="cls-5" d="M470.82,179.48c-7,0-13.8-1.06-19.16-6.23a25.13,25.13,0,0,1-7.52-16.45c-1-11.47,1.37-22.23,8.16-31.7a26.92,26.92,0,0,1,28.5-10.37,56.07,56.07,0,0,1,10.39,3.46,11.4,11.4,0,0,1,4.37,3.25c1,1.29,1.38,2.69.29,4.1-1.45,1.86-3.46,3.1-5.3,4.52-1,.79-1.49-.32-2-.84a74,74,0,0,0-9.85-8.44c-.68-.48-1.37-1-2.09-1.36-7.69-4.42-13.61-2.79-17,5.35-5.92,14.12-6.39,28,3.44,40.85,4.86,6.34,11.89,8.31,19.5,8.23,3.64,0,6.55-2.24,9.13-4.7,1.75-1.67,3.44-3.4,5.17-5.09.41-.4.93-.91,1.46-.25.4.49-.09.93-.42,1.28-6,6.21-12.33,12-21.08,14.07a7.43,7.43,0,0,1-1.46.3C473.82,179.51,472.32,179.48,470.82,179.48Z"/><path class="cls-5" d="M143.47,171.93c4-1.57,7.28-4.13,11.2-5.4.17,1.14-.65,1.43-1.16,1.86-6,5-13.13,7.73-20.65,9.53-1.28.31-1.89-.06-1.85-1.44s0-2.67,0-4c0-27.32-.36-54.65.48-82,.21-6.91-2-11.82-6.94-16.11-2.8-2.43-2.69-2.57.73-3.91a154.18,154.18,0,0,1,15.6-5.2c1.93-.53,2.59-.18,2.66,2,.95,32.82.23,65.63,0,98.44C143.46,167.72,143.47,169.69,143.47,171.93Z"/><path class="cls-5" d="M509.42,150.62c.45-5.59.36-10.94,1.47-16.18A16.84,16.84,0,0,1,519.37,123c7.76-4.5,16.18-7.41,24.79-9.7,4.17-1.11,8.05.66,11.62,2.74,11.78,6.87,16.13,17.66,15,30.64-1.34,15.51-15.52,30.9-30.94,33s-29.45-9.53-30-22.77C509.8,154.65,509.57,152.5,509.42,150.62Zm48.84,1.13c0-1.75,0-3.49,0-5.24-.15-11.91-7.57-23.19-17.66-27a11.92,11.92,0,0,0-11.21,1c-5.68,3.57-8.71,9-9.88,15.28a33.2,33.2,0,0,0,25,37.65c6.16,1.52,11.37-2.09,12.51-8.27A95.8,95.8,0,0,0,558.26,151.75Z"/><path class="cls-5" d="M198.38,164.06a3.79,3.79,0,0,1-2.38,2.61c-7,3.58-12.92,8.8-19.84,12.49-2.62,1.4-3.1,1.23-3.11-1.82-.05-13.91,0-27.82-.11-41.73a58.94,58.94,0,0,0-.52-8,13.81,13.81,0,0,0-8.69-11.32c-1.46-.64-4.11-1.13-3.94-2.49.2-1.59,2.85-1.36,4.44-1.79,5.69-1.54,11.33-3.27,17.16-4.28,4-.7,4.59-.29,4.58,3.69l-.15,54c0,3.36.26,3.54,3.59,2.61a22.17,22.17,0,0,0,5-2.31A10.78,10.78,0,0,1,198.38,164.06Z"/><path class="cls-5" d="M615.33,164.29a3.86,3.86,0,0,1-2.22,2.54c-7.26,3.27-13.09,8.81-20.11,12.46-2.34,1.21-2.93,1-2.94-1.64-.06-14.07,0-28.14-.12-42.2a52.79,52.79,0,0,0-.54-8c-.77-4.77-3.1-8.54-7.7-10.63-1.51-.69-3-1.51-4.43-2.27-.38-.2-.77-.45-.71-.92s.53-.55.94-.65c7.31-1.9,14.51-4.25,22-5.41,2.94-.46,3.48.13,3.48,3.19l-.15,54.68c0,3.37.12,3.43,3.39,2.61,2.72-.69,4.91-2.42,7.41-3.53C614.12,164.34,614.61,163.91,615.33,164.29Z"/><path class="cls-5" d="M736.49,167.59a1.73,1.73,0,0,1-.75,1.38c-3.28,2.95-6.59,5.86-9.84,8.83-.84.77-1.47.4-2.2,0A65.44,65.44,0,0,1,712.24,169c-1.37-1.29-1.24-2.29,0-3.5q4.74-4.61,9.41-9.28c1.25-1.26,2.32-1.5,3.81-.24a59.49,59.49,0,0,1,10,10.06C735.86,166.56,736.19,167.14,736.49,167.59Z"/><path class="cls-5" d="M722.63,114.49a8.63,8.63,0,0,1,1,.47c4,2.66,8.13,5.2,11.72,8.47,1.48,1.36,1.8,2.56.13,4.09-2.82,2.59-5.53,5.31-8.22,8a2,2,0,0,1-3,.34c-4.1-2.86-7.95-6-11.78-9.25-.55-.46-1.23-1-.45-1.84a89.74,89.74,0,0,1,9.59-9.81A4.51,4.51,0,0,1,722.63,114.49Z"/><path class="cls-5" d="M191.3,73.46c4,.05,4.71,1.24,2.75,4.78a29.18,29.18,0,0,1-11.23,11.38,15.8,15.8,0,0,1-3.2,1.34,2.12,2.12,0,0,1-2.35-.32c-.75-.8-.07-1.55.32-2.25A42.75,42.75,0,0,0,181.54,79c1-3.52,3.13-5.06,6.53-5.32Z"/><path class="cls-5" d="M608.14,73.45c4.15,0,4.9,1.24,2.87,4.88a29.75,29.75,0,0,1-11,11.23A10.78,10.78,0,0,1,596.3,91a2,2,0,0,1-2.08-.46c-.59-.72-.07-1.4.29-2a44.87,44.87,0,0,0,4.07-9.59c1-3.39,3-5,6.34-5.21C606,73.65,607.07,73.54,608.14,73.45Z"/><path class="cls-1" d="M89.06,107.65a124.22,124.22,0,0,1-17.47-.08c-2-.11-2.7-.86-2.67-2.89.1-7,.06-14,0-21a7.09,7.09,0,0,1,2-5.22C76.35,73,82.64,70,90.54,71.67a38,38,0,0,1,11.82,4.52c5.94,3.54,6.59,5,5.54,11.73-.87,5.57-1.71,11.15-2.43,16.75-.27,2.17-1,3.15-3.42,3C97.73,107.51,93.4,107.65,89.06,107.65ZM87.33,105c4.41,0,8.82-.06,13.23,0,1.42,0,2.12-.33,2.32-1.81.82-6.26,1.63-12.52,2.65-18.74A3.57,3.57,0,0,0,104,80.66a34.36,34.36,0,0,0-13.7-6.22c-6.71-1.53-12.05.84-16.78,5.34a5.68,5.68,0,0,0-1.86,4.44c.07,6.07.13,12.16,0,18.23,0,2.17.72,2.66,2.71,2.61C78.66,104.94,83,105,87.33,105Z"/><path class="cls-3" d="M233.64,123.71l.59-.38.85-.66c1.45-.64,2.88-1.31,4.33-1.91,5.33-2.19,9.9-.93,13.91,3,5.71,5.62,8.57,12.58,9.61,20.38A81.62,81.62,0,0,1,264,156.57c-.23,11.76-7,17.62-18.63,15.86a30.21,30.21,0,0,1-14.27-6.2,9.24,9.24,0,0,1-3.69-6.78c-.74-8.32-.92-16.61.54-24.88a18,18,0,0,1,4.9-10.16Zm27.6,29.23c-.25-2.13-.55-4.61-.84-7.08-.92-7.8-3.41-14.89-9.33-20.39-1.79-1.66-3.73-3-6.37-3A14.13,14.13,0,0,0,231,133.42c-2,8.53-1.7,17.17-.92,25.81a7.06,7.06,0,0,0,3.28,5.31,28.18,28.18,0,0,0,17,5.48,10,10,0,0,0,10-7.83A32.2,32.2,0,0,0,261.24,152.94Z"/><path class="cls-3" d="M367,153c-.18,9.62-3.79,16.4-12.06,20.33a13.47,13.47,0,0,1-7.52,1.25,8.31,8.31,0,0,1-7.43-5.77c-1.19-3.45-.69-6.58,2.06-9.14,4.76-4.42,10.49-7.28,16.26-10.06,1.72-.83,3.56-1.42,5.26-2.27s2.42-.11,2.83,1.43A13.9,13.9,0,0,1,367,153Zm-2.77.18c0-.26-.06-1-.12-1.75s-.4-1.2-1.27-.82c-6.71,2.94-13.33,6-18.83,11a5,5,0,0,0-1.79,4.67c.67,4.32,4.3,6.6,8.9,5.45C359.19,169.72,364.27,162.71,364.24,153.16Z"/><path class="cls-4" d="M558.26,151.75A95.8,95.8,0,0,1,557,165.17c-1.14,6.18-6.35,9.79-12.51,8.27a33.2,33.2,0,0,1-25-37.65c1.17-6.32,4.2-11.71,9.88-15.28a11.92,11.92,0,0,1,11.21-1c10.09,3.83,17.51,15.11,17.66,27C558.28,148.26,558.26,150,558.26,151.75Zm-2.8-1.81c0-1.75,0-3.5,0-5.24-.24-9.68-7.71-19.9-16.62-22.88a8.57,8.57,0,0,0-7.42.68c-5.81,3.36-8.65,8.78-9.39,15.09-1.77,14.95,7.46,28.44,22.09,32.91,5.4,1.65,9.48-.86,10.34-6.39A95.89,95.89,0,0,0,555.46,149.94Z"/><path class="cls-2" d="M87.33,105c-4.33,0-8.67-.08-13,0-2,0-2.76-.44-2.71-2.61.15-6.07.09-12.16,0-18.23a5.68,5.68,0,0,1,1.86-4.44c4.73-4.5,10.07-6.87,16.78-5.34A34.36,34.36,0,0,1,104,80.66a3.57,3.57,0,0,1,1.54,3.84c-1,6.22-1.83,12.48-2.65,18.74-.2,1.48-.9,1.84-2.32,1.81C96.15,105,91.74,105,87.33,105Z"/><path class="cls-2" d="M261.24,152.94a32.2,32.2,0,0,1-.88,9.25,10,10,0,0,1-10,7.83,28.18,28.18,0,0,1-17-5.48,7.06,7.06,0,0,1-3.28-5.31c-.78-8.64-1.05-17.28.92-25.81A14.13,14.13,0,0,1,244.7,122.5c2.64,0,4.58,1.31,6.37,3,5.92,5.5,8.41,12.59,9.33,20.39C260.69,148.33,261,150.81,261.24,152.94Z"/><path class="cls-2" d="M364.24,153.16c0,9.55-5.05,16.56-13.11,18.58-4.6,1.15-8.23-1.13-8.9-5.45a5,5,0,0,1,1.79-4.67c5.5-5,12.12-8.09,18.83-11,.87-.38,1.2,0,1.27.82S364.22,152.9,364.24,153.16Z"/><path class="cls-2" d="M555.46,149.94a95.89,95.89,0,0,1-1,14.17c-.86,5.53-4.94,8-10.34,6.39-14.63-4.47-23.86-18-22.09-32.91.74-6.31,3.58-11.73,9.39-15.09a8.57,8.57,0,0,1,7.42-.68c8.91,3,16.38,13.2,16.62,22.88C555.49,146.44,555.46,148.19,555.46,149.94Z"/></g></g></svg>