<svg xmlns="http://www.w3.org/2000/svg" viewBox="0 0 125.35 125.35"><defs><style>.cls-1{fill:#fff;stroke-width:3px;}.cls-1,.cls-2{stroke:#947b2f;stroke-miterlimit:10;}.cls-2{stroke-width:0.75px;}</style></defs><title>spell countered</title><g id="Layer_2" data-name="Layer 2"><g id="Layer_1-2" data-name="Layer 1"><circle class="cls-1" cx="62.67" cy="62.67" r="61.17"/><circle class="cls-2" cx="42.95" cy="43.19" r="7.98"/><circle class="cls-2" cx="83.34" cy="43.26" r="7.98"/><path class="cls-2" d="M61.61,74.55a41.72,41.72,0,0,1,16.83,3.11,33.48,33.48,0,0,1,11.13,7.51,35.45,35.45,0,0,1,5.7,7.31,41.11,41.11,0,0,1,2.32,5.21,6.5,6.5,0,0,1,.1,1.1,1.72,1.72,0,0,1-.42,1.3,1.83,1.83,0,0,1-1.39.51,4.66,4.66,0,0,1-.91-.1,23.1,23.1,0,0,1-2.91-2.61,56.5,56.5,0,0,0-6.7-5.41,40.71,40.71,0,0,0-10.13-5,42.14,42.14,0,0,0-13.82-2.11,23.87,23.87,0,0,0-12.33,3A57.91,57.91,0,0,0,38.56,96.1q-5.4,4.7-7.71,4.89h-.31a1,1,0,0,1-1.1-1.1,7.34,7.34,0,0,1,.71-2.69,36.73,36.73,0,0,1,6.31-9.42,44.14,44.14,0,0,1,11.31-9.22A27.87,27.87,0,0,1,61.61,74.55Z"/></g></g></svg>