<svg xmlns="http://www.w3.org/2000/svg" viewBox="0 0 89.56 89.56"><defs><style>.cls-1{fill:#fff;stroke-width:3px;}.cls-1,.cls-2{stroke:#947b2f;stroke-miterlimit:10;}.cls-2{stroke-width:0.75px;}</style></defs><title>fire counter</title><g id="Layer_2" data-name="Layer 2"><g id="Layer_1-2" data-name="Layer 1"><circle class="cls-1" cx="44.78" cy="44.78" r="43.28"/><text></text><path class="cls-2" d="M57,37.28C56.78,43.51,55.2,48.55,50,51.85a13.75,13.75,0,0,0-3,2.25,2.7,2.7,0,0,0,.92,4.39,5.4,5.4,0,0,0,5.2,0A8.81,8.81,0,0,0,58,51.67c.35-3,.38-6,.67-9a4.53,4.53,0,0,1,3.41-4.2c-.12,3-2.22,5.82-.18,9,3.36-2.32,3.49-6,4.6-9.47C60,36.31,55,33.27,55.24,25.52L59,30.27c2.44-3.69.48-9.77-3.31-10.9a7.4,7.4,0,0,0-3.79.31,21.46,21.46,0,0,0-3.4,1.61c-3.26,1.55-6.2.71-9-1.08l9-2.36A6.31,6.31,0,0,0,44,14.36c-3.26-.63-6.59-.94-9.88-1.38-.86-.11-1.72-.19-2.86-.32,14.1-4.74,36-.47,40.79,20.16,1.25-2.33.84-4.51.15-6.64S70.62,22,69.74,19.71c7.94,8.54,11.85,21.82,2.86,31.38-2.09,2.23-4.12,4.53-6.16,6.82-.46.51-.83,1.11-1.47,2a16.74,16.74,0,0,0,7-2.29c2-1.15,4-2.48,6.19-3.89-1.16,4.56-2.77,8.71-7,10.78-2.59,1.25-5.6,1.66-8.45,2.34-3.32.81-6.68,1.47-10,2.27a7.18,7.18,0,0,0-1.7,1c1.06,1.7,2.62,2,4.21,2,2.48.07,5,0,7.47,0l.14.49a37.27,37.27,0,0,1-5,2.09c-8.15,2.14-16.5,3.24-24.82,1.91C25.8,75.46,21,70.87,19.4,63.73c-1.64-7.44-.18-14.24,6.39-19a14.28,14.28,0,0,1,13.43-2,12.91,12.91,0,0,0,11-1.28C52.41,40.25,54.5,38.87,57,37.28Z"/><path class="cls-2" d="M26,26.49,25,22.55c-1,.49-1.88.88-2.7,1.4s-1.63,1.22-2.65,2a3.29,3.29,0,0,1-.05-1c1.41-4.19,3.83-7.58,7.88-9.59a5.36,5.36,0,0,1,6.16.42A4.44,4.44,0,0,1,35,18.48c.13,1.26-1.13,1.37-2.08,1.63C29.73,21,27.76,23.25,26,26.49Z"/><path class="cls-2" d="M37.92,24.22c1.58-.38,2.76.42,3.87,1.3s2.06,1.32,3.27,0a5.36,5.36,0,0,1,2.61-1.22,2.9,2.9,0,0,1,3.48,1.13,3.45,3.45,0,0,1-.26,4,5.41,5.41,0,0,1-7.42,1.16,21.78,21.78,0,0,1-2.75-3C39.8,26.51,38.91,25.41,37.92,24.22Z"/></g></g></svg>