<svg xmlns="http://www.w3.org/2000/svg" viewBox="0 0 394.09 166.4"><defs><style>.cls-1{fill:#907c3e;}.cls-2{fill:#fefefe;}.cls-3{fill:#927e41;}.cls-4{fill:#0c0903;}.cls-5{fill:#fcfbf9;}</style></defs><title>merge</title><g id="Layer_2" data-name="Layer 2"><g id="Layer_1-2" data-name="Layer 1"><path class="cls-1" d="M197,0H359.26c17.77,0,31.42,11.47,34.5,29a30.37,30.37,0,0,1,.3,5.23q0,49,0,98c0,19.3-14.94,34.19-34.29,34.2q-162.72,0-325.45,0a33.88,33.88,0,0,1-34.27-34Q-.06,83.22.06,34.1A33.94,33.94,0,0,1,34.31,0Q115.67,0,197,0Zm0,158.44H359.78c14.85,0,26.49-10.91,26.59-25.7q.31-49.48,0-99C386.3,19.44,374.67,8,360.88,8H33.2a22.59,22.59,0,0,0-5.91.81C15.51,11.93,7.9,22,7.89,34.67q0,45.36,0,90.73c0,2.92-.07,5.84.09,8.74A25.82,25.82,0,0,0,33.6,158.45Z"/><path class="cls-2" d="M197.06,158.45H33.6A25.82,25.82,0,0,1,8,134.14c-.16-2.9-.09-5.82-.09-8.74q0-45.36,0-90.73C7.9,22,15.51,11.93,27.29,8.75a22.59,22.59,0,0,1,5.91-.81H360.88c13.79,0,25.42,11.49,25.5,25.82q.27,49.48,0,99c-.1,14.79-11.74,25.7-26.59,25.7ZM119.72,52.57A21.2,21.2,0,0,1,121,57.81c1.19,7.18,1,14.44,1.16,21.68.18,8,.13,16,.93,24,.51,5.11-.61,6.43-5.66,7.68-.48.12-1,.18-1.46.31-.83.23-2.13-.16-2.34.9a3.61,3.61,0,0,0,1.13,2.94,3.55,3.55,0,0,0,3.68,1c2.17-.55,4.35-1.1,6.47-1.83a11.22,11.22,0,0,1,7-.32,64.92,64.92,0,0,0,13.2,2.51c1.41.1,3,.19,3.33-1.75s-.31-3.44-2.45-3.92a33.94,33.94,0,0,0-7.16-1c-1.76,0-2.71-.7-2.85-2.62-.63-8.47-1.39-16.93-2-25.39s-1.25-16.93-1.71-25.4c-.35-6.4-1-12.79-.69-19.21a2.16,2.16,0,0,1,2-2.36c1.95-.42,3.89-.85,5.81-1.39A2.52,2.52,0,0,0,141,29.67c-1-1.63-2.45-1.88-4.3-1.37-7.8,2.15-15.7,3.78-23.85,3.59-1.8-.05-3.19.32-3.31,2.43s.82,3.34,2.91,3.51a41.73,41.73,0,0,0,5,.1c1.56-.06,1.86.27,1.13,1.79-6.5,13.57-12.21,27.48-18,41.34C99.1,84.44,97.69,87.83,96,91.77l-6.9-16.65c-4.81-11.59-9.49-23.25-15.67-34.21-2-3.62-2.1-3.59,2-4.61s4.26-1.75,2.19-5.19a1.59,1.59,0,0,0-2.39-.79c-8.46,3.5-17.18,5.56-26.44,4.71a8.7,8.7,0,0,0-3.16.64c-1.09.34-2.36.63-2.14,2.25A2.33,2.33,0,0,0,46.19,40c2.33,0,4.65-.21,7-.21,5.55,0,6.76,1.44,6.22,6C57.89,58.54,56.51,71.28,55,84c-.85,7.28-1.73,14.55-3,21.76-.34,1.9-1.13,3.1-3.14,3.6a26.09,26.09,0,0,0-6.75,2.53c-1.07.61-1.93,1.46-1.3,2.84s1.52,2.27,3.08,2a8.43,8.43,0,0,0,2.56-.91c3-1.62,6.22-1.67,9.48-1.14,2.71.44,5.4.93,8.1,1.42a8.44,8.44,0,0,0,3.47-.19,3.49,3.49,0,0,0,2.74-3.44c.2-2-1.54-1.69-2.56-2a37.76,37.76,0,0,0-7.48-1.81c-2.78-.25-2.83-1.68-2.56-3.8C59.48,90,61.23,75.15,63.11,60.28c.37-2.94.46-6,1.65-9a28.71,28.71,0,0,1,3.91,6.42c5.93,12,10.52,24.57,15.38,37,2,5.11,3,10.49,4.37,15.77.33,1.25.5,2.74,2.15,3s2.49-1.13,3.17-2.32A46.2,46.2,0,0,0,96.29,106c6.33-15,12.59-30,18.95-45A34.42,34.42,0,0,1,119.72,52.57ZM253.64,122.2a95.18,95.18,0,0,0-9.36,8.54c-1.85,2.06-3.53,4.24-3.79,7.15-.5,5.53,2.12,9.78,7.53,11.49a66,66,0,0,0,30.85,2.4c7.83-1.28,14.85-4.46,19.85-11,5.58-7.27,5.07-16.88-1.16-22.41-3.46-3.08-7.69-4.07-12.23-4.06-7.75,0-15.5.06-23.25-.09-1.79,0-4.36.24-4.88-2.06-.47-2.06,1.76-3,3.24-4,4.38-3,9.41-4.52,14.31-6.35,8-3,12.48-9.27,12.78-17.82.22-6.17.22-6.17,6.41-5.65l.75.08c3.34.43,5.58-1.25,6.16-4.62.44-2.58,0-3.12-2.58-3.06-7.42.2-14.46-.4-21.6-3.44-10.37-4.43-21.07-1-27.91,7.34-6.2,7.57-6.26,18.6-.24,25,2.33,2.47,5.46,3.16,8.51,4.08-.13.32-.15.52-.26.6-1.85,1.41-3.74,2.78-5.58,4.21a16.27,16.27,0,0,0-4.41,4.38c-2.25,3.86-1,6.92,3.32,8.15C251.2,121.36,252.44,121.29,253.64,122.2ZM151.48,92.4c-.13,5.9.64,9.36,3,14.1,3.34,6.79,11.39,11.5,18.15,10.28,7.5-1.36,14.38-4,19.17-10.48.93-1.26,1.07-2.19.19-3.28a2.23,2.23,0,0,0-3.28-.59c-1.72,1.17-3.42,2.36-5.15,3.51a10.37,10.37,0,0,1-5.76,2.09,12.91,12.91,0,0,1-13.05-9.62c-1.86-6.22-1-6.72,3.32-9.52,5.67-3.66,11.85-6.37,17.82-9.46,2.5-1.3,4.91-2.78,7.34-4.21a2,2,0,0,0,.72-2.85,2,2,0,0,0-2.46-1.22,6.52,6.52,0,0,0-2.08.78,2.47,2.47,0,0,1-3.53-.43c-4.26-4.37-9.47-5.33-15.36-4.59-8.66,1.08-15,6.21-17.42,14.56A40.11,40.11,0,0,0,151.48,92.4ZM301,93.87a26.1,26.1,0,0,0,2.86,12.4c3.29,6.78,11.2,11.65,18,10.54,7.71-1.27,14.7-4,19.59-10.68a2.2,2.2,0,0,0,.05-3.08c-.78-1-1.81-1.54-3-.74-1.81,1.18-3.58,2.42-5.38,3.61a10.39,10.39,0,0,1-6,2.11c-6.13-.07-10.86-3.54-12.87-9.57-1.72-5.15-1.11-6.81,3.53-9.7,5.65-3.52,11.72-6.26,17.61-9.32,2.43-1.26,4.77-2.71,7.15-4.06a2.28,2.28,0,0,0-1.94-4.11,8.8,8.8,0,0,0-1.85.73,2.4,2.4,0,0,1-3.34-.5C331.05,67,325.7,66,319.79,67c-7.87,1.28-13.87,5-16.65,12.83A42,42,0,0,0,301,93.87Zm-82.41-20c0-1.68,0-2.83,0-4,0-2.9-1.16-4.15-3.94-3.56-5.27,1.1-10.45,2.63-15.84,3.18a2,2,0,0,0-1.45,3.2,4.39,4.39,0,0,0,2.45,1.61c4.53,1.74,5.24,2.73,5.23,7.51,0,8.66-.09,17.31-.11,26a43.68,43.68,0,0,0,.23,5.49c.38,3,1.62,3.67,4.49,2.82,2.69-.79,4.87-2.47,7.11-4a5,5,0,0,0,2.24-4.64c-.12-7.49.12-15-.13-22.46a6.65,6.65,0,0,1,3.3-6.55c6.29-4.11,5.25-4.71,10.88-.52,2.18,1.62,3.81,1.19,5.21-1.12,1.11-1.84,2-3.8,3.08-5.68a2,2,0,0,0-.65-2.82,10.9,10.9,0,0,0-12.08-.83Z"/><path class="cls-3" d="M119.72,52.57A34.42,34.42,0,0,0,115.24,61c-6.36,15-12.62,30-18.95,45a46.2,46.2,0,0,1-2.55,5.13c-.68,1.19-1.4,2.6-3.17,2.32s-1.82-1.76-2.15-3C87.05,105.18,86,99.8,84.05,94.69c-4.86-12.45-9.45-25-15.38-37a28.71,28.71,0,0,0-3.91-6.42c-1.19,3-1.28,6.09-1.65,9C61.23,75.15,59.48,90,57.64,104.89c-.27,2.12-.22,3.55,2.56,3.8a37.76,37.76,0,0,1,7.48,1.81c1,.31,2.76,0,2.56,2a3.49,3.49,0,0,1-2.74,3.44,8.44,8.44,0,0,1-3.47.19c-2.7-.49-5.39-1-8.1-1.42-3.26-.53-6.45-.48-9.48,1.14a8.43,8.43,0,0,1-2.56.91c-1.56.24-2.5-.74-3.08-2s.23-2.23,1.3-2.84a26.09,26.09,0,0,1,6.75-2.53c2-.5,2.8-1.7,3.14-3.6,1.28-7.21,2.16-14.48,3-21.76,1.5-12.72,2.88-25.46,4.38-38.18.54-4.58-.67-6-6.22-6-2.33,0-4.65.2-7,.21a2.33,2.33,0,0,1-2.66-2.09c-.22-1.62,1-1.91,2.14-2.25A8.7,8.7,0,0,1,48.83,35c9.26.85,18-1.21,26.44-4.71a1.59,1.59,0,0,1,2.39.79c2.07,3.44,1.8,4.19-2.19,5.19s-4,1-2,4.61c6.18,11,10.86,22.62,15.67,34.21L96,91.77c1.65-3.94,3.06-7.33,4.48-10.71,5.82-13.86,11.53-27.77,18-41.34.73-1.52.43-1.85-1.13-1.79a41.73,41.73,0,0,1-5-.1c-2.09-.17-3-1.46-2.91-3.51s1.51-2.48,3.31-2.43c8.15.19,16.05-1.44,23.85-3.59,1.85-.51,3.28-.26,4.3,1.37a2.52,2.52,0,0,1-1.55,3.91c-1.92.54-3.86,1-5.81,1.39a2.16,2.16,0,0,0-2,2.36c-.26,6.42.34,12.81.69,19.21.46,8.47,1.08,16.93,1.71,25.4s1.39,16.92,2,25.39c.14,1.92,1.09,2.61,2.85,2.62a33.94,33.94,0,0,1,7.16,1c2.14.48,2.78,2,2.45,3.92s-1.92,1.85-3.33,1.75a64.92,64.92,0,0,1-13.2-2.51,11.22,11.22,0,0,0-7,.32c-2.12.73-4.3,1.28-6.47,1.83a3.55,3.55,0,0,1-3.68-1,3.61,3.61,0,0,1-1.13-2.94c.21-1.06,1.51-.67,2.34-.9.48-.13,1-.19,1.46-.31,5-1.25,6.17-2.57,5.66-7.68-.8-8-.75-16-.93-24-.16-7.24,0-14.5-1.16-21.68A21.2,21.2,0,0,0,119.72,52.57ZM46.34,37.92c3.38,0,6.29-.13,9.19,0,4.16.22,6,2.28,6,6.38,0,1.66-.3,3.31-.47,5-.72,6.76-1.39,13.52-2.17,20.27C58,77.22,57,84.86,56,92.51A142.32,142.32,0,0,1,53.54,108a3.54,3.54,0,0,1-2.69,2.87c-2.22.64-4.41,1.43-6.59,2.23-.53.2-1.54.36-1.07,1.29.34.66,1.14.22,1.57,0,4.87-2.71,9.9-2.1,15-1,2.24.48,4.53,1.12,6.9.64.51-.11,1-.3,1.09-.83,0-.69-.62-.61-1.08-.72-3.29-.81-6.56-1.72-9.88-2.38-1.52-.3-1.91-.78-1.57-2.32.43-2,.56-4.1.79-6.16.72-6.34,1.38-12.68,2.15-19q1.37-11.34,2.88-22.67c.44-3.37,1-6.73,1.62-10.05.42-2.1,1.29-2.3,2.88-.87a11.67,11.67,0,0,1,2.52,3.39C77,69.83,84.56,87.86,89.68,106.85c.37,1.36-.05,3.76,1.41,3.84S93,108.44,93.62,107c5-11.76,9.91-23.56,14.9-35.32,3-7.1,5.52-14.45,9.82-20.94.45-.66.77-1.72,1.69-1.64s1.07,1.19,1.36,1.91c2.08,5.27,2.4,10.87,2.58,16.42.41,12.23.26,24.47,1.27,36.68.41,5-1.47,7.42-6.29,8.74a5.54,5.54,0,0,0-2.48.91c.56.88,1.33.59,2,.41a42.51,42.51,0,0,0,5-1.41,14.3,14.3,0,0,1,9.68-.49,44.05,44.05,0,0,0,11.46,2.15c.59,0,1.54.37,1.7-.51.2-1.11-.93-1-1.57-1.14-1.45-.34-2.93-.56-4.4-.77-5.63-.78-5.71-.76-6.44-6.45-1.25-9.8-1.67-19.68-2.41-29.53-.5-6.79-1-13.6-1.34-20.4-.32-6.24-.45-12.49-.66-18.73a3.25,3.25,0,0,1,2.84-3.72c1.7-.36,3.37-.83,5.05-1.24.71-.18,1.75-.22,1.54-1.19s-1.13-.57-1.87-.38c-7.89,2-15.82,3.74-24,3.58-.61,0-1.49-.18-1.43.87,0,.84.79,1,1.46,1.05,1.58.06,3.17,0,4.75.07,3.15.07,4,1.46,2.65,4.33-7.53,16-14.31,32.36-21,48.74q-2,5-4.06,9.91c.12-3.23-1.09-6-2.27-8.73-2.11-5-4-10-6.18-15-5.5-12.53-9.9-25.6-17.81-37-.58-.84-.59-1.42.47-1.93A31.74,31.74,0,0,1,75,34.24c.49-.13,1.61,0,1.33-1s-1.12-.79-1.89-.53a39.78,39.78,0,0,0-5.16,1.8c-3.91,2-8.08,2.44-12.36,2.47q-3.36,0-6.74,0A6.39,6.39,0,0,0,46.34,37.92Z"/><path class="cls-3" d="M253.64,122.2c-1.2-.91-2.44-.84-3.54-1.15-4.29-1.23-5.57-4.29-3.32-8.15a16.27,16.27,0,0,1,4.41-4.38c1.84-1.43,3.73-2.8,5.58-4.21.11-.08.13-.28.26-.6-3-.92-6.18-1.61-8.51-4.08-6-6.36-6-17.39.24-25,6.84-8.34,17.54-11.77,27.91-7.34,7.14,3,14.18,3.64,21.6,3.44,2.62-.06,3,.48,2.58,3.06-.58,3.37-2.82,5-6.16,4.62l-.75-.08c-6.19-.52-6.19-.52-6.41,5.65-.3,8.55-4.77,14.81-12.78,17.82-4.9,1.83-9.93,3.39-14.31,6.35-1.48,1-3.71,1.94-3.24,4,.52,2.3,3.09,2,4.88,2.06,7.75.15,15.5.1,23.25.09,4.54,0,8.77,1,12.23,4.06,6.23,5.53,6.74,15.14,1.16,22.41-5,6.51-12,9.69-19.85,11a66,66,0,0,1-30.85-2.4c-5.41-1.71-8-6-7.53-11.49.26-2.91,1.94-5.09,3.79-7.15A95.18,95.18,0,0,1,253.64,122.2Zm15.6,28.29a44.34,44.34,0,0,0,8.46-.54c7.33-1.25,14-3.84,18.84-9.76,3.88-4.75,5.42-10.19,2.77-16s-7.8-7.77-13.93-7.73c-7.08.06-14.16,0-21.24,0a23.13,23.13,0,0,1-5.45-.62c-3.83-.91-4.79-4.27-2.14-7.17a18,18,0,0,1,4-3c4.44-2.7,9.33-4.4,14.19-6.06,5.24-1.78,8.14-5.49,9.81-10.47A25.73,25.73,0,0,0,285.5,79c-.16-2.29.71-2.9,2.84-2.74,2.4.19,4.84,0,7.23.23,2.18.25,2.79-1.39,2.94-2.63.22-1.83-1.59-.93-2.39-.91-6.53.23-13,.2-18.79-3.46A9.83,9.83,0,0,0,275,68.7c-13.37-4.07-26.65,3.63-28.73,16.87-1.15,7.29,2.29,14.66,10.63,15.9a5.84,5.84,0,0,1,1.43.4c2,.81,2.24,1.9.66,3.32a50.46,50.46,0,0,1-4.36,3.31,31.4,31.4,0,0,0-5.35,4.48c-2.44,2.77-1.72,5.2,1.77,6.16a46.18,46.18,0,0,1,4.53,1.32c2.24.86,2.21,1.11.36,2.62-4.18,3.42-8.58,6.62-11.77,11.09-3.34,4.7-1.74,10.6,3.57,12.82C254.61,149.88,261.93,150.21,269.24,150.49Z"/><path class="cls-3" d="M151.48,92.4a40.11,40.11,0,0,1,1.59-10.93c2.4-8.35,8.76-13.48,17.42-14.56,5.89-.74,11.1.22,15.36,4.59a2.47,2.47,0,0,0,3.53.43,6.52,6.52,0,0,1,2.08-.78,2,2,0,0,1,2.46,1.22,2,2,0,0,1-.72,2.85c-2.43,1.43-4.84,2.91-7.34,4.21-6,3.09-12.15,5.8-17.82,9.46-4.35,2.8-5.18,3.3-3.32,9.52A12.91,12.91,0,0,0,177.77,108a10.37,10.37,0,0,0,5.76-2.09c1.73-1.15,3.43-2.34,5.15-3.51A2.23,2.23,0,0,1,192,103c.88,1.09.74,2-.19,3.28-4.79,6.48-11.67,9.12-19.17,10.48-6.76,1.22-14.81-3.49-18.15-10.28C152.12,101.76,151.35,98.3,151.48,92.4Zm39-18.47c-2.76,1.64-4.81.26-6.81-1.55a12.13,12.13,0,0,0-8.23-3.62C168.14,68.71,161,70.1,157.35,77c-4.88,9.08-5.72,18.91-1.11,28.54a15.78,15.78,0,0,0,18.2,8.85,48.68,48.68,0,0,0,9.32-3.44c2.81-1.39,4.57-4.09,6.53-6.5-2.33.48-3.89,2.13-5.71,3.33a12.22,12.22,0,0,1-6.72,2.28,15.65,15.65,0,0,1-15.79-13.47c-.57-3.62.2-6.5,3.54-8.54,2.92-1.78,5.85-3.5,8.86-5.11,5.42-2.9,11.18-5.16,16.27-8.67.19-.18.71-.24.46-.57S190.65,73.58,190.52,73.93Z"/><path class="cls-3" d="M301,93.87a42,42,0,0,1,2.15-14.07C305.92,72,311.92,68.25,319.79,67c5.91-1,11.26,0,15.59,4.53a2.4,2.4,0,0,0,3.34.5,8.8,8.8,0,0,1,1.85-.73,2.28,2.28,0,0,1,1.94,4.11c-2.38,1.35-4.72,2.8-7.15,4.06-5.89,3.06-12,5.8-17.61,9.32-4.64,2.89-5.25,4.55-3.53,9.7,2,6,6.74,9.5,12.87,9.57a10.39,10.39,0,0,0,6-2.11c1.8-1.19,3.57-2.43,5.38-3.61,1.23-.8,2.26-.23,3,.74a2.2,2.2,0,0,1-.05,3.08c-4.89,6.63-11.88,9.41-19.59,10.68-6.82,1.11-14.73-3.76-18-10.54A26.1,26.1,0,0,1,301,93.87Zm40-20.41c-.4,0-.82,0-1,.46-2.37,1.35-4.46.83-6.22-1.07-3.67-4-8.31-4.58-13.3-3.89-7.14,1-12.73,4.13-15.36,11.32a39,39,0,0,0-1.91,9c-.81,7,0,13.74,4.6,19.35,4,4.88,9.22,7.28,15.68,5.83a39.75,39.75,0,0,0,9.8-3.55c2.77-1.46,4.55-4.11,6.51-6.51-2.25.6-3.89,2.11-5.71,3.32a11.89,11.89,0,0,1-6.46,2.3,15.74,15.74,0,0,1-16.08-13.72c-.5-3.43.25-6.15,3.38-8.14,3.3-2.1,6.7-4,10.16-5.82,5.08-2.66,10.4-4.85,15.17-8.09.29-.23.76-.3.72-.82l.18,0Z"/><path class="cls-3" d="M218.58,73.88l10-6.43a10.9,10.9,0,0,1,12.08.83,2,2,0,0,1,.65,2.82c-1.06,1.88-2,3.84-3.08,5.68-1.4,2.31-3,2.74-5.21,1.12-5.63-4.19-4.59-3.59-10.88.52a6.65,6.65,0,0,0-3.3,6.55c.25,7.48,0,15,.13,22.46a5,5,0,0,1-2.24,4.64c-2.24,1.57-4.42,3.25-7.11,4-2.87.85-4.11.14-4.49-2.82a43.68,43.68,0,0,1-.23-5.49c0-8.65.09-17.3.11-26,0-4.78-.7-5.77-5.23-7.51a4.39,4.39,0,0,1-2.45-1.61,2,2,0,0,1,1.45-3.2c5.39-.55,10.57-2.08,15.84-3.18,2.78-.59,4,.66,3.94,3.56C218.57,71.05,218.58,72.2,218.58,73.88Zm-19.52-2.41a7.87,7.87,0,0,0,1.57,1c5.19,1.28,6.5,5,6.43,9.79-.12,8.49,0,17,0,25.48,0,1.33,0,2.66,0,4,.08,2.88.66,3.24,3.31,2,1.34-.65,2.59-1.5,3.9-2.22a5,5,0,0,0,2.76-5.09c-.17-5.91.41-11.87-.18-17.72-.68-6.6,1.4-11,7.28-14.16,2.68-1.43,4.82-1.75,7.38-.22,4.58,2.74,4.6,2.69,7-2.15a4.6,4.6,0,0,1,.32-.67c.76-1.11.39-1.77-.78-2.26-3.12-1.32-6.11-1.84-9.14.41-2.73,2-5.61,3.85-8.48,5.68-2.06,1.31-3.78.36-3.88-2.08q-.06-1.5,0-3c.07-1.39-.46-2.12-1.91-1.77C209.69,69.6,204.78,71,199.06,71.47Z"/><path class="cls-4" d="M46.34,37.92a6.39,6.39,0,0,1,3.81-1q3.38,0,6.74,0c4.28,0,8.45-.46,12.36-2.47a39.78,39.78,0,0,1,5.16-1.8c.77-.26,1.63-.4,1.89.53s-.84.91-1.33,1a31.74,31.74,0,0,0-5.33,2.1c-1.06.51-1,1.09-.47,1.93,7.91,11.37,12.31,24.44,17.81,37,2.17,4.94,4.07,10,6.18,15,1.18,2.77,2.39,5.5,2.27,8.73q2-5,4.06-9.91c6.71-16.38,13.49-32.73,21-48.74,1.35-2.87.5-4.26-2.65-4.33-1.58,0-3.17,0-4.75-.07-.67,0-1.41-.21-1.46-1.05-.06-1,.82-.89,1.43-.87,8.21.16,16.14-1.58,24-3.58.74-.19,1.65-.62,1.87.38s-.83,1-1.54,1.19c-1.68.41-3.35.88-5.05,1.24a3.25,3.25,0,0,0-2.84,3.72c.21,6.24.34,12.49.66,18.73.35,6.8.84,13.61,1.34,20.4.74,9.85,1.16,19.73,2.41,29.53.73,5.69.81,5.67,6.44,6.45,1.47.21,2.95.43,4.4.77.64.14,1.77,0,1.57,1.14-.16.88-1.11.52-1.7.51a44.05,44.05,0,0,1-11.46-2.15,14.3,14.3,0,0,0-9.68.49,42.51,42.51,0,0,1-5,1.41c-.7.18-1.47.47-2-.41a5.54,5.54,0,0,1,2.48-.91c4.82-1.32,6.7-3.77,6.29-8.74-1-12.21-.86-24.45-1.27-36.68-.18-5.55-.5-11.15-2.58-16.42-.29-.72-.44-1.84-1.36-1.91s-1.24,1-1.69,1.64c-4.3,6.49-6.81,13.84-9.82,20.94-5,11.76-9.9,23.56-14.9,35.32-.6,1.42-1.09,3.74-2.53,3.67s-1-2.48-1.41-3.84c-5.12-19-12.65-37-21.59-54.5A11.67,11.67,0,0,0,65.57,49c-1.59-1.43-2.46-1.23-2.88.87-.66,3.32-1.18,6.68-1.62,10.05q-1.51,11.33-2.88,22.67c-.77,6.34-1.43,12.68-2.15,19-.23,2.06-.36,4.15-.79,6.16-.34,1.54,0,2,1.57,2.32,3.32.66,6.59,1.57,9.88,2.38.46.11,1.13,0,1.08.72,0,.53-.58.72-1.09.83-2.37.48-4.66-.16-6.9-.64-5.13-1.09-10.16-1.7-15,1-.43.24-1.23.68-1.57,0-.47-.93.54-1.09,1.07-1.29,2.18-.8,4.37-1.59,6.59-2.23A3.54,3.54,0,0,0,53.54,108,142.32,142.32,0,0,0,56,92.51c.95-7.65,1.94-15.29,2.83-23,.78-6.75,1.45-13.51,2.17-20.27.17-1.65.45-3.3.47-5,.07-4.1-1.81-6.16-6-6.38C52.63,37.79,49.72,37.92,46.34,37.92Z"/><path class="cls-4" d="M269.24,150.49c-7.31-.28-14.63-.61-21.51-3.5-5.31-2.22-6.91-8.12-3.57-12.82,3.19-4.47,7.59-7.67,11.77-11.09,1.85-1.51,1.88-1.76-.36-2.62a46.18,46.18,0,0,0-4.53-1.32c-3.49-1-4.21-3.39-1.77-6.16a31.4,31.4,0,0,1,5.35-4.48,50.46,50.46,0,0,0,4.36-3.31c1.58-1.42,1.31-2.51-.66-3.32a5.84,5.84,0,0,0-1.43-.4c-8.34-1.24-11.78-8.61-10.63-15.9C248.34,72.33,261.62,64.63,275,68.7a9.83,9.83,0,0,1,2.34.83c5.82,3.66,12.26,3.69,18.79,3.46.8,0,2.61-.92,2.39.91-.15,1.24-.76,2.88-2.94,2.63-2.39-.28-4.83,0-7.23-.23-2.13-.16-3,.45-2.84,2.74a25.73,25.73,0,0,1-.95,10.13c-1.67,5-4.57,8.69-9.81,10.47-4.86,1.66-9.75,3.36-14.19,6.06a18,18,0,0,0-4,3c-2.65,2.9-1.69,6.26,2.14,7.17a23.13,23.13,0,0,0,5.45.62c7.08,0,14.16,0,21.24,0,6.13,0,11.26,1.84,13.93,7.73s1.11,11.29-2.77,16c-4.83,5.92-11.51,8.51-18.84,9.76A44.34,44.34,0,0,1,269.24,150.49ZM272,120.87c-7.58.42-14.89,2.21-20.72,7.86-4,3.89-4,9.29,0,13.28a17.17,17.17,0,0,0,5.4,3.49,41,41,0,0,0,17,3.31c7.33,0,13.53-2.59,17.07-9.57,3.75-7.4.57-14.61-7.39-16.8A56.48,56.48,0,0,0,272,120.87Zm-3.11-20.8A8.74,8.74,0,0,0,278,92.22c1-8.1-2-14.87-8-20.18-4.72-4.2-10.7-3.05-14,2.37a17.39,17.39,0,0,0-2,12.48C255.29,93.87,262.18,100.06,268.92,100.07Z"/><path class="cls-4" d="M190.75,74.22c-5.1,3.51-10.86,5.77-16.28,8.67-3,1.61-5.94,3.33-8.86,5.11-3.34,2-4.11,4.92-3.54,8.54A15.65,15.65,0,0,0,177.86,110a12.22,12.22,0,0,0,6.72-2.28c1.82-1.2,3.38-2.85,5.71-3.33-2,2.41-3.72,5.11-6.53,6.5a48.68,48.68,0,0,1-9.32,3.44,15.78,15.78,0,0,1-18.2-8.85C151.63,95.86,152.47,86,157.35,77c3.68-6.85,10.79-8.24,18.13-8.19a12.13,12.13,0,0,1,8.23,3.62c2,1.81,4,3.19,6.81,1.55C190.59,74,190.67,74.12,190.75,74.22ZM170.27,71a6.54,6.54,0,0,0-5.15,4.18,46.61,46.61,0,0,0-3,10.47c-.29,1.38,0,2,1.67,1.39,4.69-1.71,9-4.22,13.32-6.58,1.44-.77,1.33-2,.54-3.17a23.62,23.62,0,0,0-5.34-5.5A2.64,2.64,0,0,0,170.27,71Z"/><path class="cls-4" d="M190.52,73.93c.13-.35.47-.57.68-.28s-.27.39-.46.57Z"/><path class="cls-4" d="M340.28,74.24c-4.77,3.24-10.09,5.43-15.17,8.09-3.46,1.81-6.86,3.72-10.16,5.82-3.13,2-3.88,4.71-3.38,8.14A15.74,15.74,0,0,0,327.65,110a11.89,11.89,0,0,0,6.46-2.3c1.82-1.21,3.46-2.72,5.71-3.32-2,2.4-3.74,5-6.51,6.51a39.75,39.75,0,0,1-9.8,3.55c-6.46,1.45-11.69-1-15.68-5.83-4.61-5.61-5.41-12.36-4.6-19.35a39,39,0,0,1,1.91-9C307.77,73.09,313.36,70,320.5,69c5-.69,9.63-.08,13.3,3.89,1.76,1.9,3.85,2.42,6.22,1.07A4,4,0,0,0,340.28,74.24ZM311.63,85.67c-.3,1.74.38,1.77,1.63,1.31a93.26,93.26,0,0,0,13.35-6.55c1.28-.7,1.42-1.7.77-2.93-.87-1.67-2.35-2.78-3.63-4.07-3.47-3.49-6.77-3-9,1.46C313.08,78.33,312.38,82.1,311.63,85.67Z"/><path class="cls-4" d="M341,73.42c0,.52-.43.59-.72.82a4,4,0,0,1-.26-.32c.19-.47.61-.45,1-.46Z"/><polygon class="cls-4" points="341.04 73.46 341.18 73.38 341 73.42 341.04 73.46"/><path class="cls-4" d="M199.06,71.47c5.72-.48,10.63-1.87,15.59-3.08,1.45-.35,2,.38,1.91,1.77q-.09,1.5,0,3c.1,2.44,1.82,3.39,3.88,2.08,2.87-1.83,5.75-3.65,8.48-5.68,3-2.25,6-1.73,9.14-.41,1.17.49,1.54,1.15.78,2.26a4.6,4.6,0,0,0-.32.67c-2.4,4.84-2.42,4.89-7,2.15-2.56-1.53-4.7-1.21-7.38.22-5.88,3.13-8,7.56-7.28,14.16.59,5.85,0,11.81.18,17.72a5,5,0,0,1-2.76,5.09c-1.31.72-2.56,1.57-3.9,2.22-2.65,1.28-3.23.92-3.31-2,0-1.33,0-2.66,0-4,0-8.5-.09-17,0-25.48.07-4.83-1.24-8.51-6.43-9.79A7.87,7.87,0,0,1,199.06,71.47Z"/><path class="cls-1" d="M272,120.87a56.48,56.48,0,0,1,11.31,1.57c8,2.19,11.14,9.4,7.39,16.8-3.54,7-9.74,9.54-17.07,9.57a41,41,0,0,1-17-3.31,17.17,17.17,0,0,1-5.4-3.49c-3.92-4-4-9.39,0-13.28C257.14,123.08,264.45,121.29,272,120.87Zm-.59,25.76a21.77,21.77,0,0,0,6.18-.22,14.43,14.43,0,0,0,11.5-8.56c2.86-6.1.28-11.64-6.2-13.41a37.59,37.59,0,0,0-12.1-1.38c-6.87.39-13.31,2.24-18.3,7.38-3,3.1-2.84,7.13.23,10.2a14.13,14.13,0,0,0,4.15,2.72A37,37,0,0,0,271.44,146.63Z"/><path class="cls-3" d="M268.92,100.07c-6.74,0-13.63-6.2-14.89-13.18a17.39,17.39,0,0,1,2-12.48c3.26-5.42,9.24-6.57,14-2.37,6,5.31,9,12.08,8,20.18A8.74,8.74,0,0,1,268.92,100.07Zm7.35-10.4c0-5.33-3-12.1-7.13-15.73s-8.84-3-11.63,1.94c-4.27,7.53-1.06,17.26,7,21.14C270.78,100.06,276.24,96.65,276.27,89.67Z"/><path class="cls-1" d="M170.27,71a2.64,2.64,0,0,1,2,.79,23.62,23.62,0,0,1,5.34,5.5c.79,1.18.9,2.4-.54,3.17-4.35,2.36-8.63,4.87-13.32,6.58-1.65.6-2,0-1.67-1.39a46.61,46.61,0,0,1,3-10.47A6.54,6.54,0,0,1,170.27,71Zm-5.86,13.63c2.58-1.26,4.79-2.31,7-3.42,5.25-2.68,5.25-2.69,1-6.69-2-1.89-3.38-1.79-4.83.6C165.8,77.86,165.2,81,164.41,84.59Z"/><path class="cls-3" d="M311.63,85.67c.75-3.57,1.45-7.34,3.15-10.78,2.2-4.44,5.5-5,9-1.46,1.28,1.29,2.76,2.4,3.63,4.07.65,1.23.51,2.23-.77,2.93A93.26,93.26,0,0,1,313.26,87C312,87.44,311.33,87.41,311.63,85.67Zm2.3-1c2.69-1.35,5-2.47,7.26-3.64,5-2.55,5-2.56.8-6.42-2.17-2-3.72-1.85-5.15.81S314.71,81.08,313.93,84.64Z"/><path class="cls-5" d="M271.44,146.63a37,37,0,0,1-14.54-3.27,14.13,14.13,0,0,1-4.15-2.72c-3.07-3.07-3.23-7.1-.23-10.2,5-5.14,11.43-7,18.3-7.38a37.59,37.59,0,0,1,12.1,1.38c6.48,1.77,9.06,7.31,6.2,13.41a14.43,14.43,0,0,1-11.5,8.56A21.77,21.77,0,0,1,271.44,146.63Z"/><path class="cls-5" d="M276.27,89.67c0,7-5.49,10.39-11.78,7.35-8-3.88-11.25-13.61-7-21.14,2.79-4.89,7.42-5.67,11.63-1.94S276.3,84.34,276.27,89.67Z"/><path class="cls-5" d="M164.41,84.59c.79-3.56,1.39-6.73,3.09-9.51,1.45-2.39,2.81-2.49,4.83-.6,4.29,4,4.29,4-1,6.69C169.2,82.28,167,83.33,164.41,84.59Z"/><path class="cls-5" d="M313.93,84.64c.78-3.56,1.45-6.55,2.91-9.25s3-2.83,5.15-.81c4.17,3.86,4.17,3.87-.8,6.42C318.91,82.17,316.62,83.29,313.93,84.64Z"/></g></g></svg>