<svg xmlns="http://www.w3.org/2000/svg" viewBox="0 0 642.01 446.57"><defs><style>.cls-1{fill:#8f7a3c;}.cls-2{fill:#fffffe;}.cls-3{fill:#050402;}.cls-4{fill:#040401;}</style></defs><title>ok</title><g id="Layer_2" data-name="Layer 2"><g id="Layer_1-2" data-name="Layer 1"><path class="cls-1" d="M321,0Q434.14,0,547.24,0C574.76,0,598,9.84,616.8,29.78A90.63,90.63,0,0,1,641.6,85c.36,3.83.41,7.65.41,11.48q0,127.86,0,255.72a93.72,93.72,0,0,1-76,92.58,88.88,88.88,0,0,1-17.37,1.71q-227.59,0-455.2,0c-46.39-.05-85-33.92-92.27-79.09A96.84,96.84,0,0,1,0,352Q0,223.12,0,94.27c0-27.83,10.4-51.35,30.88-70.12A90.59,90.59,0,0,1,83.07.52,111,111,0,0,1,95.29,0Zm-.1,425.49H546.16a89.29,89.29,0,0,0,12.45-.85C594,419.75,621,389,621,353.24q.09-130,0-260a73.13,73.13,0,0,0-2.3-17.79C611.47,46.54,584.05,20.83,547,20.87q-226,.27-452,.05a77.87,77.87,0,0,0-12.21.8C47.35,27.33,21.11,57.53,21.07,93.26q-.16,130,0,260a70.28,70.28,0,0,0,3.3,21.13,73.05,73.05,0,0,0,70.07,51.12Q207.67,425.57,320.92,425.52Z"/><path class="cls-2" d="M320.92,425.52q-113.25,0-226.5,0a73.05,73.05,0,0,1-70.07-51.12,70.28,70.28,0,0,1-3.3-21.13q0-130,0-260c0-35.73,26.28-65.93,61.75-71.54A77.87,77.87,0,0,1,95,20.92q226,0,452-.05c37,0,64.45,25.67,71.69,54.59A73.13,73.13,0,0,1,621,93.25q0,130,0,260c0,35.74-27,66.51-62.38,71.43a89.29,89.29,0,0,1-12.45.85Zm21.45-198.79h.14c0,19.16.08,38.33,0,57.5-.06,10.74-.3,21.48-1.4,32.19-.2,2-.88,2.31-2.59,2.15-7.08-.66-14.16,0-21.24.05a22.46,22.46,0,0,0-8,1.7c-4.6,1.85-6.81,5.35-6,9.41,1.19,5.85,5,9.75,9.91,9.53s9.93-.76,14.88-1.31c7.84-.88,15.66-2.08,23.52-2.79,13.55-1.23,27.13-.6,40.71-.29,7.07.16,14.14.74,21.22.23a61.88,61.88,0,0,0,10.6-1.56c2.44-.61,4.48-1.8,5.18-4.5.65-2.51-.48-4.42-2.18-6-3.28-3.05-6.83-5.53-11.72-5a43.45,43.45,0,0,1-6.25,0c-6-.18-12,.23-17.84-1.51a6.81,6.81,0,0,1-5-4.71,64.42,64.42,0,0,1-2.71-13.42c-1.94-18.35-1.74-36.78-1.46-55.18.11-7.9,2.29-15.07,9.68-19.69,4.45-2.78,5-3,8.95.71a126.79,126.79,0,0,1,14,16.27c15.93,21.24,30.06,43.73,45.18,65.52,4.59,6.62,8.54,13.72,14.27,19.51a20,20,0,0,0,13,6.12,94.31,94.31,0,0,0,10.49.38q14.73-.45,29.47-1c2.83-.11,5.65-.31,8.48-.48.61,0,1.21.16,1.27-1,.33-6.09-2.36-10.4-8.11-12.6-8.57-3.28-17.07-6.66-23.45-13.7-2.52-2.77-5.2-5.41-7.62-8.27-11.8-13.92-22-29-32.23-44.11-10-14.82-19-30.34-30.51-44.11a41.27,41.27,0,0,1-6.43-10.34c-.74-1.74-.63-3.1,1.13-4.26,1.59-1,3-2.38,4.48-3.58C449.86,176,465.65,163.44,480,149.21a92.44,92.44,0,0,1,37.43-23c3.48-1.11,6.75-2.89,8-6.59,1.61-4.86-2.48-13.6-7.12-15.88a8,8,0,0,0-3.62-.79,15.42,15.42,0,0,0-10.12,3.66c-8,6.68-16.85,12.22-24.68,19.11-15.8,13.93-31.72,27.72-47.48,41.7-13.14,11.64-27.93,21.39-39.6,34.72a16,16,0,0,1-6.44,4.18c-1.51.58-2.31.4-2.87-1.43-1.76-5.71-2.11-11.6-2.39-17.49-.87-18.66-.32-37.33-.42-56a61,61,0,0,1,1.28-12.9c.55-2.62,2-3.68,4.55-4,3.87-.54,7.65.11,11.46.39a95.3,95.3,0,0,0,13,.18c3.49-.21,5.87-2.27,6.17-5.08A12.2,12.2,0,0,0,403.31,96.3c-6.73.68-13.26,2.54-20.23,2s-13.92.94-20.87,1.71c-11.4,1.26-22.57-.14-33.7-2.65-6.23-1.41-12.57-2.73-19-2-6.21.73-9.47,6.29-7.51,12.26.74,2.25,2,3.24,4.48,3.46,8.2.73,16.37,1.88,24.58,2.55,3.62.29,5.26,2.23,6.17,5.33.26.88.56,1.74.8,2.62,3.4,12,4.3,24.4,4.35,36.82C342.45,181.23,342.37,204,342.37,226.73ZM316,221.3c0-11,.24-21-1.44-30.91-4.74-27.92-17-51.67-39.15-69.81-15.28-12.52-32.7-20.23-52.52-21.37-14.29-.82-28.64-.49-43-.07a36.63,36.63,0,0,0-13.56,3.06c-7.87,3.39-15.46,7.32-23,11.31-14.55,7.68-26.38,18.14-35,32.25-9.74,16-16,33.05-17.48,51.73-.8,9.9-.28,19.83-.32,29.74-.09,23.05,5.79,44.44,18.29,63.87,15.36,23.87,36.63,39.52,64.64,45.21,15.38,3.12,31,1.74,46.6,1.5a48,48,0,0,0,10.36-1.51,112.62,112.62,0,0,0,61.78-38.08c11.29-13.47,19.08-28.59,22.09-46C316.12,241.63,316.07,231,316,221.3Z"/><path class="cls-1" d="M342.37,226.73c0-22.75.08-45.5,0-68.25,0-12.42-.95-24.78-4.35-36.82-.24-.88-.54-1.74-.8-2.62-.91-3.1-2.55-5-6.17-5.33-8.21-.67-16.38-1.82-24.58-2.55-2.46-.22-3.74-1.21-4.48-3.46-2-6,1.3-11.53,7.51-12.26,6.47-.76,12.81.56,19,2,11.13,2.51,22.3,3.91,33.7,2.65,7-.77,13.94-2.2,20.87-1.71s13.5-1.37,20.23-2A12.2,12.2,0,0,1,417.06,110c-.3,2.81-2.68,4.87-6.17,5.08a95.3,95.3,0,0,1-13-.18c-3.81-.28-7.59-.93-11.46-.39-2.56.36-4,1.42-4.55,4a61,61,0,0,0-1.28,12.9c.1,18.66-.45,37.33.42,56,.28,5.89.63,11.78,2.39,17.49.56,1.83,1.36,2,2.87,1.43a16,16,0,0,0,6.44-4.18c11.67-13.33,26.46-23.08,39.6-34.72,15.76-14,31.68-27.77,47.48-41.7,7.83-6.89,16.69-12.43,24.68-19.11A15.42,15.42,0,0,1,514.62,103a8,8,0,0,1,3.62.79c4.64,2.28,8.73,11,7.12,15.88-1.22,3.7-4.49,5.48-8,6.59a92.44,92.44,0,0,0-37.43,23c-14.31,14.23-30.1,26.78-45.77,39.46-1.49,1.2-2.89,2.54-4.48,3.58-1.76,1.16-1.87,2.52-1.13,4.26A41.27,41.27,0,0,0,435,206.85c11.52,13.77,20.51,29.29,30.51,44.11,10.19,15.12,20.43,30.19,32.23,44.11,2.42,2.86,5.1,5.5,7.62,8.27,6.38,7,14.88,10.42,23.45,13.7,5.75,2.2,8.44,6.51,8.11,12.6-.06,1.12-.66.92-1.27,1-2.83.17-5.65.37-8.48.48q-14.74.54-29.47,1a94.31,94.31,0,0,1-10.49-.38,20,20,0,0,1-13-6.12c-5.73-5.79-9.68-12.89-14.27-19.51-15.12-21.79-29.25-44.28-45.18-65.52a126.79,126.79,0,0,0-14-16.27c-3.91-3.69-4.5-3.49-8.95-.71-7.39,4.62-9.57,11.79-9.68,19.69-.28,18.4-.48,36.83,1.46,55.18a64.42,64.42,0,0,0,2.71,13.42,6.81,6.81,0,0,0,5,4.71c5.85,1.74,11.87,1.33,17.84,1.51a43.45,43.45,0,0,0,6.25,0c4.89-.55,8.44,1.93,11.72,5,1.7,1.58,2.83,3.49,2.18,6-.7,2.7-2.74,3.89-5.18,4.5a61.88,61.88,0,0,1-10.6,1.56c-7.08.51-14.15-.07-21.22-.23-13.58-.31-27.16-.94-40.71.29-7.86.71-15.68,1.91-23.52,2.79-4.95.55-9.91,1.09-14.88,1.31s-8.72-3.68-9.91-9.53c-.81-4.06,1.4-7.56,6-9.41a22.46,22.46,0,0,1,8-1.7c7.08-.09,14.16-.71,21.24-.05,1.71.16,2.39-.16,2.59-2.15,1.1-10.71,1.34-21.45,1.4-32.19.1-19.17,0-38.34,0-57.5Zm77.88,100.2a5.19,5.19,0,0,0-4.14-1.82c-4.66,0-9.33,0-14,0a48.5,48.5,0,0,1-12.36-1.53c-4.88-1.32-8.38-4.11-10.07-9.13a83.31,83.31,0,0,1-3.64-19.83c-1.2-14.63-1.11-29.3-1.11-44a106.15,106.15,0,0,1,.52-12.47c1.25-10.59,6.8-18,16.23-22.7,3.75-1.88,7.19-1.65,10.49.89.86.66,1.72,1.32,2.53,2,7.5,6.6,13.41,14.58,19.21,22.61,16.52,22.81,31.78,46.48,47.69,69.7,2.5,3.64,4.89,7.35,8.18,10.37a13.72,13.72,0,0,0,8.28,3.58c8.59.87,17.14-.37,25.71-.24,4,0,8,0,12,0l.06-.91c-1.14-.47-2.26-1-3.41-1.39-6.67-2.49-13.05-5.48-18.41-10.32a141.55,141.55,0,0,1-15.49-16.62c-12.7-15.8-23.92-32.64-35.09-49.52-7.62-11.52-14.76-23.37-23.68-34a42,42,0,0,1-7.92-12.93c-1.57-4.45-1.12-8.33,2.86-11.39,1.18-.91,2.24-2,3.41-2.92,17.17-13.87,34.26-27.82,50.09-43.25a81.91,81.91,0,0,1,29.28-18.69c3.12-1.13,6.16-2.48,9.23-3.75,1.14-.47,2.16-1.14,1.7-2.6-2-6.32-3.4-7.72-9.21-4.19a5.72,5.72,0,0,0-.82.57c-6,5.33-13,9.35-19,14.57q-25.62,22.13-51,44.53c-13.79,12.16-29.09,22.6-41.51,36.34a19,19,0,0,1-7.53,4.82c-6.82,2.58-10.66.76-12.83-6.16a65.86,65.86,0,0,1-2.42-16.26c-1.05-20.4-.5-40.82-.46-61.23a43.92,43.92,0,0,1,1.92-14c1.35-4,4-6.5,8.1-7.28a31.82,31.82,0,0,1,9.44-.55,92.58,92.58,0,0,0,13.2.83c1,0,2.64.52,3-.46.43-1.31-.7-2.65-1.53-3.75-.59-.78-1.71-.63-2.59-.55a45.82,45.82,0,0,0-7.9,1.11,26.5,26.5,0,0,1-9.6,1.15c-7.29-.76-14.46.39-21.64,1.22a100.46,100.46,0,0,1-31.81-1c-7.17-1.46-14.32-3-21.64-3.45-1.26-.07-3.37-.31-3.45,1-.09,1.46,2,1.07,3.19,1.21,7,.87,14,1.92,21,2.37,5.27.34,7.8,3.49,9.74,7.66a31.19,31.19,0,0,1,1.52,4.22c3.61,12,4.73,24.36,4.88,36.77.27,23.41.14,46.83.11,70.25,0,26.66.59,53.33-.59,80-.24,5.55-.26,11.16-1.71,16.6-1,3.91-1.39,4-5.32,3.57-8.22-.91-16.48-.4-24.72-.21a16.3,16.3,0,0,0-4.39.88c-1.08.33-2.79.46-2.43,2.17s1.05,3.37,3.39,3.33a62.69,62.69,0,0,0,6.7-.48c7.81-1,15.67-1.7,23.47-2.77a218,218,0,0,1,30.65-1.5c12.58.06,25.14.94,37.72.67A26.18,26.18,0,0,0,420.25,326.93Z"/><path class="cls-1" d="M316,221.3c.06,9.67.11,20.33-1.72,30.9-3,17.43-10.8,32.55-22.09,46a112.62,112.62,0,0,1-61.78,38.08,48,48,0,0,1-10.36,1.51c-15.56.24-31.22,1.62-46.6-1.5-28-5.69-49.28-21.34-64.64-45.21-12.5-19.43-18.38-40.82-18.29-63.87,0-9.91-.48-19.84.32-29.74,1.52-18.68,7.74-35.78,17.48-51.73,8.63-14.11,20.46-24.57,35-32.25,7.58-4,15.17-7.92,23-11.31a36.63,36.63,0,0,1,13.56-3.06c14.32-.42,28.67-.75,43,.07,19.82,1.14,37.24,8.85,52.52,21.37,22.13,18.14,34.41,41.89,39.15,69.81C316.25,200.3,316,210.31,316,221.3Zm-7.16-5.24c0-5.43.36-15.19-1.33-24.85-4.68-26.85-16.62-49.58-38.37-66.54-15.8-12.33-33.69-18.9-53.92-18.6-8.92.13-17.84.28-26.75,0a51.76,51.76,0,0,0-25.78,5.56c-11.29,5.72-23,10.79-32.54,19.31-19.27,17.27-29.23,39.61-31.87,64.84-1.72,16.43-1.88,33.19.79,49.62,5,30.57,19.64,55.23,46.08,72.21A82.77,82.77,0,0,0,185,330.68c10.66.69,21.32.3,32,.26a47,47,0,0,0,9.66-1.15c21.51-4.61,40.05-14.67,55.23-30.7,12.93-13.65,22.16-29.27,25.4-48.07C309.06,240.86,308.88,230.61,308.85,216.06Z"/><path class="cls-3" d="M420.25,326.93a26.18,26.18,0,0,1-7.93,1.11c-12.58.27-25.14-.61-37.72-.67a218,218,0,0,0-30.65,1.5c-7.8,1.07-15.66,1.78-23.47,2.77a62.69,62.69,0,0,1-6.7.48c-2.34,0-3-1.64-3.39-3.33s1.35-1.84,2.43-2.17a16.3,16.3,0,0,1,4.39-.88c8.24-.19,16.5-.7,24.72.21,3.93.43,4.28.34,5.32-3.57,1.45-5.44,1.47-11.05,1.71-16.6,1.18-26.65.56-53.32.59-80,0-23.42.16-46.84-.11-70.25-.15-12.41-1.27-24.78-4.88-36.77a31.19,31.19,0,0,0-1.52-4.22c-1.94-4.17-4.47-7.32-9.74-7.66-7-.45-14-1.5-21-2.37-1.18-.14-3.28.25-3.19-1.21.08-1.3,2.19-1.06,3.45-1,7.32.44,14.47,2,21.64,3.45a100.46,100.46,0,0,0,31.81,1c7.18-.83,14.35-2,21.64-1.22a26.5,26.5,0,0,0,9.6-1.15,45.82,45.82,0,0,1,7.9-1.11c.88-.08,2-.23,2.59.55.83,1.1,2,2.44,1.53,3.75-.32,1-1.93.42-3,.46a92.58,92.58,0,0,1-13.2-.83,31.82,31.82,0,0,0-9.44.55c-4.15.78-6.75,3.3-8.1,7.28a43.92,43.92,0,0,0-1.92,14c0,20.41-.59,40.83.46,61.23a65.86,65.86,0,0,0,2.42,16.26c2.17,6.92,6,8.74,12.83,6.16a19,19,0,0,0,7.53-4.82c12.42-13.74,27.72-24.18,41.51-36.34q25.39-22.41,51-44.53c6.05-5.22,13.05-9.24,19-14.57a5.72,5.72,0,0,1,.82-.57c5.81-3.53,7.18-2.13,9.21,4.19.46,1.46-.56,2.13-1.7,2.6-3.07,1.27-6.11,2.62-9.23,3.75a81.91,81.91,0,0,0-29.28,18.69c-15.83,15.43-32.92,29.38-50.09,43.25-1.17.94-2.23,2-3.41,2.92-4,3.06-4.43,6.94-2.86,11.39a42,42,0,0,0,7.92,12.93c8.92,10.62,16.06,22.47,23.68,34,11.17,16.88,22.39,33.72,35.09,49.52A141.55,141.55,0,0,0,504,311.8c5.36,4.84,11.74,7.83,18.41,10.32,1.15.43,2.27.92,3.41,1.39l-.06.91c-4,0-8,0-12,0-8.57-.13-17.12,1.11-25.71.24a13.72,13.72,0,0,1-8.28-3.58c-3.29-3-5.68-6.73-8.18-10.37-15.91-23.22-31.17-46.89-47.69-69.7-5.8-8-11.71-16-19.21-22.61-.81-.72-1.67-1.38-2.53-2-3.3-2.54-6.74-2.77-10.49-.89-9.43,4.72-15,12.11-16.23,22.7a106.15,106.15,0,0,0-.52,12.47c0,14.66-.09,29.33,1.11,44a83.31,83.31,0,0,0,3.64,19.83c1.69,5,5.19,7.81,10.07,9.13a48.5,48.5,0,0,0,12.36,1.53c4.66.05,9.33.07,14,0A5.19,5.19,0,0,1,420.25,326.93Z"/><path class="cls-4" d="M308.85,216.06c0,14.55.21,24.8-1.55,35-3.24,18.8-12.47,34.42-25.4,48.07-15.18,16-33.72,26.09-55.23,30.7a47,47,0,0,1-9.66,1.15c-10.66,0-21.32.43-32-.26a82.77,82.77,0,0,1-39.87-13.12c-26.44-17-41.12-41.64-46.08-72.21-2.67-16.43-2.51-33.19-.79-49.62,2.64-25.23,12.6-47.57,31.87-64.84,9.51-8.52,21.25-13.59,32.54-19.31A51.76,51.76,0,0,1,188.48,106c8.91.33,17.83.18,26.75,0,20.23-.3,38.12,6.27,53.92,18.6,21.75,17,33.69,39.69,38.37,66.54C309.21,200.87,308.82,210.63,308.85,216.06ZM124.08,200.94c.13,7.88-.59,15.8.65,23.68,2,12.62,6.88,24.3,11.68,36,3,7.22,5.62,14.63,10.25,21.05,10.62,14.74,24.59,25.44,40.69,33.46a55.49,55.49,0,0,0,26.78,6c5.49-.15,11,0,16.49,0a35.5,35.5,0,0,0,9.62-1.32c11.11-3.07,18.81-10.46,24.55-20,9.72-16.2,14-34.06,15.23-52.74a193,193,0,0,0-1-34.16c-1.71-15.55-5.12-30.68-11.51-45-6.89-15.49-16.56-28.89-30.31-39-16.34-12-34.95-16.35-54.93-15.14-11.38.7-22,4.06-30.72,11.72-10.18,8.94-17.87,19.67-22.16,32.68A108.5,108.5,0,0,0,124.08,200.94Z"/><path class="cls-1" d="M124.08,200.94a108.5,108.5,0,0,1,5.34-42.85c4.29-13,12-23.74,22.16-32.68,8.73-7.66,19.34-11,30.72-11.72,20-1.21,38.59,3.1,54.93,15.14,13.75,10.13,23.42,23.53,30.31,39,6.39,14.34,9.8,29.47,11.51,45A193,193,0,0,1,280,247c-1.27,18.68-5.51,36.54-15.23,52.74-5.74,9.55-13.44,16.94-24.55,20a35.5,35.5,0,0,1-9.62,1.32c-5.5,0-11-.13-16.49,0a55.49,55.49,0,0,1-26.78-6c-16.1-8-30.07-18.72-40.69-33.46-4.63-6.42-7.28-13.83-10.25-21.05-4.8-11.69-9.69-23.37-11.68-36C123.49,216.74,124.21,208.82,124.08,200.94Zm7-.21c.13,7.63-.64,15.32.67,22.93,2.37,13.71,7.94,26.35,13.23,39.07,2.43,5.84,4.78,11.71,8.77,16.72a103.15,103.15,0,0,0,41.86,31.43A39.4,39.4,0,0,0,210,314c7,.14,14,.16,21,0a29.33,29.33,0,0,0,21.3-9.48A51.13,51.13,0,0,0,260,293.86c8.36-15.09,12-31.44,13-48.49a189.05,189.05,0,0,0-1.5-36.14c-2.15-15.66-6-30.84-13.54-44.87-15.54-28.93-39.16-44.61-72.64-43.7-9.72.27-19.17,2.25-26.94,8.43a66.21,66.21,0,0,0-22.84,33.18A103.89,103.89,0,0,0,131.11,200.73Z"/><path class="cls-2" d="M131.11,200.73a103.89,103.89,0,0,1,4.42-38.46,66.21,66.21,0,0,1,22.84-33.18c7.77-6.18,17.22-8.16,26.94-8.43,33.48-.91,57.1,14.77,72.64,43.7,7.53,14,11.39,29.21,13.54,44.87a189.05,189.05,0,0,1,1.5,36.14c-.94,17.05-4.61,33.4-13,48.49a51.13,51.13,0,0,1-7.78,10.66,29.33,29.33,0,0,1-21.3,9.48c-7,.14-14,.12-21,0a39.4,39.4,0,0,1-14.32-3.1,103.15,103.15,0,0,1-41.86-31.43c-4-5-6.34-10.88-8.77-16.72-5.29-12.72-10.86-25.36-13.23-39.07C130.47,216.05,131.24,208.36,131.11,200.73Z"/></g></g></svg>