<svg xmlns="http://www.w3.org/2000/svg" viewBox="0 0 904.38 247.06"><defs><style>.cls-1{fill:#8e7a3c;}.cls-2{fill:#fefefe;}.cls-3{fill:#8f7b3d;}.cls-4{fill:#8f7b3e;}.cls-5{fill:#070602;}</style></defs><title>planeswalk</title><g id="Layer_2" data-name="Layer 2"><g id="Layer_1-2" data-name="Layer 1"><path class="cls-1" d="M452.16.05q199.38,0,398.75,0c8.12,0,16,.71,23.39,4.21C891.61,12.42,901.62,26,904,45.11a74.75,74.75,0,0,1,.38,9.22q0,71,0,142a50.36,50.36,0,0,1-39.59,49.44,54.12,54.12,0,0,1-11.89,1.28q-400.75,0-801.5,0c-26,0-46.75-17.78-50.76-43.41a57.08,57.08,0,0,1-.59-9Q0,123.43,0,52.18c0-14.1,4.29-26.6,14.19-36.81A48.34,48.34,0,0,1,47.17.11C49.33,0,51.5.05,53.67.05Zm0,235.55h399c1.41,0,2.83,0,4.25,0,20.39-.61,37.45-17.74,37.5-38.08q.17-74.11,0-148.24A35,35,0,0,0,887.78,31c-8.06-13.31-20-19.72-35.52-19.72h-745c-18.75,0-37.5-.05-56.25,0-22.39.08-39.56,17.29-39.57,39.63q0,72.5,0,145a41.38,41.38,0,0,0,1.7,12.07c5.08,16.71,20.21,27.67,38.25,27.67Q251.79,235.62,452.15,235.6Z"/><path class="cls-2" d="M452.15,235.6q-200.37,0-400.73,0c-18,0-33.17-11-38.25-27.67a41.38,41.38,0,0,1-1.7-12.07q0-72.5,0-145c0-22.34,17.18-39.55,39.57-39.63,18.75-.06,37.5,0,56.25,0h745c15.51,0,27.46,6.41,35.52,19.72a35,35,0,0,1,5.11,18.31q.06,74.12,0,148.24c0,20.34-17.11,37.47-37.5,38.08-1.42,0-2.84,0-4.25,0ZM214.47,164l-.15,2c-.63,7.5,2.23,11.65,9.55,13.43a42.4,42.4,0,0,0,16.87.48c5.65-.92,10-4.28,14.39-7.62,3.37-2.57,4-2.54,7.36.06.52.41,1,.87,1.52,1.29a28.86,28.86,0,0,0,11.74,5.81c7,1.69,13.17.35,18.63-4.31a4.32,4.32,0,0,0,1.89-4.08c-.26-1.84-1.66-2.38-3.08-2.87-1.8-.62-3.67-1.05-5.46-1.71-5.9-2.17-7.8-4.93-7.8-11.21,0-10.25-.16-20.5.06-30.75a12.48,12.48,0,0,0-6.1-11.51,44,44,0,0,0-19.42-7.32c-12.05-1.3-23.24,1.85-33.76,7.63a12.78,12.78,0,0,0-4,3.41,6.81,6.81,0,0,0-.77,7.53,10.83,10.83,0,0,0,7.07,5.9,15.65,15.65,0,0,0,12-1.7c1.65-.91,3.77-1.64,3.72-3.92s-2.06-3-3.86-3.77c-.26-.1-.5-.24-1-.47a16.82,16.82,0,0,1,7.46-3.08c5.14-.78,13.08,3.46,15.28,8.26,3.86,8.44,2.06,11-4.44,14.1-5.39,2.59-11.15,4.28-16.66,6.59-8.91,3.75-17.52,8-21.2,17.94-.53-3.63-2.26-4.71-5.7-3.34-2.25.89-4.4,2-6.8,3.16V160.8c-.11-32.48.56-65,0-97.43,0-2.07-.29-4.15-.34-6.23s-1.28-2.89-3.25-2.73a12.72,12.72,0,0,0-2.23.29A121.42,121.42,0,0,0,175,62.1c-2.81,1.34-3,2.43-.71,4.62A79.56,79.56,0,0,1,181.4,74a6.88,6.88,0,0,1,1.94,4.46c-.16,8.74-.39,17.48-.41,26.22q-.08,34.73,0,69.45,0,1.25.12,2.49c.17,1.71.9,2.47,2.8,2C196.58,176.09,206.89,172.72,214.47,164Zm-107,15.68c1,0,2,0,3,0,10.89,0,21.8-.4,32.63,1.41,3.43.57,6.93.79,10.41,1a3.5,3.5,0,0,0,4.08-3.12c.42-2.13-.91-3-2.56-3.67a19,19,0,0,0-2.36-.75,101.73,101.73,0,0,0-17-2.47c-11.15-1-22.32-.4-33.48-.53-3.7,0-4-.28-4.08-3.91,0-4.75,0-9.5,0-14.25,0-2.8.57-3.18,3.32-2.6,7.71,1.66,15.38,3.3,23.38,2.94,5.62-.25,11-1.17,15.78-4.05,25.19-15.25,34.62-35.49,29.93-62.22-3.22-18.32-15.58-29.25-33.07-34.35-6.79-2-13.9-1.12-20.88-.78a25.13,25.13,0,0,0-13.64,5q-4.26,3.07-8.42,6.25c-2.88,2.18-5.9,3.46-9.68,2.94-6.59-.9-13.15-2-19.69-3.18-3.51-.64-7-1.36-10.56-1.76a3.52,3.52,0,0,0-4,3.25c-.34,2.05,1.27,2.72,2.79,3.25a32.91,32.91,0,0,0,3.84,1c4,.88,8,1.73,11.93,2.58,3.08.66,4.74,2.39,5.4,5.63,2.86,14.07,3.9,28.37,4.7,42.63.71,12.71.19,25.49.11,38.23a35.77,35.77,0,0,1-1.56,11.57,4.35,4.35,0,0,1-4.6,3.35,103.89,103.89,0,0,0-14.42,1c-2.59.36-3.75,1.9-3.55,4.5.21,2.79,1,3.47,4,3.53.67,0,1.33,0,2,0,6.25-.14,12.38-1.43,18.58-2C89,179.23,98.21,179.94,107.44,179.68ZM586.35,145c3.65,6,6.25,12.13,9.3,18a93.17,93.17,0,0,0,7.11,11.73,16.63,16.63,0,0,0,4.62,4.5,7,7,0,0,0,9.63-1.46,45.8,45.8,0,0,0,4.89-7.22c4.24-7.46,7.75-15.26,11.23-23.09,5-11.36,10.13-22.71,13.46-34.74.46-1.66.68-3.36-.84-4.27-1.72-1-3.57-2.06-5.8-1.91a27.86,27.86,0,0,0-7.73,1.83c-3.45,1.26-4,2.94-2,6.09,1.17,1.82,2.56,3.49,3.8,5.26a7.18,7.18,0,0,1,.76,7.67c-3.09,7-6.07,14-9.35,20.94a67.7,67.7,0,0,1-5.86,10.7c-2.56,3.56-4.17,3.51-6.71-.16a20.73,20.73,0,0,1-1.43-2.35c-1.69-3.33-3.41-6.65-5-10-4.62-9.76-8.49-19.88-14.21-29.09a31.18,31.18,0,0,0-6.57-8.11c-4.39-3.55-9.41-4.14-14.15-1.11-5.6,3.58-6.95,8.53-.46,12.63a40.71,40.71,0,0,1,5.63,4.13c4.47,4.07,5.6,9.44,2.95,14.76A120.3,120.3,0,0,1,570.71,155c-1.82,2.58-3.74,5.09-5.61,7.63-.71,1-1.29,1-2-.07-4.63-7-9.74-13.71-13.17-21.45-3.92-8.83-8-17.58-13.69-25.44-5.22-7.21-11.24-8.38-18.82-3.81-6.25,3.77-6.5,5.5-1.54,10.81,5.66,6.07,11.62,11.85,15.59,19.34,4.11,7.74,8.55,15.32,13,22.9,2.63,4.51,4.91,9.28,8.6,13.08s6.59,3.7,10.18,0c4.18-4.35,7.48-9.36,10.82-14.34C578.13,157.45,582.17,151.27,586.35,145Zm210.09-10.2c0-1.45,0-2.44,0-3.42.19-23.74.67-47.48.48-71.22,0-4.2-1.18-5.25-5.36-4.15-7.12,1.88-14.19,4-21.27,6-.94.27-2.26,0-2.45,1.57s.81,2.27,1.89,2.92c2.49,1.5,5,2.94,7.52,4.41A4.72,4.72,0,0,1,779.62,75c.73,8.91.16,17.82.22,26.72.16,25.58,0,51.15-.05,76.73,0,1.39.34,1.77,1.83,1.76,4.7,0,8.27-2.69,12.17-4.69a4.65,4.65,0,0,0,2.77-4.71c0-6.16-.23-12.34.36-18.49a22.49,22.49,0,0,1,1.55-7.53c1.3-2.82,4.38-3,6-.46,1.18,1.82,2.27,3.68,3.37,5.55,4.84,8.23,9.48,16.58,14.49,24.73,2.43,4,5.82,4.92,10,4.24,6.34-1,11.74-4.05,16.66-8a9.49,9.49,0,0,0,2.87-4,3.75,3.75,0,0,0-.81-4.37,4.23,4.23,0,0,0-4.83-.95,11.05,11.05,0,0,0-4.17,3.47c-2.45,2.95-3.87,3-6.27-.06a72.1,72.1,0,0,1-10.31-17.57c-1.82-4.55-3.72-8.9-7.29-12.33-1.11-1.06-.84-1.72.28-2.49,2.54-1.75,5-3.59,7.56-5.31,6.62-4.45,13.28-8.84,19.9-13.3.59-.4,1.82-.54,1-2-2.57-4.5-5.71-5.5-10.19-2.86-4,2.36-7.95,4.84-11.87,7.34C815.55,122.39,806.22,128.44,796.44,134.75ZM365.06,166.59c.27-2.28.39-3.84.65-5.38,1.51-9.2,3-18.39,2.21-27.77-.53-6.1-1.65-12-5-17.31a18,18,0,0,0-21.31-7.64c-6.69,2.13-12.73,5.69-18.84,9-1.63.89-2.49.65-3.54-.65a41,41,0,0,0-5.56-6.07c-2.92-2.43-6-3-9.47-1.17a62.19,62.19,0,0,0-7.78,4.92c-2.05,1.48-2.16,2.59-.38,4.42a17,17,0,0,0,2.51,2A14.82,14.82,0,0,1,305,131.45c1.15,7.61,1.18,15.26,1.28,22.91.11,8.33.06,16.65,0,25,0,1.59.27,2.15,2.06,1.94,6.17-.73,10.23-4.08,12.55-9.67a47.35,47.35,0,0,0,3.49-18c0-7.65,0-15.32,0-23,0-2.25.22-4.59,2.26-6.08a26.82,26.82,0,0,1,8.78-4.59,7.41,7.41,0,0,1,8.24,2.7,22.45,22.45,0,0,1,4.18,8.7c3,11.31,3.3,22.84,2.82,34.44-.13,3.17-.79,6.27-1,9.42s1.33,4.4,4.45,4.05a14.09,14.09,0,0,0,5.35-2c7-4,13.5-8.82,20.07-13.51a2,2,0,0,0,.67-2.79c-.91-2.18-3.22-2.61-5.68-1C371.59,162,368.64,164.12,365.06,166.59Zm110.39,13.63c6.29,0,10.67-.89,17.57-4.1,9.77-4.56,17-11.15,19.8-22.25,2.94-11.71-5.11-22.32-14.35-23.43-2.81-.33-5.58-1-8.38-1.33-5.19-.7-10.45-1-15.48-2.58-1.89-.6-3.83-1.27-4.67-3.4-1.5-3.81.8-10.09,4.41-12,6.31-3.32,12.37-1.42,15.59,4.88.3.59.57,1.2.91,1.77a5.29,5.29,0,0,0,3.52,2.58c4.55,1,11.36-4.14,11.59-8.81.25-5-3.32-8.75-9-9.44a39.08,39.08,0,0,0-10.9.49c-7.92,1.28-15.7,3.06-22.62,7.35-10,6.23-12.89,15-8.64,25.72A11.52,11.52,0,0,0,464,143.2c5.93,1.17,12,.84,17.92,1.36,7,.61,12.7,4.78,14.69,11.51,1.32,4.48,0,8.41-3.14,11.7-2.9,3-6.44,2.55-10,1.46A20.63,20.63,0,0,1,478.7,167a39.85,39.85,0,0,1-11.89-12c-.48-.7-.73-1.7-2.06-1.25-3.49,1.18-6.51,2.94-8.36,6.29-3.17,5.73-1.26,12.39,4.79,16.49C465.49,179.49,470.38,180.24,475.45,180.22Zm194.24-59.94a17.39,17.39,0,0,1,7.54-3.08c6.49-.84,14.8,5,16.52,11.29,1.51,5.49.63,7.61-4.45,10.41a91.6,91.6,0,0,1-13.81,5.65c-6.55,2.33-12.77,5.19-18.23,9.56a19.3,19.3,0,0,0-6.41,8.44c-3.06,8.35.53,15.22,9.19,17,10.92,2.21,21.16,1.15,30-6.59,4.09-3.56,4.84-3.38,8.92.07a29.51,29.51,0,0,0,12.51,6.43c6.77,1.59,12.85.5,18.26-4,1.43-1.19,2.44-2.43,2.2-4.43s-1.82-2.39-3.31-2.9c-2-.67-3.9-1.45-5.91-1.94-4.37-1.07-6.16-4.19-6.83-8.25a19.35,19.35,0,0,1-.24-3.23c0-10.32-.08-20.65,0-31A11.59,11.59,0,0,0,711,114a33.94,33.94,0,0,0-5.48-3.46c-11.62-6.09-23.65-6.54-36-2.73-5,1.54-10,3.25-14.3,6.32-5.26,3.74-5.65,8.81-1.09,13.27,3.81,3.73,10.1,4.42,15.82,1.52,1.9-1,4.52-1.6,4.53-4.41S671.81,121.44,669.69,120.28Zm88-10.68c0-17.15.67-34.3-.24-51.44-.18-3.42-.86-4.26-4.26-3.59a97.78,97.78,0,0,0-23.26,8c-2,1-1.74,2.2-.49,3.5,2,2,4,4,6,6a11.36,11.36,0,0,1,3.6,8.8c-.35,23.81-.36,47.63-.41,71.44,0,7.91.13,15.82.25,23.73,0,2.8.6,3.21,3.32,2.53,3-.76,6-1.48,8.88-2.45a44.81,44.81,0,0,0,17.69-10.39c1.16-1.13,1.78-2.63.79-4a3.39,3.39,0,0,0-4.2-1.2,46.24,46.24,0,0,0-5.21,2.38c-2.47,1.25-2.46,1.26-2.46-1.53ZM380.93,146.67c.16,9.14,2,16.93,7.08,23.62,5.78,7.66,13.53,11.91,23.25,11.24,7.48-.52,14.24-3.82,21-6.94a4.14,4.14,0,0,0,1.12-1c2.7-2.83,5.34-5.72,8.09-8.5a2,2,0,0,0,.42-2.61c-1.33-3-3.08-3.67-5.94-1.92-2.62,1.61-5.05,3.52-7.62,5.2-2.3,1.51-4.69,2.82-7.59,2.85-10.76.14-18.54-6.07-20.82-16.69-1.33-6.14-.69-7.75,4.57-11.22,7.72-5.11,16.1-9,24.37-13.11a149,149,0,0,0,14.13-7.9,2.81,2.81,0,0,0,1.19-3.84,3,3,0,0,0-3.55-2.06,4.77,4.77,0,0,0-2.12.67c-3,2.36-5.34,1.15-7.73-1.17-5.55-5.4-12.29-7-19.81-5.86-.58.09-1.17.09-1.75.18-12.7,1.88-21.77,8.2-25.6,20.93C381.71,134.75,381.22,141.13,380.93,146.67Z"/><path class="cls-3" d="M107.44,179.68c-9.23.26-18.49-.45-27.72.44-6.2.6-12.33,1.89-18.58,2-.67,0-1.33,0-2,0-3-.06-3.78-.74-4-3.53-.2-2.6,1-4.14,3.55-4.5a103.89,103.89,0,0,1,14.42-1,4.35,4.35,0,0,0,4.6-3.35,35.77,35.77,0,0,0,1.56-11.57c.08-12.74.6-25.52-.11-38.23-.8-14.26-1.84-28.56-4.7-42.63-.66-3.24-2.32-5-5.4-5.63-4-.85-8-1.7-11.93-2.58a32.91,32.91,0,0,1-3.84-1c-1.52-.53-3.13-1.2-2.79-3.25a3.52,3.52,0,0,1,4-3.25c3.54.4,7.05,1.12,10.56,1.76,6.54,1.2,13.1,2.28,19.69,3.18,3.78.52,6.8-.76,9.68-2.94s5.58-4.2,8.42-6.25a25.13,25.13,0,0,1,13.64-5c7-.34,14.09-1.2,20.88.78,17.49,5.1,29.85,16,33.07,34.35,4.69,26.73-4.74,47-29.93,62.22-4.76,2.88-10.16,3.8-15.78,4.05-8,.36-15.67-1.28-23.38-2.94-2.75-.58-3.3-.2-3.32,2.6,0,4.75,0,9.5,0,14.25,0,3.63.38,3.86,4.08,3.91,11.16.13,22.33-.44,33.48.53a101.73,101.73,0,0,1,17,2.47,19,19,0,0,1,2.36.75c1.65.65,3,1.54,2.56,3.67a3.5,3.5,0,0,1-4.08,3.12c-3.48-.26-7-.48-10.41-1-10.83-1.81-21.74-1.37-32.63-1.41C109.44,179.67,108.44,179.68,107.44,179.68ZM53.92,64.62a1.53,1.53,0,0,0,1.39,1c4.63,1,9.24,2.07,13.87,3s7.38,3.66,8.33,8.61c2.72,14.27,3.88,28.71,4.64,43.14.65,12.38.2,24.83.09,37.24,0,4.48-.18,9-1.81,13.3-1.42,3.76-3.35,5.08-7.35,5.17-1.75,0-3.51,0-5.25.09-2.81.2-5.61.5-8.41.8-.67.08-1.35.3-1.29,1.21s.83.91,1.48.9a63.93,63.93,0,0,0,6.48-.26c8.74-1.14,17.46-2.38,26.33-2.27,12.25.15,24.5,0,36.75,0a31,31,0,0,1,3.47.28c6.52.72,13,1.47,19.57,2.17a2.38,2.38,0,0,0,2.09-.36,6.33,6.33,0,0,0-3.56-1.57,127.86,127.86,0,0,0-23.8-2.51c-8.5-.11-17,0-25.5,0-4.46,0-6-1.15-6.16-5.66-.27-5.57-.25-11.17-.08-16.74.11-3.66,2.53-5.26,6.19-4.45,7.87,1.74,15.73,3.3,23.9,2.94,4.34-.19,8.57-.72,12.28-2.84,18.54-10.61,31.08-25.16,30.79-47.92,0-2,0-4,0-6-.22-7.24-2-14-6.32-19.93-14-19.32-30.37-21.17-50.55-17.64-4.88.85-8.63,4.55-12.54,7.52s-7.84,6.44-13.59,5.67c-6.84-.93-13.65-2-20.44-3.23C61.33,65.69,57.8,64.69,53.92,64.62Z"/><path class="cls-4" d="M586.35,145c-4.18,6.32-8.22,12.5-12.32,18.63-3.34,5-6.64,10-10.82,14.34-3.59,3.73-6.56,3.78-10.18,0s-6-8.57-8.6-13.08c-4.41-7.58-8.85-15.16-13-22.9-4-7.49-9.93-13.27-15.59-19.34-5-5.31-4.71-7,1.54-10.81,7.58-4.57,13.6-3.4,18.82,3.81,5.7,7.86,9.77,16.61,13.69,25.44,3.43,7.74,8.54,14.45,13.17,21.45.71,1.08,1.29,1,2,.07,1.87-2.54,3.79-5.05,5.61-7.63a120.3,120.3,0,0,0,8.94-15.28c2.65-5.32,1.52-10.69-2.95-14.76a40.71,40.71,0,0,0-5.63-4.13c-6.49-4.1-5.14-9.05.46-12.63,4.74-3,9.76-2.44,14.15,1.11a31.18,31.18,0,0,1,6.57,8.11c5.72,9.21,9.59,19.33,14.21,29.09,1.6,3.37,3.32,6.69,5,10a20.73,20.73,0,0,0,1.43,2.35c2.54,3.67,4.15,3.72,6.71.16a67.7,67.7,0,0,0,5.86-10.7c3.28-6.91,6.26-13.94,9.35-20.94a7.18,7.18,0,0,0-.76-7.67c-1.24-1.77-2.63-3.44-3.8-5.26-2-3.15-1.49-4.83,2-6.09a27.86,27.86,0,0,1,7.73-1.83c2.23-.15,4.08.88,5.8,1.91,1.52.91,1.3,2.61.84,4.27-3.33,12-8.41,23.38-13.46,34.74-3.48,7.83-7,15.63-11.23,23.09a45.8,45.8,0,0,1-4.89,7.22,7,7,0,0,1-9.63,1.46,16.63,16.63,0,0,1-4.62-4.5A93.17,93.17,0,0,1,595.65,163C592.6,157.08,590,151,586.35,145Zm42.07,5.18c-1.06.31-1.11,1.37-1.52,2.13-1.92,3.59-3.64,7.31-6.41,10.38-2.13,2.36-4.39,2.67-7.08.93a13.64,13.64,0,0,1-4.28-5.13c-3.18-5.76-5.89-11.76-8.58-17.76-3.64-8.12-7.16-16.31-12.13-23.76a20.18,20.18,0,0,0-5.95-6.32,10,10,0,0,0-10.32.6c-3.12,2.5-3.07,4.66.28,6.91a38.42,38.42,0,0,1,6.39,4.78c3.87,4,7.77,10.89,3.63,18.06-3.58,6.2-7,12.5-11.09,18.37a38.71,38.71,0,0,1-5.36,6.56c-1.8,1.65-3,1.7-4.33-.29-5.43-7.86-11.09-15.59-15-24.42-3.48-7.94-7.21-15.76-12.21-22.89s-9.53-8-16.85-3a7.43,7.43,0,0,1-.82.56c-1.67.9-1.46,1.94-.31,3.15,2.65,2.77,5.19,5.64,7.91,8.33a54.56,54.56,0,0,1,8.86,12c4.57,8,9.07,16.06,13.62,24.08A82.47,82.47,0,0,0,554.28,175c3,3.63,4.46,3.59,7.53.15a107.85,107.85,0,0,0,9-12c4.61-6.94,9.23-13.86,13.71-20.89,1.22-1.91,2.06-1.66,3.25-.16a35,35,0,0,1,3.35,5.24c4.13,7.7,7.41,15.85,12.35,23.11,1.45,2.13,2.75,4.39,5,5.89,2.79,1.9,4.63,1.74,6.69-.9a48.8,48.8,0,0,0,3.89-5.79,131.73,131.73,0,0,0,9.46-19.49,12.64,12.64,0,0,0,2.26-5.22C629.64,146.52,628.42,148.07,628.42,150.13Zm11.06-25c1.42-4.28,2.83-8.56,4.26-12.84.28-.85,0-1.31-.74-1.82-2.58-1.75-5.09-.75-7.62,0-3.64,1.06-3.77,1.27-1.32,4.2A23.07,23.07,0,0,1,639.48,125.14ZM631.4,143.3c.9-1.15,1.41-1.87,1.34-3.1A5.27,5.27,0,0,0,631.4,143.3Zm2.65-5.37-.35-.3c-.08.13-.21.26-.22.4a1.18,1.18,0,0,0,.14.41Zm-.88,1.32-.1.16.16,0Zm-2,4.75.1-.16-.16,0Z"/><path class="cls-1" d="M796.44,134.75c9.78-6.31,19.11-12.36,28.47-18.36,3.92-2.5,7.86-5,11.87-7.34,4.48-2.64,7.62-1.64,10.19,2.86.82,1.43-.41,1.57-1,2-6.62,4.46-13.28,8.85-19.9,13.3-2.56,1.72-5,3.56-7.56,5.31-1.12.77-1.39,1.43-.28,2.49,3.57,3.43,5.47,7.78,7.29,12.33a72.1,72.1,0,0,0,10.31,17.57c2.4,3.07,3.82,3,6.27.06a11.05,11.05,0,0,1,4.17-3.47,4.23,4.23,0,0,1,4.83.95,3.75,3.75,0,0,1,.81,4.37,9.49,9.49,0,0,1-2.87,4c-4.92,4-10.32,7-16.66,8-4.2.68-7.59-.29-10-4.24-5-8.15-9.65-16.5-14.49-24.73-1.1-1.87-2.19-3.73-3.37-5.55-1.65-2.57-4.73-2.36-6,.46a22.49,22.49,0,0,0-1.55,7.53c-.59,6.15-.38,12.33-.36,18.49a4.65,4.65,0,0,1-2.77,4.71c-3.9,2-7.47,4.67-12.17,4.69-1.49,0-1.83-.37-1.83-1.76.06-25.58.21-51.15.05-76.73-.06-8.9.51-17.81-.22-26.72a4.72,4.72,0,0,0-2.37-4.08c-2.51-1.47-5-2.91-7.52-4.41-1.08-.65-2.08-1.37-1.89-2.92s1.51-1.3,2.45-1.57c7.08-2,14.15-4.17,21.27-6,4.18-1.1,5.33-.05,5.36,4.15.19,23.74-.29,47.48-.48,71.22C796.43,132.31,796.44,133.3,796.44,134.75Zm-24-70.29c2.59,1.61,4.62,2.85,6.64,4.12,2.27,1.45,3.2,3.48,3.48,6.22.87,8.58.09,17.14.15,25.71.15,24.24,0,48.48,0,72.72,0,.67,0,1.33,0,2-.11,1.61.48,2.2,2,1.45,2.09-1,4.16-2.08,6.28-3a3.85,3.85,0,0,0,2.51-4.09c-.11-3.33-.06-6.67,0-10A64.08,64.08,0,0,1,795,145.67c1-4.24,3.7-6.26,7.62-6.06,3,.15,4.14,2.5,5.39,4.61,5.44,9.25,10.78,18.56,16.24,27.8,2.39,4,4.26,4.71,8.94,3.67a33.69,33.69,0,0,0,11.1-5,16.64,16.64,0,0,0,3.28-2.68c.86-.95,2.56-2.16,1.05-3.52-1.31-1.17-2.38.43-3.3,1.3s-1.8,2-2.72,2.92c-1.69,1.75-3.63,1.82-5.71.77a9.56,9.56,0,0,1-3.44-2.83,80.72,80.72,0,0,1-11-19.22,31,31,0,0,0-6-10.22c-3.66-3.95-3.53-4.41,1-7.67.13-.1.28-.18.42-.27q11.77-8,23.55-16c.6-.41,1.84-.61,1.27-1.75a1.93,1.93,0,0,0-2.63-.75,21.16,21.16,0,0,0-2.88,1.48c-11.39,6.72-22.28,14.23-33.41,21.35-3.32,2.12-6.65,4.22-10.32,6.55,0-1.57,0-2.56,0-3.55.16-24.33.71-48.64.5-73,0-1.16-.06-2.33,0-3.49.05-1.45-.66-1.73-1.89-1.37Z"/><path class="cls-3" d="M365.06,166.59c3.58-2.47,6.53-4.58,9.55-6.58,2.46-1.63,4.77-1.2,5.68,1a2,2,0,0,1-.67,2.79c-6.57,4.69-13,9.53-20.07,13.51a14.09,14.09,0,0,1-5.35,2c-3.12.35-4.64-.92-4.45-4.05s.84-6.25,1-9.42c.48-11.6.19-23.13-2.82-34.44a22.45,22.45,0,0,0-4.18-8.7,7.41,7.41,0,0,0-8.24-2.7,26.82,26.82,0,0,0-8.78,4.59c-2,1.49-2.24,3.83-2.26,6.08-.06,7.66,0,15.33,0,23a47.35,47.35,0,0,1-3.49,18c-2.32,5.59-6.38,8.94-12.55,9.67-1.79.21-2.07-.35-2.06-1.94.06-8.33.11-16.65,0-25-.1-7.65-.13-15.3-1.28-22.91A14.82,14.82,0,0,0,298.51,121a17,17,0,0,1-2.51-2c-1.78-1.83-1.67-2.94.38-4.42a62.19,62.19,0,0,1,7.78-4.92c3.47-1.79,6.55-1.26,9.47,1.17a41,41,0,0,1,5.56,6.07c1.05,1.3,1.91,1.54,3.54.65,6.11-3.35,12.15-6.91,18.84-9a18,18,0,0,1,21.31,7.64c3.39,5.26,4.51,11.21,5,17.31.82,9.38-.7,18.57-2.21,27.77C365.45,162.75,365.33,164.31,365.06,166.59Zm.81,3.2c-3.17-.25-3.9-1.94-3.6-4.35s.58-4.95,1-7.41c1.29-8.31,2.58-16.61,1.68-25.07-.53-4.9-1.34-9.73-3.79-14.11-3.64-6.51-10.51-9.78-17.28-7.93-7.45,2-14.1,6-20.63,9.91-1.89,1.14-2.86.85-4.2-.07a10.62,10.62,0,0,1-1.94-1.91,64.08,64.08,0,0,0-5.26-5.67c-2-1.75-4-2.2-6.37-.77-1.84,1.13-3.69,2.26-5.56,3.34-1.47.85-1.68,1.49-.05,2.55a18.11,18.11,0,0,1,8.27,13.32c1,7.12.84,14.28,1.19,21.42.38,7.72-.35,15.44.07,23.16.1,1.82.67,1.92,2.07,1.35a11.62,11.62,0,0,0,6.41-6.32,42.45,42.45,0,0,0,3.56-17c.06-7.74,0-15.49.05-23.24,0-3.18.4-6.4,3.18-8.59a29.53,29.53,0,0,1,8.89-5q8.44-2.82,13.43,4.62a30.17,30.17,0,0,1,4.45,10.78,122.52,122.52,0,0,1,1.47,41c-.34,2.62.06,3,2.59,2.11C359.08,174.56,362.2,172.32,365.87,169.79Z"/><path class="cls-4" d="M475.45,180.22c-5.07,0-10-.73-14.27-3.65-6.05-4.1-8-10.76-4.79-16.49,1.85-3.35,4.87-5.11,8.36-6.29,1.33-.45,1.58.55,2.06,1.25a39.85,39.85,0,0,0,11.89,12,20.63,20.63,0,0,0,4.72,2.24c3.57,1.09,7.11,1.57,10-1.46,3.16-3.29,4.46-7.22,3.14-11.7-2-6.73-7.67-10.9-14.69-11.51-6-.52-12-.19-17.92-1.36a11.52,11.52,0,0,1-9.16-7.52c-4.25-10.71-1.4-19.49,8.64-25.72,6.92-4.29,14.7-6.07,22.62-7.35a39.08,39.08,0,0,1,10.9-.49c5.68.69,9.25,4.47,9,9.44-.23,4.67-7,9.82-11.59,8.81a5.29,5.29,0,0,1-3.52-2.58c-.34-.57-.61-1.18-.91-1.77-3.22-6.3-9.28-8.2-15.59-4.88-3.61,1.9-5.91,8.18-4.41,12,.84,2.13,2.78,2.8,4.67,3.4,5,1.62,10.29,1.88,15.48,2.58,2.8.37,5.57,1,8.38,1.33,9.24,1.11,17.29,11.72,14.35,23.43-2.78,11.1-10,17.69-19.8,22.25C486.12,179.33,481.74,180.26,475.45,180.22Zm-5-70.06c-8.33,1.19-15.94,10.9-14.37,19,1.82,9.37,3.83,10.84,11.72,11.55,4.63.42,9.29.82,13.94.88,9.68.11,14.93,6.57,17.37,12.75,3.14,7.93-1.89,17.53-9.8,18.56-5.28.68-9.91-1.61-14.11-4.68a44,44,0,0,1-9.62-9.73c-.53-.72-.88-1.47-2.16-1a8.93,8.93,0,0,0-4.6,12.05c2.16,4.09,5.74,6.16,10.07,7,10.21,2.11,19.35-.76,28.08-6a26.87,26.87,0,0,0,13.27-19.24A15.47,15.47,0,0,0,499,133.61a90.81,90.81,0,0,0-12.8-2,54.56,54.56,0,0,1-14.13-2.9,7.7,7.7,0,0,1-5.37-6.58,15.79,15.79,0,0,1,3.71-12,.59.59,0,0,0,.17-.1s0-.08,0-.12Zm12-3.6c5.87.47,8.68,4.3,10.65,9.09a2.93,2.93,0,0,0,2.24,1.83c2.79.5,7.53-3.45,7.63-6.3.1-3.13-2.1-5.42-5.78-6.05C492.19,104.29,487.4,105.47,482.4,106.56Z"/><path class="cls-4" d="M214.42,164.1c3.68-10,12.29-14.19,21.2-17.94,5.51-2.31,11.27-4,16.66-6.59,6.5-3.12,8.3-5.66,4.44-14.1-2.2-4.8-10.14-9-15.28-8.26a16.82,16.82,0,0,0-7.46,3.08c.47.23.71.37,1,.47,1.8.75,3.81,1.51,3.86,3.77s-2.07,3-3.72,3.92a15.65,15.65,0,0,1-12,1.7,10.83,10.83,0,0,1-7.07-5.9,6.81,6.81,0,0,1,.77-7.53,12.78,12.78,0,0,1,4-3.41c10.52-5.78,21.71-8.93,33.76-7.63A44,44,0,0,1,273.89,113a12.48,12.48,0,0,1,6.1,11.51c-.22,10.25-.07,20.5-.06,30.75,0,6.28,1.9,9,7.8,11.21,1.79.66,3.66,1.09,5.46,1.71,1.42.49,2.82,1,3.08,2.87a4.32,4.32,0,0,1-1.89,4.08c-5.46,4.66-11.65,6-18.63,4.31A28.86,28.86,0,0,1,264,173.63c-.51-.42-1-.88-1.52-1.29-3.33-2.6-4-2.63-7.36-.06-4.38,3.34-8.74,6.7-14.39,7.62a42.4,42.4,0,0,1-16.87-.48c-7.32-1.78-10.18-5.93-9.55-13.43l.15-2Zm62.5-24.73c0-5.25-.12-10.5.05-15.74a8.61,8.61,0,0,0-3.19-7,23.17,23.17,0,0,0-4.56-3c-10.75-5.8-21.91-6.76-33.57-3.22-5.28,1.61-10.55,3.16-15,6.59-3,2.36-3.21,5.07-.63,7.91,2.92,3.21,7.76,3.77,12.72,1.43.88-.42,2.27-.68,2.39-1.6.16-1.23-1.42-1.08-2.21-1.55-2.79-1.67-2.95-4.21-.1-5.77,4-2.22,8.17-3.91,13.06-2.83,7.68,1.7,13.88,7.43,15.34,14.69,1.11,5.51-.13,8.43-4.86,11.41a60.32,60.32,0,0,1-10.88,5c-7.14,2.72-14.51,4.93-20.7,9.7-3,2.33-5.69,4.88-7,8.57-2.05,5.82-.1,10.75,5.4,12.21,10,2.63,19.64,2.44,28.1-4.64a33.63,33.63,0,0,1,4.24-3.07,5.77,5.77,0,0,1,6.79.21,33,33,0,0,1,3,2.23c4.89,4.38,10.65,6.24,17.15,6.31,4.09,0,7-2.28,10-4.45,1-.68.84-1.25-.38-1.65-2.77-.91-5.5-1.89-8.23-2.91a8.6,8.6,0,0,1-5.12-4.83,20.26,20.26,0,0,1-1.91-8.44C277,149.7,276.92,144.54,276.92,139.37Z"/><path class="cls-4" d="M669.69,120.28c2.12,1.16,4.76,1.46,4.75,4.24s-2.63,3.44-4.53,4.41c-5.72,2.9-12,2.21-15.82-1.52-4.56-4.46-4.17-9.53,1.09-13.27,4.33-3.07,9.27-4.78,14.3-6.32,12.39-3.81,24.42-3.36,36,2.73A33.94,33.94,0,0,1,711,114a11.59,11.59,0,0,1,4.67,9.71c-.1,10.33,0,20.66,0,31a19.35,19.35,0,0,0,.24,3.23c.67,4.06,2.46,7.18,6.83,8.25,2,.49,3.94,1.27,5.91,1.94,1.49.51,3.07.89,3.31,2.9s-.77,3.24-2.2,4.43c-5.41,4.49-11.49,5.58-18.26,4A29.51,29.51,0,0,1,699,173c-4.08-3.45-4.83-3.63-8.92-.07-8.85,7.74-19.09,8.8-30,6.59-8.66-1.76-12.25-8.63-9.19-17a19.3,19.3,0,0,1,6.41-8.44c5.46-4.37,11.68-7.23,18.23-9.56a91.6,91.6,0,0,0,13.81-5.65c5.08-2.8,6-4.92,4.45-10.41-1.72-6.3-10-12.13-16.52-11.29A17.39,17.39,0,0,0,669.69,120.28Zm1.58,4.13a29.55,29.55,0,0,1-3.3-1.7c-2-1.33-2.1-3.39-.19-4.74,3.1-2.17,6.62-3.87,10.41-3.74,6.66.23,12.58,3,16.07,8.68,5.22,8.55,4.47,15-4.75,19.26-4.53,2.1-9.19,3.87-13.89,5.52a55.09,55.09,0,0,0-16.45,8.71,16.21,16.21,0,0,0-6,8.67c-1.44,5.64,1.05,10,6.68,11.4a39.18,39.18,0,0,0,6.66,1c6,.41,11.83-.06,17-3.55,1.93-1.3,3.76-2.74,5.62-4.14,4.15-3.12,6.72-3.11,10.76.1,1.11.88,2.14,1.87,3.29,2.69,6.16,4.39,16.59,7.28,24.09,1,.59-.5,1.75-.69,1.5-1.74s-1.31-.88-2.06-1.15c-2.34-.86-4.71-1.64-7-2.51a9.27,9.27,0,0,1-5.56-5.72,20,20,0,0,1-1.36-7.31c0-10.32,0-20.65,0-31,0-3.15-.95-5.83-3.48-7.63-7.67-5.41-16.17-8.62-25.65-8.2a61.91,61.91,0,0,0-18,3.87,30.49,30.49,0,0,0-9.46,5c-2.93,2.44-3.05,4.87-.5,7.71C659.24,128.74,666.29,128.63,671.27,124.41Z"/><path class="cls-3" d="M214.42,164.1l.05-.1c-7.58,8.72-17.89,12.09-28.63,14.66-1.9.46-2.63-.3-2.8-2q-.12-1.25-.12-2.49,0-34.72,0-69.45c0-8.74.25-17.48.41-26.22A6.88,6.88,0,0,0,181.4,74a79.56,79.56,0,0,0-7.15-7.31c-2.25-2.19-2.1-3.28.71-4.62a121.42,121.42,0,0,1,21.13-7.4,12.72,12.72,0,0,1,2.23-.29c2-.16,3.2.52,3.25,2.73s.3,4.16.34,6.23c.57,32.48-.1,64.95,0,97.43v3.12c2.4-1.13,4.55-2.27,6.8-3.16C212.16,159.39,213.89,160.47,214.42,164.1Zm-4.23-.73c-3.9,1.37-7.26,3.86-11.28,5.55v-3.28c-.14-35.16.74-70.32,0-105.48,0-2.81-.31-3.07-3-2.35a136.93,136.93,0,0,0-17,5.73c-2.51,1-2.51,1.08-.48,3l1.25,1.22c4.42,4.11,6.74,8.49,6.6,15.22-.6,29.57-.32,59.15-.37,88.73,0,.59.06,1.17,0,1.75-.13,1.52.57,1.94,1.94,1.55,2.4-.68,4.84-1.25,7.2-2a40.26,40.26,0,0,0,15.51-9.22l.21-.39Z"/><path class="cls-4" d="M757.69,109.6v51.7c0,2.79,0,2.78,2.46,1.53a46.24,46.24,0,0,1,5.21-2.38,3.39,3.39,0,0,1,4.2,1.2c1,1.41.37,2.91-.79,4a44.81,44.81,0,0,1-17.69,10.39c-2.91,1-5.9,1.69-8.88,2.45-2.72.68-3.28.27-3.32-2.53-.12-7.91-.27-15.82-.25-23.73,0-23.81.06-47.63.41-71.44a11.36,11.36,0,0,0-3.6-8.8c-2-2-4-4-6-6-1.25-1.3-1.52-2.54.49-3.5a97.78,97.78,0,0,1,23.26-8c3.4-.67,4.08.17,4.26,3.59C758.36,75.3,757.74,92.45,757.69,109.6ZM754.9,169a8.85,8.85,0,0,1-.19-1.1q.09-48.1.2-96.2c0-4-.2-8-.37-12-.08-2-.84-2.47-2.59-2A157.08,157.08,0,0,0,733.8,63.9c-1.12.46-1.52.94-.43,1.89.76.65,1.41,1.43,2.16,2.07,4.71,4,6.75,8.75,6.55,15.28-.57,19.22-.4,38.46-.5,57.7-.06,10.66-.19,21.32.19,32,0,1.15-.32,2.81,1.84,2.23,5.55-1.49,11.15-2.88,16-6.12,2.44-1.62,5.15-3,7.35-5.93C762.41,164.64,758.88,167,754.9,169Z"/><path class="cls-4" d="M380.93,146.67c.29-5.54.78-11.92,2.65-18.11,3.83-12.73,12.9-19,25.6-20.93.58-.09,1.17-.09,1.75-.18,7.52-1.17,14.26.46,19.81,5.86,2.39,2.32,4.69,3.53,7.73,1.17a4.77,4.77,0,0,1,2.12-.67,3,3,0,0,1,3.55,2.06,2.81,2.81,0,0,1-1.19,3.84,149,149,0,0,1-14.13,7.9c-8.27,4.1-16.65,8-24.37,13.11-5.26,3.47-5.9,5.08-4.57,11.22,2.28,10.62,10.06,16.83,20.82,16.69,2.9,0,5.29-1.34,7.59-2.85,2.57-1.68,5-3.59,7.62-5.2,2.86-1.75,4.61-1.07,5.94,1.92a2,2,0,0,1-.42,2.61c-2.75,2.78-5.39,5.67-8.09,8.5a4.14,4.14,0,0,1-1.12,1c-6.72,3.12-13.48,6.42-21,6.94-9.72.67-17.47-3.58-23.25-11.24C383,163.6,381.09,155.81,380.93,146.67ZM440.74,117c-.33.06-.73,0-1,.2-4.35,3.36-7.85,1.52-11.13-1.77-.35-.35-.8-.6-1.17-.93a16.76,16.76,0,0,0-12.65-4.3c-1.91.13-3.83.2-5.71.5C398,112.4,389.92,117.8,386.56,129a69.49,69.49,0,0,0-2.45,14.23c-.76,9,.72,17.49,6.06,24.93,4.85,6.75,11.5,10.62,20,10.37,7.31-.21,14-3.13,20.22-6.56,3.48-1.92,6-5.52,8.82-9.15a4.29,4.29,0,0,0-3.12,1.15c-2.21,1.5-4.33,3.12-6.56,4.57a16.57,16.57,0,0,1-8.84,3.06c-11.29.19-20-6.25-23.21-17.17-2.56-8.7-1.3-12.07,6.38-16.91,2.18-1.38,4.4-2.72,6.68-3.91,7.09-3.67,14.25-7.24,21.34-10.91a58,58,0,0,0,9.13-5.57l.17-.32Z"/><path class="cls-5" d="M53.92,64.62c3.88.07,7.41,1.07,11,1.72,6.79,1.25,13.6,2.3,20.44,3.23,5.75.77,9.56-2.6,13.59-5.67s7.66-6.67,12.54-7.52C131.65,52.85,148.05,54.7,162,74c4.28,5.93,6.1,12.69,6.32,19.93.06,2,0,4,0,6,.29,22.76-12.25,37.31-30.79,47.92-3.71,2.12-7.94,2.65-12.28,2.84-8.17.36-16-1.2-23.9-2.94-3.66-.81-6.08.79-6.19,4.45-.17,5.57-.19,11.17.08,16.74.21,4.51,1.7,5.65,6.16,5.66,8.5,0,17-.08,25.5,0a127.86,127.86,0,0,1,23.8,2.51,6.33,6.33,0,0,1,3.56,1.57,2.38,2.38,0,0,1-2.09.36c-6.53-.7-13.05-1.45-19.57-2.17a31,31,0,0,0-3.47-.28c-12.25,0-24.5.1-36.75,0-8.87-.11-17.59,1.13-26.33,2.27a63.93,63.93,0,0,1-6.48.26c-.65,0-1.41.08-1.48-.9s.62-1.13,1.29-1.21c2.8-.3,5.6-.6,8.41-.8,1.74-.12,3.5-.05,5.25-.09,4-.09,5.93-1.41,7.35-5.17,1.63-4.29,1.77-8.82,1.81-13.3.11-12.41.56-24.86-.09-37.24-.76-14.43-1.92-28.87-4.64-43.14-1-5-3.55-7.63-8.33-8.61s-9.24-2-13.87-3A1.53,1.53,0,0,1,53.92,64.62Zm40.43,35c.26,6.94-.25,15.35.48,23.76.65,7.46,3.79,12.62,11,15.32a170.15,170.15,0,0,0,20.88,6.68c8.18,1.91,13.53-.35,18-7.5a60.9,60.9,0,0,0,8-21.12c2.54-13,1.33-25.53-5.44-37.17-8.43-14.48-23.41-19.93-37.72-18-7,.95-16.21,9.9-15.34,18.09C94.88,85.74,94.35,92,94.35,99.58Z"/><path class="cls-5" d="M628.42,150.12A131.73,131.73,0,0,1,619,169.61a48.8,48.8,0,0,1-3.89,5.79c-2.06,2.64-3.9,2.8-6.69.9-2.2-1.5-3.5-3.76-5-5.89-4.94-7.26-8.22-15.41-12.35-23.11a35,35,0,0,0-3.35-5.24c-1.19-1.5-2-1.75-3.25.16-4.48,7-9.1,13.95-13.71,20.89a107.85,107.85,0,0,1-9,12c-3.07,3.44-4.57,3.48-7.53-.15a82.47,82.47,0,0,1-7.37-11.55c-4.55-8-9-16.07-13.62-24.08a54.56,54.56,0,0,0-8.86-12c-2.72-2.69-5.26-5.56-7.91-8.33-1.15-1.21-1.36-2.25.31-3.15a7.43,7.43,0,0,0,.82-.56c7.32-5,11.8-4.19,16.85,3s8.73,14.95,12.21,22.89c3.87,8.83,9.53,16.56,15,24.42,1.37,2,2.53,1.94,4.33.29a38.71,38.71,0,0,0,5.36-6.56c4.11-5.87,7.51-12.17,11.09-18.37,4.14-7.17.24-14.07-3.63-18.06a38.42,38.42,0,0,0-6.39-4.78c-3.35-2.25-3.4-4.41-.28-6.91a10,10,0,0,1,10.32-.6,20.18,20.18,0,0,1,5.95,6.32c5,7.45,8.49,15.64,12.13,23.76,2.69,6,5.4,12,8.58,17.76a13.64,13.64,0,0,0,4.28,5.13c2.69,1.74,5,1.43,7.08-.93,2.77-3.07,4.49-6.79,6.41-10.38.41-.76.46-1.82,1.52-2.13Z"/><path class="cls-5" d="M639.48,125.14a23.07,23.07,0,0,0-5.42-10.47c-2.45-2.93-2.32-3.14,1.32-4.2,2.53-.74,5-1.74,7.62,0,.75.51,1,1,.74,1.82C642.31,116.58,640.9,120.86,639.48,125.14Z"/><path class="cls-5" d="M628.42,150.13c0-2.06,1.22-3.61,2.26-5.23a12.64,12.64,0,0,1-2.26,5.22Z"/><path class="cls-5" d="M631.4,143.3a5.27,5.27,0,0,1,1.34-3.1C632.81,141.43,632.3,142.15,631.4,143.3Z"/><path class="cls-5" d="M634.05,137.93l-.43.51a1.18,1.18,0,0,1-.14-.41c0-.14.14-.27.22-.4Z"/><polygon class="cls-5" points="633.17 139.25 633.23 139.43 633.07 139.41 633.17 139.25"/><polygon class="cls-5" points="631.14 144 631.08 143.82 631.24 143.84 631.14 144"/><path class="cls-5" d="M772.45,64.46,792,58.8c1.23-.36,1.94-.08,1.89,1.37,0,1.16,0,2.33,0,3.49.21,24.33-.34,48.64-.5,73,0,1,0,2,0,3.55,3.67-2.33,7-4.43,10.32-6.55,11.13-7.12,22-14.63,33.41-21.35A21.16,21.16,0,0,1,840,110.8a1.93,1.93,0,0,1,2.63.75c.57,1.14-.67,1.34-1.27,1.75q-11.76,8-23.55,16c-.14.09-.29.17-.42.27-4.58,3.26-4.71,3.72-1,7.67a31,31,0,0,1,6,10.22,80.72,80.72,0,0,0,11,19.22,9.56,9.56,0,0,0,3.44,2.83c2.08,1.05,4,1,5.71-.77.92-1,1.75-2,2.72-2.92s2-2.47,3.3-1.3c1.51,1.36-.19,2.57-1.05,3.52a16.64,16.64,0,0,1-3.28,2.68,33.69,33.69,0,0,1-11.1,5c-4.68,1-6.55.37-8.94-3.67-5.46-9.24-10.8-18.55-16.24-27.8-1.25-2.11-2.34-4.46-5.39-4.61-3.92-.2-6.58,1.82-7.62,6.06a64.08,64.08,0,0,0-1.37,13.88c-.08,3.33-.13,6.67,0,10a3.85,3.85,0,0,1-2.51,4.09c-2.12,1-4.19,2-6.28,3-1.55.75-2.14.16-2-1.45,0-.67,0-1.33,0-2,0-24.24.1-48.48,0-72.72-.06-8.57.72-17.13-.15-25.71-.28-2.74-1.21-4.77-3.48-6.22C777.07,67.31,775,66.07,772.45,64.46Z"/><path class="cls-5" d="M365.87,169.79c-3.67,2.53-6.79,4.77-10.41,6.11-2.53.93-2.93.51-2.59-2.11a122.52,122.52,0,0,0-1.47-41A30.17,30.17,0,0,0,347,122.05q-5-7.42-13.43-4.62a29.53,29.53,0,0,0-8.89,5c-2.78,2.19-3.14,5.41-3.18,8.59-.1,7.75,0,15.5-.05,23.24a42.45,42.45,0,0,1-3.56,17,11.62,11.62,0,0,1-6.41,6.32c-1.4.57-2,.47-2.07-1.35-.42-7.72.31-15.44-.07-23.16-.35-7.14-.15-14.3-1.19-21.42a18.11,18.11,0,0,0-8.27-13.32c-1.63-1.06-1.42-1.7.05-2.55,1.87-1.08,3.72-2.21,5.56-3.34,2.33-1.43,4.4-1,6.37.77a64.08,64.08,0,0,1,5.26,5.67,10.62,10.62,0,0,0,1.94,1.91c1.34.92,2.31,1.21,4.2.07,6.53-4,13.18-7.87,20.63-9.91,6.77-1.85,13.64,1.42,17.28,7.93,2.45,4.38,3.26,9.21,3.79,14.11.9,8.46-.39,16.76-1.68,25.07-.38,2.46-.65,4.94-1,7.41S362.7,169.54,365.87,169.79Z"/><path class="cls-5" d="M470.4,110.12a15.79,15.79,0,0,0-3.71,12,7.7,7.7,0,0,0,5.37,6.58,54.56,54.56,0,0,0,14.13,2.9,90.81,90.81,0,0,1,12.8,2,15.47,15.47,0,0,1,11.24,17.78A26.87,26.87,0,0,1,497,170.63c-8.73,5.21-17.87,8.08-28.08,6-4.33-.89-7.91-3-10.07-7a8.93,8.93,0,0,1,4.6-12.05c1.28-.49,1.63.26,2.16,1a44,44,0,0,0,9.62,9.73c4.2,3.07,8.83,5.36,14.11,4.68,7.91-1,12.94-10.63,9.8-18.56-2.44-6.18-7.69-12.64-17.37-12.75-4.65-.06-9.31-.46-13.94-.88-7.89-.71-9.9-2.18-11.72-11.55-1.57-8.09,6-17.8,14.37-19Z"/><path class="cls-5" d="M482.4,106.56c5-1.09,9.79-2.27,14.74-1.43,3.68.63,5.88,2.92,5.78,6.05-.1,2.85-4.84,6.8-7.63,6.3a2.93,2.93,0,0,1-2.24-1.83C491.08,110.86,488.27,107,482.4,106.56Z"/><path class="cls-5" d="M470.44,110.16l.13-.26s0,.1,0,.12a.59.59,0,0,1-.17.1Z"/><path class="cls-5" d="M276.92,139.37c0,5.17.06,10.33,0,15.5a20.26,20.26,0,0,0,1.91,8.44,8.6,8.6,0,0,0,5.12,4.83c2.73,1,5.46,2,8.23,2.91,1.22.4,1.34,1,.38,1.65-3,2.17-6,4.5-10,4.45-6.5-.07-12.26-1.93-17.15-6.31a33,33,0,0,0-3-2.23,5.77,5.77,0,0,0-6.79-.21,33.63,33.63,0,0,0-4.24,3.07c-8.46,7.08-18.13,7.27-28.1,4.64-5.5-1.46-7.45-6.39-5.4-12.21,1.3-3.69,4-6.24,7-8.57,6.19-4.77,13.56-7,20.7-9.7a60.32,60.32,0,0,0,10.88-5c4.73-3,6-5.9,4.86-11.41-1.46-7.26-7.66-13-15.34-14.69-4.89-1.08-9,.61-13.06,2.83-2.85,1.56-2.69,4.1.1,5.77.79.47,2.37.32,2.21,1.55-.12.92-1.51,1.18-2.39,1.6-5,2.34-9.8,1.78-12.72-1.43-2.58-2.84-2.42-5.55.63-7.91,4.43-3.43,9.7-5,15-6.59,11.66-3.54,22.82-2.58,33.57,3.22a23.17,23.17,0,0,1,4.56,3,8.61,8.61,0,0,1,3.19,7C276.8,128.87,276.92,134.12,276.92,139.37Zm-34.46,32.41c14.16-.92,21.43-15.8,17.88-27.86-.42-1.44-1.3-1.35-2.51-.86a103.79,103.79,0,0,0-17.33,8.81,28,28,0,0,0-6.16,5,7.33,7.33,0,0,0-2,4.74C232.23,167.83,236.15,171.79,242.46,171.78Z"/><path class="cls-5" d="M671.27,124.41c-5,4.22-12,4.33-15.54.42-2.55-2.84-2.43-5.27.5-7.71a30.49,30.49,0,0,1,9.46-5,61.91,61.91,0,0,1,18-3.87c9.48-.42,18,2.79,25.65,8.2,2.53,1.8,3.5,4.48,3.48,7.63-.07,10.33,0,20.66,0,31a20,20,0,0,0,1.36,7.31,9.27,9.27,0,0,0,5.56,5.72c2.33.87,4.7,1.65,7,2.51.75.27,1.83.21,2.06,1.15s-.91,1.24-1.5,1.74c-7.5,6.29-17.93,3.4-24.09-1-1.15-.82-2.18-1.81-3.29-2.69-4-3.21-6.61-3.22-10.76-.1-1.86,1.4-3.69,2.84-5.62,4.14-5.18,3.49-11,4-17,3.55a39.18,39.18,0,0,1-6.66-1c-5.63-1.39-8.12-5.76-6.68-11.4a16.21,16.21,0,0,1,6-8.67,55.09,55.09,0,0,1,16.45-8.71c4.7-1.65,9.36-3.42,13.89-5.52,9.22-4.28,10-10.71,4.75-19.26-3.49-5.72-9.41-8.45-16.07-8.68-3.79-.13-7.31,1.57-10.41,3.74-1.91,1.35-1.76,3.41.19,4.74A29.55,29.55,0,0,0,671.27,124.41ZM697,149a14.52,14.52,0,0,0-1-5.13c-.35-.95-.82-1.37-1.86-.95-8.38,3.36-16.61,7.06-23.33,13.24-5.06,4.64-3,12.95,3.55,15.1a12.92,12.92,0,0,0,9.5-.63C692.89,166.54,696.79,159.29,697,149Z"/><path class="cls-5" d="M210.57,163.78A40.26,40.26,0,0,1,195.06,173c-2.36.79-4.8,1.36-7.2,2-1.37.39-2.07,0-1.94-1.55.05-.58,0-1.16,0-1.75.05-29.58-.23-59.16.37-88.73.14-6.73-2.18-11.11-6.6-15.22l-1.25-1.22c-2-1.95-2-2,.48-3a136.93,136.93,0,0,1,17-5.73c2.7-.72,3-.46,3,2.35.73,35.16-.15,70.32,0,105.48v3.28c4-1.69,7.38-4.18,11.28-5.55Z"/><path class="cls-5" d="M210.19,163.37l.59,0-.21.39Z"/><path class="cls-5" d="M754.9,169c4-2,7.51-4.34,12.06-6-2.2,3-4.91,4.31-7.35,5.93-4.85,3.24-10.45,4.63-16,6.12-2.16.58-1.8-1.08-1.84-2.23-.38-10.66-.25-21.32-.19-32,.1-19.24-.07-38.48.5-57.7.2-6.53-1.84-11.26-6.55-15.28-.75-.64-1.4-1.42-2.16-2.07-1.09-1-.69-1.43.43-1.89A157.08,157.08,0,0,1,752,57.71c1.75-.48,2.51,0,2.59,2,.17,4,.38,8,.37,12q-.12,48.1-.2,96.2A8.85,8.85,0,0,0,754.9,169Z"/><path class="cls-5" d="M441,117.17a58,58,0,0,1-9.13,5.57c-7.09,3.67-14.25,7.24-21.34,10.91-2.28,1.19-4.5,2.53-6.68,3.91-7.68,4.84-8.94,8.21-6.38,16.91,3.22,10.92,11.92,17.36,23.21,17.17a16.57,16.57,0,0,0,8.84-3.06c2.23-1.45,4.35-3.07,6.56-4.57a4.29,4.29,0,0,1,3.12-1.15c-2.8,3.63-5.34,7.23-8.82,9.15-6.23,3.43-12.91,6.35-20.22,6.56-8.46.25-15.11-3.62-20-10.37-5.34-7.44-6.82-15.95-6.06-24.93A69.49,69.49,0,0,1,386.56,129c3.36-11.24,11.47-16.64,22.55-18.39,1.88-.3,3.8-.37,5.71-.5a16.76,16.76,0,0,1,12.65,4.3c.37.33.82.58,1.17.93,3.28,3.29,6.78,5.13,11.13,1.77.24-.18.64-.14,1-.2A2.39,2.39,0,0,0,441,117.17Zm-32-3.62c-4,.26-6.29,2.83-7.78,6.15a59.89,59.89,0,0,0-4.35,15.57c-.42,2.78-.21,3,2.53,2a126.61,126.61,0,0,0,19.42-9.62c2.57-1.49,2.82-2.62,1-5a45,45,0,0,0-8-8.15A3.77,3.77,0,0,0,409,113.55Z"/><path class="cls-5" d="M440.74,117l.4-.1-.17.32A2.39,2.39,0,0,1,440.74,117Z"/><path class="cls-4" d="M94.35,99.58c0-7.62.53-13.84-.13-19.93-.87-8.19,8.3-17.14,15.34-18.09,14.31-1.94,29.29,3.51,37.72,18,6.77,11.64,8,24.14,5.44,37.17a60.9,60.9,0,0,1-8,21.12c-4.49,7.15-9.84,9.41-18,7.5a170.15,170.15,0,0,1-20.88-6.68c-7.23-2.7-10.37-7.86-11-15.32C94.1,114.93,94.61,106.52,94.35,99.58Zm2.93-1.21c0,1.84,0,3.67,0,5.5.08,7.74-.33,15.49,1.12,23.17a9.51,9.51,0,0,0,5.23,7.12c7.72,4,16,6.45,24.41,8.4,6.55,1.52,10.46-.41,14.1-6.15a57.77,57.77,0,0,0,7.54-19.66c2.5-12.31,1.58-24.18-4.72-35.28-8.5-15-23.44-18.76-35.49-16.87-5.5.86-13,8.83-12.34,15S97.28,92.12,97.28,98.37Z"/><path class="cls-3" d="M242.46,171.78c-6.31,0-10.23-3.95-10.08-10.12a7.33,7.33,0,0,1,2-4.74,28,28,0,0,1,6.16-5,103.79,103.79,0,0,1,17.33-8.81c1.21-.49,2.09-.58,2.51.86C263.89,156,256.62,170.86,242.46,171.78Zm15.82-22.11c.07-3.44-.13-3.56-3.35-2.15-.61.27-1.23.5-1.82.8-5.63,2.86-11.46,5.42-16,10.05-3.4,3.51-1.87,8.81,2.84,10.18a9.77,9.77,0,0,0,6.81-.64C254.78,164.45,258.16,158.09,258.28,149.67Z"/><path class="cls-3" d="M697,149c-.17,10.34-4.07,17.59-13.09,21.63a12.92,12.92,0,0,1-9.5.63c-6.55-2.15-8.61-10.46-3.55-15.1,6.72-6.18,14.95-9.88,23.33-13.24,1-.42,1.51,0,1.86.95A14.52,14.52,0,0,1,697,149Zm-3.05,1.17c0-.34,0-.67,0-1,0-3,0-3-2.86-1.79a84.51,84.51,0,0,0-10.21,5.21,48.82,48.82,0,0,0-8.11,5.78c-3.25,3-1.51,9.1,2.79,10.22a10.47,10.47,0,0,0,7.06-.66C690.32,164.48,693.81,158.38,693.91,150.12Z"/><path class="cls-3" d="M409,113.55a3.77,3.77,0,0,1,2.79.9,45,45,0,0,1,8,8.15c1.81,2.39,1.56,3.52-1,5a126.61,126.61,0,0,1-19.42,9.62c-2.74,1-2.95.82-2.53-2a59.89,59.89,0,0,1,4.35-15.57C402.68,116.38,405,113.81,409,113.55Zm-8.86,20.23c5.87-2.59,11.1-5.26,16.24-8.11,1.18-.65,1.35-1.29.4-2.25-1.52-1.53-3-3.11-4.54-4.62-3.25-3.17-5.54-2.91-7.74,1.08C402.17,124,401.16,128.65,400.11,133.78Z"/><path class="cls-2" d="M97.28,98.37c0-6.25.52-12.55-.14-18.73s6.84-14.18,12.34-15c12-1.89,27,1.87,35.49,16.87,6.3,11.1,7.22,23,4.72,35.28a57.77,57.77,0,0,1-7.54,19.66c-3.64,5.74-7.55,7.67-14.1,6.15-8.41-1.95-16.69-4.37-24.41-8.4A9.51,9.51,0,0,1,98.41,127c-1.45-7.68-1-15.43-1.12-23.17C97.26,102,97.28,100.21,97.28,98.37Z"/><path class="cls-2" d="M258.28,149.67c-.12,8.42-3.5,14.78-11.47,18.24a9.77,9.77,0,0,1-6.81.64c-4.71-1.37-6.24-6.67-2.84-10.18,4.49-4.63,10.32-7.19,16-10.05.59-.3,1.21-.53,1.82-.8C258.15,146.11,258.35,146.23,258.28,149.67Z"/><path class="cls-2" d="M693.91,150.12c-.1,8.26-3.59,14.36-11.33,17.76a10.47,10.47,0,0,1-7.06.66c-4.3-1.12-6-7.21-2.79-10.22a48.82,48.82,0,0,1,8.11-5.78,84.51,84.51,0,0,1,10.21-5.21c2.84-1.23,2.85-1.21,2.86,1.79C693.92,149.45,693.91,149.78,693.91,150.12Z"/><path class="cls-2" d="M400.11,133.78c1.05-5.13,2.06-9.74,4.36-13.9,2.2-4,4.49-4.25,7.74-1.08,1.55,1.51,3,3.09,4.54,4.62.95,1,.78,1.6-.4,2.25C411.21,128.52,406,131.19,400.11,133.78Z"/></g></g></svg>