<svg xmlns="http://www.w3.org/2000/svg" viewBox="0 0 99.13 99.13"><defs><style>.cls-1{fill:#fff;stroke:#937b2f;stroke-miterlimit:10;stroke-width:3px;}.cls-2{fill:#8f7b3f;}.cls-3{fill:#010101;}</style></defs><title>pressure counter</title><g id="Layer_2" data-name="Layer 2"><g id="Layer_1-2" data-name="Layer 1"><circle class="cls-1" cx="49.56" cy="49.56" r="48.06"/><path class="cls-2" d="M47.25,74.6H17.46a1.88,1.88,0,0,1-1.34-.46.92.92,0,0,1-.06-1.41,5.67,5.67,0,0,1,.74-.64A54.12,54.12,0,0,0,26,63.29a88.27,88.27,0,0,0,7.67-10.76c1-1.56,1.71-3.22,2.54-4.84a36,36,0,0,0,2.87-8l.15-.59a1.17,1.17,0,0,1,1.59-1,5.21,5.21,0,0,1,1,.43,14.73,14.73,0,0,0,3.63.9,12.88,12.88,0,0,0,3.16.09,15.17,15.17,0,0,0,4.58-1.14A3.18,3.18,0,0,1,54.44,38a.92.92,0,0,1,.91.62A11.24,11.24,0,0,1,55.72,40c.19.82.4,1.64.66,2.45a40.31,40.31,0,0,0,1.74,4.38c.63,1.4,1.34,2.77,2.09,4.11.67,1.18,1.31,2.38,2,3.51a63.67,63.67,0,0,0,4.15,5.89c.18.22.35.46.53.69.9,1.18,1.87,2.32,2.85,3.45.85,1,1.71,1.93,2.63,2.83a40.1,40.1,0,0,0,3.26,3c.83.64,1.59,1.36,2.48,1.92a1.43,1.43,0,0,1,.66,1.4.83.83,0,0,1-.65.79,4.8,4.8,0,0,1-1.36.14H47.25Zm0-.67H77a4.61,4.61,0,0,0,.91-.1c.2,0,.24-.16.24-.32a.94.94,0,0,0-.5-.8,19.18,19.18,0,0,1-3-2.33,46.45,46.45,0,0,1-4.92-4.9,8.43,8.43,0,0,0-.65-.69c-.83-.86-1.5-1.85-2.3-2.74-.44-.49-.79-1.06-1.2-1.58-1.48-1.88-2.8-3.86-4.08-5.86-.67-1.06-1.26-2.16-1.88-3.25q-1.17-2.07-2.16-4.23a40.25,40.25,0,0,1-2-5.09c-.18-.61-.32-1.24-.49-1.86-.1-.34-.09-.71-.22-1.06s-.31-.55-.8-.38-.93.32-1.39.5a14.5,14.5,0,0,1-4,.91A13.41,13.41,0,0,1,45,40a14.41,14.41,0,0,1-2.9-.69c-.45-.19-.89-.4-1.34-.56s-.77,0-.9.48a41.75,41.75,0,0,1-1.4,5,57.34,57.34,0,0,1-3.93,8.17,84.49,84.49,0,0,1-5.74,8.55c-1.25,1.68-2.64,3.24-4,4.81a49.94,49.94,0,0,1-7.44,6.87,4.55,4.55,0,0,0-.75.63.27.27,0,0,0,0,.43,1.09,1.09,0,0,0,.81.3Z"/><path class="cls-2" d="M69.71,23.11a4.58,4.58,0,0,1-3.28-1.83,1.38,1.38,0,0,1-.14-.3c0-.08,0-.19-.14-.19s-.12.1-.16.17a8.42,8.42,0,0,1-.78,1.33A5.54,5.54,0,0,1,61,24.61a.71.71,0,0,0-.58.36A9.26,9.26,0,0,1,55,29.08a12.38,12.38,0,0,1-1.6.25A1.3,1.3,0,0,0,52.29,31,5.12,5.12,0,0,1,48,37.07,3.13,3.13,0,0,1,46.21,37a6,6,0,0,1-2.44-1.35,5.05,5.05,0,0,1-1.28-4.82.51.51,0,0,0-.18-.63,3,3,0,0,1-.54-.91c-.15-.27-.28-.55-.44-.82a4.84,4.84,0,0,1-.57-2.17,6.5,6.5,0,0,1,.76-3.51,6.47,6.47,0,0,1,1-1.26,6,6,0,0,0,1.78-3.76,3.53,3.53,0,0,1,.53-1.46,9.22,9.22,0,0,1,1.62-2.24,9.09,9.09,0,0,1,4.69-2.46,8.85,8.85,0,0,1,5.55.71,3.63,3.63,0,0,1,1.07.71,1,1,0,0,0,1.07.24,5.66,5.66,0,0,1,3.5,0,.48.48,0,0,0,.58-.18,4.45,4.45,0,0,1,4.71-1.49,4.36,4.36,0,0,1,3.13,2.76.64.64,0,0,0,.39.41,1.22,1.22,0,0,0,.27.09c1.56.25,2.79,2.42,2.83,3.68a4.36,4.36,0,0,1-2.51,4.11A4.45,4.45,0,0,1,69.71,23.11Zm-16.77-11a7.69,7.69,0,0,0-1.27.12A7.83,7.83,0,0,0,46.53,15a5.94,5.94,0,0,0-1.59,3.2,6.55,6.55,0,0,1-2.08,3.94,5.32,5.32,0,0,0-1.39,4.73,5.56,5.56,0,0,0,.78,1.92,4.1,4.1,0,0,0,.82,1.25.59.59,0,0,1,.13.57A9.18,9.18,0,0,0,43,31.88a4,4,0,0,0,.67,2.49,3.39,3.39,0,0,0,1.52,1.5c.21.09.43.17.64.27a3,3,0,0,0,1.85.33,4.49,4.49,0,0,0,3.25-1.87,4.22,4.22,0,0,0,.76-3.36,2,2,0,0,1,1.89-2.59,6,6,0,0,0,1.9-.38,8.71,8.71,0,0,0,4.45-3.66A1.28,1.28,0,0,1,61,24a4.84,4.84,0,0,0,3.07-1.36,6.45,6.45,0,0,0,1.35-2,.72.72,0,0,1,.65-.49.73.73,0,0,1,.74.45,2.27,2.27,0,0,0,.83,1,3.42,3.42,0,0,0,3.49.64,3.64,3.64,0,0,0,2.44-3.28,3.16,3.16,0,0,0-.68-2.16,2.71,2.71,0,0,0-1.42-1.18,4.31,4.31,0,0,1-.61-.19,1,1,0,0,1-.67-.63A3.57,3.57,0,0,0,68.85,13a3.77,3.77,0,0,0-3.12-.75,3.49,3.49,0,0,0-2.33,1.4.91.91,0,0,1-1.14.35,5,5,0,0,0-3.25,0,1.64,1.64,0,0,1-1.7-.42,3,3,0,0,0-.78-.54A9.07,9.07,0,0,0,52.94,12.1Z"/><path class="cls-3" d="M47.24,73.93H17.37a1.09,1.09,0,0,1-.81-.3.27.27,0,0,1,0-.43,4.55,4.55,0,0,1,.75-.63,49.94,49.94,0,0,0,7.44-6.87c1.39-1.57,2.78-3.13,4-4.81a84.49,84.49,0,0,0,5.74-8.55,57.34,57.34,0,0,0,3.93-8.17,41.75,41.75,0,0,0,1.4-5c.13-.52.36-.67.9-.48s.89.37,1.34.56A14.41,14.41,0,0,0,45,40a13.41,13.41,0,0,0,3.63.16,14.5,14.5,0,0,0,4-.91c.46-.18.92-.35,1.39-.5s.62-.09.8.38.12.72.22,1.06c.17.62.31,1.25.49,1.86a40.25,40.25,0,0,0,2,5.09q1,2.16,2.16,4.23c.62,1.09,1.21,2.19,1.88,3.25,1.28,2,2.6,4,4.08,5.86.41.52.76,1.09,1.2,1.58.8.89,1.47,1.88,2.3,2.74a8.43,8.43,0,0,1,.65.69,46.45,46.45,0,0,0,4.92,4.9,19.18,19.18,0,0,0,3,2.33.94.94,0,0,1,.5.8c0,.16,0,.28-.24.32a4.61,4.61,0,0,1-.91.1Z"/><path class="cls-3" d="M52.94,12.1a9.07,9.07,0,0,1,3.59.87,3,3,0,0,1,.78.54,1.64,1.64,0,0,0,1.7.42,5,5,0,0,1,3.25,0,.91.91,0,0,0,1.14-.35,3.49,3.49,0,0,1,2.33-1.4,3.77,3.77,0,0,1,3.12.75,3.57,3.57,0,0,1,1.35,1.82,1,1,0,0,0,.67.63,4.31,4.31,0,0,0,.61.19,2.71,2.71,0,0,1,1.42,1.18,3.16,3.16,0,0,1,.68,2.16,3.64,3.64,0,0,1-2.44,3.28,3.42,3.42,0,0,1-3.49-.64,2.27,2.27,0,0,1-.83-1,.73.73,0,0,0-.74-.45.72.72,0,0,0-.65.49,6.45,6.45,0,0,1-1.35,2A4.84,4.84,0,0,1,61,24a1.28,1.28,0,0,0-1.12.66,8.71,8.71,0,0,1-4.45,3.66,6,6,0,0,1-1.9.38,2,2,0,0,0-1.89,2.59,4.22,4.22,0,0,1-.76,3.36,4.49,4.49,0,0,1-3.25,1.87,3,3,0,0,1-1.85-.33c-.21-.1-.43-.18-.64-.27a3.39,3.39,0,0,1-1.52-1.5A4,4,0,0,1,43,31.88a9.18,9.18,0,0,1,.24-1.25.59.59,0,0,0-.13-.57,4.1,4.1,0,0,1-.82-1.25,5.56,5.56,0,0,1-.78-1.92,5.32,5.32,0,0,1,1.39-4.73,6.55,6.55,0,0,0,2.08-3.94A5.94,5.94,0,0,1,46.53,15a7.83,7.83,0,0,1,5.14-2.8A7.69,7.69,0,0,1,52.94,12.1Z"/></g></g></svg>