<svg xmlns="http://www.w3.org/2000/svg" viewBox="0 0 478.06 478.2"><defs><style>.cls-1{fill:#8f7a3c;}.cls-2{fill:#fffefe;}.cls-3{fill:#8e793c;}.cls-4{fill:#020201;}.cls-5{fill:#28230e;}</style></defs><title>scroll counter</title><g id="Layer_2" data-name="Layer 2"><g id="Layer_1-2" data-name="Layer 1"><path class="cls-1" d="M478.06,239.15c.55,130-104.95,239.15-239.14,239.05C105.79,478.09-.15,370.36,0,238.8S106.59-.2,239.52,0C373.15.2,478.66,109.12,478.06,239.15Zm-16.11,0C461.89,116.35,363.4,19.24,244.85,16.3,119.06,13.18,16.27,114.57,16.25,238.92c0,122.6,98.69,221,219,223C359.69,464,461.94,363.66,462,239.16Z"/><path class="cls-2" d="M462,239.16c0,124.5-102.26,224.85-226.72,222.76-120.29-2-219-100.4-219-223,0-124.35,102.81-225.74,228.6-222.62C363.4,19.24,461.89,116.35,462,239.16Zm-134.8,77.65c.08-24-2.24-42.6-7-60.92-2.66-10.29-5.06-20.65-6.82-31.15-.14-.81-.93-1.88.95-1.61,11.68,1.68,23.42,2.92,35,5.05,5.17.95,10.36,1.94,15.61,1,7.67-1.31,12.42-6.54,15.82-13,7.31-13.89,10.88-28.87,11.73-44.47A159.11,159.11,0,0,0,390,135c-2.43-13.54-6.44-26.49-14.31-38-5.47-8-12.79-13.27-22.32-15.2-4.72-1-9.51-1.53-14.29-2.2-13.76-1.93-27.53-3.8-41.29-5.73-13.5-1.89-27-3.84-40.49-5.75-12.42-1.77-24.85-3.5-37.27-5.27-7.81-1.11-15.65-2.1-23.43-3.43-5.82-1-11.34-.79-16.72,1.9A40.86,40.86,0,0,0,167.24,71c-8.34,9.6-13.49,20.9-17.26,32.92C145.17,119.22,142.8,135,141.8,151a221.74,221.74,0,0,0,4.38,61.82c2.72,12.4,6.17,24.64,8.31,37.18.27,1.6,1.42,3.71.47,4.68s-3.12-.07-4.75-.27q-18.56-2.37-37-5.38c-9.33-1.53-17,1-22.8,8.73A50.57,50.57,0,0,0,84,268.68C79.7,279,77.59,289.84,76.5,300.89A155.16,155.16,0,0,0,79,345.63c2.48,12.95,6.68,25.24,14.28,36.16,5.12,7.36,11.61,13,20.73,14.45,14.11,2.24,28.28,4.12,42.43,6.13l41,5.79q18.51,2.61,37,5.23c11,1.57,22.11,2.76,33,4.89,13.78,2.69,25.27-1,34.4-11.85A84.14,84.14,0,0,0,316,381.35C324.42,358.89,326.94,335.48,327.15,316.81Z"/><path class="cls-3" d="M327.15,316.81c-.21,18.67-2.73,42.08-11.12,64.54a84.14,84.14,0,0,1-14.17,25.08c-9.13,10.87-20.62,14.54-34.4,11.85-10.94-2.13-22-3.32-33-4.89q-18.49-2.64-37-5.23l-41-5.79c-14.15-2-28.32-3.89-42.43-6.13-9.12-1.44-15.61-7.09-20.73-14.45-7.6-10.92-11.8-23.21-14.28-36.16a155.16,155.16,0,0,1-2.47-44.74C77.59,289.84,79.7,279,84,268.68a50.57,50.57,0,0,1,6.41-10.95c5.78-7.72,13.47-10.26,22.8-8.73q18.47,3,37,5.38c1.63.2,3.78,1.27,4.75.27s-.2-3.08-.47-4.68c-2.14-12.54-5.59-24.78-8.31-37.18A221.74,221.74,0,0,1,141.8,151c1-16,3.37-31.75,8.18-47.08,3.77-12,8.92-23.32,17.26-32.92a40.86,40.86,0,0,1,12.61-9.66c5.38-2.69,10.9-2.9,16.72-1.9,7.78,1.33,15.62,2.32,23.43,3.43,12.42,1.77,24.85,3.5,37.27,5.27,13.5,1.91,27,3.86,40.49,5.75,13.76,1.93,27.53,3.8,41.29,5.73,4.78.67,9.57,1.25,14.29,2.2,9.53,1.93,16.85,7.22,22.32,15.2,7.87,11.5,11.88,24.45,14.31,38a159.11,159.11,0,0,1,2.54,36.77c-.85,15.6-4.42,30.58-11.73,44.47-3.4,6.46-8.15,11.69-15.82,13-5.25.9-10.44-.09-15.61-1-11.62-2.13-23.36-3.37-35-5.05-1.88-.27-1.09.8-.95,1.61,1.76,10.5,4.16,20.86,6.82,31.15C324.91,274.21,327.23,292.8,327.15,316.81ZM160.46,258.39c-.1-.11.11-.49-.29-.32l.32.29c-.37,1.81-2.23.4-3.28,1.64,1.92-.45,3.43.55,5.47.25Zm116,78.46c.48.65,1,.58,2.07,0h-2.1a15.28,15.28,0,0,1-3.68-3.75C272.18,336.78,272.46,337,276.48,336.85Zm-16.54-59.51,6.1-2c-3.08-1.86-4.69-.23-6.06,2.07-.1.08-.49.08-.09.31Zm7.13,134.42c-.12-.08-.31-.27-.36-.23-.33.19-.09.36.07.53,1.11,1.3-.2,1.29-1.32,1.67,3.18.09,5.8,1.34,8.64.93A32.74,32.74,0,0,1,267.07,411.76ZM256,407.35l.14.17-.16-.15a3.16,3.16,0,0,0-.29-.68c-6.29-7.87-10.09-16.95-13-26.51-5.54-18.42-7-37.19-5.36-56.31,1.39-16.23,4.49-31.83,15.19-44.88.94-1.15.59-1.44-.73-1.62-11.5-1.62-23-3.32-34.5-4.94-14.64-2.07-29.29-4.08-43.92-6.16q-30.69-4.38-61.37-8.83c-5.84-.85-10.89.24-14.66,5.24a43,43,0,0,0-5.75,9.9C87,284,85.1,296,84.53,308.14a147.63,147.63,0,0,0,3,36.49c2.4,11.76,6.06,23,13.2,32.85,4.4,6.08,10,9.93,17.71,10.89,13.58,1.71,27.13,3.7,40.69,5.62,14.72,2.08,29.42,4.23,44.13,6.33,12.58,1.8,25.15,3.65,37.75,5.3C246,406.27,250.9,407.52,256,407.35ZM334.37,87.73c-5.64-.84-10.61-1.6-15.59-2.31-13.49-1.9-27-3.76-40.48-5.67Q256,76.6,233.64,73.4c-11.91-1.7-23.88-3.16-35.72-5.26-9.83-1.74-17.66,1-24.17,8.4a68.58,68.58,0,0,0-13.2,22.77,191.13,191.13,0,0,0-10.17,50,223.4,223.4,0,0,0,2.92,56.22c2.87,16.12,6.74,32,10.26,48,.5,2.3,1.68,3.1,3.82,3.35,4,.45,8.07,1,12.1,1.64,12.08,1.76,24.14,3.63,36.23,5.31,16.31,2.27,32.67,4.23,49,6.64,10.36,1.53,17.66,7.26,21.44,17.25a75.13,75.13,0,0,1,4.25,32.91,36.27,36.27,0,0,1-4.19,15c-2.66,4.79-6.24,6.46-11.63,5.64-9.1-1.4-18.24-2.59-27.34-4-1.93-.31-2.09.36-2.06,1.91a151.83,151.83,0,0,0,4.4,34.09c2.78,10.9,6.75,21.2,14.24,29.91s17.46,10,26.42,2.74a50.3,50.3,0,0,0,12.65-16c5.66-10.68,9.08-22.14,11.59-33.89,3.68-17.29,4.47-34.82,4-52.42A195.4,195.4,0,0,0,312.15,258c-2.74-10.2-5.48-20.4-7.19-30.84-2.58-15.77-2.45-31.67-2.31-47.58.14-15.46,1.52-30.75,5.82-45.67,3.77-13.09,8.14-25.91,16.68-36.85A66.31,66.31,0,0,1,334.37,87.73Zm49.74,75.48a143.4,143.4,0,0,0-6.26-42.07C375,111.69,370.8,103,363.65,96s-16.1-7.58-24.11-1.36c-6.8,5.29-11.34,12.34-15.05,20-5.73,11.79-8.27,24.53-11.08,37.2-.43,1.93.34,2.31,1.84,2.52,12,1.69,24,3.42,36,5.07a11.2,11.2,0,0,1,9.82,9,16.42,16.42,0,0,1,0,6.44c-.65,3.91-3,5.66-6.83,5.06-1.48-.23-3-.4-4.42-.76-1.78-.44-2.24.2-2.43,1.94a66.06,66.06,0,0,0,.16,15.46,45.53,45.53,0,0,0,6.76,19.66c4,6.17,9.18,6.69,14.57,1.63a32.63,32.63,0,0,0,8-12.2C382.2,191.92,384,177.7,384.11,163.21Zm-38.54,55.73a6.15,6.15,0,0,0-.18-1.1c-7.71-16.09-9.05-32.67-3.75-49.73.48-1.54-.26-1.6-1.42-1.76-8.8-1.22-17.59-2.46-26.36-3.79-1.55-.24-1.77.33-1.93,1.67-1.64,13.51-1.56,27.06-.8,40.62.15,2.65.51,5.29.73,7.94.09,1.08.53,1.49,1.68,1.65,5.34.71,10.66,1.6,16,2.36S340,218.2,345.57,218.94ZM282.14,312.6a74.57,74.57,0,0,0-1.2-12.25c-1.13-6.21-3.09-12.1-7.21-17-3.55-4.26-7.57-4.66-12.05-1.36a21.53,21.53,0,0,0-4.58,4.9c-5.51,7.71-8,16.57-9.67,25.69-1,5.16-1.83,4.44,3.9,5.3,7.06,1,14.14,2,21.2,3,3.27.49,4.38,2.09,4.11,5.37-.09,1.08-.12,2.16-.15,3.24s0,2.31,1.07,2.56,1.51-1.06,1.85-1.95A43.87,43.87,0,0,0,282.14,312.6Zm-15.87,18.72c.44-.2,1.52.5,1.67-.91s-.77-1.73-1.79-1.88c-6.15-.89-12.3-1.77-18.46-2.58-.8-.11-1.9-.51-2.16.93s.83,1.65,1.79,1.79C253.56,329.57,259.8,330.42,266.27,331.32Zm85.87-110.73c1.26,4.43,2.37,5.12,6.65,4.43C356.2,224.18,354.3,222.53,352.14,220.59ZM342.89,87.73c3-1.21,5.67-1.38,8.63-2.08C348.22,84.94,345.32,84,342.89,87.73Zm7.86,76.18c-3.18-.84-3.72-.27-4.08,3.78A7.16,7.16,0,0,1,350.75,163.91Zm1.71,6c0-.67-.2-1.43-.92-1.51s-1.06.73-1.19,1.32c-.22,1,.74.8,1.26,1S352.51,170.54,352.46,169.92ZM186.12,63.74c2.27-.55,4.7-.27,7.07-.65C190.85,63.09,188.46,62.33,186.12,63.74ZM308,216.55c-.32,3.32,1.84,2,3.19,2.1A22.23,22.23,0,0,1,308,216.55ZM184.56,64.25l.18-.11c-.05,0-.13-.14-.15-.13a1.18,1.18,0,0,0-.22.17Zm167.17,155.8-.09.13.14,0Z"/><path class="cls-4" d="M334.37,87.73a66.31,66.31,0,0,0-9.22,9.35c-8.54,10.94-12.91,23.76-16.68,36.85-4.3,14.92-5.68,30.21-5.82,45.67-.14,15.91-.27,31.81,2.31,47.58,1.71,10.44,4.45,20.64,7.19,30.84a195.4,195.4,0,0,1,6.28,45.63c.48,17.6-.31,35.13-4,52.42-2.51,11.75-5.93,23.21-11.59,33.89a50.3,50.3,0,0,1-12.65,16c-9,7.24-18.86,6.07-26.42-2.74s-11.46-19-14.24-29.91a151.83,151.83,0,0,1-4.4-34.09c0-1.55.13-2.22,2.06-1.91,9.1,1.44,18.24,2.63,27.34,4,5.39.82,9-.85,11.63-5.64a36.27,36.27,0,0,0,4.19-15,75.13,75.13,0,0,0-4.25-32.91c-3.78-10-11.08-15.72-21.44-17.25-16.29-2.41-32.65-4.37-49-6.64-12.09-1.68-24.15-3.55-36.23-5.31-4-.59-8.06-1.19-12.1-1.64-2.14-.25-3.32-1.05-3.82-3.35-3.52-16-7.39-31.89-10.26-48a223.4,223.4,0,0,1-2.92-56.22,191.13,191.13,0,0,1,10.17-50,68.58,68.58,0,0,1,13.2-22.77c6.51-7.36,14.34-10.14,24.17-8.4,11.84,2.1,23.81,3.56,35.72,5.26Q256,76.61,278.3,79.75c13.49,1.91,27,3.77,40.48,5.67C323.76,86.13,328.73,86.89,334.37,87.73Z"/><path class="cls-4" d="M256,407.35c-5.09.17-10-1.08-15-1.73-12.6-1.65-25.17-3.5-37.75-5.3-14.71-2.1-29.41-4.25-44.13-6.33-13.56-1.92-27.11-3.91-40.69-5.62-7.67-1-13.31-4.81-17.71-10.89-7.14-9.85-10.8-21.09-13.2-32.85a147.63,147.63,0,0,1-3-36.49C85.1,296,87,284,91.61,272.58a43,43,0,0,1,5.75-9.9c3.77-5,8.82-6.09,14.66-5.24q30.67,4.44,61.37,8.83c14.63,2.08,29.28,4.09,43.92,6.16,11.5,1.62,23,3.32,34.5,4.94,1.32.18,1.67.47.73,1.62-10.7,13.05-13.8,28.65-15.19,44.88-1.64,19.12-.18,37.89,5.36,56.31,2.88,9.56,6.68,18.64,13,26.51a3.16,3.16,0,0,1,.29.68Z"/><path class="cls-4" d="M384.11,163.21c-.13,14.49-1.91,28.71-7.21,42.32a32.63,32.63,0,0,1-8,12.2c-5.39,5.06-10.53,4.54-14.57-1.63a45.53,45.53,0,0,1-6.76-19.66,66.06,66.06,0,0,1-.16-15.46c.19-1.74.65-2.38,2.43-1.94,1.45.36,2.94.53,4.42.76,3.87.6,6.18-1.15,6.83-5.06a16.42,16.42,0,0,0,0-6.44,11.2,11.2,0,0,0-9.82-9c-12-1.65-24-3.38-36-5.07-1.5-.21-2.27-.59-1.84-2.52,2.81-12.67,5.35-25.41,11.08-37.2,3.71-7.63,8.25-14.68,15.05-20,8-6.22,16.87-5.73,24.11,1.36s11.39,15.74,14.2,25.19A143.4,143.4,0,0,1,384.11,163.21Z"/><path class="cls-4" d="M345.57,218.94c-5.54-.74-10.79-1.4-16-2.14s-10.65-1.65-16-2.36c-1.15-.16-1.59-.57-1.68-1.65-.22-2.65-.58-5.29-.73-7.94-.76-13.56-.84-27.11.8-40.62.16-1.34.38-1.91,1.93-1.67,8.77,1.33,17.56,2.57,26.36,3.79,1.16.16,1.9.22,1.42,1.76-5.3,17.06-4,33.64,3.75,49.73A6.15,6.15,0,0,1,345.57,218.94Z"/><path class="cls-4" d="M282.14,312.6a43.87,43.87,0,0,1-2.73,17.51c-.34.89-.67,2.22-1.85,1.95s-1.1-1.54-1.07-2.56.06-2.16.15-3.24c.27-3.28-.84-4.88-4.11-5.37-7.06-1.07-14.14-2-21.2-3-5.73-.86-4.86-.14-3.9-5.3,1.71-9.12,4.16-18,9.67-25.69a21.53,21.53,0,0,1,4.58-4.9c4.48-3.3,8.5-2.9,12.05,1.36,4.12,4.93,6.08,10.82,7.21,17A74.57,74.57,0,0,1,282.14,312.6Z"/><path class="cls-4" d="M266.27,331.32c-6.47-.9-12.71-1.75-18.95-2.65-1-.14-2.06-.3-1.79-1.79s1.36-1,2.16-.93c6.16.81,12.31,1.69,18.46,2.58,1,.15,1.94.49,1.79,1.88S266.71,331.12,266.27,331.32Z"/><path class="cls-3" d="M352.14,220.59c2.16,1.94,4.06,3.59,6.65,4.43C354.51,225.71,353.4,225,352.14,220.59Z"/><path class="cls-5" d="M267.07,411.76a32.74,32.74,0,0,0,7,2.9c-2.84.41-5.46-.84-8.64-.93,1.12-.38,2.43-.37,1.32-1.67Z"/><path class="cls-3" d="M342.89,87.73c2.43-3.76,5.33-2.79,8.63-2.08C348.56,86.35,345.93,86.52,342.89,87.73Z"/><path class="cls-3" d="M260,277.38c1.36-2.29,3-3.93,6.06-2.08l-6.1,2.05Z"/><path class="cls-5" d="M276.48,336.85c-4,.18-4.3-.07-3.71-3.71a15.28,15.28,0,0,0,3.68,3.75Z"/><path class="cls-3" d="M350.75,163.91a7.16,7.16,0,0,0-4.08,3.78C347,163.64,347.57,163.07,350.75,163.91Z"/><path class="cls-3" d="M352.46,169.92c.05.62-.21,1-.85.77s-1.48.05-1.26-1c.13-.59.44-1.41,1.19-1.32S352.42,169.25,352.46,169.92Z"/><path class="cls-3" d="M160.46,258.39l2.22,1.86c-2,.3-3.55-.7-5.47-.25,1-1.24,2.91.17,3.28-1.64Z"/><path class="cls-3" d="M186.12,63.74c2.34-1.41,4.73-.65,7.07-.65C190.82,63.47,188.39,63.19,186.12,63.74Z"/><path class="cls-3" d="M308,216.55a22.23,22.23,0,0,0,3.19,2.1C309.86,218.57,307.7,219.87,308,216.55Z"/><path class="cls-5" d="M276.45,336.89h2.1c-1,.54-1.59.61-2.07,0Z"/><path class="cls-3" d="M160.49,258.36l-.32-.29c.4-.17.19.21.29.32Z"/><path class="cls-3" d="M184.56,64.25l-.19-.07a1.18,1.18,0,0,1,.22-.17s.1.08.15.13Z"/><polygon class="cls-3" points="351.73 220.05 351.78 220.2 351.64 220.18 351.73 220.05"/><path class="cls-3" d="M259.94,277.34l-.05.35c-.4-.23,0-.23.09-.31Z"/><path class="cls-4" d="M256,407.37l.16.15c-.05,0-.09-.11-.14-.17Z"/><path class="cls-5" d="M266.78,412.06c-.16-.17-.4-.34-.07-.53.05,0,.24.15.36.23Z"/></g></g></svg>