<svg xmlns="http://www.w3.org/2000/svg" viewBox="0 0 475.03 322.11"><defs><style>.cls-1{fill:#8f7a3c;}.cls-2{fill:#fefefe;}.cls-3{fill:#8f7a3d;}.cls-4{fill:#060502;}.cls-5{fill:#fefdfc;}</style></defs><title>top_1</title><g id="Layer_2" data-name="Layer 2"><g id="Layer_1-2" data-name="Layer 1"><path class="cls-1" d="M237.33.07c57.58,0,115.15-.21,172.73.1,26.69.14,46.05,13.11,58.42,36.53a59.1,59.1,0,0,1,6.54,28q0,96.36,0,192.73a65,65,0,0,1-39.45,59.34,66.4,66.4,0,0,1-26.47,5.37q-171.73,0-343.47,0A65.19,65.19,0,0,1,.7,266.5a57,57,0,0,1-.7-9Q0,161,0,64.56C0,32.3,24.86,4.42,56.87.52a81.21,81.21,0,0,1,10-.44Q152.09,0,237.33.07Zm.07,307.38H408.13a56.5,56.5,0,0,0,12.16-1.15,50.57,50.57,0,0,0,40.14-49.7q.07-95.49,0-191a50.77,50.77,0,0,0-51.16-51q-171.73,0-343.45,0a50.87,50.87,0,0,0-51.17,51q-.09,95.49,0,191a50.53,50.53,0,0,0,3.71,19.25c7.91,19.32,26.37,31.6,47.83,31.61Q151.79,307.49,237.4,307.45Z"/><path class="cls-2" d="M237.4,307.45q-85.6,0-171.22,0c-21.46,0-39.92-12.29-47.83-31.61a50.53,50.53,0,0,1-3.71-19.25q0-95.47,0-191a50.87,50.87,0,0,1,51.17-51q171.72,0,343.45,0a50.77,50.77,0,0,1,51.16,51q0,95.49,0,191a50.57,50.57,0,0,1-40.14,49.7,56.5,56.5,0,0,1-12.16,1.15ZM119.84,56c-10.76-.34-25-.76-39.24-1.24a63.17,63.17,0,0,0-14.92.93c-6.89,1.41-13.51,3.59-17.53,9.91A32.07,32.07,0,0,0,43,86.25c.51,5.33,3.66,8.09,8.89,8.17,1.56,0,2.23-.3,2.14-2-.15-2.91,0-5.84-.05-8.75a6.1,6.1,0,0,1,3-5.41c2.76-1.91,5.93-2.56,9.13-3.07,13.44-2.17,27-.12,40.42-.47,2.12-.06,3.52,1.12,4,3.32a51.26,51.26,0,0,1,1,9.89c1.3,32.4,1.12,64.81.93,97.22a48.84,48.84,0,0,1-1,9.17c-.5,2.55-1.77,3.89-4.57,4.3-10,1.48-20,3.41-30,4.79-2.84.4-3.11,1.54-3,3.83.39,5.69,3.29,8.1,8.91,7.21,2-.33,4.1-.67,6.14-1.08,10.67-2.11,21.3-4.47,32.3-4.26,16.17.32,32.33.43,48.49.61.74,0,1.63.36,2.18-.21a7.31,7.31,0,0,0,2.14-6.34,4.19,4.19,0,0,0-3.5-3.48,47.36,47.36,0,0,0-8.15-1.07c-6.64-.45-13.35,0-19.9-1.5-3.48-.79-4.06-1.61-4.06-5.14v-48c0-21.17,0-42.33-.06-63.5,0-2.35.77-3.34,2.93-3.58s4.45-.64,6.68-.73c8.82-.35,17.65-.19,26.37-2,12.28-2.51,22.39-8.28,29.43-18.87A15.14,15.14,0,0,0,206.54,44c-1.19-6.71-6.85-9.31-12.63-5.77-2.33,1.44-4.55,3.07-6.77,4.69s-2.77,3.56-1.57,6.1a32.61,32.61,0,0,0,2.08,3.69c1.17,1.85.44,2.6-1.48,2.91a116.89,116.89,0,0,1-15.39,1.5C154.94,57.53,139.13,56.79,119.84,56Zm214,74.33c.24-3,.61-5.72.63-8.43,0-4.16-2.26-6.45-6.38-6.79a17.52,17.52,0,0,0-8.26,1.59c-7.07,2.94-14.22,4.36-21.81,2.11-2.22-.66-4.1.38-5.2,2.47a4.83,4.83,0,0,0,1.24,6.08,11.65,11.65,0,0,0,3.74,1.92c3.69,1.27,7.08,3.05,8.93,6.71,2.53,5,4.31,10.22,4.3,16q-.06,58.88,0,117.73c0,1,0,2-.09,3-.17,2.46-1.21,3.81-4,4-3.71.32-5.29,2.8-4.62,6.49.16.89.47,1.77.61,2.66.27,1.75.89,2.7,2.9,1.88a21.74,21.74,0,0,1,3.63-.82c5-1.09,10-2.92,15.06-3.12,11.32-.45,22.51-2.39,33.83-2.69a5.5,5.5,0,0,0,5.14-5.47,3.14,3.14,0,0,0-3.28-3.55,75,75,0,0,0-9.47.37c-4,.44-8.08,1.06-12.17.2-3.76-.78-4.59-1.65-4.55-5.53.19-18,.7-36,.49-54,0-1.33.09-2.67,0-4-.13-1.51.46-1.84,1.86-1.58,2.69.51,5.4.89,8.11,1.34,6.31,1.06,12.59,2.53,19,.83s12-5.29,17.41-9c11.94-8.14,16.76-20.12,17.52-33.91.45-8.07-1.37-16.07-2.16-24.1-1.12-11.41-7.12-19.24-16.79-24.7-6.35-3.59-13.11-4.38-20.25-3.13-7.73,1.36-13.7,5.68-19.24,10.85A23.92,23.92,0,0,1,333.85,130.28Zm-129,39.21c.12,6.81.09,14.11,3.27,21,7.46,16.14,28.53,26.74,45.66,22.55,10.29-2.52,18.66-8.58,26.35-15.62,4.93-4.52,9.6-9.3,12.07-15.7,3.6-9.29,5.3-18.85,3.86-28.85-2-13.87-8.42-25-20.46-32.43-6.24-3.87-12.93-7.17-20.46-5.27-12.68,3.2-25,7.53-36.23,14.44a26.44,26.44,0,0,0-12.41,18.24C205.14,154.82,205,161.91,204.83,169.49Z"/><path class="cls-3" d="M119.84,56c19.29.84,35.1,1.58,50.94,1.15a116.89,116.89,0,0,0,15.39-1.5c1.92-.31,2.65-1.06,1.48-2.91A32.61,32.61,0,0,1,185.57,49c-1.2-2.54-.71-4.42,1.57-6.1s4.44-3.25,6.77-4.69c5.78-3.54,11.44-.94,12.63,5.77a15.14,15.14,0,0,1-2.65,11.31c-7,10.59-17.15,16.36-29.43,18.87-8.72,1.78-17.55,1.62-26.37,2-2.23.09-4.45.48-6.68.73s-2.95,1.23-2.93,3.58c.1,21.17.06,42.33.06,63.5v48c0,3.53.58,4.35,4.06,5.14,6.55,1.49,13.26,1,19.9,1.5a47.36,47.36,0,0,1,8.15,1.07,4.19,4.19,0,0,1,3.5,3.48,7.31,7.31,0,0,1-2.14,6.34c-.55.57-1.44.22-2.18.21-16.16-.18-32.32-.29-48.49-.61-11-.21-21.63,2.15-32.3,4.26-2,.41-4.09.75-6.14,1.08-5.62.89-8.52-1.52-8.91-7.21-.16-2.29.11-3.43,3-3.83,10-1.38,20-3.31,30-4.79,2.8-.41,4.07-1.75,4.57-4.3a48.84,48.84,0,0,0,1-9.17c.19-32.41.37-64.82-.93-97.22a51.26,51.26,0,0,0-1-9.89c-.53-2.2-1.93-3.38-4-3.32-13.47.35-27-1.7-40.42.47-3.2.51-6.37,1.16-9.13,3.07a6.1,6.1,0,0,0-3,5.41c.05,2.91-.1,5.84.05,8.75.09,1.74-.58,2.07-2.14,2-5.23-.08-8.38-2.84-8.89-8.17a32.07,32.07,0,0,1,5.12-20.7c4-6.32,10.64-8.5,17.53-9.91a63.17,63.17,0,0,1,14.92-.93C94.84,55.19,109.08,55.61,119.84,56ZM168.15,204.4a36.48,36.48,0,0,0-5.89-.83c-7.13-.53-14.35,0-21.37-1.77-5.25-1.36-7.36-4.1-7.36-9.48q0-56.74,0-113.5c0-3.46,1.08-5,4.34-6.12a35.11,35.11,0,0,1,10.58-1.6c7.82-.15,15.65-.19,23.41-1.51,10.64-1.81,19.81-6.18,26.44-15,1.67-2.22,3.16-4.56,3.51-7.36.24-2-.14-3.93-1.85-5.16s-3,.26-4.31,1a13.62,13.62,0,0,0-1.47,1c-3.85,2.62-3.85,2.62-1.92,6.7,2.59,5.49,1.34,8.27-4.59,9.65a85.18,85.18,0,0,1-16.85,1.79c-21.76.63-43.46-.92-65.19-1.6-7.48-.24-15-.2-22.47-.71-7.17-.48-14.35-.38-21.25,2-3.8,1.3-7.48,3-9.69,6.64a29.77,29.77,0,0,0-4.07,11.19c-.38,2.64-.57,5.34.59,7.91A9.24,9.24,0,0,0,49,84.55c-.24-5.34,2.14-9.06,6.84-11.49s9.66-2.92,14.72-3.47c11.86-1.29,23.72.47,35.58.08,5.35-.18,8.23,2.55,9.4,7.84a45,45,0,0,1,1,8.17c.26,8.33.58,16.65.73,25q.66,37.5.19,75c-.05,4.14-.33,8.34-1.91,12.28-1,2.39-2.23,4.57-5,5.06-5.31.93-10.65,1.75-16,2.62-4.5.74-9,1.46-13.5,2.26-.55.1-1.56,0-1.43,1s1,.76,1.64.69c1.64-.19,3.28-.45,4.91-.75,6.63-1.21,13.17-2.85,19.86-3.74,13.19-1.77,26.45-.85,39.68-.87C153.15,204.22,160.64,204.75,168.15,204.4Z"/><path class="cls-3" d="M333.85,130.28a23.92,23.92,0,0,0,6.14-4.57c5.54-5.17,11.51-9.49,19.24-10.85,7.14-1.25,13.9-.46,20.25,3.13,9.67,5.46,15.67,13.29,16.79,24.7.79,8,2.61,16,2.16,24.1-.76,13.79-5.58,25.77-17.52,33.91-5.43,3.71-10.94,7.3-17.41,9s-12.72.23-19-.83c-2.71-.45-5.42-.83-8.11-1.34-1.4-.26-2,.07-1.86,1.58.11,1.33,0,2.67,0,4,.21,18-.3,36-.49,54,0,3.88.79,4.75,4.55,5.53,4.09.86,8.14.24,12.17-.2a75,75,0,0,1,9.47-.37,3.14,3.14,0,0,1,3.28,3.55,5.5,5.5,0,0,1-5.14,5.47c-11.32.3-22.51,2.24-33.83,2.69-5.06.2-10,2-15.06,3.12a21.74,21.74,0,0,0-3.63.82c-2,.82-2.63-.13-2.9-1.88-.14-.89-.45-1.77-.61-2.66-.67-3.69.91-6.17,4.62-6.49,2.76-.23,3.8-1.58,4-4,.07-1,.09-2,.09-3q0-58.86,0-117.73c0-5.74-1.77-11-4.3-16-1.85-3.66-5.24-5.44-8.93-6.71a11.65,11.65,0,0,1-3.74-1.92,4.83,4.83,0,0,1-1.24-6.08c1.1-2.09,3-3.13,5.2-2.47,7.59,2.25,14.74.83,21.81-2.11a17.52,17.52,0,0,1,8.26-1.59c4.12.34,6.43,2.63,6.38,6.79C334.46,124.56,334.09,127.27,333.85,130.28Zm1.44,5.05c-4.78,1.2-7-.67-6.55-5.56.14-1.49.36-3,.57-4.44.75-5.21-.51-6.27-5.63-4.71-.15,0-.32.08-.47.14-7.29,2.9-14.7,5.12-22.7,3.86-.11-.4-.41-.43-.75-.38-.05,0-.09.12-.13.18l.9.17c.53.73,1.4.82,2.14,1.17a17.19,17.19,0,0,1,7.83,6.75c3.25,5.62,5.5,11.65,5.51,18.21q.09,60,0,120c0,3.85-.53,7.66-4.06,10.42,8.08-2.7,16.5-2.28,24.84-3.51-6.59-1.58-8-6.11-7.8-12,.65-20.32.57-40.65.46-61,0-2.21.77-2.68,2.75-2.52a152,152,0,0,1,15.3,2.23c4.32.78,8.68,1.77,13.11.92,6.9-1.33,12.53-5.25,18.13-9.17,10-7,13.92-17.37,14.69-29,.54-8.15-1.15-16.24-2.24-24.32-.65-4.79-1.68-9.5-5-13.08-9.66-10.32-19.85-13.44-33.29-7.52-3.52,1.54-6.28,4.24-9.34,7.28a9.15,9.15,0,0,0,4.23-1c6.69-2.22,12.47-.63,17.5,4.09A38.36,38.36,0,0,1,375.31,147,76.1,76.1,0,0,1,380,183.31c-1.25,9.94-7.31,16.39-17,17.09a38.47,38.47,0,0,1-30.12-10.82,9.81,9.81,0,0,1-2.86-6,121.36,121.36,0,0,1-.23-30.88c.7-6.08,2-12,5.83-17l.27-.35ZM334,167.89a114.78,114.78,0,0,0,.48,12.43,9.92,9.92,0,0,0,4.31,8c6.84,4.69,14.3,7.41,22.66,7.28,6.28-.1,10.72-3.45,12.64-9.44a34.47,34.47,0,0,0,1.41-9.09c.25-5.54-.8-10.95-1.57-16.37-1.36-9.6-5.12-18-12.38-24.69-2.68-2.45-5.72-3.88-9.53-3.43a18.36,18.36,0,0,0-16,13.7C334.21,153.19,333.93,160.25,334,167.89ZM310.67,281.5c-.23-.18-.32-.29-.42-.31a.91.91,0,0,0-.46,0c-.21.06-.2.22,0,.27A4.47,4.47,0,0,0,310.67,281.5Zm32.51-151.64.16.1,0-.16Z"/><path class="cls-3" d="M204.83,169.49c.18-7.58.31-14.67,1.65-21.64a26.44,26.44,0,0,1,12.41-18.24c11.21-6.91,23.55-11.24,36.23-14.44,7.53-1.9,14.22,1.4,20.46,5.27,12,7.48,18.46,18.56,20.46,32.43,1.44,10-.26,19.56-3.86,28.85-2.47,6.4-7.14,11.18-12.07,15.7-7.69,7-16.06,13.1-26.35,15.62-17.13,4.19-38.2-6.41-45.66-22.55C204.92,183.6,205,176.3,204.83,169.49Zm5-.08c.3,6.7.05,13.83,3.65,20.63,8,15.21,30.65,23.41,45.46,16a76.57,76.57,0,0,0,25.14-20.14,19.61,19.61,0,0,0,3.24-5.32c3.82-9.8,5.45-19.81,3.21-30.3-3.09-14.5-11.68-24.16-25.4-29.37-2.72-1-5.64-1.79-8.56-1-11.83,3.21-23.4,7.13-34.07,13.31a22.11,22.11,0,0,0-11,15.07C210.07,155.08,210.05,162,209.81,169.41Z"/><path class="cls-4" d="M168.15,204.4c-7.51.35-15-.18-22.49-.18-13.23,0-26.49-.9-39.68.87-6.69.89-13.23,2.53-19.86,3.74-1.63.3-3.27.56-4.91.75-.62.07-1.51.21-1.64-.69s.88-.92,1.43-1c4.49-.8,9-1.52,13.5-2.26,5.33-.87,10.67-1.69,16-2.62,2.81-.49,4.09-2.67,5-5.06,1.58-3.94,1.86-8.14,1.91-12.28q.48-37.5-.19-75c-.15-8.33-.47-16.65-.73-25a45,45,0,0,0-1-8.17c-1.17-5.29-4-8-9.4-7.84-11.86.39-23.72-1.37-35.58-.08-5.06.55-10.09,1.08-14.72,3.47S48.78,79.21,49,84.55a9.24,9.24,0,0,1-.28,2.94c-1.16-2.57-1-5.27-.59-7.91a29.77,29.77,0,0,1,4.07-11.19c2.21-3.66,5.89-5.34,9.69-6.64,6.9-2.35,14.08-2.45,21.25-2,7.48.51,15,.47,22.47.71,21.73.68,43.43,2.23,65.19,1.6a85.18,85.18,0,0,0,16.85-1.79c5.93-1.38,7.18-4.16,4.59-9.65-1.93-4.08-1.93-4.08,1.92-6.7a13.62,13.62,0,0,1,1.47-1c1.36-.69,2.66-2.14,4.31-1s2.09,3.19,1.85,5.16c-.35,2.8-1.84,5.14-3.51,7.36-6.63,8.84-15.8,13.21-26.44,15-7.76,1.32-15.59,1.36-23.41,1.51a35.11,35.11,0,0,0-10.58,1.6c-3.26,1.08-4.34,2.66-4.34,6.12q0,56.75,0,113.5c0,5.38,2.11,8.12,7.36,9.48,7,1.81,14.24,1.24,21.37,1.77A36.48,36.48,0,0,1,168.15,204.4Z"/><path class="cls-4" d="M300.51,124.62c8,1.26,15.41-1,22.7-3.86.15-.06.32-.09.47-.14,5.12-1.56,6.38-.5,5.63,4.71-.21,1.47-.43,3-.57,4.44-.45,4.89,1.77,6.76,6.55,5.56a3.8,3.8,0,0,0,.33.37c-3.86,5-5.13,10.94-5.83,17A121.36,121.36,0,0,0,330,183.6a9.81,9.81,0,0,0,2.86,6A38.47,38.47,0,0,0,363,200.4c9.66-.7,15.72-7.15,17-17.09A76.1,76.1,0,0,0,375.31,147a38.36,38.36,0,0,0-10.05-14.45c-5-4.72-10.81-6.31-17.5-4.09a9.15,9.15,0,0,1-4.23,1c3.06-3,5.82-5.74,9.34-7.28,13.44-5.92,23.63-2.8,33.29,7.52,3.34,3.58,4.37,8.29,5,13.08,1.09,8.08,2.78,16.17,2.24,24.32-.77,11.6-4.64,21.94-14.69,29-5.6,3.92-11.23,7.84-18.13,9.17-4.43.85-8.79-.14-13.11-.92a152,152,0,0,0-15.3-2.23c-2-.16-2.76.31-2.75,2.52.11,20.32.19,40.65-.46,61-.19,5.91,1.21,10.44,7.8,12-8.34,1.23-16.76.81-24.84,3.51,3.53-2.76,4.06-6.57,4.06-10.42q.08-60,0-120c0-6.56-2.26-12.59-5.51-18.21a17.19,17.19,0,0,0-7.83-6.75c-.74-.35-1.61-.44-2.14-1.17Z"/><path class="cls-5" d="M334,167.89c-.1-7.64.18-14.7,2-21.61a18.36,18.36,0,0,1,16-13.7c3.81-.45,6.85,1,9.53,3.43,7.26,6.65,11,15.09,12.38,24.69.77,5.42,1.82,10.83,1.57,16.37a34.47,34.47,0,0,1-1.41,9.09c-1.92,6-6.36,9.34-12.64,9.44-8.36.13-15.82-2.59-22.66-7.28a9.92,9.92,0,0,1-4.31-8A114.78,114.78,0,0,1,334,167.89Z"/><path class="cls-4" d="M310.67,281.5a4.47,4.47,0,0,1-.85,0c-.23-.05-.24-.21,0-.27a.91.91,0,0,1,.46,0C310.35,281.21,310.44,281.32,310.67,281.5Z"/><path class="cls-4" d="M300.53,124.59l-.9-.17c0-.06.08-.17.13-.18.34,0,.64,0,.75.38Z"/><polygon class="cls-4" points="343.18 129.86 343.36 129.8 343.34 129.96 343.18 129.86"/><path class="cls-4" d="M335.29,135.33l.6,0-.27.35A3.8,3.8,0,0,1,335.29,135.33Z"/><path class="cls-4" d="M209.81,169.41c.24-7.4.26-14.33,1.69-21.12a22.11,22.11,0,0,1,11-15.07c10.67-6.18,22.24-10.1,34.07-13.31,2.92-.8,5.84,0,8.56,1,13.72,5.21,22.31,14.87,25.4,29.37,2.24,10.49.61,20.5-3.21,30.3a19.61,19.61,0,0,1-3.24,5.32A76.57,76.57,0,0,1,258.92,206c-14.81,7.42-37.43-.78-45.46-16C209.86,183.24,210.11,176.11,209.81,169.41Zm65.74,0c-.06-4.83.27-8.67-.54-12.45-3-14.3-11.11-24.49-24.72-30a14.75,14.75,0,0,0-13.67,1.14c-10.67,6.39-15.29,16.39-15.32,28.26C221.23,178.25,235,195.79,256,201.5A14.19,14.19,0,0,0,273.64,191C275.28,183.59,275.43,176,275.55,169.44Z"/><path class="cls-3" d="M275.55,169.44c-.12,6.57-.27,14.15-1.91,21.58A14.19,14.19,0,0,1,256,201.5c-21-5.71-34.79-23.25-34.72-45.14,0-11.87,4.65-21.87,15.32-28.26A14.75,14.75,0,0,1,250.29,127C263.9,132.5,272,142.69,275,157,275.82,160.77,275.49,164.61,275.55,169.44Zm-5-.63c0-2.41,0-4.82,0-7.24-.24-12.54-10.53-26.33-22.35-30.08a10.55,10.55,0,0,0-8.43.61c-8.1,4.14-11.89,11.41-13.11,19.8-2.91,20.2,10.8,40.15,30.72,44.6,6.67,1.49,10.74-1.6,11.68-7.3A130.15,130.15,0,0,0,270.52,168.81Z"/><path class="cls-5" d="M270.52,168.81A130.15,130.15,0,0,1,269,189.2c-.94,5.7-5,8.79-11.68,7.3-19.92-4.45-33.63-24.4-30.72-44.6,1.22-8.39,5-15.66,13.11-19.8a10.55,10.55,0,0,1,8.43-.61c11.82,3.75,22.11,17.54,22.35,30.08C270.56,164,270.52,166.4,270.52,168.81Z"/></g></g></svg>